<svg width="134" height="134" viewBox="0 0 134 134" fill="none" xmlns="http://www.w3.org/2000/svg">
<g clip-path="url(#clip0_1884_2735)">
<path d="M114.314 114.314C140.329 88.2986 140.329 46.1197 114.314 20.1046C88.2986 -5.91055 46.1197 -5.91056 20.1046 20.1046C-5.91056 46.1197 -5.91056 88.2986 20.1046 114.314C46.1197 140.329 88.2986 140.329 114.314 114.314Z" fill="#E8EDEC"/>
<mask id="mask0_1884_2735" style="mask-type:luminance" maskUnits="userSpaceOnUse" x="0" y="0" width="134" height="134">
<path d="M114.314 114.314C140.329 88.2986 140.329 46.1197 114.314 20.1046C88.2986 -5.91055 46.1197 -5.91056 20.1046 20.1046C-5.91056 46.1197 -5.91056 88.2986 20.1046 114.314C46.1197 140.329 88.2986 140.329 114.314 114.314Z" fill="white"/>
</mask>
<g mask="url(#mask0_1884_2735)">
<path d="M79.4929 102H54.9297L55.8316 75.5213H78.591L79.4929 102Z" fill="#FF8765"/>
<path d="M79.1262 91.2055C75.5525 93.1691 71.5057 94.2916 67.2115 94.2916C62.9184 94.2916 58.8706 93.1691 55.2969 91.2055L55.8319 75.5203H78.5912L79.1262 91.2055Z" fill="#CE6042"/>
<path d="M31.8748 64.0396C35.8721 68.3059 42.1567 68.912 45.9139 65.393C49.671 61.8739 49.4762 55.5625 45.4799 51.2962C41.4826 47.0298 35.198 46.4237 31.4408 49.9438C27.6837 53.4608 27.8775 59.7732 31.8748 64.0396Z" fill="#FF8765"/>
<path d="M33.7559 53.2928C33.7559 53.2928 42.102 52.4743 43.1977 61.1472L33.7559 53.2928Z" fill="#CE6042"/>
<path d="M102.549 64.0396C98.5516 68.3059 92.2669 68.912 88.5098 65.393C84.7526 61.8739 84.9475 55.5625 88.9438 51.2962C92.9411 47.0298 99.2257 46.4237 102.983 49.9438C106.74 53.4608 106.545 59.7732 102.549 64.0396Z" fill="#FF8765"/>
<path d="M100.667 53.2928C100.667 53.2928 92.3213 52.4743 91.2256 61.1472L100.667 53.2928Z" fill="#CE6042"/>
<path d="M67.2116 90.0675C53.59 90.0675 42.4453 78.9228 42.4453 65.3012V44.2189C42.4453 30.5973 53.59 19.4526 67.2116 19.4526C80.8332 19.4526 91.9779 30.5973 91.9779 44.2189V65.3012C91.9779 78.9228 80.8332 90.0675 67.2116 90.0675Z" fill="#FF8765"/>
<path d="M91.9779 48.9542C92.8386 49.1119 91.3285 48.8975 91.9779 48.9542Z" fill="#E6B85C"/>
<path d="M94.471 34.709C92.8816 26.9587 83.9221 19.4526 67.2113 16.1552C56.9696 14.1349 53.8659 19.4443 52.9444 23.387C49.6078 24.223 41.3029 27.138 39.7114 35.5924C38.9693 39.5299 42.4429 48.9532 42.4429 48.9532C42.4429 48.9532 50.1345 43.0397 52.9341 27.5482C52.9382 27.5524 52.9444 27.5586 52.9485 27.5616C53.0341 30.8271 54.1679 39.5639 63.6902 41.7337L55.3317 29.7201C61.1298 34.7616 75.4894 45.931 91.9776 48.9532C91.9776 48.9532 95.7461 40.9266 94.471 34.709Z" fill="#E6B85C"/>
<path d="M69.4789 67.3215C69.282 67.3215 69.0831 67.2462 68.9326 67.0958C68.6306 66.7937 68.6306 66.3041 68.9326 66.0021L71.2817 63.6499C68.4141 60.7163 69.1934 55.7037 69.2305 55.4769C69.2985 55.0553 69.6912 54.7647 70.1169 54.8389C70.5375 54.9069 70.824 55.3038 70.756 55.7253C70.7477 55.7759 69.9809 60.7782 72.8784 63.0046C73.0546 63.1397 73.1639 63.3458 73.1783 63.5674C73.1938 63.7891 73.1123 64.0065 72.9536 64.1642L70.0252 67.0958C69.8747 67.2452 69.6768 67.3215 69.4789 67.3215Z" fill="#CE6042"/>
<path d="M51.7676 46.9721C52.8138 43.7478 59.5705 41.577 62.6958 45.9856L51.7676 46.9721Z" fill="#601222"/>
<path d="M82.5679 46.9721C81.5216 43.7478 74.7649 41.577 71.6396 45.9856L82.5679 46.9721Z" fill="#601222"/>
<path d="M57.2314 68.3626C58.3138 72.0311 65.5642 75.5007 71.0386 71.6137L57.2314 68.3626Z" fill="#E6F2FF"/>
<path d="M57.2894 58.562C56.5513 58.562 55.9463 57.958 55.9463 57.2189V52.3939C55.9463 51.6559 56.5503 51.0508 57.2894 51.0508C58.0274 51.0508 58.6325 51.6548 58.6325 52.3939V57.2189C58.6325 57.957 58.0284 58.562 57.2894 58.562Z" fill="#601222"/>
<path d="M77.1331 58.562C76.395 58.562 75.791 57.958 75.791 57.2189V52.3939C75.791 51.6559 76.395 51.0508 77.1331 51.0508C77.8711 51.0508 78.4762 51.6548 78.4762 52.3939V57.2189C78.4762 57.957 77.8721 58.562 77.1331 58.562Z" fill="#601222"/>
<path d="M123.358 142.999H10.9834C10.9834 118.703 30.7845 98.7991 55.0488 98.6342C55.0488 105.355 60.4912 110.808 67.2119 110.808C73.9325 110.808 79.3749 105.355 79.3749 98.6342C103.598 98.8404 123.358 118.724 123.358 142.999Z" fill="#166373"/>
<path d="M79.375 98.6342C79.375 105.355 73.9325 110.808 67.2119 110.808C60.4913 110.808 55.0488 105.355 55.0488 98.6342H79.375Z" fill="#FF8765"/>
</g>
</g>
<defs>
<clipPath id="clip0_1884_2735">
<rect width="134" height="134" fill="white"/>
</clipPath>
</defs>
</svg>
