<svg width="134" height="134" viewBox="0 0 134 134" fill="none" xmlns="http://www.w3.org/2000/svg">
<g clip-path="url(#clip0_1884_2739)">
<path d="M114.314 114.314C140.329 88.2986 140.329 46.1197 114.314 20.1046C88.2986 -5.91055 46.1197 -5.91056 20.1046 20.1046C-5.91056 46.1197 -5.91056 88.2986 20.1046 114.314C46.1197 140.329 88.2986 140.329 114.314 114.314Z" fill="#E8EDEC"/>
<mask id="mask0_1884_2739" style="mask-type:luminance" maskUnits="userSpaceOnUse" x="0" y="0" width="134" height="134">
<path d="M114.314 114.314C140.329 88.2986 140.329 46.1197 114.314 20.1046C88.2986 -5.91055 46.1197 -5.91056 20.1046 20.1046C-5.91056 46.1197 -5.91056 88.2986 20.1046 114.314C46.1197 140.329 88.2986 140.329 114.314 114.314Z" fill="white"/>
</mask>
<g mask="url(#mask0_1884_2739)">
<path d="M37.6311 57.0148C35.6335 65.5774 43.023 71.3899 41.8315 76.2974C40.6533 81.1905 34.914 84.9611 37.4651 91.8652C38.9206 95.7883 42.5808 98.6435 44.0085 102.872C49.2901 103.676 61.3944 104.729 67.2142 104.729C73.0339 104.729 85.1382 103.676 90.4199 102.872C91.8475 98.6435 95.5077 95.7883 96.9632 91.8652C99.5133 84.9621 93.775 81.1915 92.5969 76.2974C91.4043 71.3899 98.7938 65.5774 96.7972 57.0148H37.6311Z" fill="#E6B85C"/>
<path d="M123.359 143.017H10.9844C10.9844 130.112 16.5711 118.444 25.4358 110.321H108.907C117.772 118.444 123.359 130.112 123.359 143.017Z" fill="#169177"/>
<path d="M108.907 110.321H25.4355C33.3415 103.085 43.8554 98.6528 55.3485 98.6528H78.9943C90.4874 98.6528 101.001 103.085 108.907 110.321Z" fill="#FF8765"/>
<path d="M79.4559 102.014H54.8916L55.7946 75.5347H78.5529L79.4559 102.014Z" fill="#FF8765"/>
<path d="M79.0881 91.2199C75.5144 93.1835 71.4676 94.305 67.1735 94.305C62.8793 94.305 58.8325 93.1825 55.2588 91.2199L55.7938 75.5347H78.5521L79.0881 91.2199Z" fill="#CE6042"/>
<path d="M31.8373 64.0539C35.8346 68.3203 42.1192 68.9264 45.8764 65.4063C49.6325 61.8873 49.4387 55.5759 45.4424 51.3095C41.4451 47.0432 35.1605 46.4371 31.4034 49.9572C27.6462 53.4752 27.841 59.7866 31.8373 64.0539Z" fill="#FF8765"/>
<path d="M33.7188 53.3072C33.7188 53.3072 42.0649 52.4887 43.1606 61.1627L33.7188 53.3072Z" fill="#CE6042"/>
<path d="M102.512 64.0539C98.5144 68.3203 92.2298 68.9264 88.4727 65.4063C84.7155 61.8873 84.9103 55.5759 88.9066 51.3095C92.904 47.0432 99.1886 46.4371 102.946 49.9572C106.703 53.4752 106.508 59.7866 102.512 64.0539Z" fill="#FF8765"/>
<path d="M100.63 53.3072C100.63 53.3072 92.2842 52.4887 91.1885 61.1627L100.63 53.3072Z" fill="#CE6042"/>
<path d="M67.1755 90.0819C53.5538 90.0819 42.4092 78.9372 42.4092 65.3156V44.2333C42.4092 30.6117 53.5538 19.467 67.1755 19.467C80.7971 19.467 91.9417 30.6117 91.9417 44.2333V65.3156C91.9417 78.9372 80.796 90.0819 67.1755 90.0819Z" fill="#FF8765"/>
<path d="M69.4427 67.3349C69.2459 67.3349 69.0469 67.2597 68.8964 67.1092C68.5944 66.8071 68.5944 66.3175 68.8964 66.0155L71.2456 63.6633C68.378 60.7297 69.1572 55.7161 69.1943 55.4893C69.2634 55.0677 69.653 54.7781 70.0808 54.8513C70.5013 54.9193 70.7879 55.3161 70.7199 55.7377C70.7116 55.7882 69.9447 60.7916 72.8422 63.018C73.0185 63.1531 73.1277 63.3592 73.1422 63.5808C73.1576 63.8024 73.0762 64.02 72.9175 64.1777L69.989 67.1081C69.8386 67.2596 69.6406 67.3349 69.4427 67.3349Z" fill="#CE6042"/>
<path d="M51.7314 46.9855C52.7777 43.7612 59.5344 41.5904 62.6597 45.999L51.7314 46.9855Z" fill="#601222"/>
<path d="M82.5317 46.9855C81.4855 43.7612 74.7288 41.5904 71.6035 45.999L82.5317 46.9855Z" fill="#601222"/>
<path d="M57.253 51.0652C56.5149 51.0652 55.9099 51.6692 55.9099 52.4083V56.1283L52.7217 53.9678C52.7217 53.9678 52.7402 55.7006 54.1926 56.6375C54.7059 56.9684 55.3079 57.1168 55.9099 57.1447V57.2323C55.9099 57.9713 56.5139 58.5754 57.253 58.5754C57.991 58.5754 58.596 57.9713 58.596 57.2323V52.4072C58.595 51.6692 57.991 51.0652 57.253 51.0652Z" fill="#601222"/>
<path d="M78.439 56.1284V52.4073C78.439 51.6693 77.835 51.0642 77.096 51.0642C76.3579 51.0642 75.7539 51.6682 75.7539 52.4073V57.2323C75.7539 57.9714 76.3579 58.5754 77.096 58.5754C77.835 58.5754 78.439 57.9714 78.439 57.2323V57.1447C79.041 57.1169 79.643 56.9685 80.1574 56.6376C81.6097 55.7006 81.6282 53.9679 81.6282 53.9679L78.439 56.1284Z" fill="#601222"/>
<path d="M65.5986 74.1101C64.3926 74.1101 63.1629 73.903 61.9517 73.4845C59.2078 72.5341 57.0504 70.6158 56.4536 68.5955C56.333 68.1863 56.567 67.7565 56.9762 67.6359C57.3833 67.5132 57.8152 67.7482 57.9369 68.1585C58.3894 69.6912 60.2056 71.2446 62.4578 72.0239C65.2996 73.0072 68.2507 72.6341 70.5545 70.9993C70.905 70.7509 71.3863 70.8343 71.6327 71.1817C71.8801 71.5301 71.7976 72.0135 71.4502 72.2599C69.7237 73.4824 67.6982 74.1101 65.5986 74.1101Z" fill="#CE6042"/>
<path d="M88.8056 26.0711C85.8535 23.488 82.5055 21.3585 79.1545 19.3392C67.0893 12.0661 57.3455 20.205 54.7428 22.7541C52.9606 23.2747 43.1631 26.3876 40.6305 32.6124C37.6042 40.0504 42.4076 48.9676 42.4076 48.9676C42.4076 48.9676 52.2627 40.4318 54.8531 23.8158C57.2743 24.8837 64.967 28.4471 73.5275 34.1946C85.7772 42.4191 92.1442 48.9687 92.1442 48.9687C93.0122 46.7185 93.878 44.3498 94.4284 41.9945C95.887 35.7408 93.4409 30.1252 88.8056 26.0711Z" fill="#E6B85C"/>
</g>
</g>
<defs>
<clipPath id="clip0_1884_2739">
<rect width="134" height="134" fill="white"/>
</clipPath>
</defs>
</svg>
