<svg width="134" height="134" viewBox="0 0 134 134" fill="none" xmlns="http://www.w3.org/2000/svg">
<g clip-path="url(#clip0_1884_2742)">
<path d="M114.314 114.314C140.329 88.2986 140.329 46.1198 114.314 20.1046C88.2986 -5.91051 46.1197 -5.91053 20.1046 20.1046C-5.91056 46.1197 -5.91055 88.2986 20.1046 114.314C46.1197 140.329 88.2986 140.329 114.314 114.314Z" fill="#E8EDEC"/>
<mask id="mask0_1884_2742" style="mask-type:luminance" maskUnits="userSpaceOnUse" x="0" y="0" width="134" height="134">
<path d="M114.314 114.314C140.329 88.2985 140.329 46.1197 114.314 20.1046C88.2986 -5.91057 46.1197 -5.9106 20.1046 20.1045C-5.91056 46.1197 -5.91055 88.2986 20.1046 114.314C46.1197 140.329 88.2986 140.329 114.314 114.314Z" fill="white"/>
</mask>
<g mask="url(#mask0_1884_2742)">
<path d="M79.4949 102.008H54.9316L55.8336 75.5294H78.593L79.4949 102.008Z" fill="#FF8765"/>
<path d="M79.1281 91.2136C75.5545 93.1773 71.5077 94.2998 67.2135 94.2998C62.9203 94.2998 58.8725 93.1773 55.2988 91.2136L55.8338 75.5284H78.5932L79.1281 91.2136Z" fill="#CE6042"/>
<path d="M31.8767 64.0477C35.8741 68.3141 42.1587 68.9202 45.9158 65.4011C49.673 61.8821 49.4782 55.5707 45.4819 51.3033C41.4845 47.0369 35.1999 46.4308 31.4428 49.9509C27.6856 53.47 27.8794 59.7814 31.8767 64.0477Z" fill="#FF8765"/>
<path d="M33.7578 53.3009C33.7578 53.3009 42.104 52.4825 43.1997 61.1564L33.7578 53.3009Z" fill="#CE6042"/>
<path d="M102.551 64.0477C98.5535 68.3141 92.2689 68.9202 88.5117 65.4011C84.7546 61.8821 84.9494 55.5707 88.9457 51.3033C92.943 47.0369 99.2276 46.4308 102.985 49.9509C106.742 53.47 106.547 59.7814 102.551 64.0477Z" fill="#FF8765"/>
<path d="M100.669 53.3009C100.669 53.3009 92.3232 52.4825 91.2275 61.1564L100.669 53.3009Z" fill="#CE6042"/>
<path d="M67.2136 90.0757C53.5919 90.0757 42.4473 78.9311 42.4473 65.3094V44.2271C42.4473 30.6055 53.5919 19.4608 67.2136 19.4608C80.8352 19.4608 91.9799 30.6055 91.9799 44.2271V65.3094C91.9799 78.9311 80.8352 90.0757 67.2136 90.0757Z" fill="#FF8765"/>
<path d="M94.9101 40.2061C93.4258 28.2182 85.0457 17.3281 67.2546 17.3281C49.4635 17.3281 41.0834 28.2182 39.5991 40.2061C39.2898 42.6387 39.9289 45.0919 41.2998 47.1225L42.444 48.8233L49.6284 40.474L48.2163 38.0105C47.3814 36.5468 47.1546 34.8254 47.5772 33.1968C48.3297 30.3313 50.9169 28.4141 53.7721 28.4141C54.1844 28.4141 54.5967 28.4553 55.0194 28.5377L67.2546 31.9805L79.4898 28.5377C79.9124 28.4553 80.3247 28.4141 80.737 28.4141C83.5923 28.4141 86.1795 30.3313 86.932 33.1968C87.3546 34.8254 87.1278 36.5468 86.2929 38.0105L84.8808 40.474L92.0652 48.8233L93.2094 47.1225C94.5803 45.0919 95.2193 42.6387 94.9101 40.2061Z" fill="#166373"/>
<path d="M91.5701 69.7479C89.4673 81.2719 79.3142 90.0747 67.213 90.0747C55.1221 90.0747 44.9999 81.3131 42.8662 69.82V69.686C42.8662 69.686 53.6893 79.066 54.9262 78.4682C55.5859 78.159 55.7611 69.315 56.8847 68.3563C58.2762 67.1503 76.2322 67.1503 77.6238 68.3563C78.7473 69.315 78.9225 78.159 79.5822 78.4682C80.7573 79.0351 90.6217 70.5622 91.5701 69.7479Z" fill="#166373"/>
<path d="M69.5238 67.3287C69.3269 67.3287 69.128 67.2534 68.9775 67.1019C68.6755 66.7999 68.6755 66.3103 68.9775 66.0093L71.3266 63.6581C68.4611 60.7245 69.2383 55.7109 69.2754 55.4841C69.3444 55.0636 69.7382 54.7832 70.1618 54.8461C70.5824 54.9141 70.8679 55.3109 70.8009 55.7325C70.7927 55.783 70.0268 60.7864 72.9233 63.0128C73.0995 63.1489 73.2088 63.353 73.2232 63.5757C73.2387 63.7973 73.1562 64.0158 72.9985 64.1725L70.0701 67.103C69.9196 67.2534 69.7217 67.3287 69.5238 67.3287Z" fill="#CE6042"/>
<path d="M51.8125 46.9803C52.8587 43.756 59.6154 41.5852 62.7407 45.9938L51.8125 46.9803Z" fill="#166373"/>
<path d="M82.6138 46.9803C81.5675 43.756 74.8108 41.5852 71.6855 45.9938L82.6138 46.9803Z" fill="#166373"/>
<path d="M57.3343 58.5702C56.5963 58.5702 55.9912 57.9662 55.9912 57.2272V52.4021C55.9912 51.6631 56.5952 51.059 57.3343 51.059C58.0723 51.059 58.6774 51.6631 58.6774 52.4021V57.2272C58.6774 57.9662 58.0734 58.5702 57.3343 58.5702Z" fill="#601222"/>
<path d="M77.179 58.5702C76.4409 58.5702 75.8369 57.9662 75.8369 57.2272V52.4021C75.8369 51.6631 76.4409 51.059 77.179 51.059C77.917 51.059 78.5221 51.6631 78.5221 52.4021V57.2272C78.521 57.9662 77.917 58.5702 77.179 58.5702Z" fill="#601222"/>
<path d="M75.5677 70.8951C74.3287 73.5906 71.0663 75.4996 67.2432 75.4996C63.4324 75.4996 60.169 73.5906 58.9424 70.8951H75.5677Z" fill="#E6F2FF"/>
<path d="M123.401 143.007H11.0264C11.0264 120.299 28.3227 101.425 50.4017 98.931L67.2136 115.248L84.0254 98.931C106.105 101.425 123.401 120.299 123.401 143.007Z" fill="#DCFAF5"/>
<path d="M84.0251 98.931L67.2132 115.248L50.4014 98.931C52.0403 98.7352 53.6998 98.6424 55.3903 98.6424H79.0361C80.7266 98.6424 82.3861 98.7352 84.0251 98.931Z" fill="#FF8765"/>
</g>
</g>
<defs>
<clipPath id="clip0_1884_2742">
<rect width="134" height="134" fill="white"/>
</clipPath>
</defs>
</svg>
