<svg width="134" height="134" viewBox="0 0 134 134" fill="none" xmlns="http://www.w3.org/2000/svg">
<g clip-path="url(#clip0_1884_2738)">
<path d="M114.314 114.314C140.329 88.2986 140.329 46.1197 114.314 20.1046C88.2986 -5.91055 46.1197 -5.91056 20.1046 20.1046C-5.91057 46.1197 -5.91056 88.2986 20.1046 114.314C46.1197 140.329 88.2986 140.329 114.314 114.314Z" fill="#E8EDEC"/>
<mask id="mask0_1884_2738" style="mask-type:luminance" maskUnits="userSpaceOnUse" x="0" y="0" width="134" height="134">
<path d="M114.314 114.314C140.329 88.2986 140.329 46.1197 114.314 20.1046C88.2986 -5.91055 46.1197 -5.91056 20.1046 20.1046C-5.91057 46.1197 -5.91056 88.2986 20.1046 114.314C46.1197 140.329 88.2986 140.329 114.314 114.314Z" fill="white"/>
</mask>
<g mask="url(#mask0_1884_2738)">
<path d="M11.0264 143.014C11.0264 118.613 30.9903 98.6504 55.3896 98.6504H79.0334C103.434 98.6504 123.397 118.614 123.397 143.014H11.0264Z" fill="#5D539B"/>
<path d="M84.9891 92.0092H49.4492V98.6494H84.9767L84.9891 92.0092Z" fill="#9DE0D4"/>
<path d="M79.4803 102.015L67.178 113.199L54.916 102.015L55.819 75.5354H78.5773L79.4803 102.015Z" fill="#FF8765"/>
<path d="M79.1125 91.2206C75.5389 93.1842 71.492 94.3057 67.1979 94.3057C62.9047 94.3057 58.8579 93.1832 55.2832 91.2206L55.8182 75.5354H78.5765L79.1125 91.2206Z" fill="#CE6042"/>
<path d="M49.449 92.0081L60.3339 99.7142L58.0322 112.877L46.9463 99.4616L49.449 92.0081Z" fill="#DCFAF5"/>
<path d="M60.3343 99.7142L67.2198 113.199L59.0654 106.97L60.3343 99.7142Z" fill="#9DE0D4"/>
<path d="M57.8023 111.878C55.2945 108.645 48.979 101.59 46.9463 99.4606C48.7831 102.467 54.8028 109.84 57.7302 113.194L58.2889 113.843L58.4383 112.967C59.1846 108.575 59.8268 104.159 60.3349 99.7142C59.3784 103.743 58.5497 107.802 57.8023 111.878Z" fill="#9DE0D4"/>
<path d="M84.9894 92.0081L74.1045 99.7142L76.4062 112.877L87.4921 99.4616L84.9894 92.0081Z" fill="#DCFAF5"/>
<path d="M74.1042 99.7142L67.2197 113.199L75.3731 106.97L74.1042 99.7142Z" fill="#9DE0D4"/>
<path d="M76.6361 111.878C79.144 108.645 85.4595 101.59 87.4922 99.4606C85.6553 102.467 79.6357 109.84 76.7083 113.194L76.1496 113.843L76.0001 112.967C75.2539 108.575 74.6117 104.159 74.1035 99.7142C75.0601 103.743 75.8898 107.802 76.6361 111.878Z" fill="#9DE0D4"/>
<path d="M31.8822 64.0547C35.8785 68.321 42.1641 68.9271 45.9213 65.4071C49.6785 61.888 49.4836 55.5766 45.4874 51.3103C41.49 47.0439 35.2054 46.4378 31.4483 49.9579C27.6911 53.4759 27.8859 59.7873 31.8822 64.0547Z" fill="#FF8765"/>
<path d="M33.7637 53.3079C33.7637 53.3079 42.1098 52.4895 43.2055 61.1634L33.7637 53.3079Z" fill="#CE6042"/>
<path d="M102.557 64.0547C98.5604 68.321 92.2748 68.9271 88.5176 65.4071C84.7605 61.888 84.9553 55.5766 88.9516 51.3103C92.9489 47.0439 99.2335 46.4378 102.991 49.9579C106.748 53.4759 106.553 59.7873 102.557 64.0547Z" fill="#FF8765"/>
<path d="M100.675 53.3079C100.675 53.3079 92.3291 52.4895 91.2334 61.1634L100.675 53.3079Z" fill="#CE6042"/>
<path d="M67.1999 90.0827C53.5783 90.0827 42.4336 78.938 42.4336 65.3164V44.234C42.4336 30.6124 53.5783 19.4677 67.1999 19.4677C80.8215 19.4677 91.9662 30.6124 91.9662 44.234V65.3164C91.9662 78.938 80.8215 90.0827 67.1999 90.0827Z" fill="#FF8765"/>
<path d="M69.4877 67.3356C69.2898 67.3356 69.0918 67.2604 68.9414 67.1099C68.6393 66.8079 68.6393 66.3183 68.9414 66.0163L71.2915 63.664C68.4239 60.7305 69.2032 55.7168 69.2392 55.4901C69.3073 55.0695 69.7 54.7799 70.1257 54.852C70.5463 54.92 70.8328 55.3169 70.7648 55.7385C70.7565 55.789 69.9897 60.7923 72.8871 63.0188C73.0634 63.1549 73.1727 63.36 73.1871 63.5816C73.2015 63.8032 73.1201 64.0207 72.9624 64.1784L70.034 67.1089C69.8835 67.2604 69.6856 67.3356 69.4877 67.3356Z" fill="#CE6042"/>
<path d="M51.7764 46.9862C52.8226 43.7619 59.5793 41.5911 62.7046 45.9997L51.7764 46.9862Z" fill="#166373"/>
<path d="M82.5767 46.9862C81.5304 43.7619 74.7737 41.5911 71.6484 45.9997L82.5767 46.9862Z" fill="#166373"/>
<path d="M57.2982 58.5761C56.5601 58.5761 55.9551 57.9721 55.9551 57.2331V52.408C55.9551 51.67 56.5591 51.0649 57.2982 51.0649C58.0362 51.0649 58.6413 51.669 58.6413 52.408V57.2331C58.6402 57.9721 58.0362 58.5761 57.2982 58.5761Z" fill="#601222"/>
<path d="M77.1419 58.5761C76.4039 58.5761 75.7988 57.9721 75.7988 57.2331V52.408C75.7988 51.67 76.4029 51.0649 77.1419 51.0649C77.88 51.0649 78.485 51.669 78.485 52.408V57.2331C78.485 57.9721 77.881 58.5761 77.1419 58.5761Z" fill="#601222"/>
<path d="M75.317 69.6889V72.204C75.317 76.4404 71.6577 79.9038 67.2151 79.9038C62.7519 79.9038 59.1133 76.4404 59.1133 72.204V69.6889H75.317Z" fill="#C4533F"/>
<path d="M75.317 69.6889V70.3176C73.5234 72.7503 70.5445 74.3479 67.2151 74.3479C63.8754 74.3479 60.9068 72.7606 59.1133 70.3383V69.6889H75.317Z" fill="#E6F2FF"/>
<path d="M87.6959 22.5487L87.6887 22.558C87.0672 19.1678 87.1754 13.9016 78.4829 13.5346C65.2788 12.978 44.719 16.3476 37.2192 35.9374C35.6184 40.1182 42.4318 48.958 42.4318 48.958C42.4318 48.958 48.033 47.348 56.4636 38.6668C67.5021 27.3005 77.5831 26.2316 86.7322 29.2693C89.172 32.8822 90.748 37.1176 91.1305 41.6592C91.1964 42.4147 91.9643 48.9776 91.9643 48.9776C93.2755 46.7264 94.3939 44.6535 97.2934 39.7687C101.424 32.8121 87.6959 22.5487 87.6959 22.5487Z" fill="#166373"/>
<path d="M87.7397 22.5435C88.2427 23.0259 88.519 23.6238 88.6829 24.2361C88.8571 24.8525 88.8705 25.4967 88.8035 26.1327C88.7097 26.7645 88.5221 27.3933 88.1767 27.9468C87.8603 28.5076 87.381 28.9889 86.778 29.2982L86.6914 29.2425C87.282 28.253 87.6645 27.1418 87.782 25.9997C87.9459 24.8659 87.9056 23.6898 87.6418 22.5714L87.7397 22.5435Z" fill="#12515E"/>
</g>
</g>
<defs>
<clipPath id="clip0_1884_2738">
<rect width="134" height="134" fill="white"/>
</clipPath>
</defs>
</svg>
