<svg width="134" height="134" viewBox="0 0 134 134" fill="none" xmlns="http://www.w3.org/2000/svg">
<g clip-path="url(#clip0_1884_2740)">
<path d="M131.758 81.7221C139.984 45.8616 117.583 10.122 81.7221 1.89546C45.8616 -6.33107 10.122 16.0707 1.89546 51.9312C-6.33108 87.7916 16.0707 123.531 51.9312 131.758C87.7917 139.984 123.531 117.583 131.758 81.7221Z" fill="#E8EDEC"/>
<mask id="mask0_1884_2740" style="mask-type:luminance" maskUnits="userSpaceOnUse" x="0" y="0" width="134" height="134">
<path d="M131.758 81.7221C139.984 45.8616 117.583 10.122 81.7221 1.89546C45.8616 -6.33107 10.122 16.0707 1.89546 51.9312C-6.33108 87.7916 16.0707 123.531 51.9312 131.758C87.7917 139.984 123.531 117.583 131.758 81.7221Z" fill="white"/>
</mask>
<g mask="url(#mask0_1884_2740)">
<path d="M79.0838 101.624H54.5195L55.4225 75.1442H78.1809L79.0838 101.624Z" fill="#C4814E"/>
<path d="M78.716 90.8295C75.1423 92.7931 71.0956 93.9145 66.8014 93.9145C62.5082 93.9145 58.4614 92.792 54.8867 90.8295L55.4217 75.1442H78.18L78.716 90.8295Z" fill="#A8602A"/>
<path d="M31.4643 63.6635C35.4616 67.9299 41.7462 68.536 45.5033 65.0159C49.2605 61.4969 49.0657 55.1855 45.0694 50.9191C41.0721 46.6528 34.7875 46.0467 31.0303 49.5667C27.2732 53.0848 27.468 59.3962 31.4643 63.6635Z" fill="#C4814E"/>
<path d="M33.3457 52.9167C33.3457 52.9167 41.6918 52.0983 42.7876 60.7722L33.3457 52.9167Z" fill="#A8602A"/>
<path d="M102.139 63.6635C98.1414 67.9299 91.8568 68.536 88.0996 65.0159C84.3425 61.4969 84.5373 55.1855 88.5336 50.9191C92.5309 46.6528 98.8155 46.0467 102.573 49.5667C106.33 53.0848 106.135 59.3962 102.139 63.6635Z" fill="#C4814E"/>
<path d="M100.256 52.9167C100.256 52.9167 91.9102 52.0983 90.8145 60.7722L100.256 52.9167Z" fill="#A8602A"/>
<path d="M66.8015 89.6915C53.1798 89.6915 42.0352 78.5468 42.0352 64.9252V43.8429C42.0352 30.2213 53.1798 19.0766 66.8015 19.0766C80.4231 19.0766 91.5678 30.2213 91.5678 43.8429V64.9252C91.5678 78.5468 80.4231 89.6915 66.8015 89.6915Z" fill="#C4814E"/>
<path d="M69.0687 66.9445C68.8718 66.9445 68.6729 66.8692 68.5224 66.7187C68.2204 66.4167 68.2204 65.9271 68.5224 65.6251L70.8716 63.2729C68.006 60.3393 68.7832 55.3256 68.8203 55.0989C68.8894 54.6773 69.279 54.3876 69.7068 54.4608C70.1273 54.5288 70.4139 54.9257 70.3459 55.3473C70.3376 55.3968 69.5717 60.4011 72.4682 62.6276C72.6445 62.7637 72.7537 62.9688 72.7682 63.1904C72.7836 63.412 72.7011 63.6295 72.5434 63.7872L69.615 66.7177C69.4645 66.8692 69.2677 66.9445 69.0687 66.9445Z" fill="#A8602A"/>
<path d="M79.2431 58.017C78.8163 58.017 78.47 57.6706 78.47 57.2439V53.8568C78.47 52.7044 77.6835 51.7303 76.7527 51.7303C75.8219 51.7303 75.0344 52.7044 75.0344 53.8568V57.2439C75.0344 57.6706 74.6881 58.017 74.2614 58.017C73.8346 58.017 73.4883 57.6706 73.4883 57.2439V53.8568C73.4883 51.8313 74.953 50.1841 76.7527 50.1841C78.5524 50.1841 80.0162 51.8313 80.0162 53.8568V57.2439C80.0162 57.6706 79.6698 58.017 79.2431 58.017Z" fill="#601222"/>
<path d="M59.3417 58.017C58.915 58.017 58.5686 57.6706 58.5686 57.2439V53.8568C58.5686 52.7044 57.7821 51.7303 56.8514 51.7303C55.9206 51.7303 55.1331 52.7044 55.1331 53.8568V57.2439C55.1331 57.6706 54.7867 58.017 54.36 58.017C53.9333 58.017 53.5869 57.6706 53.5869 57.2439V53.8568C53.5869 51.8313 55.0516 50.1841 56.8514 50.1841C58.6511 50.1841 60.1148 51.8313 60.1148 53.8568V57.2439C60.1148 57.6706 59.7684 58.017 59.3417 58.017Z" fill="#601222"/>
<path d="M51.3574 46.595C52.4026 43.3708 59.1603 41.2 62.2856 45.6086L51.3574 46.595Z" fill="#601222"/>
<path d="M82.1587 46.595C81.1124 43.3708 74.3558 41.2 71.2305 45.6086L82.1587 46.595Z" fill="#601222"/>
<path d="M56.8213 67.9866C57.9036 71.6551 65.154 75.1247 70.6284 71.2376L56.8213 67.9866Z" fill="#E6F2FF"/>
<path d="M93.744 14.7391C98.835 20.6495 91.567 51.6612 91.567 51.6612L88.15 37.8964C88.0861 37.6325 88.0109 37.3727 87.9233 37.1202C86.5121 33.0456 81.8984 31.0304 77.7867 32.3281L68.5365 35.2473L56.8621 32.0839C54.6325 31.4798 52.1906 31.7468 50.2971 33.0713C48.9282 34.0289 47.8501 35.4019 47.2615 37.0511L42.0344 51.5035C42.0344 51.5035 36.3446 27.1887 40.9758 21.7834C44.9907 17.0965 55.285 16.4708 65.1711 14.4804C77.1641 12.0673 88.9839 9.21109 93.744 14.7391Z" fill="#601222"/>
<path d="M37.5904 101.839L33.7354 142.627H10.6152C10.6152 124.382 21.7681 108.632 37.5904 101.839Z" fill="#C4814E"/>
<path d="M96.0146 101.839L99.8697 142.627H122.99C122.99 124.382 111.837 108.632 96.0146 101.839Z" fill="#C4814E"/>
<path d="M85.8925 98.8705C85.6142 109.147 77.2031 117.393 66.8542 117.393C56.5052 117.393 48.0942 109.127 47.8262 98.8499C50.1557 98.4582 52.5471 98.2623 54.9797 98.2623H78.6256C81.0994 98.2623 83.5217 98.4685 85.8925 98.8705Z" fill="#C4814E"/>
<path d="M99.8695 142.627H33.7354L37.5904 101.839C40.827 100.448 44.2595 99.4374 47.826 98.8499C48.094 109.127 56.505 117.393 66.854 117.393C77.2029 117.393 85.614 109.147 85.8923 98.8705C89.4278 99.458 92.8191 100.468 96.0144 101.839L99.8695 142.627Z" fill="#CC3D3D"/>
<path d="M85.8924 98.8705C85.6141 109.147 77.203 117.393 66.8541 117.393C56.5052 117.393 48.0941 109.127 47.8261 98.8499C47.1355 98.9633 46.4552 99.0869 45.7852 99.2415C46.249 110.601 55.4435 119.455 66.8541 119.455C78.2647 119.455 87.4592 110.611 87.9333 99.2622C87.253 99.1179 86.583 98.9839 85.8924 98.8705Z" fill="#DCFAF5"/>
</g>
</g>
<defs>
<clipPath id="clip0_1884_2740">
<rect width="134" height="134" fill="white"/>
</clipPath>
</defs>
</svg>
