<svg width="134" height="134" viewBox="0 0 134 134" fill="none" xmlns="http://www.w3.org/2000/svg">
<g clip-path="url(#clip0_1884_2734)">
<path d="M114.314 114.314C140.329 88.2986 140.329 46.1197 114.314 20.1046C88.2986 -5.91055 46.1197 -5.91056 20.1046 20.1046C-5.91057 46.1197 -5.91056 88.2986 20.1046 114.314C46.1197 140.329 88.2986 140.329 114.314 114.314Z" fill="#E8EDEC"/>
<mask id="mask0_1884_2734" style="mask-type:luminance" maskUnits="userSpaceOnUse" x="0" y="0" width="134" height="134">
<path d="M114.314 114.314C140.329 88.2986 140.329 46.1197 114.314 20.1046C88.2986 -5.91055 46.1197 -5.91056 20.1046 20.1046C-5.91057 46.1197 -5.91056 88.2986 20.1046 114.314C46.1197 140.329 88.2986 140.329 114.314 114.314Z" fill="white"/>
</mask>
<g mask="url(#mask0_1884_2734)">
<path d="M11.0254 143.001C11.0254 118.601 30.9893 98.6381 55.3887 98.6381H79.0324C103.433 98.6381 123.396 118.602 123.396 143.001H11.0254Z" fill="#E6B207"/>
<path d="M40.9377 90.8547C40.5574 90.8547 40.1719 90.7486 39.8276 90.529C38.869 89.9147 38.5896 88.6396 39.204 87.681C41.6376 83.8805 42.924 79.4874 42.924 74.9747V48.4283C42.924 47.2903 43.8476 46.3667 44.9855 46.3667C46.1235 46.3667 47.0471 47.2903 47.0471 48.4283V74.9747C47.0471 80.277 45.5349 85.4391 42.6756 89.9044C42.2818 90.5197 41.617 90.8547 40.9377 90.8547Z" fill="#601222"/>
<path d="M46.0695 94.1171C45.6892 94.1171 45.3037 94.011 44.9594 93.7914C44.0008 93.1771 43.7215 91.903 44.3358 90.9434C46.7694 87.1429 48.0558 82.7498 48.0558 78.2371V51.6907C48.0558 50.5527 48.9794 49.6291 50.1174 49.6291C51.2553 49.6291 52.1789 50.5527 52.1789 51.6907V78.2371C52.1789 83.5394 50.6668 88.7015 47.8074 93.1667C47.4147 93.7811 46.7499 94.1171 46.0695 94.1171Z" fill="#601222"/>
<path d="M51.2007 97.2094C50.8203 97.2094 50.4348 97.1033 50.0905 96.8837C49.1319 96.2694 48.8526 94.9953 49.4659 94.0357C51.8995 90.2353 53.1859 85.8421 53.1859 81.3294V54.783C53.1859 53.645 54.1095 52.7214 55.2475 52.7214C56.3854 52.7214 57.309 53.645 57.309 54.783V81.3294C57.309 86.6317 55.7969 91.7938 52.9375 96.2591C52.5448 96.8734 51.88 97.2094 51.2007 97.2094Z" fill="#601222"/>
<path d="M93.4824 90.8547C93.8628 90.8547 94.2483 90.7486 94.5926 90.529C95.5512 89.9147 95.8305 88.6396 95.2162 87.681C92.7825 83.8805 91.4961 79.4874 91.4961 74.9747V48.4283C91.4961 47.2903 90.5726 46.3667 89.4346 46.3667C88.2956 46.3667 87.373 47.2903 87.373 48.4283V74.9747C87.373 80.277 88.8852 85.4391 91.7445 89.9044C92.1383 90.5197 92.8031 90.8547 93.4824 90.8547Z" fill="#601222"/>
<path d="M88.3496 94.1171C88.73 94.1171 89.1155 94.011 89.4597 93.7914C90.4184 93.1771 90.6977 91.903 90.0834 90.9434C87.6497 87.1429 86.3633 82.7498 86.3633 78.2371V51.6907C86.3633 50.5527 85.4397 49.6291 84.3018 49.6291C83.1638 49.6291 82.2402 50.5527 82.2402 51.6907V78.2371C82.2402 83.5394 83.7524 88.7015 86.6117 93.1667C87.0055 93.7811 87.6703 94.1171 88.3496 94.1171Z" fill="#601222"/>
<path d="M83.2197 97.2094C83.6001 97.2094 83.9856 97.1033 84.3299 96.8837C85.2885 96.2694 85.5678 94.9953 84.9535 94.0357C82.5198 90.2353 81.2334 85.8421 81.2334 81.3294V54.783C81.2334 53.645 80.3099 52.7214 79.1719 52.7214C78.0339 52.7214 77.1104 53.645 77.1104 54.783V81.3294C77.1104 86.6317 78.6225 91.7938 81.4818 96.2591C81.8756 96.8734 82.5404 97.2094 83.2197 97.2094Z" fill="#601222"/>
<path d="M79.9889 90.4012H54.4382C53.5486 90.4012 52.8281 91.1217 52.8281 92.0112V100.045C52.8281 102.182 59.2684 103.915 67.2135 103.915C75.1587 103.915 81.599 102.182 81.599 100.045V92.0112C81.599 91.1227 80.8784 90.4012 79.9889 90.4012Z" fill="#E6B207"/>
<path d="M55.786 102.306C57.6105 102.925 59.5246 103.254 61.4388 103.472C63.357 103.685 65.2877 103.768 67.2173 103.759C69.1469 103.767 71.0775 103.684 72.9957 103.471C74.9099 103.252 76.824 102.922 78.6495 102.306L78.7021 102.455C77.0353 103.625 75.0831 104.279 73.1431 104.711C71.1919 105.158 69.2015 105.315 67.2173 105.343C65.233 105.312 63.2426 105.156 61.2924 104.709C59.3535 104.277 57.3992 103.625 55.7324 102.455L55.786 102.306Z" fill="#D97F00"/>
<path d="M78.9485 91.1547C75.4284 93.0894 71.4393 94.1944 67.2101 94.1944C62.9808 94.1944 58.9918 93.0894 55.4717 91.1547L55.6284 86.6131L56.0005 75.7034H78.4197L78.7928 86.6131L78.9485 91.1547Z" fill="#A8602A"/>
<path d="M31.8806 64.0403C35.878 68.3066 42.1626 68.9127 45.9197 65.3937C49.6758 61.8746 49.4821 55.5632 45.4858 51.2969C41.4884 47.0305 35.2038 46.4244 31.4467 49.9445C27.6895 53.4615 27.8833 59.7739 31.8806 64.0403Z" fill="#C4814E"/>
<path d="M33.7617 53.2935C33.7617 53.2935 42.1079 52.4751 43.2036 61.148L33.7617 53.2935Z" fill="#A8602A"/>
<path d="M102.555 64.0403C98.559 68.3066 92.2734 68.9127 88.5162 65.3937C84.7601 61.8746 84.9539 55.5632 88.9502 51.2969C92.9475 47.0305 99.2321 46.4244 102.989 49.9445C106.745 53.4615 106.552 59.7739 102.555 64.0403Z" fill="#C4814E"/>
<path d="M100.673 53.2935C100.673 53.2935 92.3272 52.4751 91.2314 61.148L100.673 53.2935Z" fill="#A8602A"/>
<path d="M67.2175 90.0683C53.5958 90.0683 42.4512 78.9236 42.4512 65.302V44.2196C42.4512 30.598 53.5958 19.4533 67.2175 19.4533C80.8391 19.4533 91.9838 30.598 91.9838 44.2196V65.302C91.9838 78.9236 80.8391 90.0683 67.2175 90.0683Z" fill="#C4814E"/>
<path d="M69.4849 67.3223C69.287 67.3223 69.089 67.247 68.9386 67.0965C68.6365 66.7945 68.6365 66.3049 68.9375 66.0029L71.2877 63.6507C68.4201 60.7171 69.1993 55.7045 69.2354 55.4777C69.3045 55.0571 69.6972 54.7696 70.1219 54.8397C70.5424 54.9077 70.829 55.3045 70.761 55.7261C70.7527 55.7766 69.9858 60.7789 72.8833 63.0054C73.0596 63.1404 73.1688 63.3466 73.1843 63.5682C73.1987 63.7898 73.1173 64.0073 72.9596 64.165L70.0312 67.0965C69.8807 67.246 69.6828 67.3223 69.4849 67.3223Z" fill="#A8602A"/>
<path d="M65.6415 74.0965C64.4355 74.0965 63.2058 73.8893 61.9936 73.4708C59.2497 72.5215 57.0923 70.6022 56.4975 68.5829C56.3769 68.1737 56.6109 67.7439 57.0201 67.6222C57.4263 67.5006 57.8592 67.7346 57.9798 68.1448C58.4313 69.6765 60.2485 71.2299 62.4997 72.0092C65.3436 72.9936 68.2947 72.6184 70.5974 70.9836C70.9458 70.7362 71.4282 70.8176 71.6746 71.166C71.922 71.5134 71.8405 71.9968 71.4921 72.2432C69.7676 73.4698 67.7412 74.0965 65.6415 74.0965Z" fill="#A8602A"/>
<path d="M80.4312 56.191V54.2346C80.4312 52.2102 78.9675 50.562 77.1667 50.562C75.367 50.562 73.9033 52.2092 73.9033 54.2346V57.6217C73.9033 58.0485 74.2497 58.3948 74.6764 58.3948C75.1031 58.3948 75.4495 58.0485 75.4495 57.6217V54.2346C75.4495 53.0822 76.236 52.1081 77.1667 52.1081C78.0975 52.1081 78.885 53.0812 78.885 54.2346V57.6217C78.885 58.0485 79.2314 58.3948 79.6581 58.3948C80.0848 58.3948 80.4312 58.0485 80.4312 57.6217V57.1342C81.0703 57.1218 81.7145 56.9775 82.2598 56.626C83.7121 55.689 83.7307 53.9563 83.7307 53.9563L80.4312 56.191Z" fill="#601222"/>
<path d="M57.2661 50.562C55.4664 50.562 54.0016 52.2092 54.0016 54.2346V56.191L50.7021 53.9553C50.7021 53.9553 50.7207 55.688 52.1731 56.625C52.7183 56.9765 53.3626 57.1208 54.0016 57.1331V57.6207C54.0016 58.0474 54.348 58.3938 54.7747 58.3938C55.2015 58.3938 55.5478 58.0474 55.5478 57.6207V54.2336C55.5478 53.0812 56.3343 52.1071 57.2661 52.1071C58.1969 52.1071 58.9834 53.0802 58.9834 54.2336V57.6207C58.9834 58.0474 59.3297 58.3938 59.7564 58.3938C60.1832 58.3938 60.5295 58.0474 60.5295 57.6207V54.2336C60.5305 52.2092 59.0658 50.562 57.2661 50.562Z" fill="#601222"/>
<path d="M51.7734 46.9728C52.8197 43.7486 59.5764 41.5778 62.7017 45.9864L51.7734 46.9728Z" fill="#601222"/>
<path d="M82.5737 46.9728C81.5275 43.7486 74.7708 41.5778 71.6455 45.9864L82.5737 46.9728Z" fill="#601222"/>
<path d="M91.9685 43.2218C91.9664 43.2218 91.9644 43.2218 91.9623 43.2218C91.7046 36.8022 88.9772 30.9959 84.7119 26.7316C80.2167 22.2467 74.028 19.4564 67.2125 19.4564C53.9259 19.4564 43.0028 30.06 42.473 43.2229C42.471 43.2229 42.4689 43.2229 42.4668 43.2229C42.4576 43.5558 42.4473 43.8888 42.4473 44.2217V52.8193C42.4473 52.8193 48.1856 50.4496 48.1856 48.9612C48.1856 47.3315 47.5001 45.8606 46.4034 44.8144C47.933 43.7857 48.939 42.0396 48.939 40.0605C48.939 39.0617 48.6845 38.1319 48.2443 37.3186C50.6429 36.6332 52.4055 34.4304 52.4055 31.8061C52.4055 31.4835 52.3756 31.1701 52.3272 30.866C54.8443 30.5135 56.842 28.5251 57.2038 25.9987C57.9088 26.3121 58.6829 26.4883 59.5055 26.4883C61.1897 26.4883 62.6978 25.7637 63.746 24.6082C64.7057 25.3432 65.9096 25.7936 67.2125 25.7936C68.5247 25.7936 69.7194 25.3432 70.6883 24.6082C71.7366 25.7637 73.2436 26.4883 74.9289 26.4883C75.7411 26.4883 76.5255 26.3121 77.2295 25.9987C77.5924 28.5251 79.5797 30.5125 82.1061 30.866C82.0566 31.1691 82.0278 31.4824 82.0278 31.8061C82.0278 34.4304 83.7904 36.6332 86.189 37.3186C85.7478 38.1309 85.4932 39.0617 85.4932 40.0605C85.4932 42.0406 86.4982 43.7857 88.0289 44.8154C86.9332 45.8617 86.2477 47.3326 86.2477 48.9622C86.2477 50.4506 91.986 52.8204 91.986 52.8204V44.2227C91.9881 43.8877 91.9778 43.5548 91.9685 43.2218Z" fill="#601222"/>
</g>
</g>
<defs>
<clipPath id="clip0_1884_2734">
<rect width="134" height="134" fill="white"/>
</clipPath>
</defs>
</svg>
