<svg width="134" height="134" viewBox="0 0 134 134" fill="none" xmlns="http://www.w3.org/2000/svg">
<g clip-path="url(#clip0_1884_2743)">
<path d="M131.758 81.7221C139.984 45.8616 117.583 10.122 81.7221 1.89547C45.8616 -6.33107 10.122 16.0707 1.89546 51.9312C-6.33108 87.7916 16.0707 123.531 51.9312 131.758C87.7917 139.984 123.531 117.583 131.758 81.7221Z" fill="#E8EDEC"/>
<mask id="mask0_1884_2743" style="mask-type:luminance" maskUnits="userSpaceOnUse" x="0" y="0" width="134" height="134">
<path d="M131.758 81.7221C139.984 45.8616 117.583 10.1221 81.7221 1.89553C45.8616 -6.33101 10.122 16.0707 1.89546 51.9312C-6.33108 87.7917 16.0707 123.531 51.9312 131.758C87.7917 139.984 123.531 117.583 131.758 81.7221Z" fill="white"/>
</mask>
<g mask="url(#mask0_1884_2743)">
<path d="M91.5697 45.6486H42.0371V103.942H91.5697V45.6486Z" fill="#601222"/>
<path d="M79.0858 101.609H54.5215L55.4244 75.1306H78.1828L79.0858 101.609Z" fill="#FF8765"/>
<path d="M78.718 90.8148C75.1443 92.7784 71.0975 93.901 66.8033 93.901C62.5102 93.901 58.4634 92.7784 54.8887 90.8148L55.4236 75.1296H78.182L78.718 90.8148Z" fill="#CE6042"/>
<path d="M31.4672 63.6489C35.4645 67.9153 41.7491 68.5214 45.5063 65.0023C49.2634 61.4833 49.0686 55.1719 45.0723 50.9045C41.075 46.6381 34.7904 46.032 31.0332 49.5521C27.2761 53.0712 27.4709 59.3826 31.4672 63.6489Z" fill="#FF8765"/>
<path d="M33.3486 52.9021C33.3486 52.9021 41.6948 52.0837 42.7905 60.7576L33.3486 52.9021Z" fill="#CE6042"/>
<path d="M102.142 63.6489C98.1449 67.9153 91.8603 68.5214 88.1031 65.0023C84.347 61.4833 84.5408 55.1719 88.5371 50.9045C92.5344 46.6381 98.819 46.032 102.576 49.5521C106.333 53.0712 106.138 59.3826 102.142 63.6489Z" fill="#FF8765"/>
<path d="M100.26 52.9021C100.26 52.9021 91.9141 52.0837 90.8184 60.7576L100.26 52.9021Z" fill="#CE6042"/>
<path d="M66.8044 89.6769C53.1828 89.6769 42.0381 78.5323 42.0381 64.9106V43.8283C42.0381 30.2067 53.1828 19.062 66.8044 19.062C80.426 19.062 91.5707 30.2067 91.5707 43.8283V64.9106C91.5707 78.5323 80.426 89.6769 66.8044 89.6769Z" fill="#FF8765"/>
<path d="M69.0687 66.9299C68.8718 66.9299 68.6729 66.8546 68.5224 66.7031C68.2204 66.4011 68.2204 65.9115 68.5224 65.6105L70.8716 63.2593C68.006 60.3257 68.7832 55.3121 68.8203 55.0853C68.8894 54.6648 69.279 54.3844 69.7068 54.4473C70.1273 54.5153 70.4139 54.9121 70.3459 55.3337C70.3376 55.3842 69.5717 60.3876 72.4682 62.614C72.6445 62.7501 72.7537 62.9542 72.7682 63.1769C72.7836 63.3985 72.7011 63.617 72.5434 63.7737L69.615 66.7041C69.4645 66.8546 69.2677 66.9299 69.0687 66.9299Z" fill="#CE6042"/>
<path d="M78.8242 56.6067C79.7859 56.8799 80.9507 56.8098 81.8454 56.2326C83.2978 55.2956 83.3163 53.5629 83.3163 53.5629L78.8242 56.6067Z" fill="#601222"/>
<path d="M79.243 58.0024C78.8163 58.0024 78.47 57.656 78.47 57.2293V53.8432C78.47 52.6908 77.6825 51.7157 76.7517 51.7157C75.8209 51.7157 75.0344 52.6898 75.0344 53.8432V57.2293C75.0344 57.656 74.6881 58.0024 74.2614 58.0024C73.8346 58.0024 73.4883 57.656 73.4883 57.2293V53.8432C73.4883 51.8178 74.952 50.1696 76.7517 50.1696C78.5514 50.1696 80.0161 51.8178 80.0161 53.8432V57.2293C80.0161 57.656 79.6698 58.0024 79.243 58.0024Z" fill="#601222"/>
<path d="M54.7782 56.6067C53.8165 56.8799 52.6517 56.8098 51.758 56.2326C50.3057 55.2956 50.2871 53.5629 50.2871 53.5629L54.7782 56.6067Z" fill="#601222"/>
<path d="M59.3417 58.0024C58.915 58.0024 58.5686 57.656 58.5686 57.2293V53.8432C58.5686 52.6908 57.7821 51.7157 56.8514 51.7157C55.9206 51.7157 55.1331 52.6898 55.1331 53.8432V57.2293C55.1331 57.656 54.7867 58.0024 54.36 58.0024C53.9333 58.0024 53.5869 57.656 53.5869 57.2293V53.8432C53.5869 51.8178 55.0516 50.1696 56.8514 50.1696C58.6511 50.1696 60.1148 51.8178 60.1148 53.8432V57.2293C60.1148 57.656 59.7684 58.0024 59.3417 58.0024Z" fill="#601222"/>
<path d="M51.3584 46.5815C52.4046 43.3572 59.1613 41.1864 62.2866 45.595L51.3584 46.5815Z" fill="#601222"/>
<path d="M82.1587 46.5815C81.1124 43.3572 74.3558 41.1864 71.2305 45.595L82.1587 46.5815Z" fill="#601222"/>
<path d="M74.9419 69.2842V71.7993C74.9419 76.0357 71.2827 79.4991 66.8401 79.4991C62.3769 79.4991 58.7383 76.0357 58.7383 71.7993V69.2842H74.9419Z" fill="#E6F2FF"/>
<path d="M91.5703 48.5626C93.7503 42.7862 93.7658 17.7519 66.8401 17.7519C39.9143 17.7519 39.9298 42.7862 42.1098 48.5626C49.3551 43.4902 50.0385 33.9174 49.8684 29.0491C51.0445 33.5897 54.7491 39.7475 66.0546 41.3029L53.9101 28.6574C60.172 33.3886 73.3524 42.077 87.4111 43.5943L91.5703 48.5626Z" fill="#601222"/>
<path d="M122.989 142.606H10.6143C10.6143 120.733 26.6633 102.416 47.5673 98.8703C49.4227 109.621 62.3692 117.929 78.0575 117.929H115.444C120.206 124.99 122.989 133.484 122.989 142.606Z" fill="#E6B207"/>
<path d="M115.444 117.929H78.0575C62.3692 117.929 49.4228 109.621 47.5674 98.8703C49.9794 98.458 52.4532 98.2416 54.9786 98.2416H78.6245C93.9108 98.2416 107.455 106.075 115.444 117.929Z" fill="#FF8765"/>
<path d="M95.3233 101.53V117.929H93.2617V100.736C93.9626 100.983 94.6533 101.251 95.3233 101.53Z" fill="#DCFAF5"/>
</g>
</g>
<defs>
<clipPath id="clip0_1884_2743">
<rect width="134" height="134" fill="white"/>
</clipPath>
</defs>
</svg>
