<svg width="134" height="134" viewBox="0 0 134 134" fill="none" xmlns="http://www.w3.org/2000/svg">
<g clip-path="url(#clip0_1884_2736)">
<path d="M131.758 81.7221C139.984 45.8616 117.583 10.122 81.7221 1.89546C45.8616 -6.33107 10.122 16.0707 1.89546 51.9312C-6.33108 87.7916 16.0707 123.531 51.9312 131.758C87.7917 139.984 123.531 117.583 131.758 81.7221Z" fill="#E8EDEC"/>
<mask id="mask0_1884_2736" style="mask-type:luminance" maskUnits="userSpaceOnUse" x="0" y="0" width="134" height="134">
<path d="M131.758 81.7221C139.984 45.8616 117.583 10.122 81.7221 1.89546C45.8616 -6.33107 10.122 16.0707 1.89546 51.9312C-6.33108 87.7916 16.0707 123.531 51.9312 131.758C87.7917 139.984 123.531 117.583 131.758 81.7221Z" fill="white"/>
</mask>
<g mask="url(#mask0_1884_2736)">
<path d="M79.0887 101.617H54.5244L55.4274 75.1391H78.1857L79.0887 101.617Z" fill="#FF8765"/>
<path d="M78.7209 90.8233C75.1472 92.7869 71.1004 93.9094 66.8063 93.9094C62.5131 93.9094 58.4663 92.7869 54.8916 90.8233L55.4266 75.1381H78.1849L78.7209 90.8233Z" fill="#CE6042"/>
<path d="M31.4692 63.6574C35.4665 67.9237 41.7511 68.5298 45.5082 65.0108C49.2654 61.4917 49.0705 55.1803 45.0743 50.914C41.0769 46.6476 34.7923 46.0415 31.0352 49.5616C27.278 53.0786 27.4729 59.391 31.4692 63.6574Z" fill="#FF8765"/>
<path d="M33.3506 52.9106C33.3506 52.9106 41.6967 52.0922 42.7924 60.765L33.3506 52.9106Z" fill="#CE6042"/>
<path d="M102.144 63.6574C98.1468 67.9237 91.8622 68.5298 88.1051 65.0108C84.349 61.4917 84.5428 55.1803 88.5391 50.914C92.5364 46.6476 98.821 46.0415 102.578 49.5616C106.335 53.0786 106.14 59.391 102.144 63.6574Z" fill="#FF8765"/>
<path d="M100.262 52.9106C100.262 52.9106 91.916 52.0922 90.8203 60.765L100.262 52.9106Z" fill="#CE6042"/>
<path d="M66.8063 89.6853C53.1847 89.6853 42.04 78.5407 42.04 64.9191V43.8367C42.04 30.2151 53.1847 19.0704 66.8063 19.0704C80.428 19.0704 91.5726 30.2151 91.5726 43.8367V64.9191C91.5726 78.5407 80.428 89.6853 66.8063 89.6853Z" fill="#FF8765"/>
<path d="M69.0736 66.9394C68.8767 66.9394 68.6778 66.8641 68.5273 66.7136C68.2253 66.4116 68.2253 65.922 68.5273 65.62L70.8764 63.2678C68.0109 60.3342 68.7881 55.3216 68.8252 55.0948C68.8932 54.6732 69.2859 54.3825 69.7116 54.4567C70.1322 54.5248 70.4187 54.9216 70.3507 55.3432C70.3425 55.3927 69.5766 60.396 72.4731 62.6225C72.6493 62.7586 72.7586 62.9637 72.773 63.1853C72.7885 63.4069 72.706 63.6244 72.5483 63.7821L69.6199 66.7136C69.4694 66.8631 69.2725 66.9394 69.0736 66.9394Z" fill="#CE6042"/>
<path d="M51.3623 46.5899C52.4085 43.3657 59.1652 41.1949 62.2905 45.6035L51.3623 46.5899Z" fill="#3B3C75"/>
<path d="M82.1636 46.5899C81.1174 43.3657 74.3606 41.1949 71.2354 45.6035L82.1636 46.5899Z" fill="#3B3C75"/>
<path d="M56.8848 50.6687C56.1467 50.6687 55.5417 51.2727 55.5417 52.0118V55.7318L52.3535 53.5713C52.3535 53.5713 52.3721 55.304 53.8244 56.241C54.3377 56.5719 54.9397 56.7203 55.5417 56.7482V56.8358C55.5417 57.5738 56.1457 58.1789 56.8848 58.1789C57.6238 58.1789 58.2279 57.5748 58.2279 56.8358V52.0107C58.2268 51.2737 57.6228 50.6687 56.8848 50.6687Z" fill="#601222"/>
<path d="M78.0709 55.7328V52.0118C78.0709 51.2737 77.4669 50.6687 76.7278 50.6687C75.9898 50.6687 75.3857 51.2727 75.3857 52.0118V56.8368C75.3857 57.5748 75.9898 58.1799 76.7278 58.1799C77.4669 58.1799 78.0709 57.5759 78.0709 56.8368V56.7492C78.6729 56.7213 79.2759 56.5729 79.7892 56.242C81.2415 55.3051 81.2601 53.5723 81.2601 53.5723L78.0709 55.7328Z" fill="#601222"/>
<path d="M65.2304 73.7136C64.0244 73.7136 62.7947 73.5064 61.5825 73.0879C58.8396 72.1386 56.6812 70.2193 56.0854 68.2C55.9648 67.7908 56.1988 67.3609 56.609 67.2393C57.0162 67.1197 57.4491 67.3527 57.5697 67.7619C58.0222 69.2936 59.8374 70.847 62.0897 71.6263C64.9294 72.6106 67.8836 72.2365 70.1863 70.6007C70.5358 70.3512 71.0182 70.4357 71.2645 70.7831C71.5119 71.1305 71.4295 71.6139 71.0821 71.8603C69.3566 73.0869 67.3301 73.7136 65.2304 73.7136Z" fill="#CE6042"/>
<path d="M108.878 27.3269L103.402 29.2678C103.286 27.699 102.878 26.0673 102.148 24.4562C99.2773 18.118 92.5474 14.4979 87.1153 16.3709C81.6831 18.2438 79.6072 24.9005 82.4778 31.2387C85.3485 37.5769 92.0485 41.0866 97.6405 39.7559C105.578 37.8675 108.721 31.5829 108.878 27.3269Z" fill="#3B3C75"/>
<path d="M24.7354 27.3269L30.2108 29.2678C30.3273 27.699 30.7355 26.0673 31.4652 24.4562C34.3359 18.118 41.0658 14.4979 46.498 16.3709C51.9301 18.2438 54.0061 24.9005 51.1354 31.2387C48.2647 37.5769 41.5647 41.0866 35.9728 39.7559C28.0349 37.8675 24.892 31.5829 24.7354 27.3269Z" fill="#3B3C75"/>
<path d="M92.2663 41.6299L92.2653 41.6309C92.2437 37.4563 91.4263 32.1117 88.1701 27.6815C81.1402 18.1149 70.1852 18.5324 66.8074 18.9199C63.4295 18.5313 52.4745 18.1149 45.4447 27.6815C42.1874 32.1138 41.368 37.4583 41.3443 41.6319L41.3422 41.6299C38.0458 64.0213 42.9852 78.9221 45.2653 84.3666C45.2653 84.3666 43.2718 70.4522 44.6139 46.7672C47.835 44.6191 53.495 40.6486 58.2283 35.1814C62.7966 29.9049 65.4839 24.6747 66.8074 21.6628C68.1309 24.6747 70.8181 29.9049 75.3865 35.1814C80.1208 40.6486 85.7766 44.6222 88.9947 46.7713C90.3367 70.4533 88.3432 84.3655 88.3432 84.3655C90.6223 78.9231 95.5627 64.0213 92.2663 41.6299Z" fill="#5D539B"/>
<path d="M83.1314 98.4788C82.9767 105.189 75.7201 110.58 66.804 110.58C57.8775 110.58 50.6312 105.189 50.4766 98.4788C51.9609 98.3345 53.4555 98.2521 54.9811 98.2521H78.6269C80.1524 98.2521 81.647 98.3345 83.1314 98.4788Z" fill="#FF8765"/>
<path d="M122.992 142.616H10.6172C10.6172 119.744 28.1712 100.757 50.477 98.4789C50.6316 105.189 57.878 110.58 66.8044 110.58C75.7206 110.58 82.9772 105.189 83.1318 98.4789C105.438 100.757 122.992 119.744 122.992 142.616Z" fill="#DCFAF5"/>
<path d="M111.622 113.044H21.9863C23.584 111.26 25.326 109.601 27.1917 108.106H57.0016C59.7228 109.663 63.1243 110.58 66.8042 110.58C70.4737 110.58 73.8752 109.663 76.6068 108.106H106.417C108.282 109.601 110.024 111.26 111.622 113.044Z" fill="#166373"/>
<path d="M118.333 122.898H15.2764C16.1319 121.187 17.0905 119.548 18.1522 117.971H115.457C116.519 119.548 117.477 121.187 118.333 122.898Z" fill="#166373"/>
<path d="M121.878 132.762H11.7305C12.1119 131.082 12.5963 129.433 13.1736 127.825H120.435C121.013 129.433 121.497 131.082 121.878 132.762Z" fill="#166373"/>
</g>
</g>
<defs>
<clipPath id="clip0_1884_2736">
<rect width="134" height="134" fill="white"/>
</clipPath>
</defs>
</svg>
