<svg width="134" height="134" viewBox="0 0 134 134" fill="none" xmlns="http://www.w3.org/2000/svg">
<g clip-path="url(#clip0_1884_2741)">
<path d="M114.314 114.314C140.329 88.2986 140.329 46.1198 114.314 20.1046C88.2986 -5.91051 46.1197 -5.91053 20.1046 20.1046C-5.91057 46.1197 -5.91055 88.2986 20.1046 114.314C46.1197 140.329 88.2986 140.329 114.314 114.314Z" fill="#E8EDEC"/>
<mask id="mask0_1884_2741" style="mask-type:luminance" maskUnits="userSpaceOnUse" x="0" y="0" width="134" height="134">
<path d="M114.314 114.314C140.329 88.2985 140.329 46.1197 114.314 20.1046C88.2986 -5.91057 46.1197 -5.91059 20.1046 20.1045C-5.91057 46.1197 -5.91055 88.2986 20.1046 114.314C46.1197 140.329 88.2986 140.329 114.314 114.314Z" fill="white"/>
</mask>
<g mask="url(#mask0_1884_2741)">
<path d="M42.4462 44.2062C42.4462 55.6065 35.0968 70.3052 35.2514 79.2729C35.4782 92.1575 53.5785 94.4871 67.2156 94.4871C80.8527 94.4871 98.953 92.1575 99.1797 79.2729C99.3343 70.3052 91.985 55.6065 91.985 44.2062H42.4462Z" fill="#166373"/>
<path d="M79.5438 102.191H54.9795L55.8824 75.7126H78.6408L79.5438 102.191Z" fill="#FF8765"/>
<path d="M79.176 91.3968C75.6023 93.3605 71.5555 94.483 67.2613 94.483C62.9682 94.483 58.9214 93.3605 55.3467 91.3968L55.8816 75.7116H78.641L79.176 91.3968Z" fill="#CE6042"/>
<path d="M123.45 143.152H11.0752C11.0752 118.856 30.8763 98.9523 55.1406 98.7874C55.1406 105.508 60.583 110.961 67.3037 110.961C74.0243 110.961 79.4667 105.508 79.4667 98.7874C103.69 98.9936 123.45 118.877 123.45 143.152Z" fill="#DE6626"/>
<path d="M87.2955 104.949C87.2955 110.68 82.3375 115.319 76.2147 115.319C72.5143 115.319 69.2261 113.608 67.2161 111C65.2061 113.608 61.9179 115.319 58.2175 115.319C52.0947 115.319 47.1367 110.68 47.1367 104.949C47.1367 102.857 47.7964 100.898 48.9509 99.2699C50.9712 98.9606 53.0327 98.7957 55.1355 98.7854C55.1355 105.506 60.5779 110.959 67.2986 110.959C74.0192 110.959 79.4616 105.506 79.4616 98.7854C81.5026 98.806 83.5126 98.9606 85.471 99.2493C86.6255 100.888 87.2955 102.847 87.2955 104.949Z" fill="#DCFAF5"/>
<path d="M79.4258 98.8256C79.4258 105.546 73.9833 110.999 67.2627 110.999C60.5421 110.999 55.0996 105.546 55.0996 98.8256H79.4258Z" fill="#FF8765"/>
<path d="M31.8836 64.0485C35.8809 68.3148 42.1655 68.9209 45.9226 65.4019C49.6788 61.8828 49.485 55.5714 45.4887 51.304C41.4914 47.0377 35.2068 46.4316 31.4496 49.9517C27.6925 53.4707 27.8863 59.7821 31.8836 64.0485Z" fill="#FF8765"/>
<path d="M33.7646 53.3016C33.7646 53.3016 42.1108 52.4832 43.2065 61.1571L33.7646 53.3016Z" fill="#CE6042"/>
<path d="M102.558 64.0485C98.562 68.3148 92.2763 68.9209 88.5192 65.4019C84.763 61.8828 84.9568 55.5714 88.9531 51.304C92.9504 47.0377 99.235 46.4316 102.992 49.9517C106.748 53.4707 106.555 59.7821 102.558 64.0485Z" fill="#FF8765"/>
<path d="M100.676 53.3016C100.676 53.3016 92.3301 52.4832 91.2344 61.1571L100.676 53.3016Z" fill="#CE6042"/>
<path d="M67.2204 90.0764C53.5988 90.0764 42.4541 78.9318 42.4541 65.3102V44.2278C42.4541 30.6062 53.5988 19.4615 67.2204 19.4615C80.842 19.4615 91.9867 30.6062 91.9867 44.2278V65.3102C91.9867 78.9318 80.842 90.0764 67.2204 90.0764Z" fill="#FF8765"/>
<path d="M69.5238 67.3294C69.3259 67.3294 69.128 67.2542 68.9775 67.1026C68.6755 66.8006 68.6755 66.311 68.9775 66.01L71.3276 63.6588C68.46 60.7253 69.2393 55.7116 69.2764 55.4848C69.3444 55.0653 69.7372 54.786 70.1629 54.8468C70.5834 54.9148 70.87 55.3127 70.8019 55.7333C70.7937 55.7838 70.0268 60.7871 72.9233 63.0136C73.0995 63.1496 73.2088 63.3537 73.2243 63.5764C73.2387 63.798 73.1562 64.0165 72.9995 64.1732L70.0711 67.1037C69.9206 67.2542 69.7217 67.3294 69.5238 67.3294Z" fill="#CE6042"/>
<path d="M51.8135 46.981C52.8597 43.7568 59.6164 41.586 62.7417 45.9946L51.8135 46.981Z" fill="#601222"/>
<path d="M82.6138 46.981C81.5675 43.7568 74.8108 41.586 71.6855 45.9946L82.6138 46.981Z" fill="#601222"/>
<path d="M57.335 51.0598C56.5969 51.0598 55.9919 51.6638 55.9919 52.4029V56.1229L52.8037 53.9624C52.8037 53.9624 52.8223 55.6951 54.2746 56.6321C54.7879 56.963 55.3899 57.1114 55.9919 57.1392V57.2268C55.9919 57.9649 56.5959 58.5699 57.335 58.5699C58.074 58.5699 58.6781 57.9659 58.6781 57.2268V52.4018C58.677 51.6638 58.073 51.0598 57.335 51.0598Z" fill="#601222"/>
<path d="M78.5211 56.1239V52.4029C78.5211 51.6638 77.9171 51.0598 77.178 51.0598C76.44 51.0598 75.8359 51.6638 75.8359 52.4029V57.2279C75.8359 57.9659 76.44 58.571 77.178 58.571C77.916 58.571 78.5211 57.9669 78.5211 57.2279V57.1402C79.1231 57.1124 79.725 56.964 80.2394 56.6331C81.6917 55.6962 81.7103 53.9634 81.7103 53.9634L78.5211 56.1239Z" fill="#601222"/>
<path d="M65.6806 74.1036C64.4756 74.1036 63.2449 73.8975 62.0337 73.479C59.2898 72.5286 57.1314 70.6103 56.5356 68.59C56.415 68.1808 56.649 67.751 57.0582 67.6294C57.4685 67.5098 57.8973 67.7417 58.0189 68.153C58.4714 69.6847 60.2876 71.2381 62.5398 72.0173C65.3806 73.0017 68.3328 72.6265 70.6365 70.9917C70.9829 70.7444 71.4673 70.8248 71.7137 71.1742C71.9611 71.5226 71.8796 72.006 71.5312 72.2524C69.8068 73.4769 67.7803 74.1036 65.6806 74.1036Z" fill="#CE6042"/>
<path d="M92.7173 44.4639L91.9855 54.2356C91.9855 54.2356 86.9038 52.1843 86.9038 44.5979V42.0209H83.0178L81.6262 37.0217L80.2347 42.0209H54.8159L52.7853 34.6613L50.7444 42.0209H47.5284V44.5979C47.5284 52.1843 42.4467 54.2356 42.4467 54.2356L41.7148 44.4639C41.7148 27.4974 52.4039 17.9937 67.2161 17.9937C82.0282 17.9937 92.7173 27.4974 92.7173 44.4639Z" fill="#166373"/>
</g>
</g>
<defs>
<clipPath id="clip0_1884_2741">
<rect width="134" height="134" fill="white"/>
</clipPath>
</defs>
</svg>
