<svg width="730" height="635" viewBox="0 0 730 635" fill="none" xmlns="http://www.w3.org/2000/svg">
<g clip-path="url(#clip0_1773_1932)">
<path d="M58.4137 227.546L579.992 11.4075C614.5 -5.89368 648 -5.89369 668.246 28.1063L805.683 267.949C819.44 297.606 835 328.919 805.683 394.106L668.246 598.308C642.027 635.195 592.179 646.316 552.767 624.07L338.068 502.881C302.085 482.57 256.833 489.901 229.104 520.534L193.859 559.47C145.426 612.975 56.7503 589.011 41.8611 518.393L1.91259 328.919C-7.18638 285.763 16.9241 242.505 58.4137 227.546Z" fill="#FFF5D4"/>
<path d="M136.729 74.0538C140.246 74.0538 143.616 70.9615 143.453 67.3301C143.29 63.6876 140.498 60.6064 136.729 60.6064C133.213 60.6064 129.843 63.6988 130.006 67.3301C130.169 70.9735 132.96 74.0538 136.729 74.0538Z" fill="#00A47D"/>
<path d="M87.7293 176.054C91.2461 176.054 94.6156 172.962 94.453 169.33C94.2896 165.688 91.4993 162.606 87.7293 162.606C84.2126 162.606 80.8431 165.699 81.0057 169.33C81.1691 172.973 83.9602 176.054 87.7293 176.054Z" fill="#53E3B6"/>
<path d="M684.729 281.054C688.246 281.054 691.616 277.961 691.453 274.33C691.29 270.688 688.499 267.606 684.729 267.606C681.213 267.606 677.843 270.699 678.006 274.33C678.169 277.973 680.96 281.054 684.729 281.054Z" fill="#00A47D"/>
<path d="M476.526 174.198C446.018 196.323 412.225 177.065 412.225 177.065L416.565 150.436L418.367 139.384L440.767 121.675L461.333 105.416L476.526 174.198Z" fill="#F7CD9C"/>
<path d="M460.663 115.687C455.28 138.076 448.699 148.567 438.054 151.303C429.682 153.467 419.839 151.292 416.565 150.435L418.367 139.384L440.767 121.674L460.663 115.687Z" fill="#242526"/>
<path d="M457.891 121.609L439.76 139.21C437.807 141.111 435.104 142.042 432.376 141.77L416.249 140.102C411.542 139.611 407.973 135.653 407.96 130.92L407.947 118.311L407.921 104.564L407.896 83.3688C407.857 65.1606 424.164 59.7675 424.164 59.7675C437.071 56.7282 446.2 61.4745 451.192 65.3805C453.959 67.553 455.757 70.7343 456.288 74.2262L461.707 110.346C462.327 114.496 460.905 118.687 457.891 121.609Z" fill="#F7CD9C"/>
<path d="M478.575 98.5342C480.139 104.962 476.197 111.441 469.769 113.005C463.342 114.569 454.216 110.183 452.652 103.755C451.088 97.3277 457.676 91.2928 464.104 89.7279C470.532 88.1646 477.011 92.1066 478.575 98.5342Z" fill="#F7CD9C"/>
<path d="M597.041 402.588L590.407 404.075L464.953 432.242L362.195 400.713L357.41 351.507L282.236 399.343L250.798 296.145L353.776 193.8C359.246 188.369 366.294 184.8 373.911 183.61L411.401 177.738L465.833 171.092L536.765 184.192C554.366 188.46 569.264 200.137 577.618 216.212L633.109 323.122L633.588 324.04C650.127 355.877 632.035 394.738 597.041 402.588Z" fill="url(#paint0_linear_1773_1932)"/>
<path d="M147.978 225.174L270.162 213.197L272.866 274.22L288.11 347.501L307.005 401.35L182.654 410.164L168.842 375.605L152.607 288.156L147.978 225.174Z" fill="white"/>
<path d="M347.816 446.639L443.446 489.175C446.769 492.554 447.038 503.911 440.1 505.408L288.773 538.053C279.436 540.067 266.941 537.291 260.965 531.788L192.49 468.726C189.134 465.635 188.953 456.182 193.71 453.595L328.07 443.432C334.134 442.593 342.902 444.008 347.816 446.639Z" fill="#00A47D"/>
<path d="M347.816 437.174L439.002 485.975C446.42 489.946 447.037 494.447 440.099 495.944L288.773 528.588C279.436 530.603 266.941 527.827 260.965 522.323L192.49 459.262C189.133 456.171 192.558 452.702 200.184 451.648L328.069 433.968C334.133 433.13 342.902 434.545 347.816 437.174Z" fill="#00CD9C"/>
<path d="M306.672 484.12L330.92 501.505L303.096 506.697L279.798 488.72L306.672 484.12Z" fill="#00A47D"/>
<path d="M335.702 479.151L360.914 495.908L334.286 500.877L309.926 483.563L335.702 479.151Z" stroke="white" stroke-width="2" stroke-miterlimit="10"/>
<path d="M363.568 474.381L389.646 490.546L364.138 495.306L338.825 478.616L363.568 474.381Z" stroke="white" stroke-width="2" stroke-miterlimit="10"/>
<path d="M390.339 469.799L417.194 485.406L392.736 489.97L366.568 473.867L390.339 469.799Z" stroke="white" stroke-width="2" stroke-miterlimit="10"/>
<path d="M282.193 466.57L303.888 482.124L277.127 486.658L256.325 470.608L282.193 466.57Z" fill="#53E3B6"/>
<path d="M310.194 462.199L332.804 477.225L307.129 481.575L285.329 466.081L310.194 462.199Z" stroke="white" stroke-width="2" stroke-miterlimit="10"/>
<path d="M337.131 457.994L360.567 472.521L335.915 476.698L313.21 461.728L337.131 457.994Z" stroke="white" stroke-width="2" stroke-miterlimit="10"/>
<path d="M363.06 453.946L387.246 468.001L363.556 472.015L340.033 457.541L363.06 453.946Z" stroke="white" stroke-width="2" stroke-miterlimit="10"/>
<path d="M260.17 450.781L279.695 464.779L253.933 468.762L235.247 454.345L260.17 450.781Z" fill="#53E3B6"/>
<path d="M287.199 446.916L307.588 460.467L282.819 464.296L263.194 450.348L287.199 446.916Z" fill="#00A47D"/>
<path d="M313.249 443.19L334.426 456.318L310.593 460.002L290.113 446.499L313.249 443.19Z" fill="#00A47D"/>
<path d="M338.373 439.598L360.268 452.322L337.318 455.87L316.06 442.789L338.373 439.598Z" fill="#00A47D"/>
<path d="M206.414 458.027L271.502 515.595L299.137 509.882L229.895 454.67L206.414 458.027Z" fill="white"/>
<path d="M421.885 364.521L332.338 371.322C332.338 371.322 337.722 395.125 357.842 393.992L329.221 403.909L306.268 444.443C306.268 444.443 312.854 449.966 322.982 447.614C327.852 446.484 332.175 443.683 335.46 439.914L345.991 427.832L355.29 459.45L405.731 482.97L428.059 476.452C428.059 476.452 426.603 463.551 416.118 461.284L419.271 439.571C419.271 439.571 449.146 448.893 464.956 432.246L421.885 364.521Z" fill="#F7CD9C"/>
<path d="M380.593 405.757L345.993 427.833" stroke="#242526" stroke-width="2" stroke-miterlimit="10"/>
<path d="M398.563 409.009L366.96 430.034L375.445 468.849" stroke="#242526" stroke-width="2" stroke-miterlimit="10"/>
<path d="M420.369 414.767L390.392 432.248L397.844 478.456" stroke="#242526" stroke-width="2" stroke-miterlimit="10"/>
<path d="M391.843 380.994L357.842 393.992" stroke="#242526" stroke-width="2" stroke-miterlimit="10"/>
<path d="M152.607 288.156L185.872 305.278C191.209 308.025 194.025 314.021 192.732 319.882L190.259 331.098L192.87 332.169C198.371 334.426 201.445 340.32 200.147 346.122L197.104 359.725L196.056 364.321C194.58 371.173 187.649 375.376 180.891 373.518L180.761 374.311C179.436 382.411 171.921 385.427 164.579 381.757L144.429 370.636L139.805 366.452C136.781 362.24 137.167 355.044 137.387 349.864L140.16 284.423L151.753 276.545L152.607 288.156Z" fill="#F7CD9C"/>
<path d="M150.855 314.562L190.259 331.098" stroke="#242526" stroke-width="2" stroke-miterlimit="10"/>
<path d="M150.855 337.676L197.641 357.325" stroke="#242526" stroke-width="2" stroke-miterlimit="10"/>
<path d="M180.89 373.518L149.785 358.38" stroke="#242526" stroke-width="2" stroke-miterlimit="10"/>
<path d="M147.978 286.004L168.606 296.391" stroke="#242526" stroke-width="2" stroke-miterlimit="10"/>
<path d="M406.64 180.895L410.418 154.282L476.526 153.054L481.685 176.942C481.685 176.942 438.033 209.237 406.64 180.895Z" fill="#00A47D"/>
<path d="M579.779 311.103L421.885 364.521" stroke="#242526" stroke-width="2" stroke-miterlimit="10"/>
<path d="M527.949 280.312L537.926 325.263" stroke="#242526" stroke-width="2" stroke-miterlimit="10"/>
<path d="M354.011 249.041L357.411 351.503" stroke="#242526" stroke-width="2" stroke-miterlimit="10"/>
<path d="M413.99 103.165C413.99 104.004 413.311 104.683 412.472 104.683C411.634 104.683 410.955 104.004 410.955 103.165C410.955 102.327 411.634 101.647 412.472 101.647C413.31 101.647 413.99 102.327 413.99 103.165Z" fill="#242526"/>
<path d="M435.489 102.622C435.489 103.46 434.81 104.14 433.972 104.14C433.133 104.14 432.454 103.46 432.454 102.622C432.454 101.783 433.133 101.104 433.972 101.104C434.81 101.104 435.489 101.784 435.489 102.622Z" fill="#242526"/>
<path d="M451.073 113.015C452.602 109.325 450.85 105.096 447.16 103.568C443.471 102.039 439.241 103.791 437.713 107.481C436.185 111.17 437.937 115.399 441.626 116.928C445.316 118.456 449.545 116.704 451.073 113.015Z" fill="#F4B17F"/>
<path d="M412.914 111.444C412.914 114.639 410.832 117.354 407.948 118.312L407.922 104.565C410.819 105.509 412.914 108.237 412.914 111.444Z" fill="#F4B17F"/>
<path d="M423.458 97.2097L415.852 113.033L423.369 113.516L419.61 119.212C419.61 119.212 435.63 122.301 441.519 114.674" stroke="#242526" stroke-width="2" stroke-miterlimit="10"/>
<path d="M416.373 108.705H403.722C402.45 108.705 401.419 107.674 401.419 106.402V96.2207H418.054V107.023C418.054 107.953 417.301 108.705 416.373 108.705Z" stroke="#242526" stroke-width="2" stroke-miterlimit="10"/>
<path d="M427.855 108.705H440.505C441.777 108.705 442.808 107.674 442.808 106.402V96.2207H426.173V107.023C426.173 107.953 426.926 108.705 427.855 108.705Z" stroke="#242526" stroke-width="2" stroke-miterlimit="10"/>
<path d="M418.054 97.6049C418.054 97.6049 421.696 95.8269 426.174 97.6049" stroke="#242526" stroke-width="2" stroke-miterlimit="10"/>
<path d="M443.198 96.2206L461.639 92.1733" stroke="#242526" stroke-width="2" stroke-miterlimit="10"/>
<path d="M469.953 96.2207L465.258 99.7126C464.503 100.274 464.856 101.473 465.796 101.533L471.312 101.892" stroke="#242526" stroke-width="2" stroke-miterlimit="10" stroke-linejoin="round"/>
<path d="M466.502 57.6522C470.491 58.0809 471.312 65.8408 471.312 65.8408L469.992 89.6749L463.036 100.309C445.593 95.5421 448.394 74.2741 448.394 74.2741C423.643 90.9584 397.242 80.3244 397.242 80.3244C393.388 78.8869 390.682 74.6694 390.814 70.558C390.947 66.4474 393.918 62.5816 397.856 61.3948C397.104 58.6867 397.994 55.6817 399.785 53.516C401.576 51.3504 404.201 49.9788 406.937 49.3387C409.674 48.6987 412.529 48.7441 415.323 49.047C418.086 45.9897 422.518 44.0688 426.621 43.6786C430.723 43.2893 434.957 44.4872 438.247 46.9703L466.502 57.6522Z" fill="#242526"/>
<path d="M418.27 158.975L416.065 185.125" stroke="#242526" stroke-width="2" stroke-miterlimit="10"/>
<path d="M468.1 158.279L470.925 183.898" stroke="#242526" stroke-width="2" stroke-miterlimit="10"/>
<path d="M434.87 159.469V188.107" stroke="#242526" stroke-width="2" stroke-miterlimit="10"/>
<path d="M456.459 158.684L458.103 186.085" stroke="#242526" stroke-width="2" stroke-miterlimit="10"/>
<path d="M473.51 157.639L477.968 181.985" stroke="#242526" stroke-width="2" stroke-miterlimit="10"/>
<path d="M413.115 158.279L409.173 182.354" stroke="#242526" stroke-width="2" stroke-miterlimit="10"/>
<path d="M272.866 274.22L168.842 283.972" stroke="#242526" stroke-width="2" stroke-miterlimit="10"/>
<path d="M288.11 347.501L209.273 353.277" stroke="#242526" stroke-width="2" stroke-miterlimit="10"/>
<path d="M597.041 402.588L590.407 404.076C586.386 396.394 584.123 387.652 584.123 378.38C584.123 349.904 605.512 326.419 633.109 323.121L633.588 324.039C650.127 355.878 632.035 394.739 597.041 402.588Z" fill="#00CD9C"/>
</g>
<defs>
<linearGradient id="paint0_linear_1773_1932" x1="364.5" y1="170.606" x2="468" y2="337.606" gradientUnits="userSpaceOnUse">
<stop stop-color="#4DD6AA"/>
<stop offset="1" stop-color="#01AA81"/>
</linearGradient>
<clipPath id="clip0_1773_1932">
<rect width="730" height="635" fill="white"/>
</clipPath>
</defs>
</svg>
