<svg width="29" height="29" viewBox="0 0 29 29" fill="none" xmlns="http://www.w3.org/2000/svg">
<path d="M3.02082 11.4792H25.9792V24.1667C25.9792 24.8341 25.4382 25.375 24.7708 25.375H4.22915C3.5618 25.375 3.02082 24.8341 3.02082 24.1667V11.4792Z" fill="#00A47D"/>
<path d="M25.9791 10.2709C26.6465 10.2709 27.1875 10.8118 27.1875 11.4792V24.1667C27.1875 25.5014 26.1055 26.5834 24.7708 26.5834H4.22913C2.89446 26.5834 1.8125 25.5014 1.8125 24.1667V11.4792C1.8125 10.8118 2.35347 10.2709 3.02082 10.2709H25.9791ZM4.22913 24.1667H24.7708V12.6875H4.22913V24.1667Z" fill="#00A47D"/>
<path d="M24.7708 3.02087C26.1055 3.02087 27.1875 4.10284 27.1875 5.4375V11.4792C27.1875 12.1465 26.6465 12.6875 25.9791 12.6875H3.02082C2.35347 12.6875 1.8125 12.1465 1.8125 11.4792V5.4375C1.81251 4.10283 2.89446 3.02088 4.22913 3.02087H24.7708ZM4.22913 10.2709H24.7708V5.4375H4.22913V10.2709Z" fill="#011510"/>
<path d="M8.45833 6.25V1.41669C8.45833 0.749345 8.9993 0.208374 9.66665 0.208374C10.334 0.208374 10.875 0.749345 10.875 1.41669V6.25C10.875 6.91735 10.334 7.45837 9.66665 7.45837C8.9993 7.45837 8.45833 6.91735 8.45833 6.25Z" fill="#011510"/>
<path d="M18.125 6.25V1.41669C18.125 0.749345 18.666 0.208374 19.3333 0.208374C20.0007 0.208374 20.5416 0.749345 20.5416 1.41669V6.25C20.5416 6.91735 20.0007 7.45837 19.3333 7.45837C18.666 7.45837 18.125 6.91735 18.125 6.25Z" fill="#011510"/>
<path d="M20.5416 20.3334C21.209 20.3334 21.75 20.8743 21.75 21.5417C21.75 22.209 21.209 22.75 20.5416 22.75H16.9166C16.2493 22.75 15.7083 22.209 15.7083 21.5417C15.7083 20.8743 16.2493 20.3334 16.9166 20.3334H20.5416Z" fill="white"/>
<path d="M12.0833 20.3334C12.7507 20.3334 13.2916 20.8743 13.2916 21.5417C13.2916 22.209 12.7507 22.75 12.0833 22.75H8.45832C7.79097 22.75 7.25 22.209 7.25 21.5417C7.25 20.8743 7.79097 20.3334 8.45832 20.3334H12.0833Z" fill="white"/>
<path d="M20.5416 15.5C21.209 15.5 21.75 16.041 21.75 16.7084C21.75 17.3757 21.209 17.9167 20.5416 17.9167H16.9166C16.2493 17.9167 15.7083 17.3757 15.7083 16.7084C15.7083 16.041 16.2493 15.5 16.9166 15.5H20.5416Z" fill="white"/>
<path d="M12.0833 15.5C12.7507 15.5 13.2916 16.041 13.2916 16.7084C13.2916 17.3757 12.7507 17.9167 12.0833 17.9167H8.45832C7.79097 17.9167 7.25 17.3757 7.25 16.7084C7.25 16.041 7.79097 15.5 8.45832 15.5H12.0833Z" fill="white"/>
</svg>
