<svg width="31" height="31" viewBox="0 0 31 31" fill="none" xmlns="http://www.w3.org/2000/svg">
<path d="M5.60986 21.03V13.2727C5.60986 13.1612 5.72721 13.0887 5.82695 13.1386L14.2682 17.3592C15.1128 17.7815 16.1069 17.7815 16.9515 17.3592L25.3928 13.1386C25.4925 13.0887 25.6099 13.1612 25.6099 13.2727V21.03C25.6099 22.1346 24.7144 23.03 23.6099 23.03H7.60986C6.50529 23.03 5.60986 22.1346 5.60986 21.03Z" fill="#011510"/>
<path d="M5.60986 10.03V11.6873C5.60986 11.7441 5.64196 11.7961 5.69278 11.8215L14.2682 16.1092C15.1128 16.5315 16.1069 16.5315 16.9515 16.1092L25.5269 11.8215C25.5778 11.7961 25.6099 11.7441 25.6099 11.6873V10.03C25.6099 8.92546 24.7144 8.03003 23.6099 8.03003H7.60986C6.50529 8.03003 5.60986 8.92546 5.60986 10.03Z" fill="#00A47D"/>
</svg>
