<svg width="31" height="30" viewBox="0 0 31 30" fill="none" xmlns="http://www.w3.org/2000/svg">
<path d="M12.6099 17L12.6099 14" stroke="#011510" stroke-width="2" stroke-linecap="round"/>
<path d="M15.6099 5L15.6099 9.28571L15.6099 12.5" stroke="#011510" stroke-width="2" stroke-linecap="round" stroke-linejoin="round"/>
<path d="M14.3599 3.5V9C14.3599 9.55228 14.8076 10 15.3599 10H23.1528C23.5982 10 23.8213 9.46143 23.5063 9.14645L20.7866 6.42678C20.689 6.32915 20.689 6.17085 20.7866 6.07322L23.5063 3.35355C23.8213 3.03857 23.5982 2.5 23.1528 2.5H15.3599C14.8076 2.5 14.3599 2.94772 14.3599 3.5Z" fill="#011510"/>
<path d="M24.9099 27.5H6.30986C5.18976 27.5 4.62971 27.5 4.20188 27.282C3.82556 27.0903 3.5196 26.7843 3.32785 26.408C3.10986 25.9802 3.10986 25.4201 3.10986 24.3V15.7C3.10986 14.5799 3.10986 14.0198 3.32785 13.592C3.5196 13.2157 3.82556 12.9097 4.20188 12.718C4.62971 12.5 5.18976 12.5 6.30986 12.5H9.63402C9.96852 12.5 10.1358 12.5 10.2529 12.5687C10.3557 12.629 10.4335 12.724 10.4725 12.8365C10.5169 12.9649 10.4841 13.1289 10.4185 13.4569L8.49262 23.0862C8.36142 23.7422 8.29582 24.0702 8.38462 24.3269C8.46251 24.5521 8.61823 24.742 8.82374 24.8626C9.05804 25 9.39254 25 10.0615 25H21.1582C21.8272 25 22.1617 25 22.396 24.8626C22.6015 24.742 22.7572 24.5521 22.8351 24.3269C22.9239 24.0702 22.8583 23.7422 22.7271 23.0862L20.8012 13.4569C20.7356 13.1289 20.7028 12.9649 20.7472 12.8365C20.7862 12.724 20.864 12.629 20.9668 12.5687C21.084 12.5 21.2512 12.5 21.5857 12.5H24.9099C26.03 12.5 26.59 12.5 27.0178 12.718C27.3942 12.9097 27.7001 13.2157 27.8919 13.592C28.1099 14.0198 28.1099 14.5799 28.1099 15.7V24.3C28.1099 25.4201 28.1099 25.9802 27.8919 26.408C27.7001 26.7843 27.3942 27.0903 27.0178 27.282C26.59 27.5 26.03 27.5 24.9099 27.5Z" fill="#00A47D"/>
</svg>
