<svg width="31" height="31" viewBox="0 0 31 31" fill="none" xmlns="http://www.w3.org/2000/svg">
<rect x="5.60986" y="4.22" width="20" height="22.5" rx="2" fill="#00A47D"/>
<path d="M11.2349 8.595L19.9849 8.595" stroke="#011510" stroke-width="1.5" stroke-linecap="round"/>
<path d="M11.2349 12.345L16.2349 12.345" stroke="#011510" stroke-width="1.5" stroke-linecap="round"/>
<path d="M11.2349 16.095L18.7349 16.095" stroke="#011510" stroke-width="1.5" stroke-linecap="round"/>
<path d="M5.60986 24.22C5.60986 23.7553 5.60986 23.523 5.64829 23.3298C5.80611 22.5364 6.4263 21.9162 7.21968 21.7584C7.41288 21.72 7.64521 21.72 8.10986 21.72H21.8599C23.5036 21.72 24.3255 21.72 24.8787 21.266C24.9799 21.1829 25.0728 21.0901 25.1559 20.9888C25.6099 20.4356 25.6099 19.6137 25.6099 17.97V22.72C25.6099 24.6056 25.6099 25.5484 25.0241 26.1342C24.4383 26.72 23.4955 26.72 21.6099 26.72H8.10986C7.64521 26.72 7.41288 26.72 7.21968 26.6816C6.4263 26.5238 5.80611 25.9036 5.64829 25.1102C5.60986 24.917 5.60986 24.6847 5.60986 24.22Z" fill="#011510"/>
</svg>
