<svg width="280" height="140" viewBox="0 0 280 140" fill="none" xmlns="http://www.w3.org/2000/svg">
<g clip-path="url(#clip0_1753_2076)">
<g clip-path="url(#clip1_1753_2076)">
<g clip-path="url(#clip2_1753_2076)">
<path d="M275 0H5C2.23858 0 0 2.23858 0 5V135C0 137.761 2.23858 140 5 140H275C277.761 140 280 137.761 280 135V5C280 2.23858 277.761 0 275 0Z" fill="white"/>
<path d="M239.128 39.608L238.456 39.44C238.456 39.264 238.491 39.0907 238.56 38.92C238.635 38.744 238.739 38.5707 238.872 38.4C239.011 38.2293 239.179 38.0693 239.376 37.92L240.536 37.048C240.675 36.952 240.795 36.8427 240.896 36.72C241.003 36.592 241.085 36.4613 241.144 36.328C241.203 36.1893 241.232 36.056 241.232 35.928C241.232 35.7413 241.187 35.5733 241.096 35.424C241.005 35.2693 240.877 35.1467 240.712 35.056C240.547 34.9653 240.352 34.92 240.128 34.92C239.909 34.92 239.717 34.9627 239.552 35.048C239.387 35.128 239.251 35.2373 239.144 35.376C239.037 35.5093 238.96 35.6533 238.912 35.808L238.224 35.672C238.288 35.432 238.403 35.208 238.568 35C238.739 34.792 238.955 34.624 239.216 34.496C239.477 34.368 239.768 34.304 240.088 34.304C240.461 34.304 240.784 34.376 241.056 34.52C241.328 34.6587 241.539 34.8507 241.688 35.096C241.843 35.336 241.92 35.6107 241.92 35.92C241.92 36.2133 241.84 36.4907 241.68 36.752C241.52 37.0133 241.288 37.2667 240.984 37.512L239.888 38.344C239.733 38.456 239.597 38.5787 239.48 38.712C239.368 38.8453 239.28 38.9867 239.216 39.136C239.157 39.28 239.128 39.4373 239.128 39.608ZM238.456 40V39.44L238.968 39.4H242V40H238.456ZM244.853 40.096C244.469 40.096 244.146 40.024 243.885 39.88C243.623 39.7307 243.415 39.5307 243.261 39.28C243.106 39.0293 242.994 38.7413 242.925 38.416C242.861 38.0853 242.829 37.736 242.829 37.368C242.829 36.888 242.877 36.4587 242.973 36.08C243.074 35.7013 243.218 35.3813 243.405 35.12C243.591 34.8533 243.818 34.6507 244.085 34.512C244.351 34.3733 244.653 34.304 244.989 34.304C245.266 34.304 245.541 34.3493 245.813 34.44C246.09 34.5253 246.335 34.6453 246.549 34.8L246.173 35.28C246.002 35.1627 245.818 35.072 245.621 35.008C245.423 34.9387 245.234 34.904 245.053 34.904C244.509 34.904 244.095 35.1333 243.813 35.592C243.53 36.0507 243.405 36.7467 243.437 37.68L243.293 37.536C243.421 37.2107 243.626 36.9547 243.909 36.768C244.191 36.576 244.525 36.48 244.909 36.48C245.266 36.48 245.583 36.5573 245.861 36.712C246.143 36.8667 246.362 37.0827 246.517 37.36C246.677 37.632 246.757 37.944 246.757 38.296C246.757 38.6427 246.677 38.9547 246.517 39.232C246.357 39.504 246.133 39.7173 245.845 39.872C245.562 40.0213 245.231 40.096 244.853 40.096ZM244.853 39.504C245.093 39.504 245.303 39.4533 245.485 39.352C245.671 39.2453 245.815 39.1013 245.917 38.92C246.023 38.7333 246.077 38.52 246.077 38.28C246.077 38.04 246.023 37.8293 245.917 37.648C245.815 37.4613 245.671 37.3173 245.485 37.216C245.303 37.1147 245.093 37.064 244.853 37.064C244.618 37.064 244.407 37.1147 244.221 37.216C244.034 37.3173 243.887 37.4613 243.781 37.648C243.674 37.8293 243.621 38.04 243.621 38.28C243.621 38.52 243.674 38.7333 243.781 38.92C243.887 39.1013 244.034 39.2453 244.221 39.352C244.407 39.4533 244.618 39.504 244.853 39.504ZM247.832 40.112C247.709 40.112 247.603 40.0693 247.512 39.984C247.427 39.8933 247.384 39.7893 247.384 39.672C247.384 39.5493 247.427 39.4453 247.512 39.36C247.603 39.2693 247.709 39.224 247.832 39.224C247.955 39.224 248.059 39.2693 248.144 39.36C248.229 39.4453 248.272 39.5493 248.272 39.672C248.272 39.7893 248.229 39.8933 248.144 39.984C248.059 40.0693 247.955 40.112 247.832 40.112ZM249.512 38.432L249.008 38.12L251.56 34.4L252 34.784L249.512 38.432ZM249.008 38.64V38.12L249.44 38.04H253.392V38.64H249.008ZM251.592 40V34.832L251.56 34.4H252.248V40H251.592ZM256.081 40.096C255.681 40.096 255.329 40.032 255.025 39.904C254.721 39.7707 254.486 39.5893 254.321 39.36C254.155 39.1253 254.073 38.8533 254.073 38.544C254.073 38.2187 254.155 37.9333 254.321 37.688C254.486 37.4427 254.721 37.2533 255.025 37.12C255.329 36.9813 255.681 36.912 256.081 36.912C256.491 36.912 256.846 36.9813 257.145 37.12C257.449 37.2533 257.683 37.4427 257.849 37.688C258.019 37.9333 258.105 38.2187 258.105 38.544C258.105 38.8533 258.019 39.1253 257.849 39.36C257.683 39.5893 257.449 39.7707 257.145 39.904C256.846 40.032 256.491 40.096 256.081 40.096ZM256.081 39.504C256.475 39.504 256.798 39.4107 257.049 39.224C257.299 39.032 257.425 38.784 257.425 38.48C257.425 38.1707 257.299 37.92 257.049 37.728C256.798 37.5307 256.475 37.432 256.081 37.432C255.825 37.432 255.595 37.4773 255.393 37.568C255.195 37.6533 255.038 37.776 254.921 37.936C254.809 38.0907 254.753 38.272 254.753 38.48C254.753 38.6827 254.809 38.8613 254.921 39.016C255.038 39.1707 255.195 39.2907 255.393 39.376C255.595 39.4613 255.825 39.504 256.081 39.504ZM256.081 37.304C255.723 37.304 255.409 37.2427 255.137 37.12C254.865 36.992 254.654 36.8187 254.505 36.6C254.355 36.376 254.281 36.1173 254.281 35.824C254.281 35.5253 254.355 35.2613 254.505 35.032C254.654 34.8027 254.865 34.624 255.137 34.496C255.409 34.368 255.723 34.304 256.081 34.304C256.449 34.304 256.766 34.368 257.033 34.496C257.305 34.624 257.515 34.8027 257.665 35.032C257.819 35.2613 257.897 35.5253 257.897 35.824C257.897 36.1173 257.819 36.376 257.665 36.6C257.515 36.8187 257.305 36.992 257.033 37.12C256.766 37.2427 256.449 37.304 256.081 37.304ZM256.081 36.8C256.417 36.8 256.691 36.7173 256.905 36.552C257.123 36.3813 257.233 36.16 257.233 35.888C257.233 35.5893 257.123 35.3493 256.905 35.168C256.691 34.9813 256.417 34.888 256.081 34.888C255.75 34.888 255.478 34.9813 255.265 35.168C255.051 35.3493 254.945 35.5893 254.945 35.888C254.945 36.16 255.051 36.3813 255.265 36.552C255.478 36.7173 255.75 36.8 256.081 36.8ZM259.323 40L263.299 34.4H264.043L260.043 40H259.323ZM263.203 40.128C262.963 40.128 262.747 40.072 262.555 39.96C262.368 39.8427 262.222 39.6853 262.115 39.488C262.014 39.2853 261.963 39.056 261.963 38.8C261.963 38.5387 262.014 38.3093 262.115 38.112C262.222 37.9147 262.368 37.76 262.555 37.648C262.747 37.5307 262.963 37.472 263.203 37.472C263.448 37.472 263.664 37.5307 263.851 37.648C264.038 37.76 264.184 37.9147 264.291 38.112C264.398 38.3093 264.451 38.5387 264.451 38.8C264.451 39.056 264.398 39.2853 264.291 39.488C264.184 39.6853 264.038 39.8427 263.851 39.96C263.664 40.072 263.448 40.128 263.203 40.128ZM263.203 39.568C263.422 39.568 263.6 39.496 263.739 39.352C263.878 39.208 263.947 39.024 263.947 38.8C263.947 38.576 263.878 38.392 263.739 38.248C263.6 38.104 263.422 38.032 263.203 38.032C262.99 38.032 262.814 38.104 262.675 38.248C262.536 38.392 262.467 38.576 262.467 38.8C262.467 39.024 262.536 39.208 262.675 39.352C262.814 39.496 262.99 39.568 263.203 39.568ZM260.171 36.928C259.926 36.928 259.71 36.872 259.523 36.76C259.336 36.6427 259.19 36.4853 259.083 36.288C258.976 36.0853 258.923 35.856 258.923 35.6C258.923 35.3387 258.976 35.1093 259.083 34.912C259.19 34.7147 259.336 34.56 259.523 34.448C259.71 34.3307 259.926 34.272 260.171 34.272C260.416 34.272 260.632 34.3307 260.819 34.448C261.006 34.56 261.152 34.7147 261.259 34.912C261.366 35.1093 261.419 35.3387 261.419 35.6C261.419 35.856 261.366 36.0853 261.259 36.288C261.152 36.4853 261.006 36.6427 260.819 36.76C260.632 36.872 260.416 36.928 260.171 36.928ZM260.171 36.368C260.39 36.368 260.566 36.296 260.699 36.152C260.838 36.008 260.907 35.824 260.907 35.6C260.907 35.376 260.838 35.192 260.699 35.048C260.566 34.904 260.39 34.832 260.171 34.832C259.958 34.832 259.782 34.904 259.643 35.048C259.504 35.192 259.435 35.376 259.435 35.6C259.435 35.824 259.504 36.008 259.643 36.152C259.782 36.296 259.958 36.368 260.171 36.368Z" fill="black"/>
<path d="M257.333 28.7951V16.5386M257.333 16.5386L263.216 22.4217M257.333 16.5386L251.45 22.4217" stroke="black" stroke-linecap="round" stroke-linejoin="round"/>
<path d="M19.074 58.6781C18.43 58.6781 17.8747 58.5848 17.408 58.3981C16.9507 58.2114 16.582 57.9688 16.302 57.6701C16.022 57.3621 15.826 57.0401 15.714 56.7041L16.75 56.3401C16.89 56.6948 17.1467 57.0028 17.52 57.2641C17.8933 57.5254 18.3507 57.6608 18.892 57.6701C19.5547 57.6701 20.0727 57.5394 20.446 57.2781C20.8287 57.0074 21.02 56.6621 21.02 56.2421C21.02 55.8408 20.8473 55.5141 20.502 55.2621C20.166 55.0101 19.7273 54.8141 19.186 54.6741L18.22 54.4361C17.8187 54.3334 17.45 54.1794 17.114 53.9741C16.7873 53.7688 16.526 53.5121 16.33 53.2041C16.1433 52.8868 16.05 52.5088 16.05 52.0701C16.05 51.2768 16.3113 50.6561 16.834 50.2081C17.3567 49.7508 18.108 49.5221 19.088 49.5221C19.6573 49.5221 20.152 49.6154 20.572 49.8021C20.992 49.9888 21.3327 50.2314 21.594 50.5301C21.8647 50.8288 22.0513 51.1414 22.154 51.4681L21.104 51.8461C20.9453 51.4541 20.6793 51.1368 20.306 50.8941C19.942 50.6514 19.4987 50.5301 18.976 50.5301C18.4253 50.5301 17.9913 50.6654 17.674 50.9361C17.3567 51.1974 17.198 51.5474 17.198 51.9861C17.198 52.3968 17.3193 52.7094 17.562 52.9241C17.814 53.1294 18.1453 53.2834 18.556 53.3861L19.536 53.6101C20.3853 53.8154 21.034 54.1561 21.482 54.6321C21.9393 55.1081 22.168 55.6168 22.168 56.1581C22.168 56.6248 22.0513 57.0494 21.818 57.4321C21.5847 57.8148 21.2393 58.1181 20.782 58.3421C20.3247 58.5661 19.7553 58.6781 19.074 58.6781ZM18.57 60.4421V48.0801H19.606V60.4421H18.57ZM25.9267 59.0001V49.8301L26.0247 49.2001H27.0887V59.0001H25.9267ZM23.7287 51.7201V50.6421C23.9247 50.6514 24.158 50.5861 24.4287 50.4461C24.6993 50.3061 24.9793 50.1241 25.2687 49.9001C25.558 49.6761 25.81 49.4428 26.0247 49.2001L26.7527 49.9981C26.4447 50.3248 26.1227 50.6188 25.7867 50.8801C25.4507 51.1414 25.11 51.3514 24.7647 51.5101C24.4193 51.6594 24.074 51.7294 23.7287 51.7201ZM29.4699 59.0001V58.0201C29.4699 57.7121 29.5305 57.4088 29.6519 57.1101C29.7825 56.8021 29.9645 56.4988 30.1979 56.2001C30.4405 55.9014 30.7345 55.6214 31.0799 55.3601L33.1099 53.8341C33.3525 53.6661 33.5625 53.4748 33.7399 53.2601C33.9265 53.0361 34.0712 52.8074 34.1739 52.5741C34.2765 52.3314 34.3279 52.0981 34.3279 51.8741C34.3279 51.5474 34.2485 51.2534 34.0899 50.9921C33.9312 50.7214 33.7072 50.5068 33.4179 50.3481C33.1285 50.1894 32.7879 50.1101 32.3959 50.1101C32.0132 50.1101 31.6772 50.1848 31.3879 50.3341C31.0985 50.4741 30.8605 50.6654 30.6739 50.9081C30.4872 51.1414 30.3519 51.3934 30.2679 51.6641L29.0639 51.4261C29.1759 51.0061 29.3765 50.6141 29.6659 50.2501C29.9645 49.8861 30.3425 49.5921 30.7999 49.3681C31.2572 49.1441 31.7659 49.0321 32.3259 49.0321C32.9792 49.0321 33.5439 49.1581 34.0199 49.4101C34.4959 49.6528 34.8645 49.9888 35.1259 50.4181C35.3965 50.8381 35.5319 51.3188 35.5319 51.8601C35.5319 52.3734 35.3919 52.8588 35.1119 53.3161C34.8319 53.7734 34.4259 54.2168 33.8939 54.6461L31.9759 56.1021C31.6025 56.3821 31.3132 56.6761 31.1079 56.9841C30.9119 57.2921 30.7999 57.6141 30.7719 57.9501H35.6719V59.0001H29.4699ZM37.0522 60.6101L37.8502 57.6561H39.1102L38.0182 60.6101H37.0522ZM44.1304 59.1681C43.3837 59.1681 42.7211 58.9534 42.1424 58.5241C41.5637 58.0854 41.1111 57.4881 40.7844 56.7321C40.4577 55.9668 40.2944 55.0894 40.2944 54.1001C40.2944 53.1108 40.4577 52.2381 40.7844 51.4821C41.1111 50.7168 41.5591 50.1194 42.1284 49.6901C42.7071 49.2514 43.3744 49.0321 44.1304 49.0321C44.8864 49.0321 45.5491 49.2514 46.1184 49.6901C46.6971 50.1194 47.1497 50.7168 47.4764 51.4821C47.8124 52.2381 47.9804 53.1108 47.9804 54.1001C47.9804 55.0894 47.8171 55.9668 47.4904 56.7321C47.1637 57.4881 46.7111 58.0854 46.1324 58.5241C45.5537 58.9534 44.8864 59.1681 44.1304 59.1681ZM44.1304 58.1041C44.6531 58.1041 45.1151 57.9314 45.5164 57.5861C45.9271 57.2408 46.2444 56.7694 46.4684 56.1721C46.7017 55.5748 46.8184 54.8841 46.8184 54.1001C46.8184 53.3161 46.7017 52.6254 46.4684 52.0281C46.2444 51.4214 45.9271 50.9501 45.5164 50.6141C45.1151 50.2688 44.6531 50.0961 44.1304 50.0961C43.6077 50.0961 43.1457 50.2688 42.7444 50.6141C42.3431 50.9501 42.0257 51.4214 41.7924 52.0281C41.5684 52.6254 41.4564 53.3161 41.4564 54.1001C41.4564 54.8841 41.5684 55.5748 41.7924 56.1721C42.0257 56.7694 42.3431 57.2408 42.7444 57.5861C43.1551 57.9314 43.6171 58.1041 44.1304 58.1041ZM53.0991 59.1681C52.3525 59.1681 51.6898 58.9534 51.1111 58.5241C50.5325 58.0854 50.0798 57.4881 49.7531 56.7321C49.4265 55.9668 49.2631 55.0894 49.2631 54.1001C49.2631 53.1108 49.4265 52.2381 49.7531 51.4821C50.0798 50.7168 50.5278 50.1194 51.0971 49.6901C51.6758 49.2514 52.3431 49.0321 53.0991 49.0321C53.8551 49.0321 54.5178 49.2514 55.0871 49.6901C55.6658 50.1194 56.1185 50.7168 56.4451 51.4821C56.7811 52.2381 56.9491 53.1108 56.9491 54.1001C56.9491 55.0894 56.7858 55.9668 56.4591 56.7321C56.1325 57.4881 55.6798 58.0854 55.1011 58.5241C54.5225 58.9534 53.8551 59.1681 53.0991 59.1681ZM53.0991 58.1041C53.6218 58.1041 54.0838 57.9314 54.4851 57.5861C54.8958 57.2408 55.2131 56.7694 55.4371 56.1721C55.6705 55.5748 55.7871 54.8841 55.7871 54.1001C55.7871 53.3161 55.6705 52.6254 55.4371 52.0281C55.2131 51.4214 54.8958 50.9501 54.4851 50.6141C54.0838 50.2688 53.6218 50.0961 53.0991 50.0961C52.5765 50.0961 52.1145 50.2688 51.7131 50.6141C51.3118 50.9501 50.9945 51.4214 50.7611 52.0281C50.5371 52.6254 50.4251 53.3161 50.4251 54.1001C50.4251 54.8841 50.5371 55.5748 50.7611 56.1721C50.9945 56.7694 51.3118 57.2408 51.7131 57.5861C52.1238 57.9314 52.5858 58.1041 53.0991 58.1041ZM62.0679 59.1681C61.3212 59.1681 60.6586 58.9534 60.0799 58.5241C59.5012 58.0854 59.0486 57.4881 58.7219 56.7321C58.3952 55.9668 58.2319 55.0894 58.2319 54.1001C58.2319 53.1108 58.3952 52.2381 58.7219 51.4821C59.0486 50.7168 59.4966 50.1194 60.0659 49.6901C60.6446 49.2514 61.3119 49.0321 62.0679 49.0321C62.8239 49.0321 63.4866 49.2514 64.0559 49.6901C64.6346 50.1194 65.0872 50.7168 65.4139 51.4821C65.7499 52.2381 65.9179 53.1108 65.9179 54.1001C65.9179 55.0894 65.7546 55.9668 65.4279 56.7321C65.1012 57.4881 64.6486 58.0854 64.0699 58.5241C63.4912 58.9534 62.8239 59.1681 62.0679 59.1681ZM62.0679 58.1041C62.5906 58.1041 63.0526 57.9314 63.4539 57.5861C63.8646 57.2408 64.1819 56.7694 64.4059 56.1721C64.6392 55.5748 64.7559 54.8841 64.7559 54.1001C64.7559 53.3161 64.6392 52.6254 64.4059 52.0281C64.1819 51.4214 63.8646 50.9501 63.4539 50.6141C63.0526 50.2688 62.5906 50.0961 62.0679 50.0961C61.5452 50.0961 61.0832 50.2688 60.6819 50.6141C60.2806 50.9501 59.9632 51.4214 59.7299 52.0281C59.5059 52.6254 59.3939 53.3161 59.3939 54.1001C59.3939 54.8841 59.5059 55.5748 59.7299 56.1721C59.9632 56.7694 60.2806 57.2408 60.6819 57.5861C61.0926 57.9314 61.5546 58.1041 62.0679 58.1041ZM74.9296 59.2101C74.1923 59.2101 73.539 59.0561 72.9696 58.7481C72.4096 58.4308 71.971 57.9968 71.6536 57.4461C71.3363 56.8861 71.1776 56.2421 71.1776 55.5141V49.2001H72.3676V55.5141C72.3676 56.0274 72.475 56.4848 72.6896 56.8861C72.9136 57.2781 73.2216 57.5861 73.6136 57.8101C74.0056 58.0248 74.4536 58.1321 74.9576 58.1321C75.471 58.1321 75.9236 58.0248 76.3156 57.8101C76.717 57.5861 77.025 57.2781 77.2396 56.8861C77.4636 56.4848 77.5756 56.0274 77.5756 55.5141V49.2001H78.7516V55.5141C78.7516 56.2421 78.593 56.8861 78.2756 57.4461C77.9583 57.9968 77.5103 58.4308 76.9316 58.7481C76.353 59.0561 75.6856 59.2101 74.9296 59.2101ZM84.3521 59.1681C83.8107 59.1681 83.3301 59.1121 82.9101 59.0001C82.4901 58.8788 82.1261 58.7154 81.8181 58.5101C81.5101 58.2954 81.2581 58.0621 81.0621 57.8101C80.8661 57.5488 80.7214 57.2734 80.6281 56.9841L81.7621 56.5921C81.9021 57.0028 82.1821 57.3621 82.6021 57.6701C83.0314 57.9688 83.5541 58.1181 84.1701 58.1181C84.9261 58.1181 85.5187 57.9688 85.9481 57.6701C86.3774 57.3714 86.5921 56.9748 86.5921 56.4801C86.5921 56.0228 86.4007 55.6541 86.0181 55.3741C85.6354 55.0848 85.1314 54.8608 84.5061 54.7021L83.4281 54.4221C82.9894 54.3101 82.5834 54.1468 82.2101 53.9321C81.8461 53.7081 81.5521 53.4281 81.3281 53.0921C81.1134 52.7468 81.0061 52.3361 81.0061 51.8601C81.0061 50.9734 81.2907 50.2828 81.8601 49.7881C82.4387 49.2841 83.2694 49.0321 84.3521 49.0321C84.9961 49.0321 85.5514 49.1394 86.0181 49.3541C86.4847 49.5594 86.8627 49.8254 87.1521 50.1521C87.4507 50.4694 87.6607 50.8148 87.7821 51.1881L86.6621 51.5801C86.4847 51.1134 86.1861 50.7494 85.7661 50.4881C85.3461 50.2174 84.8374 50.0821 84.2401 50.0821C83.6147 50.0821 83.1154 50.2361 82.7421 50.5441C82.3781 50.8428 82.1961 51.2534 82.1961 51.7761C82.1961 52.2241 82.3407 52.5694 82.6301 52.8121C82.9194 53.0454 83.2974 53.2181 83.7641 53.3301L84.8421 53.5961C85.7941 53.8201 86.5221 54.1934 87.0261 54.7161C87.5394 55.2294 87.7961 55.7848 87.7961 56.3821C87.7961 56.8954 87.6654 57.3668 87.4041 57.7961C87.1427 58.2161 86.7554 58.5521 86.2421 58.8041C85.7381 59.0468 85.1081 59.1681 84.3521 59.1681ZM89.8157 59.0001V49.2001H92.7977C93.7217 49.2001 94.5337 49.4101 95.2337 49.8301C95.943 50.2408 96.4983 50.8148 96.8997 51.5521C97.301 52.2894 97.5017 53.1388 97.5017 54.1001C97.5017 55.0521 97.301 55.8968 96.8997 56.6341C96.4983 57.3714 95.943 57.9501 95.2337 58.3701C94.5337 58.7901 93.7217 59.0001 92.7977 59.0001H89.8157ZM91.0057 57.9081H92.7977C93.2923 57.9081 93.7497 57.8148 94.1697 57.6281C94.5897 57.4321 94.9583 57.1568 95.2757 56.8021C95.6023 56.4474 95.8543 56.0414 96.0317 55.5841C96.2183 55.1174 96.3117 54.6228 96.3117 54.1001C96.3117 53.5774 96.2183 53.0874 96.0317 52.6301C95.8543 52.1634 95.6023 51.7528 95.2757 51.3981C94.9583 51.0434 94.5897 50.7728 94.1697 50.5861C93.7497 50.3901 93.2923 50.2921 92.7977 50.2921H91.0057V57.9081Z" fill="#333333"/>
<path d="M21.56 33.1919C20.4187 33.1919 19.4107 32.9466 18.536 32.4559C17.6613 31.9546 16.9733 31.2719 16.472 30.4079C15.9813 29.5332 15.736 28.5359 15.736 27.4159C15.736 26.2746 15.9813 25.2719 16.472 24.4079C16.9733 23.5332 17.6613 22.8506 18.536 22.3599C19.4107 21.8586 20.4187 21.6079 21.56 21.6079C22.1573 21.6079 22.7387 21.7092 23.304 21.9119C23.8693 22.1039 24.3867 22.3706 24.856 22.7119C25.3253 23.0532 25.704 23.4426 25.992 23.8799L24.92 24.6159C24.7067 24.2746 24.4187 23.9706 24.056 23.7039C23.6933 23.4266 23.2933 23.2132 22.856 23.0639C22.4293 22.9146 21.9973 22.8399 21.56 22.8399C20.696 22.8399 19.928 23.0372 19.256 23.4319C18.584 23.8159 18.056 24.3492 17.672 25.0319C17.288 25.7146 17.096 26.5092 17.096 27.4159C17.096 28.2906 17.2827 29.0746 17.656 29.7679C18.04 30.4506 18.568 30.9892 19.24 31.3839C19.9227 31.7786 20.696 31.9759 21.56 31.9759C22.2853 31.9759 22.9253 31.8266 23.48 31.5279C24.0453 31.2186 24.488 30.7972 24.808 30.2639C25.128 29.7199 25.288 29.0959 25.288 28.3919L26.584 28.2959C26.584 29.2772 26.3707 30.1359 25.944 30.8719C25.5173 31.5972 24.9253 32.1679 24.168 32.5839C23.4107 32.9892 22.5413 33.1919 21.56 33.1919ZM22.536 28.4559V27.2879H26.584V28.3439L25.944 28.4559H22.536ZM28.9803 28.6639C28.9803 27.7999 29.1456 27.1012 29.4763 26.5679C29.8069 26.0239 30.2283 25.6239 30.7403 25.3679C31.2629 25.1012 31.8123 24.9679 32.3883 24.9679V26.1679C31.9189 26.1679 31.4656 26.2479 31.0283 26.4079C30.6016 26.5572 30.2496 26.8079 29.9723 27.1599C29.6949 27.5119 29.5563 27.9919 29.5563 28.5999L28.9803 28.6639ZM28.2763 32.9999V24.9999H29.5563V32.9999H28.2763ZM37.2185 33.1919C36.4398 33.1919 35.7465 33.0159 35.1385 32.6639C34.5412 32.3012 34.0718 31.8052 33.7305 31.1759C33.3892 30.5466 33.2185 29.8212 33.2185 28.9999C33.2185 28.1786 33.3838 27.4532 33.7145 26.8239C34.0558 26.1946 34.5252 25.7039 35.1225 25.3519C35.7305 24.9892 36.4185 24.8079 37.1865 24.8079C37.9758 24.8079 38.6692 24.9892 39.2665 25.3519C39.8745 25.7039 40.3438 26.1946 40.6745 26.8239C41.0158 27.4532 41.1865 28.1786 41.1865 28.9999C41.1865 29.8212 41.0158 30.5466 40.6745 31.1759C40.3438 31.8052 39.8798 32.3012 39.2825 32.6639C38.6852 33.0159 37.9972 33.1919 37.2185 33.1919ZM37.2185 32.0079C37.7518 32.0079 38.2158 31.8799 38.6105 31.6239C39.0052 31.3679 39.3145 31.0159 39.5385 30.5679C39.7732 30.1199 39.8905 29.5972 39.8905 28.9999C39.8905 28.4026 39.7732 27.8799 39.5385 27.4319C39.3145 26.9839 38.9998 26.6319 38.5945 26.3759C38.1892 26.1199 37.7198 25.9919 37.1865 25.9919C36.6638 25.9919 36.1998 26.1199 35.7945 26.3759C35.3998 26.6319 35.0852 26.9839 34.8505 27.4319C34.6265 27.8799 34.5145 28.4026 34.5145 28.9999C34.5145 29.5866 34.6265 30.1092 34.8505 30.5679C35.0852 31.0159 35.4052 31.3679 35.8105 31.6239C36.2265 31.8799 36.6958 32.0079 37.2185 32.0079ZM50.0246 32.9999L52.7286 24.9999H54.0246L51.3046 32.9999H50.0246ZM44.5846 32.9999L47.2886 24.9999H48.4886L45.8166 32.9999H44.5846ZM44.5206 32.9999L41.8006 24.9999H43.0966L45.7686 32.9999H44.5206ZM50.0246 32.9999L47.3526 24.9999H48.5686L51.2406 32.9999H50.0246ZM62.0606 33.1919C61.474 33.1919 60.962 33.1066 60.5246 32.9359C60.0873 32.7546 59.7193 32.5199 59.4206 32.2319C59.1326 31.9439 58.9246 31.6292 58.7966 31.2879L59.9166 30.8239C60.098 31.1866 60.37 31.4799 60.7326 31.7039C61.0953 31.9279 61.4953 32.0399 61.9326 32.0399C62.434 32.0399 62.8553 31.9439 63.1966 31.7519C63.538 31.5492 63.7086 31.2666 63.7086 30.9039C63.7086 30.5732 63.5806 30.3066 63.3246 30.1039C63.0793 29.9012 62.7113 29.7359 62.2206 29.6079L61.4526 29.3999C60.7273 29.2079 60.162 28.9199 59.7566 28.5359C59.3513 28.1412 59.1486 27.6986 59.1486 27.2079C59.1486 26.4506 59.394 25.8639 59.8846 25.4479C60.386 25.0212 61.1273 24.8079 62.1086 24.8079C62.578 24.8079 63.0046 24.8772 63.3886 25.0159C63.7726 25.1546 64.1033 25.3519 64.3806 25.6079C64.658 25.8532 64.8606 26.1466 64.9886 26.4879L63.8686 26.9839C63.73 26.6212 63.5006 26.3599 63.1806 26.1999C62.8606 26.0399 62.4713 25.9599 62.0126 25.9599C61.522 25.9599 61.138 26.0666 60.8606 26.2799C60.5833 26.4826 60.4446 26.7706 60.4446 27.1439C60.4446 27.3572 60.5566 27.5599 60.7806 27.7519C61.0153 27.9332 61.3566 28.0826 61.8046 28.1999L62.6046 28.4079C63.1273 28.5359 63.5646 28.7279 63.9166 28.9839C64.2686 29.2292 64.5353 29.5119 64.7166 29.8319C64.898 30.1519 64.9886 30.4932 64.9886 30.8559C64.9886 31.3359 64.8606 31.7519 64.6046 32.1039C64.3486 32.4559 64.002 32.7279 63.5646 32.9199C63.1273 33.1012 62.626 33.1919 62.0606 33.1919ZM71.6418 32.9999L71.5778 31.6879V28.7759C71.5778 28.1466 71.5084 27.6292 71.3698 27.2239C71.2311 26.8079 71.0124 26.4932 70.7138 26.2799C70.4151 26.0666 70.0258 25.9599 69.5458 25.9599C69.1084 25.9599 68.7298 26.0506 68.4098 26.2319C68.1004 26.4026 67.8444 26.6799 67.6418 27.0639L66.4898 26.6159C66.6924 26.2426 66.9378 25.9226 67.2258 25.6559C67.5138 25.3786 67.8498 25.1706 68.2338 25.0319C68.6178 24.8826 69.0551 24.8079 69.5458 24.8079C70.2924 24.8079 70.9058 24.9572 71.3858 25.2559C71.8764 25.5439 72.2444 25.9759 72.4898 26.5519C72.7351 27.1172 72.8524 27.8212 72.8418 28.6639L72.8258 32.9999H71.6418ZM69.2418 33.1919C68.3031 33.1919 67.5671 32.9786 67.0338 32.5519C66.5111 32.1146 66.2498 31.5119 66.2498 30.7439C66.2498 29.9332 66.5164 29.3146 67.0498 28.8879C67.5938 28.4506 68.3511 28.2319 69.3218 28.2319H71.6098V29.3039H69.6098C68.8631 29.3039 68.3298 29.4266 68.0098 29.6719C67.7004 29.9172 67.5458 30.2692 67.5458 30.7279C67.5458 31.1439 67.7004 31.4746 68.0098 31.7199C68.3191 31.9546 68.7511 32.0719 69.3058 32.0719C69.7644 32.0719 70.1644 31.9759 70.5058 31.7839C70.8471 31.5812 71.1084 31.2986 71.2898 30.9359C71.4818 30.5626 71.5778 30.1252 71.5778 29.6239H72.1218C72.1218 30.7119 71.8764 31.5812 71.3858 32.2319C70.8951 32.8719 70.1804 33.1919 69.2418 33.1919ZM77.193 32.9999L80.457 24.9999H81.801L78.457 32.9999H77.193ZM77.113 32.9999L73.769 24.9999H75.097L78.361 32.9999H77.113ZM83.1375 32.9999V24.9999H84.4175V32.9999H83.1375ZM83.7935 23.1439C83.5802 23.1439 83.3935 23.0639 83.2335 22.9039C83.0735 22.7439 82.9935 22.5572 82.9935 22.3439C82.9935 22.1199 83.0735 21.9332 83.2335 21.7839C83.3935 21.6239 83.5802 21.5439 83.7935 21.5439C84.0175 21.5439 84.2042 21.6239 84.3535 21.7839C84.5135 21.9332 84.5935 22.1199 84.5935 22.3439C84.5935 22.5572 84.5135 22.7439 84.3535 22.9039C84.2042 23.0639 84.0175 23.1439 83.7935 23.1439ZM86.7763 32.9999V24.9999H87.9763L88.0563 26.4719V32.9999H86.7763ZM92.3923 32.9999V28.9039H93.6723V32.9999H92.3923ZM92.3923 28.9039C92.3923 28.1146 92.3016 27.5119 92.1203 27.0959C91.9389 26.6799 91.6883 26.3972 91.3683 26.2479C91.0483 26.0879 90.6856 26.0079 90.2803 26.0079C89.5763 26.0079 89.0269 26.2586 88.6323 26.7599C88.2483 27.2506 88.0563 27.9492 88.0563 28.8559H87.4323C87.4323 28.0132 87.5549 27.2879 87.8003 26.6799C88.0456 26.0719 88.4029 25.6079 88.8723 25.2879C89.3416 24.9679 89.9069 24.8079 90.5683 24.8079C91.1976 24.8079 91.7416 24.9359 92.2003 25.1919C92.6696 25.4372 93.0323 25.8319 93.2883 26.3759C93.5549 26.9199 93.6829 27.6346 93.6723 28.5199V28.9039H92.3923ZM98.8981 36.3919C98.3861 36.3919 97.9168 36.3386 97.4901 36.2319C97.0741 36.1359 96.7168 36.0239 96.4181 35.8959C96.1301 35.7786 95.9221 35.6772 95.7941 35.5919L96.2741 34.5519C96.4128 34.6266 96.6101 34.7172 96.8661 34.8239C97.1221 34.9412 97.4208 35.0372 97.7621 35.1119C98.1141 35.1972 98.4875 35.2399 98.8821 35.2399C99.3941 35.2399 99.8528 35.1332 100.258 34.9199C100.674 34.7172 100.994 34.3919 101.218 33.9439C101.453 33.5066 101.57 32.9412 101.57 32.2479V24.9999H102.85V32.2319C102.85 33.1492 102.679 33.9172 102.338 34.5359C101.997 35.1546 101.527 35.6186 100.93 35.9279C100.333 36.2372 99.6555 36.3919 98.8981 36.3919ZM98.8501 32.9359C98.1355 32.9359 97.5061 32.7652 96.9621 32.4239C96.4181 32.0826 95.9915 31.6079 95.6821 30.9999C95.3835 30.3812 95.2341 29.6772 95.2341 28.8879C95.2341 28.0772 95.3835 27.3679 95.6821 26.7599C95.9915 26.1412 96.4181 25.6612 96.9621 25.3199C97.5061 24.9786 98.1355 24.8079 98.8501 24.8079C99.5221 24.8079 100.109 24.9786 100.61 25.3199C101.111 25.6612 101.501 26.1412 101.778 26.7599C102.066 27.3679 102.21 28.0772 102.21 28.8879C102.21 29.6879 102.066 30.3919 101.778 30.9999C101.501 31.6079 101.111 32.0826 100.61 32.4239C100.109 32.7652 99.5221 32.9359 98.8501 32.9359ZM99.1541 31.8319C99.6235 31.8319 100.039 31.7039 100.402 31.4479C100.765 31.1919 101.047 30.8452 101.25 30.4079C101.453 29.9599 101.554 29.4426 101.554 28.8559C101.554 28.2906 101.447 27.7892 101.234 27.3519C101.031 26.9039 100.749 26.5572 100.386 26.3119C100.034 26.0559 99.6181 25.9279 99.1381 25.9279C98.6368 25.9279 98.1888 26.0559 97.7941 26.3119C97.4101 26.5572 97.1061 26.9039 96.8821 27.3519C96.6688 27.7892 96.5621 28.2906 96.5621 28.8559C96.5621 29.4426 96.6741 29.9599 96.8981 30.4079C97.1221 30.8452 97.4261 31.1919 97.8101 31.4479C98.2048 31.7039 98.6528 31.8319 99.1541 31.8319ZM107.889 33.1919C107.302 33.1919 106.79 33.1066 106.353 32.9359C105.915 32.7546 105.547 32.5199 105.249 32.2319C104.961 31.9439 104.753 31.6292 104.625 31.2879L105.745 30.8239C105.926 31.1866 106.198 31.4799 106.561 31.7039C106.923 31.9279 107.323 32.0399 107.761 32.0399C108.262 32.0399 108.683 31.9439 109.025 31.7519C109.366 31.5492 109.537 31.2666 109.537 30.9039C109.537 30.5732 109.409 30.3066 109.153 30.1039C108.907 29.9012 108.539 29.7359 108.049 29.6079L107.281 29.3999C106.555 29.2079 105.99 28.9199 105.585 28.5359C105.179 28.1412 104.977 27.6986 104.977 27.2079C104.977 26.4506 105.222 25.8639 105.713 25.4479C106.214 25.0212 106.955 24.8079 107.937 24.8079C108.406 24.8079 108.833 24.8772 109.217 25.0159C109.601 25.1546 109.931 25.3519 110.209 25.6079C110.486 25.8532 110.689 26.1466 110.817 26.4879L109.697 26.9839C109.558 26.6212 109.329 26.3599 109.009 26.1999C108.689 26.0399 108.299 25.9599 107.841 25.9599C107.35 25.9599 106.966 26.0666 106.689 26.2799C106.411 26.4826 106.273 26.7706 106.273 27.1439C106.273 27.3572 106.385 27.5599 106.609 27.7519C106.843 27.9332 107.185 28.0826 107.633 28.1999L108.433 28.4079C108.955 28.5359 109.393 28.7279 109.745 28.9839C110.097 29.2292 110.363 29.5119 110.545 29.8319C110.726 30.1519 110.817 30.4932 110.817 30.8559C110.817 31.3359 110.689 31.7519 110.433 32.1039C110.177 32.4559 109.83 32.7279 109.393 32.9199C108.955 33.1012 108.454 33.1919 107.889 33.1919ZM117.295 32.9999V24.0879C117.295 23.2559 117.487 22.6319 117.871 22.2159C118.266 21.7892 118.863 21.5759 119.663 21.5759C119.876 21.5759 120.116 21.6132 120.383 21.6879C120.65 21.7626 120.932 21.8692 121.231 22.0079L120.751 23.0159C120.506 22.9199 120.298 22.8452 120.127 22.7919C119.956 22.7386 119.812 22.7119 119.695 22.7119C119.322 22.7119 119.039 22.8346 118.847 23.0799C118.666 23.3146 118.575 23.6826 118.575 24.1839V32.9999H117.295ZM115.823 26.1039V24.9999H120.895V26.1039H115.823ZM127.282 32.9999L127.218 31.6879V28.7759C127.218 28.1466 127.149 27.6292 127.01 27.2239C126.872 26.8079 126.653 26.4932 126.354 26.2799C126.056 26.0666 125.666 25.9599 125.186 25.9599C124.749 25.9599 124.37 26.0506 124.05 26.2319C123.741 26.4026 123.485 26.6799 123.282 27.0639L122.13 26.6159C122.333 26.2426 122.578 25.9226 122.866 25.6559C123.154 25.3786 123.49 25.1706 123.874 25.0319C124.258 24.8826 124.696 24.8079 125.186 24.8079C125.933 24.8079 126.546 24.9572 127.026 25.2559C127.517 25.5439 127.885 25.9759 128.13 26.5519C128.376 27.1172 128.493 27.8212 128.482 28.6639L128.466 32.9999H127.282ZM124.882 33.1919C123.944 33.1919 123.208 32.9786 122.674 32.5519C122.152 32.1146 121.89 31.5119 121.89 30.7439C121.89 29.9332 122.157 29.3146 122.69 28.8879C123.234 28.4506 123.992 28.2319 124.962 28.2319H127.25V29.3039H125.25C124.504 29.3039 123.97 29.4266 123.65 29.6719C123.341 29.9172 123.186 30.2692 123.186 30.7279C123.186 31.1439 123.341 31.4746 123.65 31.7199C123.96 31.9546 124.392 32.0719 124.946 32.0719C125.405 32.0719 125.805 31.9759 126.146 31.7839C126.488 31.5812 126.749 31.2986 126.93 30.9359C127.122 30.5626 127.218 30.1252 127.218 29.6239H127.762C127.762 30.7119 127.517 31.5812 127.026 32.2319C126.536 32.8719 125.821 33.1919 124.882 33.1919ZM133.311 33.1919C132.724 33.1919 132.212 33.1066 131.775 32.9359C131.337 32.7546 130.969 32.5199 130.671 32.2319C130.383 31.9439 130.175 31.6292 130.047 31.2879L131.167 30.8239C131.348 31.1866 131.62 31.4799 131.983 31.7039C132.345 31.9279 132.745 32.0399 133.183 32.0399C133.684 32.0399 134.105 31.9439 134.447 31.7519C134.788 31.5492 134.959 31.2666 134.959 30.9039C134.959 30.5732 134.831 30.3066 134.575 30.1039C134.329 29.9012 133.961 29.7359 133.471 29.6079L132.703 29.3999C131.977 29.2079 131.412 28.9199 131.007 28.5359C130.601 28.1412 130.399 27.6986 130.399 27.2079C130.399 26.4506 130.644 25.8639 131.135 25.4479C131.636 25.0212 132.377 24.8079 133.359 24.8079C133.828 24.8079 134.255 24.8772 134.639 25.0159C135.023 25.1546 135.353 25.3519 135.631 25.6079C135.908 25.8532 136.111 26.1466 136.239 26.4879L135.119 26.9839C134.98 26.6212 134.751 26.3599 134.431 26.1999C134.111 26.0399 133.721 25.9599 133.263 25.9599C132.772 25.9599 132.388 26.0666 132.111 26.2799C131.833 26.4826 131.695 26.7706 131.695 27.1439C131.695 27.3572 131.807 27.5599 132.031 27.7519C132.265 27.9332 132.607 28.0826 133.055 28.1999L133.855 28.4079C134.377 28.5359 134.815 28.7279 135.167 28.9839C135.519 29.2292 135.785 29.5119 135.967 29.8319C136.148 30.1519 136.239 30.4932 136.239 30.8559C136.239 31.3359 136.111 31.7519 135.855 32.1039C135.599 32.4559 135.252 32.7279 134.815 32.9199C134.377 33.1012 133.876 33.1919 133.311 33.1919ZM140.972 33.1919C140.193 33.1919 139.59 32.9892 139.164 32.5839C138.737 32.1786 138.524 31.6079 138.524 30.8719V22.5039H139.804V30.7439C139.804 31.1492 139.91 31.4639 140.124 31.6879C140.348 31.9012 140.657 32.0079 141.052 32.0079C141.18 32.0079 141.302 31.9919 141.42 31.9599C141.548 31.9172 141.713 31.8212 141.916 31.6719L142.412 32.7119C142.134 32.8932 141.884 33.0159 141.66 33.0799C141.436 33.1546 141.206 33.1919 140.972 33.1919ZM137.132 26.1359V24.9999H142.204V26.1359H137.132ZM147.468 33.1919C146.689 33.1919 146.001 33.0159 145.404 32.6639C144.806 32.3012 144.337 31.8052 143.996 31.1759C143.665 30.5466 143.5 29.8212 143.5 28.9999C143.5 28.1786 143.665 27.4532 143.996 26.8239C144.337 26.1946 144.801 25.7039 145.388 25.3519C145.985 24.9892 146.668 24.8079 147.436 24.8079C148.182 24.8079 148.828 24.9946 149.372 25.3679C149.916 25.7306 150.337 26.2426 150.636 26.9039C150.934 27.5652 151.084 28.3439 151.084 29.2399H144.476L144.796 28.9679C144.796 29.6079 144.908 30.1572 145.132 30.6159C145.366 31.0746 145.692 31.4266 146.108 31.6719C146.524 31.9066 146.998 32.0239 147.532 32.0239C148.097 32.0239 148.572 31.8906 148.956 31.6239C149.35 31.3572 149.654 31.0052 149.868 30.5679L150.972 31.1279C150.769 31.5439 150.497 31.9066 150.156 32.2159C149.825 32.5252 149.43 32.7652 148.972 32.9359C148.524 33.1066 148.022 33.1919 147.468 33.1919ZM144.876 28.4239L144.54 28.1679H150.06L149.724 28.4399C149.724 27.9279 149.622 27.4852 149.42 27.1119C149.217 26.7386 148.945 26.4506 148.604 26.2479C148.262 26.0452 147.868 25.9439 147.42 25.9439C146.982 25.9439 146.566 26.0452 146.172 26.2479C145.788 26.4506 145.473 26.7386 145.228 27.1119C144.993 27.4746 144.876 27.9119 144.876 28.4239ZM153.402 28.6639C153.402 27.7999 153.567 27.1012 153.898 26.5679C154.229 26.0239 154.65 25.6239 155.162 25.3679C155.685 25.1012 156.234 24.9679 156.81 24.9679V26.1679C156.341 26.1679 155.887 26.2479 155.45 26.4079C155.023 26.5572 154.671 26.8079 154.394 27.1599C154.117 27.5119 153.978 27.9919 153.978 28.5999L153.402 28.6639ZM152.698 32.9999V24.9999H153.978V32.9999H152.698Z" fill="black"/>
<path d="M84 109H80C79.4477 109 79 109.448 79 110V124C79 124.552 79.4477 125 80 125H84C84.5523 125 85 124.552 85 124V110C85 109.448 84.5523 109 84 109Z" fill="#FEE46F"/>
<path d="M96 103H92C91.4477 103 91 103.448 91 104V124C91 124.552 91.4477 125 92 125H96C96.5523 125 97 124.552 97 124V104C97 103.448 96.5523 103 96 103Z" fill="#FEE46F"/>
<path d="M108 100H104C103.448 100 103 100.448 103 101V124C103 124.552 103.448 125 104 125H108C108.552 125 109 124.552 109 124V101C109 100.448 108.552 100 108 100Z" fill="#FEE46F"/>
<path d="M120 92H116C115.448 92 115 92.4477 115 93V124C115 124.552 115.448 125 116 125H120C120.552 125 121 124.552 121 124V93C121 92.4477 120.552 92 120 92Z" fill="#FEE46F"/>
<path d="M132 75H128C127.448 75 127 75.4477 127 76V124C127 124.552 127.448 125 128 125H132C132.552 125 133 124.552 133 124V76C133 75.4477 132.552 75 132 75Z" fill="#FEE46F"/>
<path d="M144 59H140C139.448 59 139 59.4477 139 60V124C139 124.552 139.448 125 140 125H144C144.552 125 145 124.552 145 124V60C145 59.4477 144.552 59 144 59Z" fill="#FEE46F"/>
<path d="M156 93H152C151.448 93 151 93.4477 151 94V124C151 124.552 151.448 125 152 125H156C156.552 125 157 124.552 157 124V94C157 93.4477 156.552 93 156 93Z" fill="#FEE46F"/>
<path d="M168 100H164C163.448 100 163 100.448 163 101V124C163 124.552 163.448 125 164 125H168C168.552 125 169 124.552 169 124V101C169 100.448 168.552 100 168 100Z" fill="#FEE46F"/>
<path d="M180 105H176C175.448 105 175 105.448 175 106V124C175 124.552 175.448 125 176 125H180C180.552 125 181 124.552 181 124V106C181 105.448 180.552 105 180 105Z" fill="#FEE46F"/>
<path d="M192 105H188C187.448 105 187 105.448 187 106V124C187 124.552 187.448 125 188 125H192C192.552 125 193 124.552 193 124V106C193 105.448 192.552 105 192 105Z" fill="#FEE46F"/>
<path d="M204 75H200C199.448 75 199 75.4477 199 76V124C199 124.552 199.448 125 200 125H204C204.552 125 205 124.552 205 124V76C205 75.4477 204.552 75 204 75Z" fill="#FEE46F"/>
<path d="M216 59H212C211.448 59 211 59.4477 211 60V124C211 124.552 211.448 125 212 125H216C216.552 125 217 124.552 217 124V60C217 59.4477 216.552 59 216 59Z" fill="#FEE46F"/>
<path d="M228 107H224C223.448 107 223 107.448 223 108V124C223 124.552 223.448 125 224 125H228C228.552 125 229 124.552 229 124V108C229 107.448 228.552 107 228 107Z" fill="#FEE46F"/>
<path d="M240 104H236C235.448 104 235 104.448 235 105V124C235 124.552 235.448 125 236 125H240C240.552 125 241 124.552 241 124V105C241 104.448 240.552 104 240 104Z" fill="#FEE46F"/>
<path d="M252 103H248C247.448 103 247 103.448 247 104V124C247 124.552 247.448 125 248 125H252C252.552 125 253 124.552 253 124V104C253 103.448 252.552 103 252 103Z" fill="#FEE46F"/>
<path d="M264 103H260C259.448 103 259 103.448 259 104V124C259 124.552 259.448 125 260 125H264C264.552 125 265 124.552 265 124V104C265 103.448 264.552 103 264 103Z" fill="#FEE46F"/>
</g>
</g>
</g>
<defs>
<clipPath id="clip0_1753_2076">
<rect width="280" height="140" fill="white"/>
</clipPath>
<clipPath id="clip1_1753_2076">
<rect width="280" height="140" rx="15" fill="white"/>
</clipPath>
<clipPath id="clip2_1753_2076">
<rect width="280" height="140" rx="15" fill="white"/>
</clipPath>
</defs>
</svg>
