<svg width="30" height="30" viewBox="0 0 30 30" fill="none" xmlns="http://www.w3.org/2000/svg">
<path d="M20.2875 14.476C20.4233 14.3854 20.6081 14.3893 20.7422 14.4822C20.9918 14.6552 21.2465 14.7107 21.4395 14.7322C21.6073 14.7509 21.7982 14.7498 21.9434 14.7498C22.6997 14.7498 23.0778 14.7498 23.342 14.9439C23.4237 15.0039 23.4959 15.0761 23.5559 15.1578C23.75 15.422 23.75 15.8001 23.75 16.5564V24.2498C23.75 25.1925 23.7498 25.6639 23.457 25.9568C23.1641 26.2497 22.6928 26.2498 21.75 26.2498H8.25C7.30719 26.2498 6.83586 26.2497 6.54297 25.9568C6.25018 25.6639 6.25 25.1925 6.25 24.2498V16.5564C6.25 15.8001 6.25 15.422 6.44406 15.1578C6.50411 15.0761 6.57625 15.0039 6.658 14.9439C6.92219 14.7498 7.30034 14.7498 8.05664 14.7498C8.20176 14.7498 8.39266 14.7509 8.56055 14.7322C8.75345 14.7107 9.00819 14.6552 9.25781 14.4822C9.39157 14.3895 9.57548 14.3852 9.71085 14.4756C9.94502 14.6319 10.1912 14.6919 10.3809 14.7186C10.6172 14.7517 10.8989 14.7498 11.1328 14.7498H13.4922C13.676 14.7498 13.9088 14.7519 14.1094 14.7264C14.3381 14.6972 14.6483 14.6206 14.9268 14.3748C14.9691 14.3374 15.0309 14.3374 15.0732 14.3748C15.3517 14.6206 15.6619 14.6972 15.8906 14.7264C16.0912 14.7519 16.324 14.7498 16.5078 14.7498H18.8672C19.1011 14.7498 19.3828 14.7517 19.6191 14.7186C19.8084 14.692 20.0539 14.6318 20.2875 14.476ZM9.669 10.0571C9.82581 9.94499 10.096 10.1602 10.0283 10.3406L8.99316 13.1014L8.91406 13.3084C8.84189 13.489 8.78474 13.5942 8.68848 13.6609L8.6377 13.6902C8.51499 13.7497 8.34971 13.7498 8.05664 13.7498H7.42356C7.40011 13.7498 7.45872 13.7498 7.39159 13.7407C6.91369 13.6756 6.42288 12.871 6.58371 12.4163C6.6063 12.3525 6.38193 12.7885 6.47168 12.6141C6.69333 12.1834 7.10377 11.89 7.9248 11.3035L9.669 10.0571ZM15 6.70781C15.6409 6.70781 16.2025 7.10902 17.3252 7.91093L18.7666 8.94022C19.1612 9.22205 19.5258 9.95414 19.5859 10.4353L19.8594 12.6258C19.9248 13.1496 19.9578 13.4118 19.8086 13.5809L19.7471 13.6365C19.5893 13.7499 19.3293 13.7498 18.8672 13.7498H16.5078L16.2295 13.7478C15.9865 13.742 15.8417 13.7186 15.7354 13.6248C15.5937 13.4996 15.5677 13.2908 15.5156 12.8738L15.1982 10.3377C15.1248 9.75021 15.0883 9.45586 15 9.45586C14.9117 9.45586 14.8752 9.75021 14.8018 10.3377L14.7949 10.3875L14.4844 12.8738C14.4323 13.2908 14.4063 13.4996 14.2646 13.6248L14.208 13.6658C14.067 13.7498 13.8601 13.7498 13.4922 13.7498H11.1328L10.7842 13.7469C10.4801 13.739 10.3034 13.7077 10.1914 13.5809C10.0422 13.4118 10.0752 13.1496 10.1406 12.6258L10.4141 10.4353C10.4738 9.95769 10.841 9.21988 11.2328 8.94021L12.6748 7.91093C13.7975 7.10902 14.3591 6.70781 15 6.70781ZM22.0752 11.3035C22.8962 11.89 23.3067 12.1834 23.5283 12.6141C23.6181 12.7885 23.3937 12.3525 23.4163 12.4163C23.5771 12.871 23.0863 13.6756 22.6084 13.7407C22.5413 13.7498 22.5999 13.7498 22.5764 13.7498H21.9434L21.7207 13.7488C21.5263 13.7446 21.4078 13.7277 21.3115 13.6609C21.1832 13.5719 21.1244 13.4148 21.0068 13.1014L19.9717 10.3406C19.904 10.1602 20.1737 9.94517 20.3304 10.0571L22.0752 11.3035Z" fill="#00A47D"/>
<path d="M5.87127 5.26493C6.05316 4.53737 6.1441 4.17359 6.41536 3.96179C6.68663 3.75 7.0616 3.75 7.81155 3.75H22.1884C22.9384 3.75 23.3134 3.75 23.5846 3.96179C23.8559 4.17359 23.9468 4.53737 24.1287 5.26493L26.0947 13.1287C26.1662 13.4147 26.2019 13.5577 26.1269 13.6539C26.0518 13.75 25.9044 13.75 25.6096 13.75H21.994C21.6356 13.75 21.4564 13.75 21.3235 13.6511C21.1907 13.5523 21.1392 13.3806 21.0362 13.0373L19.9725 9.49155C19.7559 8.76969 19.6476 8.40876 19.5585 8.42642C19.4694 8.44407 19.5069 8.81902 19.5819 9.56892L19.89 12.6505C19.9414 13.1642 19.9671 13.421 19.8182 13.5855C19.6694 13.75 19.4112 13.75 18.895 13.75H16.53C16.0999 13.75 15.8848 13.75 15.742 13.6207C15.5991 13.4915 15.5777 13.2775 15.535 12.8495L15.199 9.49007C15.1267 8.76668 15.0905 8.40499 15 8.40499C14.9095 8.40499 14.8733 8.76668 14.801 9.49007L14.465 12.8495C14.4223 13.2775 14.4009 13.4915 14.258 13.6207C14.1152 13.75 13.9001 13.75 13.47 13.75H11.105C10.5888 13.75 10.3306 13.75 10.1818 13.5855C10.0329 13.421 10.0586 13.1642 10.11 12.6505L10.4181 9.56892C10.4931 8.81902 10.5306 8.44407 10.4415 8.42642C10.3524 8.40876 10.2441 8.76969 10.0275 9.49155L8.9638 13.0373C8.86081 13.3806 8.80931 13.5523 8.67645 13.6511C8.54359 13.75 8.36438 13.75 8.00597 13.75H4.39039C4.0956 13.75 3.94821 13.75 3.87314 13.6539C3.79807 13.5577 3.83382 13.4147 3.90532 13.1287L5.87127 5.26493Z" fill="#011510"/>
<path d="M16.125 18.75H13.875C12.7704 18.75 11.875 19.6454 11.875 20.75V26.1C11.875 26.1828 11.9422 26.25 12.025 26.25H17.975C18.0578 26.25 18.125 26.1828 18.125 26.1V20.75C18.125 19.6454 17.2296 18.75 16.125 18.75Z" fill="#011510"/>
</svg>
