<svg width="28" height="43" viewBox="0 0 28 43" fill="none" xmlns="http://www.w3.org/2000/svg">
<path d="M18.2222 3.38419L17.4345 0.96691L15.5067 2.25612L14.025 0L12.5433 2.25612L10.6155 0.96691L9.8278 3.38419L7.72119 2.73958L9.04007 7.3324H14.025H19.0099L20.3288 2.73958L18.2222 3.38419Z" fill="#0FC1BB"/>
<path d="M14.0251 5.19596C11.0634 5.19596 8.6626 5.69747 8.6626 6.31629V10.6934H19.3877V6.31629C19.3875 5.69747 16.9867 5.19596 14.0251 5.19596Z" fill="#0FC1BB"/>
<path d="M14.0251 11.8135C16.9867 11.8135 19.3875 11.3119 19.3875 10.6932C19.3875 10.0744 16.9867 9.57284 14.0251 9.57284C11.0635 9.57284 8.6626 10.0744 8.6626 10.6932C8.6626 11.3119 11.0635 11.8135 14.0251 11.8135Z" fill="#011510"/>
<path d="M19.5692 6.78513C19.4619 6.78513 19.3545 6.74817 19.2669 6.67318C19.2338 6.64675 17.966 5.6648 13.9993 5.6648C10.0888 5.6648 8.73062 6.6749 8.71716 6.68522C8.5144 6.84143 8.22234 6.80597 8.06466 6.604C7.90698 6.4018 7.93818 6.11173 8.1373 5.95079C8.19905 5.90073 9.7006 4.72712 13.9993 4.72712C18.3497 4.72712 19.7333 5.83734 19.8766 5.9639C20.0702 6.13472 20.0894 6.43103 19.9196 6.6257C19.8275 6.7312 19.6987 6.78513 19.5692 6.78513Z" fill="#3CEFE9"/>
<path d="M15.661 5.7297C16.662 5.81178 17.4156 5.96154 17.9676 6.11839C18.267 6.20327 18.5633 5.98002 18.5633 5.66738V5.66223C18.5633 5.45015 18.4219 5.26622 18.2189 5.20885C17.6059 5.03588 16.794 4.87838 15.736 4.79351C15.4647 4.77181 15.231 4.9884 15.231 5.26236C15.231 5.50645 15.419 5.70971 15.661 5.7297Z" fill="#F7FCF7"/>
<path d="M19.5692 10.7585C19.4619 10.7585 19.3545 10.7215 19.2669 10.6465C19.2338 10.6201 17.966 9.63816 13.9993 9.63816C10.0888 9.63816 8.73062 10.6483 8.71716 10.6586C8.5144 10.8148 8.22234 10.7793 8.06466 10.5774C7.90698 10.3752 7.93818 10.0851 8.1373 9.92415C8.19905 9.87409 9.7006 8.70047 13.9993 8.70047C18.3497 8.70047 19.7333 9.8107 19.8766 9.93726C20.0702 10.1081 20.0894 10.4044 19.9196 10.5991C19.8275 10.7043 19.6987 10.7585 19.5692 10.7585Z" fill="#3CEFE9"/>
<path d="M15.661 9.70284C16.662 9.78492 17.4156 9.93468 17.9676 10.0915C18.267 10.1764 18.5633 9.95316 18.5633 9.64031V9.63515C18.5633 9.42308 18.4219 9.23915 18.2189 9.18178C17.6059 9.00881 16.7938 8.85131 15.736 8.76644C15.4647 8.74474 15.231 8.96132 15.231 9.23528C15.231 9.47959 15.419 9.68307 15.661 9.70284Z" fill="#F7FCF7"/>
<path d="M13.1963 7.3324C13.1963 6.88591 13.5561 6.52407 14 6.52407C14.444 6.52407 14.8038 6.88591 14.8038 7.3324C14.8038 7.7789 14.444 8.14074 14 8.14074C13.5561 8.14074 13.1963 7.77869 13.1963 7.3324Z" fill="#3CEFE9"/>
<path d="M7.85889 8.14074C7.85889 7.69424 8.21868 7.3324 8.66265 7.3324C9.10662 7.3324 9.4664 7.69424 9.4664 8.14074C9.4664 8.58724 9.10662 8.94908 8.66265 8.94908C8.21889 8.94908 7.85889 8.58702 7.85889 8.14074Z" fill="#3CEFE9"/>
<path d="M18.584 8.14074C18.584 7.69424 18.9438 7.3324 19.3877 7.3324C19.8317 7.3324 20.1915 7.69424 20.1915 8.14074C20.1915 8.58724 19.8317 8.94908 19.3877 8.94908C18.9438 8.94908 18.584 8.58702 18.584 8.14074Z" fill="#3CEFE9"/>
<path d="M26.4453 33.9686V19.5159L13.9999 12.2894L1.5542 19.5159V33.9686L13.9999 41.1951L26.4453 33.9686Z" fill="#3CEFE9"/>
<path d="M14 43L0 34.8711V18.6132L14 10.4843L28 18.6132V34.8711L14 43ZM3.10865 33.0662L14 39.39L24.8914 33.0662V20.4184L14 14.0943L3.10865 20.4184V33.0662Z" fill="#3CEFE9"/>
<path d="M14 10.4845V14.0945L3.10865 20.4184L0 18.6135L14 10.4845Z" fill="#0FC1BB"/>
<path d="M28 34.8711L24.8911 33.0662L14 39.39V43L28 34.8711Z" fill="#0FC1BB"/>
<path d="M21.9738 27.9982C22.664 23.7702 19.8154 19.7801 15.6114 19.086C11.4074 18.3919 7.43982 21.2567 6.74965 25.4847C6.05949 29.7127 8.90805 33.7028 13.1121 34.3969C17.3161 35.091 21.2837 32.2262 21.9738 27.9982Z" fill="#0FC1BB"/>
<path d="M14.3616 18.9845C14.1092 18.9845 13.8599 18.9976 13.6138 19.0215C17.523 19.3999 20.5799 22.7116 20.5799 26.7424C20.5799 30.7731 17.523 34.0849 13.6138 34.4633C13.8599 34.4871 14.1092 34.5002 14.3616 34.5002C18.6218 34.5002 22.0755 31.0269 22.0755 26.7424C22.0755 22.4579 18.6218 18.9845 14.3616 18.9845Z" fill="#011510"/>
<path d="M0 34.8711L3.10865 33.0662L14 39.39V43L0 34.8711Z" fill="#1ECFC9"/>
<path d="M14 10.4845V14.0945L24.8911 20.4184L28 18.6135L14 10.4845Z" fill="#1ECFC9"/>
<path d="M3.10889 33.0662L14.0002 39.39L24.8916 33.0662V20.4184L14.0002 14.0943L3.10889 20.4184V33.0662Z" stroke="#F7FCF7" stroke-width="2" stroke-miterlimit="10"/>
<path d="M13.6557 29.4137H17.5143V31.1154H10.733V29.7618L14.1941 26.4743C14.9889 25.7136 15.1299 25.2495 15.1299 24.8112C15.1299 24.1021 14.6428 23.6896 13.6942 23.6896C12.925 23.6896 12.2713 23.9861 11.8354 24.592L10.3228 23.6122C11.015 22.5937 12.2713 21.9362 13.8865 21.9362C15.8863 21.9362 17.2195 22.9676 17.2195 24.6049C17.2195 25.4816 16.9759 26.2809 15.7196 27.4541L13.6557 29.4137Z" fill="#F7FCF7"/>
</svg>
