<svg width="41" height="44" viewBox="0 0 41 44" fill="none" xmlns="http://www.w3.org/2000/svg">
<path d="M7.07805 25.3822H3.69749C1.65542 25.3822 0 23.7304 0 21.6928H7.07805V25.3822Z" fill="#FF7B34"/>
<path d="M7.07813 29.0716H4.5427C2.50063 29.0716 0.845215 27.4198 0.845215 25.3822H7.07813V29.0716Z" fill="#FF9700"/>
<path d="M7.07848 32.7609H5.81077C3.7687 32.7609 2.11328 31.1092 2.11328 29.0716H7.07848V32.7609Z" fill="#F5C05B"/>
<path d="M6.65541 32.7609H7.07798V21.6928H5.3877L6.65541 32.7609Z" fill="#011510"/>
<path d="M33.9219 25.3822H37.3024C39.3445 25.3822 40.9999 23.7304 40.9999 21.6928H33.9219V25.3822Z" fill="#FF7B34"/>
<path d="M33.9219 29.0716H36.4573C38.4994 29.0716 40.1548 27.4198 40.1548 25.3822H33.9219V29.0716Z" fill="#FF9700"/>
<path d="M33.9219 32.7609H35.1896C37.2317 32.7609 38.8871 31.1092 38.8871 29.0716H33.9219V32.7609Z" fill="#F5C05B"/>
<path d="M34.3444 32.7609H33.9219V21.6928H35.6122L34.3444 32.7609Z" fill="#011510"/>
<path d="M27.7693 3.57215C27.7693 2.13414 26.4135 0.968509 24.7409 0.968509C24.2277 0.968509 23.7449 1.07919 23.3213 1.27293C22.713 0.504914 21.6883 0.000211716 20.526 0.000211716C19.3637 0.000211716 18.339 0.504914 17.7307 1.27293C17.3071 1.07919 16.8243 0.968509 16.3111 0.968509C14.6385 0.968509 13.2827 2.13414 13.2827 3.57215C13.2827 5.90341 15.8507 6.56939 15.8507 8.74928H25.2015C25.2013 6.41802 27.7693 5.78218 27.7693 3.57215Z" fill="#FF7B34"/>
<path d="M23.291 1.23752C22.6795 0.489736 21.6695 0 20.5254 0C19.3813 0 18.3712 0.489736 17.7597 1.23752C16.387 4.54087 19.2252 8.74907 19.2252 8.74907H21.8255C21.8255 8.74907 24.6624 3.9959 23.291 1.23752Z" fill="#FF9700"/>
<path d="M20.5257 6.90818C17.5969 6.90818 15.2227 7.40023 15.2227 8.0074V12.302H25.829V8.0074C25.8287 7.40023 23.4545 6.90818 20.5257 6.90818Z" fill="#FF7B34"/>
<path d="M25.8285 12.3018C25.8285 12.909 23.4543 13.401 20.5254 13.401C17.5966 13.401 15.2222 12.909 15.2222 12.3018C15.2222 11.6949 17.5964 11.2026 20.5254 11.2026C23.4543 11.2026 25.8285 11.6949 25.8285 12.3018Z" fill="#011510"/>
<path d="M26.0079 8.46741C25.9018 8.46741 25.7956 8.43115 25.7089 8.35757C25.6762 8.33164 24.4224 7.36819 20.4997 7.36819C16.6326 7.36819 15.2894 8.35926 15.2761 8.36938C15.0756 8.52264 14.7868 8.48786 14.6308 8.28969C14.4751 8.09131 14.5058 7.8067 14.7027 7.64879C14.7637 7.59967 16.2489 6.44817 20.4997 6.44817C24.8019 6.44817 26.1702 7.53748 26.312 7.66165C26.5034 7.82926 26.5224 8.11997 26.3544 8.31098C26.2636 8.41449 26.136 8.46741 26.0079 8.46741Z" fill="#F4AF3E"/>
<path d="M22.1433 7.43186C23.1334 7.51218 23.8784 7.65933 24.4243 7.81323C24.7203 7.89651 25.0134 7.67746 25.0134 7.37072V7.36566C25.0134 7.15758 24.8735 6.97712 24.6726 6.92083C24.0664 6.75112 23.2635 6.59659 22.2173 6.51331C21.9489 6.49202 21.7178 6.70452 21.7178 6.97332C21.718 7.21281 21.9039 7.41225 22.1433 7.43186Z" fill="#F7FCF7"/>
<path d="M26.0079 12.3659C25.9018 12.3659 25.7956 12.3296 25.7089 12.2561C25.6762 12.2301 24.4224 11.2667 20.4997 11.2667C16.6326 11.2667 15.2894 12.258 15.2761 12.2679C15.0756 12.4211 14.7868 12.3864 14.6308 12.1882C14.4751 11.9898 14.5058 11.7052 14.7027 11.5473C14.7637 11.4982 16.2489 10.3464 20.4997 10.3464C24.8019 10.3464 26.1702 11.4358 26.312 11.5599C26.5034 11.7275 26.5224 12.0183 26.3544 12.2093C26.2636 12.3128 26.136 12.3659 26.0079 12.3659Z" fill="#F4AF3E"/>
<path d="M22.1433 11.3301C23.1334 11.4105 23.8784 11.5576 24.4243 11.7115C24.7203 11.7948 25.0134 11.5757 25.0134 11.269V11.2639C25.0134 11.0559 24.8735 10.8754 24.6726 10.8191C24.0664 10.6494 23.2635 10.4949 22.2173 10.4116C21.9489 10.3903 21.7178 10.6028 21.7178 10.8716C21.718 11.1111 21.9039 11.3107 22.1433 11.3301Z" fill="#F7FCF7"/>
<path d="M19.7056 9.00437C19.7056 8.56628 20.0614 8.21126 20.5004 8.21126C20.9395 8.21126 21.2953 8.56628 21.2953 9.00437C21.2953 9.44245 20.9395 9.79748 20.5004 9.79748C20.0614 9.79748 19.7056 9.44224 19.7056 9.00437Z" fill="#F5C05B"/>
<path d="M14.4272 9.79748C14.4272 9.3594 14.7831 9.00437 15.2221 9.00437C15.6612 9.00437 16.017 9.3594 16.017 9.79748C16.017 10.2356 15.6612 10.5906 15.2221 10.5906C14.7831 10.5906 14.4272 10.2354 14.4272 9.79748Z" fill="#F5C05B"/>
<path d="M25.0337 9.79748C25.0337 9.3594 25.3895 9.00437 25.8285 9.00437C26.2676 9.00437 26.6234 9.3594 26.6234 9.79748C26.6234 10.2356 26.2676 10.5906 25.8285 10.5906C25.3897 10.5906 25.0337 10.2354 25.0337 9.79748Z" fill="#F5C05B"/>
<path d="M32.8084 35.1388V20.9583L20.5007 13.868L8.19287 20.9583V35.1388L20.5007 42.2291L32.8084 35.1388Z" fill="#F4AF3E"/>
<path d="M20.5006 44L6.65576 36.0242V20.0727L20.5006 12.0969L34.3455 20.0727V36.0242L20.5006 44ZM9.72996 34.2533L20.5006 40.458L31.2713 34.2533V21.844L20.5006 15.6391L9.72996 21.844V34.2533Z" fill="#FF9700"/>
<path d="M20.5006 12.0969V15.6391L9.72996 21.8438L6.65576 20.0729L20.5006 12.0969Z" fill="#FF7B34"/>
<path d="M34.3454 36.0242L31.2712 34.2533L20.5005 40.458V44L34.3454 36.0242Z" fill="#FF7B34"/>
<path d="M20.8579 35.6601C25.071 35.6601 28.4864 32.2523 28.4864 28.0484C28.4864 23.8446 25.071 20.4368 20.8579 20.4368C16.6449 20.4368 13.2295 23.8446 13.2295 28.0484C13.2295 32.2523 16.6449 35.6601 20.8579 35.6601Z" fill="#FF9700"/>
<path d="M20.8582 20.437C20.6086 20.437 20.3621 20.4498 20.1187 20.4732C23.9845 20.8445 27.0076 24.0939 27.0076 28.0487C27.0076 32.0035 23.9845 35.2528 20.1187 35.6241C20.3621 35.6475 20.6086 35.6603 20.8582 35.6603C25.0712 35.6603 28.4866 32.2524 28.4866 28.0487C28.4866 23.8447 25.0712 20.437 20.8582 20.437Z" fill="#011510"/>
<path d="M6.65576 36.0242L9.72996 34.2533L20.5006 40.458V44L6.65576 36.0242Z" fill="#F5C05B"/>
<path d="M20.5005 12.0969V15.6391L31.2712 21.8438L34.3454 20.0729L20.5005 12.0969Z" fill="#F5C05B"/>
<path d="M9.72998 34.2533L20.5007 40.458L31.2713 34.2533V21.844L20.5007 15.6391L9.72998 21.844V34.2533Z" stroke="#F7FCF7" stroke-width="2" stroke-miterlimit="10"/>
<path d="M24.4667 28.9373V30.607H23.0215V32.4664H21.0185V30.607H16.2393V29.2282L20.4227 23.6119H22.5778L18.6986 28.9373H21.0819V27.2802H23.0215V28.9373H24.4667Z" fill="#F7FCF7"/>
</svg>
