<svg width="29" height="42" viewBox="0 0 29 42" fill="none" xmlns="http://www.w3.org/2000/svg">
<path d="M20.1434 1.51497L18.3376 1.08212V2.41681L17.0006 1.98396V0.432849L15.1947 0V1.76754H13.8575V0L12.0516 0.432849V1.98396L10.7146 2.41681V1.08212L8.90869 1.51497L8.97198 9.45927H20.0802L20.1434 1.51497Z" fill="#1BDBAD"/>
<path d="M14.5261 10.5877C17.5935 10.5877 20.0801 10.0825 20.0801 9.45927C20.0801 8.83605 17.5935 8.33083 14.5261 8.33083C11.4588 8.33083 8.97217 8.83605 8.97217 9.45927C8.97217 10.0825 11.4588 10.5877 14.5261 10.5877Z" fill="#011510"/>
<path d="M20.2677 5.52294C20.1567 5.52294 20.0454 5.48571 19.9546 5.41018C19.9203 5.38356 18.6072 4.3945 14.4989 4.3945C10.4488 4.3945 9.04207 5.41191 9.02813 5.4223C8.81813 5.57964 8.51564 5.54393 8.35233 5.34049C8.18924 5.13684 8.22133 4.84466 8.42756 4.68256C8.49151 4.63213 10.0469 3.45002 14.4989 3.45002C19.0047 3.45002 20.4377 4.56829 20.5862 4.69576C20.7866 4.86782 20.8066 5.16627 20.6306 5.36235C20.5355 5.46862 20.4018 5.52294 20.2677 5.52294Z" fill="#00A47D"/>
<path d="M16.2206 4.45986C17.2575 4.54254 18.0377 4.69338 18.6095 4.85137C18.9196 4.93686 19.2265 4.712 19.2265 4.3971V4.3919C19.2265 4.17829 19.08 3.99303 18.8695 3.93525C18.2347 3.76103 17.3938 3.60239 16.298 3.5169C16.0168 3.49504 15.7749 3.7132 15.7749 3.98914C15.7749 4.235 15.9696 4.43973 16.2206 4.45986Z" fill="#F8FFE1"/>
<path d="M20.2677 9.52506C20.1567 9.52506 20.0454 9.48784 19.9546 9.41231C19.9203 9.38568 18.6072 8.39662 14.4989 8.39662C10.4488 8.39662 9.04207 9.41404 9.02813 9.42442C8.81813 9.58177 8.51564 9.54605 8.35233 9.34262C8.18924 9.13896 8.22133 8.84679 8.42756 8.68468C8.49151 8.63426 10.0469 7.45215 14.4989 7.45215C19.0047 7.45215 20.4377 8.57041 20.5862 8.69789C20.7866 8.86994 20.8066 9.16839 20.6306 9.36448C20.5355 9.47052 20.4018 9.52506 20.2677 9.52506Z" fill="#00A47D"/>
<path d="M16.2206 8.46177C17.2575 8.54444 18.0377 8.69529 18.6095 8.85328C18.9196 8.93877 19.2265 8.7139 19.2265 8.39879V8.3936C19.2265 8.17998 19.08 7.99472 18.8695 7.93694C18.2347 7.76272 17.3938 7.60408 16.298 7.51859C16.0168 7.49673 15.7749 7.71489 15.7749 7.99083C15.7749 8.2369 15.9696 8.44186 16.2206 8.46177Z" fill="#F8FFE1"/>
<path d="M27.39 32.9032V18.3459L14.5 11.0671L1.60986 18.3459V32.9032L14.5 40.182L27.39 32.9032Z" fill="#1BDBAD"/>
<path d="M14.5 42L0 33.8122V17.4367L14.5 9.24891L29 17.4367V33.8122L14.5 42ZM3.21967 31.9943L14.5 38.3639L25.7803 31.9943V19.2549L14.5 12.8851L3.21967 19.2549V31.9943Z" fill="#1BDBAD"/>
<path d="M14.5 9.24912V12.8853L3.21967 19.2549L0 17.4369L14.5 9.24912Z" fill="#00A47D"/>
<path d="M29 33.8122L25.7801 31.9943L14.5 38.3639V42L29 33.8122Z" fill="#00A47D"/>
<path d="M20.5236 31.1498C23.6437 28.0983 23.6437 23.1508 20.5236 20.0993C17.4036 17.0477 12.345 17.0477 9.225 20.0993C6.10497 23.1508 6.10497 28.0983 9.225 31.1498C12.345 34.2014 17.4036 34.2014 20.5236 31.1498Z" fill="#00A47D"/>
<path d="M14.8746 17.8107C14.6133 17.8107 14.355 17.8239 14.1001 17.8479C18.1489 18.229 21.315 21.5648 21.315 25.6247C21.315 29.6846 18.1489 33.0203 14.1001 33.4015C14.355 33.4255 14.6133 33.4387 14.8746 33.4387C19.287 33.4387 22.864 29.9402 22.864 25.6247C22.864 21.3092 19.287 17.8107 14.8746 17.8107Z" fill="#011510"/>
<path d="M0 33.8122L3.21967 31.9943L14.5 38.3639V42L0 33.8122Z" fill="#56F4CF"/>
<path d="M14.5 9.24912V12.8853L25.7801 19.2549L29 17.4369L14.5 9.24912Z" fill="#56F4CF"/>
<path d="M3.21973 31.9943L14.5001 38.3639L25.7804 31.9943V19.2549L14.5001 12.8851L3.21973 19.2549V31.9943Z" stroke="#F8FFE1" stroke-width="2" stroke-miterlimit="10"/>
<path d="M12.0986 20.9396H16.1083V30.0294H13.9574V22.6277H12.0986V20.9396Z" fill="#F8FFE1"/>
</svg>
