<svg width="28" height="45" viewBox="0 0 28 45" fill="none" xmlns="http://www.w3.org/2000/svg">
<path d="M20.5738 2.8295C20.1159 2.8295 19.7448 3.20403 19.7448 3.66609C19.7448 3.77562 19.767 3.87955 19.8049 3.97549L16.3125 4.83407L14.4384 1.55803C14.686 1.41335 14.8546 1.14621 14.8546 0.836585C14.8546 0.374523 14.4834 0 14.0256 0C13.5677 0 13.1966 0.374523 13.1966 0.836585C13.1966 1.14621 13.3652 1.41335 13.6128 1.55803L11.7387 4.83407L8.24633 3.97549C8.28415 3.87955 8.30637 3.77562 8.30637 3.66609C8.30637 3.20403 7.93526 2.8295 7.4774 2.8295C7.01955 2.8295 6.64844 3.20403 6.64844 3.66609C6.64844 4.12815 7.01955 4.50267 7.4774 4.50267C7.54962 4.50267 7.61841 4.49038 7.68529 4.47292L9.45175 10.3066H14.0258H18.5999L20.3663 4.47292C20.4332 4.49038 20.502 4.50267 20.5742 4.50267C21.0321 4.50267 21.4032 4.12815 21.4032 3.66609C21.4027 3.20403 21.0316 2.8295 20.5738 2.8295Z" fill="#9A408F"/>
<path d="M14.0249 1.55781V10.3066H18.599L20.3654 4.47292L19.8044 3.97549L16.312 4.83407L14.4377 1.55781H14.0249Z" fill="#D064A5"/>
<path d="M14.025 7.06482C11.0634 7.06482 8.6626 7.56806 8.6626 8.18903V12.5813H19.3877V8.18903C19.3877 7.56806 16.9867 7.06482 14.025 7.06482Z" fill="#9A408F"/>
<path d="M14.025 13.7053C16.9866 13.7053 19.3874 13.202 19.3874 12.5811C19.3874 11.9602 16.9866 11.4569 14.025 11.4569C11.0634 11.4569 8.6626 11.9602 8.6626 12.5811C8.6626 13.202 11.0634 13.7053 14.025 13.7053Z" fill="#011510"/>
<path d="M19.5691 8.65971C19.4619 8.65971 19.3544 8.62263 19.2668 8.54738C19.2337 8.52086 17.9659 7.5355 13.9992 7.5355C10.0888 7.5355 8.73061 8.54932 8.71715 8.55946C8.51439 8.71621 8.22233 8.68063 8.06466 8.47795C7.90698 8.27506 7.93818 7.98398 8.1373 7.82249C8.19904 7.77225 9.70058 6.59434 13.9992 6.59434C18.3496 6.59434 19.7332 7.70842 19.8766 7.83542C20.0701 8.00684 20.0894 8.30416 19.9195 8.49951C19.8276 8.60538 19.6986 8.65971 19.5691 8.65971Z" fill="#FF6F89"/>
<path d="M15.6613 7.6004C16.6622 7.68277 17.4158 7.83305 17.9678 7.99045C18.2672 8.07561 18.5635 7.85159 18.5635 7.53787V7.5327C18.5635 7.31989 18.422 7.13532 18.2189 7.07775C17.6059 6.90418 16.794 6.74614 15.736 6.66097C15.4647 6.63919 15.231 6.85653 15.231 7.13123C15.231 7.37638 15.419 7.58056 15.6613 7.6004Z" fill="#F7FCF7"/>
<path d="M19.5691 12.6466C19.4619 12.6466 19.3544 12.6096 19.2668 12.5343C19.2337 12.5078 17.9659 11.5224 13.9992 11.5224C10.0888 11.5224 8.73061 12.5362 8.71715 12.5464C8.51439 12.7031 8.22233 12.6676 8.06466 12.4649C7.90698 12.262 7.93818 11.9709 8.1373 11.8094C8.19904 11.7592 9.70058 10.5815 13.9992 10.5815C18.3496 10.5815 19.7332 11.6956 19.8766 11.8226C20.0701 11.994 20.0894 12.2913 19.9195 12.4867C19.8276 12.5925 19.6986 12.6466 19.5691 12.6466Z" fill="#FF6F89"/>
<path d="M15.6613 11.5873C16.6622 11.6695 17.4158 11.82 17.9678 11.9774C18.2672 12.0625 18.5635 11.8385 18.5635 11.5248V11.5196C18.5635 11.3068 18.422 11.1222 18.2189 11.0647C17.6059 10.8911 16.794 10.7331 15.736 10.6479C15.4647 10.6261 15.231 10.8435 15.231 11.1184C15.231 11.3633 15.419 11.5675 15.6613 11.5873Z" fill="#F7FCF7"/>
<path d="M13.1963 9.20867C13.1963 8.76062 13.5561 8.39753 14 8.39753C14.444 8.39753 14.8038 8.76062 14.8038 9.20867C14.8038 9.65671 14.444 10.0198 14 10.0198C13.5563 10.0198 13.1963 9.65671 13.1963 9.20867Z" fill="#FF6F89"/>
<path d="M7.85889 10.0198C7.85889 9.57177 8.21868 9.20867 8.66264 9.20867C9.10661 9.20867 9.4664 9.57177 9.4664 10.0198C9.4664 10.4679 9.10661 10.831 8.66264 10.831C8.21868 10.831 7.85889 10.4676 7.85889 10.0198Z" fill="#FF6F89"/>
<path d="M18.584 10.0198C18.584 9.57177 18.9438 9.20867 19.3877 9.20867C19.8317 9.20867 20.1915 9.57177 20.1915 10.0198C20.1915 10.4679 19.8317 10.831 19.3877 10.831C18.9438 10.831 18.584 10.4676 18.584 10.0198Z" fill="#FF6F89"/>
<path d="M26.4457 35.9373V21.4344L14.0001 14.1829L1.55469 21.4344V35.9373L14.0001 43.1888L26.4457 35.9373Z" fill="#D064A5"/>
<path d="M13.9999 45L0 36.8429V20.5286L13.9999 12.3715L27.9998 20.5286V36.8429L13.9999 45ZM3.10884 35.0317L14.0001 41.3775L24.8914 35.0317V22.34L14.0001 15.9941L3.10884 22.34V35.0317Z" fill="#D064A5"/>
<path d="M13.9999 12.3717V15.9943L3.10884 22.34L0 20.5289L13.9999 12.3717Z" fill="#9A408F"/>
<path d="M28.0001 36.8431L24.8913 35.0317L14 41.3775V45L28.0001 36.8431Z" fill="#9A408F"/>
<path d="M17.3756 35.8529C21.2963 34.171 23.1236 29.5999 21.457 25.6432C19.7904 21.6864 15.261 19.8423 11.3403 21.5243C7.41958 23.2062 5.59227 27.7772 7.25888 31.734C8.92549 35.6907 13.4549 37.5348 17.3756 35.8529Z" fill="#9A408F"/>
<path d="M14.3615 20.9012C14.1092 20.9012 13.8599 20.9144 13.6138 20.9383C17.5229 21.318 20.5799 24.6413 20.5799 28.686C20.5799 32.7307 17.5232 36.0539 13.6138 36.4336C13.8599 36.4576 14.1092 36.4707 14.3615 36.4707C18.6217 36.4707 22.0754 32.9853 22.0754 28.686C22.0754 24.3866 18.622 20.9012 14.3615 20.9012Z" fill="#011510"/>
<path d="M0 36.8431L3.10884 35.0317L13.9999 41.3775V45L0 36.8431Z" fill="#FF6F89"/>
<path d="M14 12.3717V15.9943L24.8913 22.34L28.0001 20.5289L14 12.3717Z" fill="#FF6F89"/>
<path d="M3.10889 35.0317L14.0002 41.3775L24.8915 35.0317V22.34L14.0002 15.994L3.10889 22.34V35.0317Z" stroke="#F7FCF7" stroke-width="2" stroke-miterlimit="10"/>
<path d="M8.24561 3.97549L11.0985 6.04884L11.7382 4.83407L8.24561 3.97549Z" fill="#D064A5"/>
<path d="M17.1952 6.04884L16.312 4.83407L19.8044 3.97549L17.1952 6.04884Z" fill="#9A408F"/>
<path d="M15.4287 27.7054C17.0439 27.9642 17.8643 28.9733 17.8643 30.3058C17.8643 31.8323 16.6978 33.2295 14.1468 33.2295C12.8905 33.2295 11.5958 32.8802 10.7241 32.2592L11.5317 30.6551C12.2111 31.1725 13.1597 31.4701 14.0955 31.4701C15.1339 31.4701 15.7748 31.0432 15.7748 30.3058C15.7748 29.6201 15.2749 29.1932 14.0955 29.1932H13.1469V27.8089L14.9929 25.7002H11.1728V24.0184H17.4541V25.3768L15.4287 27.7054Z" fill="#F7FCF7"/>
</svg>
