<svg width="130" height="29" viewBox="0 0 130 29" fill="none" xmlns="http://www.w3.org/2000/svg">
<g clip-path="url(#clip0_9006_71700)">
<path d="M19.0826 4.04752L6.35632 11.3959C6.04936 11.5732 5.67117 11.5732 5.36421 11.3959C5.05473 11.2176 4.86402 10.8876 4.86402 10.5304C4.86402 10.1732 5.05473 9.84322 5.36421 9.66489L16.0858 3.50699C16.3953 3.32865 16.586 2.99865 16.586 2.64146C16.586 2.28428 16.3953 1.95428 16.0858 1.77594L13.2395 0.133834C12.9304 -0.0446112 12.5496 -0.0446112 12.2405 0.133834L0.499474 6.88015C0.191327 7.05805 0.00107255 7.38644 0 7.74225V13.4007C0.00107255 13.7565 0.191327 14.0849 0.499474 14.2628L5.28895 17.0475C5.59802 17.226 5.97882 17.226 6.28789 17.0475L19.0826 9.66489C19.3903 9.49044 19.767 9.49044 20.0747 9.66489C20.3842 9.84322 20.5749 10.1732 20.5749 10.5304C20.5749 10.8876 20.3842 11.2176 20.0747 11.3959L9.31895 17.6223C9.00947 17.8006 8.81876 18.1306 8.81876 18.4878C8.81876 18.845 9.00947 19.175 9.31895 19.3533L12.2611 21.057C12.5701 21.2354 12.9509 21.2354 13.26 21.057L24.9805 14.2901C25.2887 14.1122 25.4789 13.7839 25.48 13.428V7.74225C25.4789 7.38644 25.2887 7.05805 24.9805 6.88015L20.0816 4.04752C19.7725 3.86907 19.3917 3.86907 19.0826 4.04752Z" fill="#E51C22"/>
<path d="M11.3579 22.8359L1.49844 17.1433C1.18983 16.9651 0.809675 16.9648 0.500795 17.1425C0.191916 17.3203 0.00109418 17.6491 7.2164e-06 18.0054V21.2965C-0.00135146 21.6547 0.189231 21.9863 0.499496 22.1654L10.5642 27.9743C10.8093 28.1158 11.1112 28.1161 11.3566 27.9751C11.6019 27.8341 11.7536 27.5731 11.7548 27.2901V23.527C11.7561 23.2421 11.6046 22.9784 11.3579 22.8359Z" fill="#E51C22"/>
<path d="M23.9816 17.1707L14.1221 22.8633C13.8775 23.0045 13.7264 23.2651 13.7253 23.5475V27.2765C13.7264 27.5595 13.8781 27.8204 14.1235 27.9615C14.3688 28.1025 14.6707 28.1022 14.9158 27.9607L24.9805 22.1654C25.2908 21.9863 25.4814 21.6547 25.48 21.2965V18.0328C25.4789 17.6764 25.2881 17.3476 24.9792 17.1699C24.6704 16.9922 24.2902 16.9925 23.9816 17.1707Z" fill="#E51C22"/>
<path d="M95.4063 10.8691H97.4247L97.5479 12.5522C98.4168 11.0333 98.9163 11.1086 100.565 11.1086V13.1201C100.338 13.0948 100.11 13.0811 99.8811 13.0791C99.3019 13.0315 98.7364 13.272 98.3689 13.7222C97.8051 14.2513 97.5045 15.0029 97.5479 15.7749V21.8096H95.4063V10.8691Z" fill="#1A1A1A"/>
<path d="M124.841 10.8691H126.859L126.983 12.5522C127.852 11.0333 128.351 11.1086 130 11.1086V13.1201C129.773 13.0947 129.544 13.081 129.316 13.0791C128.736 13.0303 128.17 13.271 127.804 13.7222C127.235 14.2484 126.931 15.0013 126.976 15.7749V21.8096H124.834L124.841 10.8691Z" fill="#1A1A1A"/>
<path d="M32.9584 11.0333C32.9584 9.79487 34.1968 8.98066 36.1742 8.98066C37.8984 8.98066 39.0616 9.59645 39.4584 10.7664H41.7368C41.34 8.31697 39.3284 6.94171 36.1879 6.94171C32.7737 6.9554 30.7895 8.54961 30.7895 11.1359C30.7895 16.6096 39.8142 13.7701 39.8142 17.458C39.8142 18.8812 38.4458 19.7501 36.27 19.7501C34.3679 19.7501 33.1226 19.0659 32.7326 17.8207H30.4747C30.8579 20.3796 32.89 21.7891 36.2358 21.7891C39.8621 21.7891 42.0037 20.1401 42.0037 17.3554C41.9831 11.6286 32.9584 14.3928 32.9584 11.0333Z" fill="#1A1A1A"/>
<path d="M77.7537 19.0249C77.0567 19.7343 76.1135 20.1483 75.1195 20.1812C74.283 20.2184 73.4674 19.9134 72.8607 19.3363C72.254 18.7593 71.9085 17.9601 71.9037 17.1228H79.9637C79.9637 16.7533 80.0048 16.3223 80.0048 15.9733C80.0048 12.7575 78.1916 10.8828 74.9758 10.8828C71.76 10.8828 69.7895 12.8259 69.7895 16.288C69.7895 19.7501 71.7463 21.7617 75.1058 21.7617C77.4869 21.7617 79.1016 20.7628 79.7584 19.0249H77.7537ZM74.9348 12.7438C76.83 12.7438 77.9453 13.7701 77.9658 15.4807H71.8832C72.0953 13.6675 73.1216 12.7438 74.9348 12.7438Z" fill="#1A1A1A"/>
<path d="M121.105 19.0249C120.408 19.7377 119.461 20.1522 118.464 20.1812C117.628 20.2184 116.812 19.9134 116.205 19.3363C115.599 18.7593 115.253 17.9601 115.248 17.1228H123.302C123.302 16.7533 123.343 16.3223 123.343 15.9733C123.343 12.7575 121.529 10.8828 118.321 10.8828C115.112 10.8828 113.148 12.8396 113.148 16.3017C113.148 19.7638 115.105 21.7754 118.464 21.7754C120.845 21.7754 122.46 20.7765 123.11 19.0386L121.105 19.0249ZM118.293 12.7438C120.188 12.7438 121.297 13.7701 121.317 15.4807H115.242C115.433 13.6675 116.466 12.7438 118.279 12.7438H118.293Z" fill="#1A1A1A"/>
<path d="M87.6337 6.95541C91.6295 6.95541 93.7505 9.5691 93.7505 14.3723C93.7505 19.1754 91.6295 21.7891 87.6337 21.7891C83.6379 21.7891 81.4758 19.1686 81.4758 14.3723C81.4758 9.57594 83.6242 6.95541 87.6337 6.95541ZM87.6337 19.6817C90.3705 19.6817 91.739 17.937 91.739 14.3723C91.739 10.8075 90.3705 9.05594 87.6337 9.05594C84.8969 9.05594 83.5284 10.8075 83.5284 14.3723C83.5284 17.937 84.8969 19.6817 87.6337 19.6817Z" fill="#1A1A1A"/>
<path d="M68.1542 6.95541H65.9921V21.7891H68.1542V6.95541Z" fill="#1A1A1A"/>
<path d="M109.474 6.95541V12.5728C108.745 11.4446 107.469 10.7921 106.128 10.8623C103.391 10.8623 101.681 12.9149 101.681 16.3359C101.681 19.757 103.371 21.8096 106.107 21.8096C107.45 21.8691 108.726 21.2231 109.474 20.1059V21.7891H111.636V6.95541H109.474ZM106.463 19.5791C104.541 19.5791 103.603 18.5049 103.603 16.3359C103.603 14.167 104.541 13.0928 106.477 13.0928C108.413 13.0928 109.474 14.1875 109.474 16.3154C109.474 18.4433 108.434 19.5791 106.477 19.5791H106.463Z" fill="#1A1A1A"/>
<path d="M59.7179 10.8622C57.2342 10.8622 55.6126 11.9159 55.3253 13.7359H57.4737C57.7953 13.1133 58.5684 12.778 59.6974 12.778C61.1958 12.778 62.1263 13.3596 62.1263 14.4133V15.337H58.5C56.1874 15.337 54.8669 16.4728 54.8669 18.4707C54.8669 20.4686 56.29 21.7891 58.5205 21.7891C59.8936 21.8486 61.2197 21.2825 62.1263 20.2496V21.7891H64.179V14.4543C64.1858 12.2033 62.4958 10.8622 59.7179 10.8622ZM62.1058 17.588C62.1058 19.0249 60.8469 20.017 58.9926 20.017C57.6242 20.017 56.8716 19.4422 56.8716 18.4296C56.8716 17.417 57.5079 16.9243 58.6437 16.9243H62.1058V17.588Z" fill="#1A1A1A"/>
<path d="M48.6337 19.8117C46.41 19.8117 45.3358 18.6349 45.3358 16.3291C45.3358 14.0233 46.41 12.8465 48.6337 12.8465C49.5199 12.7457 50.4005 13.0766 51.0011 13.7359H53.2863C52.7732 11.9228 51.1721 10.8622 48.6132 10.8622C44.8637 10.8622 43.3174 13.1338 43.3174 16.3359C43.3174 19.538 44.8637 21.8096 48.6132 21.8096C51.2747 21.8096 52.91 20.667 53.3479 18.7101H51.1516C50.7547 19.4149 49.9474 19.8117 48.6337 19.8117Z" fill="#1A1A1A"/>
</g>
<defs>
<clipPath id="clip0_9006_71700">
<rect width="130" height="29" fill="white"/>
</clipPath>
</defs>
</svg>
