<svg width="439" height="629" viewBox="0 0 439 629" fill="none" xmlns="http://www.w3.org/2000/svg">
<path d="M428.891 68.0632H3.8457V620.739H428.891V68.0632Z" fill="white"/>
<path d="M434.264 607.662C434.264 617.982 425.863 626.356 415.496 626.356H22.553C12.1857 626.356 3.77832 617.989 3.77832 607.662V87.5002C3.77832 77.1802 12.1857 68.8134 22.553 68.8134H415.496C425.863 68.8134 434.264 77.1802 434.264 87.5002V607.662Z" fill="#58595B"/>
<path opacity="0.994" d="M4.00781 87.5813C4.00781 77.3221 12.4963 69.0026 22.8027 69.0026H415.225C425.532 69.0026 434.02 77.3153 434.02 87.5813V607.581C434.02 617.847 425.532 626.16 415.225 626.16H22.8095C12.503 626.16 4.01458 617.847 4.01458 607.581V87.5813H4.00781Z" fill="#595A5C"/>
<path opacity="0.988" d="M4.24512 87.6624C4.24512 77.464 12.8215 69.1986 23.0671 69.1986H414.976C425.228 69.1986 433.791 77.464 433.791 87.6624V607.5C433.791 617.698 425.215 625.964 414.976 625.964H23.0671C12.8215 625.964 4.24512 617.691 4.24512 607.5V87.6624Z" fill="#5A5B5D"/>
<path opacity="0.982" d="M4.47461 87.7435C4.47461 77.606 13.1388 69.3946 23.3236 69.3946H414.719C424.904 69.3946 433.561 77.606 433.561 87.7435V607.426C433.561 617.563 424.904 625.781 414.719 625.781H23.3236C13.1388 625.781 4.47461 617.563 4.47461 607.426V87.7435Z" fill="#5B5C5E"/>
<path opacity="0.976" d="M4.71094 87.8178C4.71094 77.7411 13.463 69.5771 23.5802 69.5771H414.462C424.579 69.5771 433.324 77.7411 433.324 87.8178V607.344C433.324 617.421 424.572 625.585 414.455 625.585H23.5802C13.4562 625.585 4.71094 617.421 4.71094 607.344V87.8178Z" fill="#5C5D5F"/>
<path opacity="0.9701" d="M4.94727 87.8989C4.94727 77.883 13.7872 69.7731 23.8436 69.7731H414.212C424.268 69.7731 433.101 77.8898 433.101 87.8989V607.263C433.101 617.272 424.261 625.396 414.205 625.396H23.8368C13.7804 625.396 4.94727 617.279 4.94727 607.263V87.8989Z" fill="#5D5E60"/>
<path opacity="0.9641" d="M5.17773 87.98C5.17773 78.025 14.0987 69.9623 24.0943 69.9623H413.949C423.944 69.9623 432.859 78.025 432.859 87.98V607.182C432.859 617.137 423.944 625.207 413.942 625.207H24.0943C14.0987 625.207 5.18449 617.137 5.18449 607.182L5.17773 87.98Z" fill="#5E5F61"/>
<path opacity="0.9581" d="M5.41406 88.0611C5.41406 78.1736 14.4229 70.1583 24.3577 70.1583H413.698C423.633 70.1583 432.635 78.1736 432.635 88.0611V607.108C432.635 617.002 423.626 625.017 413.692 625.017H24.3509C14.4162 625.017 5.41406 616.995 5.41406 607.108V88.0611Z" fill="#5F6062"/>
<path opacity="0.9521" d="M5.64355 88.1422C5.64355 78.3156 14.7403 70.3543 24.6142 70.3543H413.435C423.309 70.3543 432.399 78.3156 432.399 88.1422V607.027C432.399 616.86 423.302 624.828 413.428 624.828H24.6074C14.7403 624.828 5.64355 616.86 5.64355 607.027V88.1422Z" fill="#606163"/>
<path opacity="0.9461" d="M5.87988 88.2233C5.87988 78.4575 15.0645 70.5435 24.8776 70.5435H413.191C422.997 70.5435 432.175 78.4575 432.175 88.2233V606.952C432.175 616.718 422.991 624.639 413.178 624.639H24.864C15.0509 624.639 5.87988 616.718 5.87988 606.952V88.2233Z" fill="#616264"/>
<path opacity="0.9401" d="M6.11621 88.2976C6.11621 78.5927 15.3887 70.726 25.1342 70.726H412.934C422.68 70.726 431.938 78.5859 431.938 88.2976V606.871C431.938 616.576 422.673 624.443 412.927 624.443H25.1342C15.3887 624.443 6.12298 616.576 6.12298 606.871V88.2976H6.11621Z" fill="#626365"/>
<path opacity="0.9341" d="M6.34668 88.3787C6.34668 78.7346 15.707 70.922 25.3917 70.922H412.678C422.363 70.922 431.703 78.7346 431.703 88.3787V606.797C431.703 616.441 422.349 624.254 412.664 624.254H25.3781C15.6935 624.254 6.34668 616.441 6.34668 606.797V88.3787Z" fill="#636466"/>
<path opacity="0.9281" d="M6.57617 88.4598C6.57617 78.8765 16.0176 71.1112 25.6414 71.1112H412.407C422.031 71.1112 431.459 78.8765 431.459 88.4598V606.716C431.459 616.292 422.018 624.058 412.394 624.058H25.6347C16.0108 624.058 6.57617 616.292 6.57617 606.716V88.4598Z" fill="#646567"/>
<path opacity="0.9222" d="M6.8125 88.5409C6.8125 79.0185 16.3417 71.3072 25.9048 71.3072H412.157C421.72 71.3072 431.229 79.0185 431.229 88.5409V606.635C431.229 616.15 421.707 623.869 412.143 623.869H25.8913C16.3282 623.869 6.8125 616.15 6.8125 606.635V88.5409Z" fill="#656668"/>
<path opacity="0.9162" d="M7.04972 88.622C7.04972 79.1671 16.6668 71.5032 26.1691 71.5032H411.908C421.41 71.5032 431.007 79.1671 431.007 88.622V606.56C431.007 616.015 421.396 623.679 411.894 623.679H26.1488C16.6466 623.679 7.04297 616.015 7.04297 606.56L7.04972 88.622Z" fill="#666769"/>
<path opacity="0.9102" d="M7.27923 88.6964C7.27923 79.3023 16.9842 71.6857 26.4188 71.6857H411.644C421.078 71.6857 430.763 79.3023 430.763 88.6964V606.473C430.763 615.867 421.058 623.483 411.624 623.483H26.3986C16.9639 623.483 7.27246 615.867 7.27246 606.473V88.6964H7.27923Z" fill="#67686A"/>
<path opacity="0.9042" d="M7.51562 88.7842C7.51562 79.451 17.3085 71.8884 26.6823 71.8884H411.394C420.767 71.8884 430.54 79.451 430.54 88.7842V606.398C430.54 615.732 420.754 623.301 411.373 623.301H26.662C17.2882 623.301 7.51562 615.732 7.51562 606.398V88.7842Z" fill="#68696B"/>
<path opacity="0.8982" d="M7.74512 88.8586C7.74512 79.5862 17.619 72.0709 26.932 72.0709H411.13C420.443 72.0709 430.296 79.5862 430.296 88.8586V606.317C430.296 615.59 420.422 623.105 411.109 623.105H26.9185C17.6055 623.105 7.74512 615.59 7.74512 606.317V88.8586Z" fill="#696A6C"/>
<path opacity="0.8922" d="M7.98242 88.9397C7.98242 79.7281 17.9442 72.2669 27.1964 72.2669H410.88C420.133 72.2669 430.074 79.7281 430.074 88.9397V606.243C430.074 615.448 420.112 622.922 410.86 622.922H27.1761C17.9239 622.922 7.98242 615.454 7.98242 606.243V88.9397Z" fill="#6A6B6D"/>
<path opacity="0.8862" d="M8.21867 89.0208C8.21867 79.87 18.2683 72.4561 27.4596 72.4561H410.623C419.808 72.4561 429.844 79.87 429.844 89.0208V606.162C429.844 615.313 419.801 622.726 410.603 622.726H27.4326C18.248 622.726 8.21191 615.306 8.21191 606.162L8.21867 89.0208Z" fill="#6B6C6E"/>
<path opacity="0.8802" d="M8.44817 89.1019C8.44817 80.0119 18.5857 72.6521 27.7162 72.6521H410.366C419.497 72.6521 429.614 80.0119 429.614 89.1019V606.081C429.614 615.171 419.476 622.537 410.346 622.537H27.6891C18.5586 622.537 8.44141 615.171 8.44141 606.081V89.1019H8.44817Z" fill="#6C6D6F"/>
<path opacity="0.8742" d="M8.67773 89.183C8.67773 80.1606 18.9031 72.8481 27.966 72.8481H410.109C419.172 72.8481 429.371 80.1674 429.371 89.183V606.006C429.371 615.029 419.152 622.348 410.082 622.348H27.9457C18.8828 622.348 8.67773 615.029 8.67773 606.006V89.183Z" fill="#6D6E70"/>
<path opacity="0.8683" d="M8.91504 89.2641C8.91504 80.3025 19.2215 73.0373 28.2236 73.0373H409.853C418.855 73.0373 429.141 80.3025 429.141 89.2641V605.925C429.141 614.887 418.835 622.152 409.833 622.152H28.2101C19.208 622.152 8.92181 614.887 8.92181 605.925V89.2641H8.91504Z" fill="#6E6F71"/>
<path opacity="0.8623" d="M9.15137 89.3452C9.15137 80.4445 19.5457 73.2333 28.487 73.2333H409.596C418.531 73.2333 428.911 80.4445 428.911 89.3452V605.844C428.911 614.745 418.517 621.963 409.576 621.963H28.4667C19.5254 621.963 9.15137 614.752 9.15137 605.844V89.3452Z" fill="#6F7072"/>
<path opacity="0.8563" d="M9.38086 89.4195C9.38086 80.5796 19.863 73.4158 28.7435 73.4158H409.339C418.213 73.4158 428.675 80.5796 428.675 89.4195V605.763C428.675 614.61 418.192 621.767 409.312 621.767H28.7232C19.8428 621.767 9.38086 614.603 9.38086 605.763V89.4195Z" fill="#707173"/>
<path opacity="0.8503" d="M9.61711 89.5006C9.61711 80.7283 20.1871 73.6118 29.0068 73.6118H409.089C417.908 73.6118 428.445 80.7283 428.445 89.5006V605.682C428.445 614.461 417.881 621.577 409.062 621.577H28.973C20.1601 621.577 9.61035 614.461 9.61035 605.682L9.61711 89.5006Z" fill="#717274"/>
<path opacity="0.8443" d="M9.84766 89.5817C9.84766 80.8635 20.5055 73.801 29.2576 73.801H408.826C417.585 73.801 428.209 80.8635 428.209 89.5817V605.607C428.209 614.326 417.558 621.388 408.799 621.388H29.2306C20.4785 621.388 9.84766 614.326 9.84766 605.607V89.5817Z" fill="#727375"/>
<path opacity="0.8383" d="M10.084 89.6628C10.084 81.0122 20.823 73.997 29.5142 73.997H408.569C417.26 73.997 427.972 81.0122 427.972 89.6628V605.526C427.972 614.184 417.226 621.199 408.535 621.199H29.4939C20.8027 621.199 10.084 614.184 10.084 605.526V89.6628Z" fill="#737476"/>
<path opacity="0.8323" d="M10.3135 89.7439C10.3135 81.1541 21.1471 74.193 29.7707 74.193H408.312C416.935 74.193 427.735 81.1541 427.735 89.7439V605.459C427.735 614.049 416.908 621.016 408.278 621.016H29.7437C21.1133 621.016 10.3135 614.049 10.3135 605.459V89.7439Z" fill="#747576"/>
<path opacity="0.8263" d="M10.5498 89.825C10.5498 81.296 21.4645 74.3822 30.0341 74.3822H408.061C416.631 74.3822 427.512 81.296 427.512 89.825V605.378C427.512 613.907 416.604 620.82 408.034 620.82H30.0071C21.4442 620.82 10.5498 613.907 10.5498 605.378V89.825Z" fill="#757677"/>
<path opacity="0.8204" d="M10.7803 89.9061C10.7803 81.4379 21.7828 74.5715 30.2916 74.5715H407.799C416.307 74.5715 427.276 81.4379 427.276 89.9061V605.297C427.276 613.765 416.274 620.631 407.772 620.631H30.2645C21.7558 620.631 10.787 613.765 10.787 605.297L10.7803 89.9061Z" fill="#767778"/>
<path opacity="0.8144" d="M11.0166 89.9805C11.0166 81.5731 22.107 74.7607 30.5482 74.7607H407.542C415.989 74.7607 427.046 81.5731 427.046 89.9805V605.216C427.046 613.616 415.956 620.435 407.514 620.435H30.5212C22.0732 620.435 11.0166 613.616 11.0166 605.216V89.9805Z" fill="#777879"/>
<path opacity="0.8084" d="M11.2529 90.0616C11.2529 81.7218 22.4245 74.9567 30.8116 74.9567H407.291C415.672 74.9567 426.816 81.715 426.816 90.0616V605.134C426.816 613.474 415.651 620.239 407.264 620.239H30.7778C22.3974 620.239 11.2529 613.474 11.2529 605.134V90.0616Z" fill="#78797A"/>
<path opacity="0.8024" d="M11.4824 90.1427C11.4824 81.8569 22.7418 75.1459 31.0613 75.1459H407.034C415.347 75.1459 426.579 81.8569 426.579 90.1427V605.053C426.579 613.339 415.32 620.05 407.007 620.05H31.041C22.7215 620.05 11.4892 613.339 11.4892 605.053L11.4824 90.1427Z" fill="#797A7B"/>
<path opacity="0.7964" d="M11.7196 90.2238C11.7196 82.0056 23.0669 75.3419 31.3256 75.3419H406.785C415.043 75.3419 426.357 82.0056 426.357 90.2238V604.979C426.357 613.197 415.01 619.861 406.758 619.861H31.2918C23.0331 619.861 11.7129 613.197 11.7129 604.979L11.7196 90.2238Z" fill="#7A7B7C"/>
<path opacity="0.7904" d="M11.9492 90.3049C11.9492 82.1476 23.3843 75.5311 31.5822 75.5311H406.521C414.719 75.5311 426.113 82.1408 426.113 90.3049V604.905C426.113 613.062 414.678 619.678 406.487 619.678H31.5484C23.3573 619.678 11.956 613.062 11.956 604.905L11.9492 90.3049Z" fill="#7B7C7D"/>
<path opacity="0.7844" d="M12.1855 90.386C12.1855 82.2895 23.7085 75.7204 31.8388 75.7204H406.264C414.394 75.7204 425.877 82.2827 425.877 90.386V604.824C425.877 612.92 414.36 619.482 406.23 619.482H31.805C23.6747 619.482 12.1855 612.92 12.1855 604.824V90.386Z" fill="#7C7D7E"/>
<path opacity="0.7784" d="M12.415 90.4671C12.415 82.4314 24.0258 75.9231 32.0953 75.9231H406.007C414.076 75.9231 425.647 82.4314 425.647 90.4671V604.742C425.647 612.771 414.042 619.293 405.973 619.293H32.0615C23.992 619.293 12.415 612.771 12.415 604.742V90.4671Z" fill="#7D7E7F"/>
<path opacity="0.7725" d="M12.6523 90.5414C12.6523 82.5666 24.3443 76.1056 32.3596 76.1056H405.751C413.766 76.1056 425.418 82.5666 425.418 90.5414V604.661C425.418 612.636 413.726 619.104 405.717 619.104H32.3191C24.3105 619.104 12.6523 612.636 12.6523 604.661V90.5414Z" fill="#7E7F80"/>
<path opacity="0.7665" d="M12.8818 90.6225C12.8818 82.7153 24.6616 76.3016 32.6094 76.3016H405.494C413.442 76.3016 425.174 82.7153 425.174 90.6225V604.58C425.174 612.494 413.401 618.908 405.453 618.908H32.5756C24.6278 618.908 12.8818 612.494 12.8818 604.58V90.6225Z" fill="#7F8081"/>
<path opacity="0.7605" d="M13.1182 90.7036C13.1182 82.8504 24.9858 76.4908 32.866 76.4908H405.237C413.117 76.4908 424.944 82.8504 424.944 90.7036V604.499C424.944 612.352 413.076 618.719 405.196 618.719H32.8322C24.952 618.719 13.1182 612.359 13.1182 604.499V90.7036Z" fill="#808182"/>
<path opacity="0.7545" d="M13.3477 90.7847C13.3477 82.9991 25.3031 76.6868 33.1293 76.6868H404.98C412.799 76.6868 424.714 82.9991 424.714 90.7847V604.425C424.714 612.21 412.765 618.529 404.939 618.529H33.0887C25.2626 618.529 13.3477 612.21 13.3477 604.425V90.7847Z" fill="#818283"/>
<path opacity="0.7485" d="M13.585 90.8658C13.585 83.141 25.6283 76.8828 33.3869 76.8828H404.723C412.489 76.8828 424.485 83.141 424.485 90.8658V604.35C424.485 612.082 412.448 618.34 404.683 618.34H33.3463C25.581 618.34 13.585 612.075 13.585 604.35V90.8658Z" fill="#828384"/>
<path opacity="0.7425" d="M13.8212 90.9469C13.8212 83.283 25.9457 77.0721 33.6502 77.0721H404.473C412.178 77.0721 424.255 83.283 424.255 90.9469V604.269C424.255 611.94 412.13 618.151 404.433 618.151H33.6028C25.9051 618.151 13.8145 611.94 13.8145 604.269V90.9469H13.8212Z" fill="#838485"/>
<path opacity="0.7365" d="M14.0508 91.028C14.0508 83.4249 26.2631 77.2613 33.9 77.2613H404.209C411.846 77.2613 424.018 83.4249 424.018 91.028V604.188C424.018 611.791 411.806 617.955 404.169 617.955H33.8595C26.2226 617.955 14.0508 611.791 14.0508 604.188V91.028Z" fill="#848586"/>
<path opacity="0.7305" d="M14.2871 91.1091C14.2871 83.5668 26.5873 77.4573 34.1566 77.4573H403.959C411.528 77.4573 423.788 83.5668 423.788 91.1091V604.114C423.788 611.656 411.488 617.773 403.919 617.773H34.1161C26.54 617.773 14.2871 611.663 14.2871 604.114V91.1091Z" fill="#858687"/>
<path opacity="0.7245" d="M14.5176 91.1902C14.5176 83.7087 26.9056 77.6465 34.4209 77.6465H403.703C411.211 77.6465 423.559 83.7087 423.559 91.1902V604.033C423.559 611.514 411.171 617.577 403.662 617.577H34.3736C26.8651 617.577 14.5176 611.521 14.5176 604.033V91.1902Z" fill="#868788"/>
<path opacity="0.7186" d="M14.7539 91.2646C14.7539 83.8439 27.2298 77.8357 34.6775 77.8357H403.446C410.9 77.8357 423.315 83.8439 423.315 91.2646V603.952C423.315 611.366 410.846 617.374 403.399 617.374H34.6302C27.1825 617.374 14.7539 611.359 14.7539 603.952V91.2646Z" fill="#878889"/>
<path opacity="0.7126" d="M14.9902 91.3457C14.9902 83.9926 27.5471 78.0317 34.9408 78.0317H403.196C410.582 78.0317 423.092 83.9926 423.092 91.3457V603.877C423.092 611.23 410.535 617.198 403.148 617.198H34.8867C27.4998 617.198 14.9834 611.23 14.9834 603.877L14.9902 91.3457Z" fill="#88898A"/>
<path opacity="0.7066" d="M15.2197 91.4267C15.2197 84.1345 27.8646 78.221 35.1906 78.221H402.932C410.258 78.221 422.855 84.1345 422.855 91.4267V603.796C422.855 611.089 410.211 617.002 402.884 617.002H35.1433C27.8173 617.002 15.2197 611.089 15.2197 603.796V91.4267Z" fill="#898A8B"/>
<path opacity="0.7006" d="M15.4502 91.5078C15.4502 84.2764 28.1829 78.4102 35.4481 78.4102H402.669C409.934 78.4102 422.62 84.2697 422.62 91.5078V603.722C422.62 610.947 409.887 616.82 402.622 616.82H35.4076C28.1424 616.82 15.4569 610.953 15.4569 603.722L15.4502 91.5078Z" fill="#8A8B8C"/>
<path opacity="0.6946" d="M15.6864 91.589C15.6864 84.4184 28.507 78.6062 35.7046 78.6062H402.419C409.616 78.6062 422.383 84.4184 422.383 91.589V603.641C422.383 610.811 409.569 616.624 402.364 616.624H35.6573C28.4529 616.624 15.6797 610.811 15.6797 603.641L15.6864 91.589Z" fill="#8B8C8D"/>
<path opacity="0.6886" d="M15.9229 91.67C15.9229 84.5603 28.8313 78.8022 35.9681 78.8022H402.168C409.312 78.8022 422.159 84.5603 422.159 91.67V603.566C422.159 610.676 409.258 616.434 402.114 616.434H35.9208C28.7772 616.434 15.9229 610.669 15.9229 603.566V91.67Z" fill="#8C8D8E"/>
<path opacity="0.6826" d="M16.1523 91.7511C16.1523 84.7022 29.1419 78.9914 36.2246 78.9914H401.905C408.98 78.9914 421.923 84.7022 421.923 91.7511V603.485C421.923 610.528 408.926 616.245 401.85 616.245H36.1773C29.1013 616.245 16.1591 610.528 16.1591 603.485L16.1523 91.7511Z" fill="#8D8E8F"/>
<path opacity="0.6766" d="M16.3896 91.8255C16.3896 84.8374 29.467 79.1806 36.4889 79.1806H401.655C408.67 79.1806 421.694 84.8374 421.694 91.8255V603.398C421.694 610.379 408.616 616.042 401.601 616.042H36.4349C29.4197 616.042 16.3896 610.379 16.3896 603.398V91.8255Z" fill="#8E8F90"/>
<path opacity="0.6707" d="M16.6191 91.9066C16.6191 84.986 29.7844 79.3766 36.7387 79.3766H401.391C408.346 79.3766 421.457 84.986 421.457 91.9066V603.323C421.457 610.244 408.298 615.853 401.337 615.853H36.6846C29.7303 615.853 16.6191 610.244 16.6191 603.323V91.9066Z" fill="#8F9091"/>
<path opacity="0.6647" d="M16.8555 91.9877C16.8555 85.128 30.1086 79.5659 37.0021 79.5659H401.141C408.041 79.5659 421.234 85.128 421.234 91.9877V603.242C421.234 610.109 407.981 615.664 401.094 615.664H36.9548C30.0613 615.664 16.8622 610.109 16.8622 603.242L16.8555 91.9877Z" fill="#909192"/>
<path opacity="0.6587" d="M17.0918 92.0688C17.0918 85.2699 30.4327 79.7619 37.2587 79.7619H400.884C407.71 79.7619 420.997 85.2699 420.997 92.0688V603.168C420.997 609.967 407.656 615.475 400.83 615.475H37.2046C30.3787 615.475 17.0918 609.967 17.0918 603.168V92.0688Z" fill="#919293"/>
<path opacity="0.6527" d="M17.3223 92.1499C17.3223 85.4118 30.7511 79.9511 37.5162 79.9511H400.628C407.393 79.9511 420.761 85.4118 420.761 92.1499V603.087C420.761 609.825 407.339 615.292 400.574 615.292H37.4621C30.697 615.292 17.3223 609.825 17.3223 603.087V92.1499Z" fill="#929394"/>
<path opacity="0.6467" d="M17.5518 92.231C17.5518 85.5538 31.0684 80.1471 37.7727 80.1471H400.371C407.075 80.1471 420.524 85.5538 420.524 92.231V603.012C420.524 609.69 407.014 615.103 400.31 615.103H37.7186C31.0144 615.103 17.5585 609.69 17.5585 603.012L17.5518 92.231Z" fill="#939495"/>
<path opacity="0.6407" d="M17.7881 92.3121C17.7881 85.6957 31.3859 80.3363 38.0293 80.3363H400.114C406.757 80.3363 420.294 85.6957 420.294 92.3121V602.931C420.294 609.548 406.696 614.907 400.053 614.907H37.9752C31.3318 614.907 17.7881 609.541 17.7881 602.931V92.3121Z" fill="#949596"/>
<path opacity="0.6347" d="M18.0244 92.3864C18.0244 85.8309 31.71 80.5256 38.2926 80.5256H399.857C406.439 80.5256 420.064 85.8376 420.064 92.3864V602.843C420.064 609.399 406.379 614.711 399.796 614.711H38.2318C31.6492 614.711 18.0244 609.399 18.0244 602.843V92.3864Z" fill="#959697"/>
<path opacity="0.6287" d="M18.2549 92.4675C18.2549 85.9728 32.0284 80.7215 38.5502 80.7215H399.601C406.122 80.7215 419.828 85.9795 419.828 92.4675V602.769C419.828 609.264 406.062 614.522 399.54 614.522H38.4893C31.9675 614.522 18.2549 609.264 18.2549 602.769V92.4675Z" fill="#969798"/>
<path opacity="0.6228" d="M18.4911 92.5486C18.4911 86.1214 32.3525 80.9108 38.8067 80.9108H399.35C405.805 80.9108 419.598 86.1214 419.598 92.5486V602.688C419.598 609.115 405.737 614.332 399.283 614.332H38.7459C32.2849 614.332 18.4844 609.122 18.4844 602.688V92.5486H18.4911Z" fill="#979899"/>
<path opacity="0.6168" d="M18.7207 92.6297C18.7207 86.2634 32.6632 81.1 39.0633 81.1H399.086C405.48 81.1 419.361 86.2634 419.361 92.6297V602.614C419.361 608.98 405.419 614.143 399.019 614.143H39.0025C32.6091 614.143 18.7207 608.98 18.7207 602.614V92.6297Z" fill="#98999A"/>
<path opacity="0.6108" d="M18.958 92.7108C18.958 86.4053 32.9883 81.296 39.3209 81.296H398.83C405.163 81.296 419.126 86.4053 419.126 92.7108V602.532C419.126 608.845 405.102 613.947 398.763 613.947H39.2601C32.9275 613.947 18.958 608.838 18.958 602.532V92.7108Z" fill="#999A9B"/>
<path opacity="0.6048" d="M19.1943 92.7919C19.1943 86.554 33.3125 81.492 39.5842 81.492H398.58C404.852 81.492 418.902 86.554 418.902 92.7919V602.465C418.902 608.703 404.784 613.765 398.513 613.765H39.5166C33.2449 613.765 19.1943 608.703 19.1943 602.465V92.7919Z" fill="#9A9B9C"/>
<path opacity="0.5988" d="M19.4238 92.873C19.4238 86.6959 33.6298 81.6812 39.8408 81.6812H398.323C404.534 81.6812 418.672 86.6892 418.672 92.873V602.384C418.672 608.561 404.466 613.569 398.255 613.569H39.7732C33.569 613.569 19.4238 608.561 19.4238 602.384V92.873Z" fill="#9B9C9D"/>
<path opacity="0.5928" d="M19.6533 92.9541C19.6533 86.8378 33.9472 81.8772 40.0905 81.8772H398.052C404.202 81.8772 418.429 86.8378 418.429 92.9541V602.303C418.429 608.419 404.142 613.386 397.992 613.386H40.0297C33.8796 613.386 19.6533 608.426 19.6533 602.303V92.9541Z" fill="#9C9D9E"/>
<path opacity="0.5868" d="M19.8906 93.0285C19.8906 86.973 34.2724 82.0597 40.3549 82.0597H397.81C403.886 82.0597 418.2 86.973 418.2 93.0285V602.222C418.2 608.277 403.825 613.19 397.742 613.19H40.294C34.2115 613.19 19.8974 608.277 19.8974 602.222L19.8906 93.0285Z" fill="#9D9E9F"/>
<path opacity="0.5808" d="M20.127 93.1096C20.127 87.1149 34.5898 82.2489 40.6115 82.2489H397.553C403.575 82.2489 417.963 87.1082 417.963 93.1096V602.14C417.963 608.135 403.5 612.994 397.479 612.994H40.5439C34.5222 612.994 20.127 608.128 20.127 602.14V93.1096Z" fill="#9E9FA0"/>
<path opacity="0.5748" d="M20.3564 93.1907C20.3564 87.2569 34.9071 82.4449 40.868 82.4449H397.296C403.257 82.4449 417.733 87.2569 417.733 93.1907V602.059C417.733 607.993 403.182 612.805 397.221 612.805H40.8004C34.8396 612.805 20.3564 607.993 20.3564 602.059V93.1907Z" fill="#9FA0A1"/>
<path opacity="0.5689" d="M20.5927 93.2718C20.5927 87.3988 35.2313 82.6409 41.1245 82.6409H397.039C402.939 82.6409 417.503 87.3988 417.503 93.2718V601.985C417.503 607.858 402.864 612.616 396.964 612.616H41.0569C35.1569 612.616 20.5859 607.858 20.5859 601.985L20.5927 93.2718Z" fill="#A0A1A2"/>
<path opacity="0.5629" d="M20.8232 93.3529C20.8232 87.5475 35.5497 82.8369 41.3821 82.8369H396.776C402.615 82.8369 417.26 87.5475 417.26 93.3529V601.911C417.26 607.716 402.541 612.433 396.701 612.433H41.3213C35.4821 612.433 20.83 607.723 20.83 601.911L20.8232 93.3529Z" fill="#A1A2A3"/>
<path opacity="0.5569" d="M21.0596 93.434C21.0596 87.6826 35.8671 83.0261 41.6455 83.0261H396.526C402.297 83.0261 417.037 87.6894 417.037 93.434V601.83C417.037 607.581 402.23 612.237 396.451 612.237H41.5711C35.7995 612.237 21.0596 607.581 21.0596 601.83V93.434Z" fill="#A2A3A4"/>
<path opacity="0.5509" d="M21.2959 93.5083C21.2959 87.8246 36.1913 83.2154 41.9021 83.2154H396.275C401.986 83.2154 416.807 87.8246 416.807 93.5083V601.742C416.807 607.432 401.912 612.035 396.194 612.035H41.8277C36.1169 612.035 21.2959 607.426 21.2959 601.742V93.5083Z" fill="#A3A4A5"/>
<path opacity="0.5449" d="M21.5253 93.5894C21.5253 87.9665 36.5085 83.4046 42.1585 83.4046H396.011C401.661 83.4046 416.57 87.9665 416.57 93.5894V601.667C416.57 607.29 401.58 611.852 395.93 611.852H42.0842C36.4342 611.852 21.5186 607.29 21.5186 601.667L21.5253 93.5894Z" fill="#A4A5A6"/>
<path opacity="0.5389" d="M21.7559 93.6705C21.7559 88.1084 36.8269 83.6006 42.4161 83.6006H395.755C401.344 83.6006 416.334 88.1084 416.334 93.6705V601.586C416.334 607.148 401.27 611.656 395.674 611.656H42.3417C36.7526 611.656 21.7559 607.148 21.7559 601.586V93.6705Z" fill="#A5A6A7"/>
<path opacity="0.5329" d="M21.9922 93.7516C21.9922 88.2503 37.1511 83.7898 42.6727 83.7898H395.498C401.02 83.7898 416.104 88.2503 416.104 93.7516V601.505C416.104 607.007 400.952 611.467 395.417 611.467H42.5983C37.0768 611.467 21.9922 607.013 21.9922 601.505V93.7516Z" fill="#A6A7A8"/>
<path opacity="0.5269" d="M22.2285 93.8327C22.2285 88.3922 37.4686 83.9858 42.936 83.9858H395.241C400.709 83.9858 415.874 88.3922 415.874 93.8327V601.431C415.874 606.871 400.628 611.285 395.167 611.285H42.8617C37.3942 611.285 22.2285 606.871 22.2285 601.431V93.8327Z" fill="#A7A8A9"/>
<path opacity="0.521" d="M22.458 93.9071C22.458 88.5342 37.7927 84.1751 43.1926 84.1751H394.984C400.391 84.1751 415.638 88.5342 415.638 93.9071V601.35C415.638 606.729 400.31 611.089 394.91 611.089H43.1182C37.7183 611.089 22.458 606.723 22.458 601.35V93.9071Z" fill="#A8A9AA"/>
<path opacity="0.515" d="M22.6953 93.9949C22.6953 88.6761 38.1111 84.371 43.4501 84.371H394.735C400.074 84.371 415.408 88.6761 415.408 93.9949V601.269C415.408 606.587 399.993 610.899 394.654 610.899H43.3758C38.0367 610.899 22.6953 606.587 22.6953 601.269V93.9949Z" fill="#A9AAAB"/>
<path opacity="0.509" d="M22.9248 94.0693C22.9248 88.818 38.4284 84.5603 43.7067 84.5603H394.478C399.749 84.5603 415.178 88.818 415.178 94.0693V601.188C415.178 606.439 399.675 610.703 394.397 610.703H43.6391C38.3608 610.703 22.9383 606.439 22.9383 601.188V94.0693H22.9248Z" fill="#AAABAC"/>
<path opacity="0.503" d="M23.1611 94.1504C23.1611 88.96 38.7526 84.7495 43.9633 84.7495H394.221C399.431 84.7495 414.942 88.9532 414.942 94.1504V601.113C414.942 606.31 399.35 610.521 394.133 610.521H43.8889C38.6715 610.521 23.1611 606.31 23.1611 601.113V94.1504Z" fill="#ABACAD"/>
<path opacity="0.497" d="M23.3906 94.2315C23.3906 89.1019 39.07 84.9388 44.2198 84.9388H393.957C399.113 84.9388 414.698 89.0951 414.698 94.2315V601.039C414.698 606.169 399.026 610.325 393.869 610.325H44.1387C38.9889 610.325 23.3906 606.169 23.3906 601.039V94.2315Z" fill="#ACACAD"/>
<path opacity="0.491" d="M23.6279 94.3126C23.6279 89.2438 39.3951 85.1348 44.4842 85.1348H393.708C398.803 85.1348 414.476 89.2438 414.476 94.3126V600.958C414.476 606.027 398.715 610.129 393.626 610.129H44.403C39.314 610.129 23.6279 606.027 23.6279 600.958V94.3126Z" fill="#ADADAE"/>
<path opacity="0.485" d="M23.8643 94.3937C23.8643 89.3857 39.7126 85.3307 44.7408 85.3307H393.45C398.479 85.3307 414.246 89.3857 414.246 94.3937V600.883C414.246 605.885 398.398 609.946 393.369 609.946H44.6596C39.6314 609.946 23.8643 605.885 23.8643 600.883V94.3937Z" fill="#AEAEAF"/>
<path opacity="0.479" d="M24.0938 94.4748C24.0938 89.5277 40.0299 85.52 44.9973 85.52H393.193C398.154 85.52 414.009 89.5277 414.009 94.4748V600.802C414.009 605.743 398.073 609.75 393.106 609.75H44.9162C39.9488 609.75 24.0938 605.743 24.0938 600.802V94.4748Z" fill="#AFAFB0"/>
<path opacity="0.4731" d="M24.3232 94.5559C24.3232 89.6696 40.3473 85.716 45.2538 85.716H392.936C397.843 85.716 413.772 89.6696 413.772 94.5559V600.728C413.772 605.614 397.755 609.568 392.848 609.568H45.1727C40.2662 609.568 24.3232 605.614 24.3232 600.728V94.5559Z" fill="#B0B0B1"/>
<path opacity="0.4671" d="M24.5605 94.6302C24.5605 89.8115 40.6724 85.8984 45.5181 85.8984H392.687C397.533 85.8984 413.55 89.8048 413.55 94.6302V600.64C413.55 605.459 397.438 609.372 392.599 609.372H45.4303C40.5846 609.372 24.5605 605.459 24.5605 600.64V94.6302Z" fill="#B1B1B2"/>
<path opacity="0.4611" d="M24.7969 94.7113C24.7969 89.9534 40.9899 86.0944 45.7748 86.0944H392.423C397.201 86.0944 413.313 89.9534 413.313 94.7113V600.566C413.313 605.324 397.12 609.183 392.335 609.183H45.6869C40.902 609.183 24.7969 605.324 24.7969 600.566V94.7113Z" fill="#B2B2B3"/>
<path opacity="0.4551" d="M25.0264 94.7924C25.0264 90.0954 41.3072 86.2904 46.0245 86.2904H392.159C396.877 86.2904 413.07 90.0954 413.07 94.7924V600.485C413.07 605.182 396.796 608.993 392.078 608.993H45.9434C41.2261 608.993 25.0264 605.188 25.0264 600.485V94.7924Z" fill="#B3B3B4"/>
<path opacity="0.4491" d="M25.2627 94.8735C25.2627 90.2373 41.6314 86.4796 46.2879 86.4796H391.909C396.566 86.4796 412.846 90.2373 412.846 94.8735V600.404C412.846 605.04 396.478 608.797 391.828 608.797H46.2C41.5435 608.797 25.2627 605.033 25.2627 600.404V94.8735Z" fill="#B4B4B5"/>
<path opacity="0.4431" d="M25.4932 94.9546C25.4932 90.3792 41.9497 86.6756 46.5454 86.6756H391.66C396.255 86.6756 412.617 90.3792 412.617 94.9546V600.329C412.617 604.905 396.167 608.615 391.572 608.615H46.4575C41.8618 608.615 25.4932 604.905 25.4932 600.329V94.9546Z" fill="#B5B5B6"/>
<path opacity="0.4371" d="M25.7295 95.0357C25.7295 90.5211 42.2739 86.8649 46.802 86.8649H391.403C395.931 86.8649 412.38 90.5211 412.38 95.0357V600.248C412.38 604.763 395.836 608.419 391.308 608.419H46.7141C42.186 608.419 25.7295 604.763 25.7295 600.248V95.0357Z" fill="#B6B6B7"/>
<path opacity="0.4311" d="M25.9658 95.1168C25.9658 90.6631 42.5913 87.0609 47.0653 87.0609H391.146C395.613 87.0609 412.144 90.6698 412.144 95.1168V600.167C412.144 604.614 395.518 608.223 391.051 608.223H46.9707C42.5035 608.223 25.9658 604.614 25.9658 600.167V95.1168Z" fill="#B7B7B8"/>
<path opacity="0.4251" d="M26.1953 95.1911C26.1953 90.805 42.9087 87.2501 47.3151 87.2501H390.882C395.288 87.2501 411.907 90.805 411.907 95.1911V600.086C411.907 604.472 395.194 608.034 390.787 608.034H47.2273C42.8208 608.034 26.1953 604.479 26.1953 600.086V95.1911Z" fill="#B8B8B9"/>
<path opacity="0.4192" d="M26.4258 95.2722C26.4258 90.9469 43.227 87.4393 47.5726 87.4393H390.626C394.978 87.4393 411.678 90.9469 411.678 95.2722V600.012C411.678 604.344 394.877 607.844 390.531 607.844H47.4847C43.1391 607.844 26.4258 604.337 26.4258 600.012V95.2722Z" fill="#B9B9BA"/>
<path opacity="0.4132" d="M26.6621 95.3533C26.6621 91.0888 43.5512 87.6286 47.836 87.6286H390.375C394.667 87.6286 411.455 91.0821 411.455 95.3533V599.93C411.455 604.195 394.565 607.655 390.281 607.655H47.7414C43.4566 607.655 26.6621 604.195 26.6621 599.93V95.3533Z" fill="#BABABB"/>
<path opacity="0.4072" d="M26.8984 95.4344C26.8984 91.2308 43.8753 87.8246 48.0925 87.8246H390.118C394.335 87.8246 411.211 91.2308 411.211 95.4344V599.849C411.211 604.053 394.234 607.459 390.017 607.459H47.9979C43.7739 607.459 26.8916 604.053 26.8916 599.849L26.8984 95.4344Z" fill="#BBBBBC"/>
<path opacity="0.4012" d="M27.1279 95.5155C27.1279 91.3727 44.1859 88.0205 48.3491 88.0205H389.861C394.018 88.0205 410.981 91.3794 410.981 95.5155V599.775C410.981 603.918 393.923 607.277 389.76 607.277H48.2545C44.0913 607.277 27.1279 603.918 27.1279 599.775V95.5155Z" fill="#BCBCBD"/>
<path opacity="0.3952" d="M27.3652 95.5966C27.3652 91.5146 44.5178 88.2098 48.6134 88.2098H389.605C393.707 88.2098 410.752 91.5146 410.752 95.5966V599.694C410.752 603.776 393.606 607.088 389.504 607.088H48.512C44.4164 607.088 27.3584 603.783 27.3584 599.694V95.5966H27.3652Z" fill="#BDBDBE"/>
<path opacity="0.3892" d="M27.5947 95.6777C27.5947 91.6565 44.8285 88.4058 48.8632 88.4058H389.341C393.383 88.4058 410.515 91.6565 410.515 95.6777V599.613C410.515 603.634 393.275 606.892 389.24 606.892H48.7754C44.7406 606.892 27.6015 603.634 27.6015 599.613V95.6777H27.5947Z" fill="#BEBEBF"/>
<path opacity="0.3832" d="M27.8311 95.7521C27.8311 91.7917 45.1527 88.5883 49.1266 88.5883H389.091C393.065 88.5883 410.285 91.7917 410.285 95.7521V599.539C410.285 603.492 392.964 606.702 388.996 606.702H49.0319C45.058 606.702 27.8311 603.492 27.8311 599.539V95.7521Z" fill="#BFBFC0"/>
<path opacity="0.3772" d="M28.0673 95.84C28.0673 91.9472 45.4768 88.791 49.3831 88.791H388.834C392.747 88.791 410.055 91.9472 410.055 95.84V599.464C410.055 603.357 392.652 606.513 388.739 606.513H49.2817C45.3686 606.513 28.0605 603.357 28.0605 599.464V95.84H28.0673Z" fill="#C0C0C1"/>
<path opacity="0.3713" d="M28.2978 95.9143C28.2978 92.0823 45.7951 88.9735 49.6473 88.9735H388.584C392.43 88.9735 409.826 92.0823 409.826 95.9143V599.383C409.826 603.208 392.329 606.317 388.483 606.317H49.5392C45.6937 606.317 28.291 603.208 28.291 599.383L28.2978 95.9143Z" fill="#C1C1C2"/>
<path opacity="0.3653" d="M28.5273 95.9954C28.5273 92.2242 46.1125 89.1695 49.8972 89.1695H388.321C392.112 89.1695 409.582 92.2242 409.582 95.9954V599.302C409.582 603.073 392.004 606.128 388.219 606.128H49.7958C46.0111 606.128 28.5273 603.073 28.5273 599.302V95.9954Z" fill="#C2C2C3"/>
<path opacity="0.3593" d="M28.7637 96.0765C28.7637 92.3729 46.43 89.3655 50.1606 89.3655H388.07C391.794 89.3655 409.352 92.3729 409.352 96.0765V599.228C409.352 602.938 391.686 605.939 387.962 605.939H50.0524C46.3286 605.939 28.7637 602.938 28.7637 599.228V96.0765Z" fill="#C3C3C4"/>
<path opacity="0.3533" d="M29 96.1576C29 92.5081 46.7542 89.5547 50.4172 89.5547H387.813C391.476 89.5547 409.122 92.5148 409.122 96.1576V599.146C409.122 602.789 391.368 605.749 387.705 605.749H50.3158C46.6528 605.749 29 602.789 29 599.146V96.1576Z" fill="#C4C4C5"/>
<path opacity="0.3473" d="M29.2305 96.2387C29.2305 92.6568 47.0725 89.7439 50.6679 89.7439H387.551C391.153 89.7439 408.887 92.65 408.887 96.2387V599.065C408.887 602.647 391.045 605.554 387.442 605.554H50.5733C46.9711 605.554 29.2372 602.647 29.2372 599.065L29.2305 96.2387Z" fill="#C5C5C6"/>
<path opacity="0.3413" d="M29.4667 96.3198C29.4667 92.7987 47.3966 89.9399 50.9312 89.9399H387.293C390.835 89.9399 408.65 92.7987 408.65 96.3198V598.991C408.65 602.512 390.727 605.371 387.185 605.371H50.823C47.2817 605.371 29.46 602.512 29.46 598.991L29.4667 96.3198Z" fill="#C6C6C7"/>
<path opacity="0.3353" d="M29.6963 96.4009C29.6963 92.9406 47.714 90.1359 51.1878 90.1359H387.043C390.517 90.1359 408.42 92.9406 408.42 96.4009V598.91C408.42 602.37 390.409 605.182 386.928 605.182H51.0864C47.6059 605.182 29.6963 602.37 29.6963 598.91V96.4009Z" fill="#C7C7C8"/>
<path opacity="0.3293" d="M29.9326 96.4752C29.9326 93.0758 48.0314 90.3184 51.4512 90.3184H386.793C390.206 90.3184 408.197 93.0758 408.197 96.4752V598.829C408.197 602.228 390.091 604.986 386.678 604.986H51.343C47.9301 604.986 29.9326 602.228 29.9326 598.829V96.4752Z" fill="#C8C8C9"/>
<path opacity="0.3234" d="M30.1699 96.5563C30.1699 93.2177 48.3566 90.5144 51.7087 90.5144H386.53C389.882 90.5144 407.961 93.2177 407.961 96.5563V598.748C407.961 602.086 389.774 604.796 386.415 604.796H51.6006C48.2485 604.796 30.1699 602.093 30.1699 598.748V96.5563Z" fill="#C9C9CA"/>
<path opacity="0.3174" d="M30.3994 96.6374C30.3994 93.3664 48.674 90.7104 51.9653 90.7104H386.273C389.564 90.7104 407.724 93.3664 407.724 96.6374V598.673C407.724 601.945 389.456 604.607 386.165 604.607H51.8571C48.5658 604.607 30.3994 601.945 30.3994 598.673V96.6374Z" fill="#CACACB"/>
<path opacity="0.3114" d="M30.6289 96.7185C30.6289 93.5016 48.9913 90.8996 52.215 90.8996H386.009C389.233 90.8996 407.487 93.5083 407.487 96.7185V598.592C407.487 601.809 389.125 604.411 385.901 604.411H52.1069C48.8764 604.411 30.6289 601.803 30.6289 598.592V96.7185Z" fill="#CBCBCC"/>
<path opacity="0.3054" d="M30.8652 96.7996C30.8652 93.6502 49.3087 91.0956 52.4784 91.0956H385.752C388.922 91.0956 407.257 93.6502 407.257 96.7996V598.511C407.257 601.667 388.814 604.222 385.644 604.222H52.3702C49.2073 604.222 30.8652 601.667 30.8652 598.511V96.7996Z" fill="#CCCCCD"/>
<path opacity="0.2994" d="M31.1025 96.8807C31.1025 93.7922 49.6339 91.2848 52.7427 91.2848H385.51C388.612 91.2848 407.028 93.7922 407.028 96.8807V598.437C407.028 601.532 388.497 604.033 385.395 604.033H52.6278C49.519 604.033 31.1025 601.532 31.1025 598.437V96.8807Z" fill="#CDCDCE"/>
<path opacity="0.2934" d="M31.332 96.9618C31.332 93.9341 49.9512 91.4808 52.9993 91.4808H385.252C388.294 91.4808 406.798 93.9341 406.798 96.9618V598.356C406.798 601.384 388.179 603.844 385.138 603.844H52.8844C49.8431 603.844 31.332 601.39 31.332 598.356V96.9618Z" fill="#CECECF"/>
<path opacity="0.2874" d="M31.5684 97.0362C31.5684 94.0693 50.2754 91.6633 53.2558 91.6633H384.995C387.969 91.6633 406.561 94.0693 406.561 97.0362V598.275C406.561 601.242 387.854 603.648 384.874 603.648H53.141C50.1605 603.648 31.5684 601.248 31.5684 598.275V97.0362Z" fill="#CFCFD0"/>
<path opacity="0.2814" d="M31.7988 97.1173C31.7988 94.2112 50.5937 91.8593 53.5066 91.8593H384.732C387.652 91.8593 406.325 94.2179 406.325 97.1173V598.194C406.325 601.106 387.53 603.452 384.611 603.452H53.3985C50.4789 603.452 31.7988 601.1 31.7988 598.194V97.1173Z" fill="#D0D0D1"/>
<path opacity="0.2754" d="M32.0352 97.1984C32.0352 94.3531 50.9112 92.0485 53.77 92.0485H384.482C387.341 92.0485 406.095 94.3531 406.095 97.1984V598.119C406.095 600.958 387.219 603.269 384.361 603.269H53.6551C50.7963 603.269 32.0352 600.958 32.0352 598.119V97.1984Z" fill="#D1D1D2"/>
<path opacity="0.2695" d="M32.2714 97.2795C32.2714 94.495 51.2353 92.2445 54.0332 92.2445H384.225C387.023 92.2445 405.865 94.5018 405.865 97.2795V598.045C405.865 600.823 386.901 603.08 384.104 603.08H53.9116C51.1136 603.08 32.2646 600.823 32.2646 598.045L32.2714 97.2795Z" fill="#D2D2D3"/>
<path opacity="0.2635" d="M32.501 97.3606C32.501 94.6437 51.5527 92.4337 54.2898 92.4337H383.975C386.705 92.4337 405.635 94.637 405.635 97.3606V597.964C405.635 600.681 386.584 602.891 383.846 602.891H54.1682C51.4378 602.891 32.501 600.687 32.501 597.964V97.3606Z" fill="#D3D3D4"/>
<path opacity="0.2575" d="M32.7314 97.4417C32.7314 94.7856 51.871 92.6297 54.5406 92.6297H383.712C386.382 92.6297 405.399 94.7856 405.399 97.4417V597.889C405.399 600.545 386.26 602.701 383.584 602.701H54.4257C51.7561 602.701 32.7314 600.545 32.7314 597.889V97.4417Z" fill="#D4D4D5"/>
<path opacity="0.2515" d="M32.9678 97.5228C32.9678 94.9276 52.1952 92.819 54.8039 92.819H383.455C386.064 92.819 405.163 94.9208 405.163 97.5228V597.808C405.163 600.404 385.935 602.505 383.326 602.505H54.6823C52.0736 602.505 32.9678 600.397 32.9678 597.808V97.5228Z" fill="#D5D5D6"/>
<path opacity="0.2455" d="M33.2041 97.5971C33.2041 95.0627 52.5126 93.0082 55.0605 93.0082H383.198C385.746 93.0082 404.933 95.0627 404.933 97.5971V597.721C404.933 600.255 385.624 602.309 383.076 602.309H54.9389C52.3978 602.309 33.2041 600.255 33.2041 597.721V97.5971Z" fill="#D6D6D7"/>
<path opacity="0.2395" d="M33.4336 97.6782C33.4336 95.2047 52.8368 93.2042 55.3171 93.2042H382.941C385.428 93.2042 404.703 95.2047 404.703 97.6782V597.646C404.703 600.113 385.306 602.12 382.819 602.12H55.1954C52.7151 602.12 33.4336 600.113 33.4336 597.646V97.6782Z" fill="#D7D7D8"/>
<path opacity="0.2335" d="M33.6709 97.7593C33.6709 95.3466 53.1552 93.3934 55.5814 93.3934H382.685C385.104 93.3934 404.474 95.3466 404.474 97.7593V597.565C404.474 599.971 384.983 601.931 382.563 601.931H55.4598C53.0403 601.931 33.6709 599.978 33.6709 597.565V97.7593Z" fill="#D8D8D9"/>
<path opacity="0.2275" d="M33.9004 97.8404C33.9004 95.4885 53.4725 93.5894 55.8312 93.5894H382.428C384.786 93.5894 404.23 95.4953 404.23 97.8404V597.491C404.23 599.843 384.658 601.742 382.299 601.742H55.7095C53.3509 601.742 33.9004 599.843 33.9004 597.491V97.8404Z" fill="#D9D9DA"/>
<path opacity="0.2216" d="M34.1367 97.9215C34.1367 95.6372 53.7967 93.7787 56.0945 93.7787H382.177C384.475 93.7787 404 95.6304 404 97.9215V597.41C404 599.701 384.34 601.546 382.042 601.546H55.9661C53.6683 601.546 34.1367 599.701 34.1367 597.41V97.9215Z" fill="#DADADB"/>
<path opacity="0.2156" d="M34.3662 98.0026C34.3662 95.7791 54.114 93.9746 56.3511 93.9746H381.92C384.157 93.9746 403.77 95.7791 403.77 98.0026V597.335C403.77 599.559 384.022 601.37 381.785 601.37H56.2294C53.9924 601.37 34.373 599.559 34.373 597.335L34.3662 98.0026Z" fill="#DBDBDC"/>
<path opacity="0.2096" d="M34.6035 98.0837C34.6035 95.921 54.4392 94.1639 56.6086 94.1639H381.657C383.827 94.1639 403.527 95.9143 403.527 98.0837V597.254C403.527 599.417 383.698 601.174 381.522 601.174H56.487C54.3108 601.174 34.6035 599.417 34.6035 597.254V98.0837Z" fill="#DCDCDD"/>
<path opacity="0.2036" d="M34.8398 98.158C34.8398 96.0562 54.7566 94.3531 56.8719 94.3531H381.407C383.522 94.3531 403.304 96.0562 403.304 98.158V597.173C403.304 599.282 383.387 600.978 381.272 600.978H56.7368C54.6282 600.978 34.833 599.275 34.833 597.173V98.158H34.8398Z" fill="#DDDDDE"/>
<path opacity="0.1976" d="M35.0693 98.2391C35.0693 96.1981 55.074 94.5491 57.1218 94.5491H381.143C383.198 94.5491 403.067 96.2049 403.067 98.2391V597.092C403.067 599.133 383.063 600.789 381.008 600.789H56.9934C54.9456 600.789 35.0693 599.133 35.0693 597.092V98.2391Z" fill="#DEDEDF"/>
<path opacity="0.1916" d="M35.2988 98.3203C35.2988 96.3401 55.3914 94.7383 57.3783 94.7383H380.893C382.88 94.7383 402.837 96.3401 402.837 98.3203V597.011C402.837 598.991 382.738 600.593 380.758 600.593H57.2499C55.263 600.593 35.2988 598.991 35.2988 597.011V98.3203Z" fill="#DFDFE0"/>
<path opacity="0.1856" d="M35.5361 98.4014C35.5361 96.482 55.7165 94.9343 57.6426 94.9343H380.637C382.556 94.9343 402.602 96.482 402.602 98.4014V596.937C402.602 598.856 382.428 600.41 380.495 600.41H57.5143C55.5881 600.41 35.5429 598.863 35.5429 596.937V98.4014H35.5361Z" fill="#E0E0E1"/>
<path opacity="0.1796" d="M35.7725 98.4824C35.7725 96.6307 56.0407 95.1236 57.8993 95.1236H380.38C382.238 95.1236 402.371 96.6239 402.371 98.4824V596.855C402.371 598.707 382.11 600.214 380.245 600.214H57.7708C55.9123 600.214 35.7725 598.707 35.7725 596.855V98.4824Z" fill="#E1E1E2"/>
<path opacity="0.1737" d="M36.002 98.5635C36.002 96.7726 56.3513 95.3195 58.1558 95.3195H380.123C381.927 95.3195 402.141 96.7726 402.141 98.5635V596.781C402.141 598.579 381.785 600.032 379.988 600.032H58.0274C56.2229 600.032 36.0087 598.579 36.0087 596.781V98.5635H36.002Z" fill="#E2E2E3"/>
<path opacity="0.1677" d="M36.2383 98.6446C36.2383 96.9145 56.6755 95.5088 58.4124 95.5088H379.859C381.603 95.5088 401.905 96.9145 401.905 98.6446V596.7C401.905 598.437 381.467 599.836 379.724 599.836H58.284C56.5471 599.836 36.2383 598.437 36.2383 596.7V98.6446Z" fill="#E3E3E4"/>
<path opacity="0.1617" d="M36.4688 98.7258C36.4688 97.0564 56.9938 95.7048 58.6699 95.7048H379.603C381.279 95.7048 401.669 97.0564 401.669 98.7258V596.626C401.669 598.288 381.15 599.64 379.474 599.64H58.5415C56.8654 599.64 36.4688 598.288 36.4688 596.626V98.7258Z" fill="#E4E4E4"/>
<path opacity="0.1557" d="M36.7051 98.8001C36.7051 97.1916 57.318 95.894 58.9332 95.894H379.359C380.968 95.894 401.446 97.1916 401.446 98.8001V596.545C401.446 598.146 380.833 599.457 379.224 599.457H58.7981C57.1828 599.457 36.7051 598.153 36.7051 596.545V98.8001Z" fill="#E5E5E5"/>
<path opacity="0.1497" d="M36.9414 98.8812C36.9414 97.3335 57.6422 96.0832 59.1898 96.0832H379.102C380.657 96.0832 401.216 97.3335 401.216 98.8812V596.464C401.216 598.011 380.515 599.261 378.967 599.261H59.0547C57.5003 599.261 36.9414 598.004 36.9414 596.464V98.8812Z" fill="#E6E6E6"/>
<path opacity="0.1437" d="M37.1709 98.9623C37.1709 97.4755 57.9528 96.2792 59.4464 96.2792H378.838C380.332 96.2792 400.965 97.4822 400.965 98.9623V596.389C400.965 597.869 380.183 599.072 378.697 599.072H59.3112C57.8244 599.072 37.1777 597.862 37.1777 596.389L37.1709 98.9623Z" fill="#E7E7E7"/>
<path opacity="0.1377" d="M37.4014 99.0434C37.4014 97.6241 58.2711 96.4685 59.7039 96.4685H378.582C380.015 96.4685 400.736 97.6174 400.736 99.0434V596.308C400.736 597.727 379.866 598.883 378.44 598.883H59.5687C58.1427 598.883 37.4081 597.727 37.4081 596.308L37.4014 99.0434Z" fill="#E8E8E8"/>
<path opacity="0.1317" d="M37.6377 99.1245C37.6377 97.7593 58.5953 96.6645 59.9605 96.6645H378.325C379.69 96.6645 400.506 97.7661 400.506 99.1245V596.227C400.506 597.585 379.549 598.687 378.183 598.687H59.8253C58.4601 598.687 37.6377 597.585 37.6377 596.227V99.1245Z" fill="#E9E9E9"/>
<path opacity="0.1257" d="M37.874 99.2056C37.874 97.908 58.9195 96.8537 60.2238 96.8537H378.075C379.379 96.8537 400.283 97.908 400.283 99.2056V596.153C400.283 597.45 379.237 598.505 377.933 598.505H60.0819C58.7775 598.505 37.874 597.457 37.874 596.153V99.2056Z" fill="#EAEAEA"/>
<path opacity="0.1198" d="M38.1035 99.2799C38.1035 98.0432 59.2301 97.0429 60.4736 97.0429H377.818C379.061 97.0429 400.039 98.0432 400.039 99.2799V596.065C400.039 597.302 378.913 598.302 377.669 598.302H60.3384C59.0949 598.302 38.1035 597.302 38.1035 596.065V99.2799Z" fill="#EBEBEB"/>
<path opacity="0.1138" d="M38.3408 99.361C38.3408 98.1918 59.562 97.2322 60.7379 97.2322H377.562C378.745 97.2322 399.81 98.1851 399.81 99.361V595.99C399.81 597.166 378.589 598.113 377.413 598.113H60.596C59.4133 598.113 38.3408 597.16 38.3408 595.99V99.361Z" fill="#ECECEC"/>
<path opacity="0.1078" d="M38.5703 99.4421C38.5703 98.327 59.8726 97.4281 60.9945 97.4281H377.305C378.42 97.4281 399.58 98.3338 399.58 99.4421V595.909C399.58 597.024 378.278 597.923 377.163 597.923H60.8525C59.7374 597.923 38.5703 597.024 38.5703 595.909V99.4421Z" fill="#EDEDED"/>
<path opacity="0.1018" d="M38.8066 99.5232C38.8066 98.4757 60.1968 97.6241 61.2511 97.6241H377.041C378.095 97.6241 399.343 98.4757 399.343 99.5232V595.835C399.343 596.882 377.953 597.734 376.899 597.734H61.1091C60.0548 597.734 38.8066 596.882 38.8066 595.835V99.5232Z" fill="#EEEEEE"/>
<path opacity="0.0958" d="M39.043 99.6043C39.043 98.6176 60.521 97.8134 61.5144 97.8134H376.791C377.791 97.8134 399.113 98.6176 399.113 99.6043V595.754C399.113 596.741 377.635 597.545 376.649 597.545H61.3725C60.379 597.545 39.043 596.747 39.043 595.754V99.6043Z" fill="#EFEFEF"/>
<path opacity="0.0898" d="M39.2734 99.6854C39.2734 98.7595 60.8325 98.0026 61.7652 98.0026H376.528C377.467 98.0026 398.878 98.7528 398.878 99.6854V595.673C398.878 596.605 377.318 597.356 376.386 597.356H61.6232C60.6906 597.356 39.2734 596.605 39.2734 595.673V99.6854Z" fill="#F0F0F0"/>
<path opacity="0.0838" d="M39.5029 99.7665C39.5029 98.9015 61.1566 98.1986 62.0217 98.1986H376.277C377.142 98.1986 398.648 98.9015 398.648 99.7665V595.598C398.648 596.464 376.994 597.166 376.129 597.166H61.8798C61.0147 597.166 39.5029 596.464 39.5029 595.598V99.7665Z" fill="#F1F1F1"/>
<path opacity="0.0778" d="M39.7393 99.8409C39.7393 99.0366 61.474 98.3878 62.285 98.3878H376.02C376.825 98.3878 398.411 99.0434 398.411 99.8409V595.511C398.411 596.315 376.669 596.97 375.865 596.97H62.1364C61.3321 596.97 39.7393 596.315 39.7393 595.511V99.8409Z" fill="#F2F2F2"/>
<path opacity="0.0719" d="M39.9756 99.922C39.9756 99.1853 61.7983 98.5838 62.5417 98.5838H375.763C376.507 98.5838 398.174 99.1853 398.174 99.922V595.436C398.174 596.18 376.351 596.781 375.608 596.781H62.393C61.6496 596.781 39.9756 596.18 39.9756 595.436V99.922Z" fill="#F3F3F3"/>
<path opacity="0.0659" d="M40.2061 100.003C40.2061 99.3205 62.1166 98.7731 62.7992 98.7731H375.507C376.197 98.7731 397.945 99.3205 397.945 100.003V595.355C397.945 596.038 376.034 596.592 375.352 596.592H62.6505C61.9679 596.592 40.2061 596.038 40.2061 595.355V100.003Z" fill="#F4F4F4"/>
<path opacity="0.0599" d="M40.4423 100.084C40.4423 99.4692 62.4407 98.9623 63.0624 98.9623H375.257C375.879 98.9623 397.722 99.4624 397.722 100.084V595.274C397.722 595.896 375.723 596.396 375.101 596.396H62.907C62.2852 596.396 40.4355 595.896 40.4355 595.274L40.4423 100.084Z" fill="#F5F5F5"/>
<path opacity="0.0539" d="M40.6719 100.165C40.6719 99.6111 62.7581 99.1583 63.3123 99.1583H374.993C375.554 99.1583 397.478 99.6111 397.478 100.165V595.206C397.478 595.761 375.399 596.207 374.838 596.207H63.1636C62.6027 596.207 40.6719 595.761 40.6719 595.206V100.165Z" fill="#F6F6F6"/>
<path opacity="0.0479" d="M40.9082 100.246C40.9082 99.753 63.0755 99.3475 63.5757 99.3475H374.743C375.236 99.3475 397.248 99.753 397.248 100.246V595.125C397.248 595.612 375.081 596.017 374.581 596.017H63.427C62.9269 596.017 40.9082 595.612 40.9082 595.125V100.246Z" fill="#F7F7F7"/>
<path opacity="0.0419" d="M41.1455 100.327C41.1455 99.8949 63.4007 99.5435 63.8332 99.5435H374.487C374.919 99.5435 397.019 99.8949 397.019 100.327V595.051C397.019 595.477 374.764 595.828 374.331 595.828H63.6845C63.252 595.828 41.1455 595.477 41.1455 595.051V100.327Z" fill="#F8F8F8"/>
<path opacity="0.0359" d="M41.375 100.402C41.375 100.03 63.718 99.7327 64.0898 99.7327H374.23C374.601 99.7327 396.789 100.03 396.789 100.402V594.963C396.789 595.335 374.439 595.632 374.074 595.632H63.9411C63.5694 595.632 41.375 595.335 41.375 594.963V100.402Z" fill="#F9F9F9"/>
<path opacity="0.0299" d="M41.6045 100.49C41.6045 100.179 64.0354 99.9287 64.3463 99.9287H373.966C374.277 99.9287 396.545 100.179 396.545 100.49V594.889C396.545 595.2 374.121 595.45 373.81 595.45H64.1976C63.8867 595.45 41.6112 595.2 41.6112 594.889L41.6045 100.49Z" fill="#FAFAFA"/>
<path opacity="0.024" d="M41.8408 100.564C41.8408 100.314 64.3596 100.118 64.6029 100.118H373.709C373.959 100.118 396.315 100.321 396.315 100.564V594.808C396.315 595.051 373.803 595.254 373.553 595.254H64.4474C64.1974 595.254 41.8408 595.051 41.8408 594.808V100.564Z" fill="#FBFBFB"/>
<path opacity="0.018" d="M42.078 100.645C42.078 100.463 64.6779 100.307 64.8604 100.307H373.453C373.642 100.307 396.086 100.463 396.086 100.645V594.727C396.086 594.909 373.48 595.065 373.297 595.065H64.7049C64.5225 595.065 42.0713 594.916 42.0713 594.727L42.078 100.645Z" fill="#FCFCFC"/>
<path opacity="0.012" d="M42.3076 100.726C42.3076 100.605 64.9953 100.503 65.1237 100.503H373.202C373.324 100.503 395.856 100.605 395.856 100.726V594.652C395.856 594.781 373.169 594.875 373.04 594.875H64.9683C64.8467 594.875 42.3076 594.774 42.3076 594.652V100.726Z" fill="#FDFDFD"/>
<path opacity="0.01" d="M42.5439 100.807C42.5439 100.746 65.3195 100.692 65.3803 100.692H372.945C373.006 100.692 395.613 100.74 395.613 100.807V594.571C395.613 594.632 372.837 594.686 372.776 594.686H65.2249C65.1641 594.686 42.5439 594.632 42.5439 594.571V100.807Z" fill="#FEFEFE"/>
<path d="M423.146 81.8569L218.666 9.40084L14.1925 81.8569L13.2666 79.255L218.666 6.46773L219.132 6.62993L424.072 79.255L423.146 81.8569Z" fill="#373737"/>
<path d="M422.044 82.1205L437.683 66.502H0.0673828L15.7129 82.1205H422.044Z" fill="#373737"/>
<path d="M16.3621 80.5594L3.8457 68.0632H433.912L421.396 80.5594H16.3621Z" fill="#292929"/>
<path d="M15.6455 82.1205H15.7131L0.067572 66.502H0V628.376L15.6455 612.765V82.1205Z" fill="#231F20"/>
<path d="M1.56836 70.2056L14.078 82.695V612.116L1.56836 624.605V70.2056Z" fill="#292929"/>
<path d="M422.396 613.109H15.6455V612.765L0 628.376V628.728H438.035V628.66L422.396 613.042V613.109Z" fill="#373737"/>
<path d="M3.42676 627.16L15.9432 614.67H421.815L434.331 627.16H3.42676Z" fill="#292929"/>
<path d="M437.683 66.502L422.044 82.1205H422.395V613.042L438.034 628.66V66.502H437.683Z" fill="#231F20"/>
<path d="M423.957 612.393V82.4179L436.473 69.9217V624.889L423.957 612.393Z" fill="#292929"/>
<path d="M228.168 9.48194C228.168 14.7196 223.917 18.9706 218.666 18.9706C213.422 18.9706 209.164 14.7264 209.164 9.48194C209.164 4.24423 213.415 0 218.666 0C223.917 0 228.168 4.24423 228.168 9.48194Z" fill="#373737"/>
<path d="M218.667 6.37311C221.255 6.37311 223.411 8.15055 224.019 10.5362C224.134 10.097 224.209 9.64415 224.209 9.1643C224.209 6.10954 221.728 3.62923 218.66 3.62923C215.598 3.62923 213.118 6.10954 213.118 9.1643C213.118 9.64415 213.199 10.097 213.307 10.5362C213.929 8.15055 216.085 6.37311 218.667 6.37311Z" fill="#5F5F5F"/>
</svg>
