<svg width="282" height="140" viewBox="0 0 282 140" fill="none" xmlns="http://www.w3.org/2000/svg">
<path d="M276 0H6C3.23858 0 1 2.23858 1 5V135C1 137.761 3.23858 140 6 140H276C278.761 140 281 137.761 281 135V5C281 2.23858 278.761 0 276 0Z" fill="white"/>
<mask id="mask0_1753_2052" style="mask-type:alpha" maskUnits="userSpaceOnUse" x="1" y="0" width="280" height="140">
<path d="M276 0H6C3.23858 0 1 2.23858 1 5V135C1 137.761 3.23858 140 6 140H276C278.761 140 281 137.761 281 135V5C281 2.23858 278.761 0 276 0Z" fill="#126E82"/>
</mask>
<g mask="url(#mask0_1753_2052)">
<path d="M1 56.763C1 56.763 24.7876 87.3487 36.6814 88.7603C48.5752 90.1719 58.4867 60.5274 69.3894 60.5274C80.292 60.5274 75.8319 78.4082 86.2389 77.4671C96.646 76.526 95.6549 54.4103 106.558 59.1158C117.46 63.8212 121.425 103.818 135.796 101.936C150.168 100.053 156.611 65.2329 172.965 60.5274C189.319 55.8219 207.159 80.2904 222.522 80.2904C237.885 80.2904 281 37 281 37" stroke="#FEE46F"/>
<path d="M36.6814 89.212C24.7876 87.788 1 56.9355 1 56.9355V140H281V37C281 37 237.885 80.6682 222.522 80.6682C207.159 80.6682 189.319 55.9862 172.965 60.7327C156.611 65.4793 150.168 100.604 135.796 102.502C121.425 104.401 117.46 64.0553 106.558 59.3088C95.6549 54.5622 96.646 76.871 86.2389 77.8203C75.8319 78.7696 80.292 60.7327 69.3894 60.7327C58.4867 60.7327 48.5752 90.6359 36.6814 89.212Z" fill="url(#paint0_linear_1753_2052)"/>
<g filter="url(#filter0_d_1753_2052)">
<path d="M45 90C46.6569 90 48 88.6569 48 87C48 85.3431 46.6569 84 45 84C43.3431 84 42 85.3431 42 87C42 88.6569 43.3431 90 45 90Z" fill="#FEE46F"/>
</g>
<g filter="url(#filter1_d_1753_2052)">
<path d="M97 68C98.6569 68 100 66.6569 100 65C100 63.3431 98.6569 62 97 62C95.3431 62 94 63.3431 94 65C94 66.6569 95.3431 68 97 68Z" fill="#FEE46F"/>
</g>
<g filter="url(#filter2_d_1753_2052)">
<path d="M144 103C145.657 103 147 101.657 147 100C147 98.3431 145.657 97 144 97C142.343 97 141 98.3431 141 100C141 101.657 142.343 103 144 103Z" fill="#FEE46F"/>
</g>
<g filter="url(#filter3_d_1753_2052)">
<path d="M205 78C206.657 78 208 76.6569 208 75C208 73.3431 206.657 72 205 72C203.343 72 202 73.3431 202 75C202 76.6569 203.343 78 205 78Z" fill="#FEE46F"/>
</g>
<g filter="url(#filter4_d_1753_2052)">
<path d="M269 53C270.657 53 272 51.6569 272 50C272 48.3431 270.657 47 269 47C267.343 47 266 48.3431 266 50C266 51.6569 267.343 53 269 53Z" fill="#FEE46F"/>
</g>
</g>
<path d="M245.811 122V113.6H248.367C249.159 113.6 249.855 113.78 250.455 114.14C251.063 114.492 251.539 114.984 251.883 115.616C252.227 116.248 252.399 116.976 252.399 117.8C252.399 118.616 252.227 119.34 251.883 119.972C251.539 120.604 251.063 121.1 250.455 121.46C249.855 121.82 249.159 122 248.367 122H245.811ZM246.831 121.064H248.367C248.791 121.064 249.183 120.984 249.543 120.824C249.903 120.656 250.219 120.42 250.491 120.116C250.771 119.812 250.987 119.464 251.139 119.072C251.299 118.672 251.379 118.248 251.379 117.8C251.379 117.352 251.299 116.932 251.139 116.54C250.987 116.14 250.771 115.788 250.491 115.484C250.219 115.18 249.903 114.948 249.543 114.788C249.183 114.62 248.791 114.536 248.367 114.536H246.831V121.064ZM256.425 122.144C255.841 122.144 255.325 122.012 254.877 121.748C254.429 121.476 254.077 121.104 253.821 120.632C253.573 120.16 253.449 119.616 253.449 119C253.449 118.384 253.573 117.84 253.821 117.368C254.077 116.896 254.425 116.528 254.865 116.264C255.313 115.992 255.825 115.856 256.401 115.856C256.961 115.856 257.445 115.996 257.853 116.276C258.261 116.548 258.577 116.932 258.801 117.428C259.025 117.924 259.137 118.508 259.137 119.18H254.181L254.421 118.976C254.421 119.456 254.505 119.868 254.673 120.212C254.849 120.556 255.093 120.82 255.405 121.004C255.717 121.18 256.073 121.268 256.473 121.268C256.897 121.268 257.253 121.168 257.541 120.968C257.837 120.768 258.065 120.504 258.225 120.176L259.053 120.596C258.901 120.908 258.697 121.18 258.441 121.412C258.193 121.644 257.897 121.824 257.553 121.952C257.217 122.08 256.841 122.144 256.425 122.144ZM254.481 118.568L254.229 118.376H258.369L258.117 118.58C258.117 118.196 258.041 117.864 257.889 117.584C257.737 117.304 257.533 117.088 257.277 116.936C257.021 116.784 256.725 116.708 256.389 116.708C256.061 116.708 255.749 116.784 255.453 116.936C255.165 117.088 254.929 117.304 254.745 117.584C254.569 117.856 254.481 118.184 254.481 118.568ZM263.024 122.144C262.432 122.144 261.908 122.012 261.452 121.748C260.996 121.476 260.64 121.104 260.384 120.632C260.128 120.16 260 119.616 260 119C260 118.384 260.124 117.84 260.372 117.368C260.628 116.896 260.984 116.528 261.44 116.264C261.896 115.992 262.416 115.856 263 115.856C263.576 115.856 264.092 115.988 264.548 116.252C265.004 116.516 265.352 116.888 265.592 117.368L264.716 117.764C264.556 117.444 264.324 117.196 264.02 117.02C263.716 116.836 263.368 116.744 262.976 116.744C262.584 116.744 262.236 116.84 261.932 117.032C261.636 117.224 261.4 117.492 261.224 117.836C261.056 118.172 260.972 118.56 260.972 119C260.972 119.44 261.056 119.832 261.224 120.176C261.4 120.512 261.64 120.776 261.944 120.968C262.256 121.16 262.608 121.256 263 121.256C263.392 121.256 263.74 121.156 264.044 120.956C264.356 120.756 264.592 120.476 264.752 120.116L265.628 120.512C265.388 121.024 265.04 121.424 264.584 121.712C264.128 122 263.608 122.144 263.024 122.144Z" fill="#333333"/>
<path d="M18.364 122.144C18.076 122.144 17.808 122.1 17.56 122.012C17.32 121.932 17.104 121.824 16.912 121.688C16.72 121.544 16.556 121.384 16.42 121.208C16.284 121.024 16.172 120.836 16.084 120.644L16.852 120.2C17.02 120.496 17.224 120.74 17.464 120.932C17.712 121.124 18.016 121.22 18.376 121.22C18.664 121.22 18.944 121.152 19.216 121.016C19.496 120.88 19.724 120.652 19.9 120.332C20.076 120.012 20.164 119.592 20.164 119.072V113.6H21.172V119.468C21.172 119.908 21.092 120.296 20.932 120.632C20.78 120.968 20.568 121.248 20.296 121.472C20.032 121.696 19.732 121.864 19.396 121.976C19.06 122.088 18.716 122.144 18.364 122.144ZM26.7118 122L26.6638 121.016V118.832C26.6638 118.36 26.6118 117.972 26.5078 117.668C26.4038 117.356 26.2398 117.12 26.0158 116.96C25.7918 116.8 25.4998 116.72 25.1398 116.72C24.8118 116.72 24.5278 116.788 24.2878 116.924C24.0558 117.052 23.8638 117.26 23.7118 117.548L22.8478 117.212C22.9998 116.932 23.1838 116.692 23.3998 116.492C23.6158 116.284 23.8678 116.128 24.1558 116.024C24.4438 115.912 24.7718 115.856 25.1398 115.856C25.6998 115.856 26.1598 115.968 26.5198 116.192C26.8878 116.408 27.1638 116.732 27.3478 117.164C27.5318 117.588 27.6198 118.116 27.6118 118.748L27.5998 122H26.7118ZM24.9118 122.144C24.2078 122.144 23.6558 121.984 23.2558 121.664C22.8638 121.336 22.6678 120.884 22.6678 120.308C22.6678 119.7 22.8678 119.236 23.2678 118.916C23.6758 118.588 24.2438 118.424 24.9718 118.424H26.6878V119.228H25.1878C24.6278 119.228 24.2278 119.32 23.9878 119.504C23.7558 119.688 23.6398 119.952 23.6398 120.296C23.6398 120.608 23.7558 120.856 23.9878 121.04C24.2198 121.216 24.5438 121.304 24.9598 121.304C25.3038 121.304 25.6038 121.232 25.8598 121.088C26.1158 120.936 26.3118 120.724 26.4478 120.452C26.5918 120.172 26.6638 119.844 26.6638 119.468H27.0718C27.0718 120.284 26.8878 120.936 26.5198 121.424C26.1518 121.904 25.6158 122.144 24.9118 122.144ZM29.133 122V116H30.033L30.093 117.104V122H29.133ZM33.345 122V118.928H34.305V122H33.345ZM33.345 118.928C33.345 118.336 33.277 117.884 33.141 117.572C33.005 117.26 32.817 117.048 32.577 116.936C32.337 116.816 32.065 116.756 31.761 116.756C31.233 116.756 30.821 116.944 30.525 117.32C30.237 117.688 30.093 118.212 30.093 118.892H29.625C29.625 118.26 29.717 117.716 29.901 117.26C30.085 116.804 30.353 116.456 30.705 116.216C31.057 115.976 31.481 115.856 31.977 115.856C32.449 115.856 32.857 115.952 33.201 116.144C33.553 116.328 33.825 116.624 34.017 117.032C34.217 117.44 34.313 117.976 34.305 118.64V118.928H33.345Z" fill="#333333"/>
<path d="M241.766 28.1681C241.29 28.1681 240.856 28.0981 240.464 27.9581C240.081 27.8088 239.75 27.6174 239.47 27.3841C239.199 27.1508 238.985 26.9034 238.826 26.6421L239.806 26.0961C239.909 26.2268 240.035 26.3761 240.184 26.5441C240.343 26.7028 240.543 26.8381 240.786 26.9501C241.029 27.0621 241.327 27.1181 241.682 27.1181C242.317 27.1181 242.825 26.9361 243.208 26.5721C243.591 26.2081 243.782 25.7508 243.782 25.2001C243.782 24.7801 243.665 24.4254 243.432 24.1361C243.208 23.8468 242.881 23.6274 242.452 23.4781C242.023 23.3288 241.509 23.2541 240.912 23.2541H240.646V22.3301H240.884C241.472 22.3301 242.013 22.3954 242.508 22.5261C243.003 22.6568 243.432 22.8481 243.796 23.1001C244.169 23.3521 244.454 23.6601 244.65 24.0241C244.855 24.3881 244.958 24.8081 244.958 25.2841C244.958 25.8628 244.813 26.3714 244.524 26.8101C244.244 27.2394 243.861 27.5754 243.376 27.8181C242.891 28.0514 242.354 28.1681 241.766 28.1681ZM240.646 23.1561V22.2461H240.912C241.715 22.2461 242.349 22.1108 242.816 21.8401C243.292 21.5601 243.53 21.1634 243.53 20.6501C243.53 20.3701 243.455 20.1134 243.306 19.8801C243.157 19.6374 242.937 19.4461 242.648 19.3061C242.368 19.1568 242.041 19.0821 241.668 19.0821C241.416 19.0821 241.178 19.1194 240.954 19.1941C240.739 19.2594 240.539 19.3621 240.352 19.5021C240.175 19.6328 240.011 19.8008 239.862 20.0061L238.938 19.4741C239.115 19.1848 239.339 18.9328 239.61 18.7181C239.89 18.5034 240.207 18.3354 240.562 18.2141C240.917 18.0928 241.304 18.0321 241.724 18.0321C242.293 18.0321 242.802 18.1441 243.25 18.3681C243.707 18.5921 244.067 18.9001 244.328 19.2921C244.589 19.6748 244.72 20.1088 244.72 20.5941C244.72 21.0048 244.622 21.3688 244.426 21.6861C244.23 22.0034 243.955 22.2741 243.6 22.4981C243.255 22.7221 242.849 22.8901 242.382 23.0021C241.925 23.1048 241.425 23.1561 240.884 23.1561H240.646ZM249.899 28.1681C249.199 28.1681 248.583 28.0561 248.051 27.8321C247.519 27.5988 247.109 27.2814 246.819 26.8801C246.53 26.4694 246.385 25.9934 246.385 25.4521C246.385 24.8828 246.53 24.3834 246.819 23.9541C247.109 23.5248 247.519 23.1934 248.051 22.9601C248.583 22.7174 249.199 22.5961 249.899 22.5961C250.618 22.5961 251.239 22.7174 251.761 22.9601C252.293 23.1934 252.704 23.5248 252.993 23.9541C253.292 24.3834 253.441 24.8828 253.441 25.4521C253.441 25.9934 253.292 26.4694 252.993 26.8801C252.704 27.2814 252.293 27.5988 251.761 27.8321C251.239 28.0561 250.618 28.1681 249.899 28.1681ZM249.899 27.1321C250.59 27.1321 251.155 26.9688 251.593 26.6421C252.032 26.3061 252.251 25.8721 252.251 25.3401C252.251 24.7988 252.032 24.3601 251.593 24.0241C251.155 23.6788 250.59 23.5061 249.899 23.5061C249.451 23.5061 249.05 23.5854 248.695 23.7441C248.35 23.8934 248.075 24.1081 247.869 24.3881C247.673 24.6588 247.575 24.9761 247.575 25.3401C247.575 25.6948 247.673 26.0074 247.869 26.2781C248.075 26.5488 248.35 26.7588 248.695 26.9081C249.05 27.0574 249.451 27.1321 249.899 27.1321ZM249.899 23.2821C249.274 23.2821 248.723 23.1748 248.247 22.9601C247.771 22.7361 247.403 22.4328 247.141 22.0501C246.88 21.6581 246.749 21.2054 246.749 20.6921C246.749 20.1694 246.88 19.7074 247.141 19.3061C247.403 18.9048 247.771 18.5921 248.247 18.3681C248.723 18.1441 249.274 18.0321 249.899 18.0321C250.543 18.0321 251.099 18.1441 251.565 18.3681C252.041 18.5921 252.41 18.9048 252.671 19.3061C252.942 19.7074 253.077 20.1694 253.077 20.6921C253.077 21.2054 252.942 21.6581 252.671 22.0501C252.41 22.4328 252.041 22.7361 251.565 22.9601C251.099 23.1748 250.543 23.2821 249.899 23.2821ZM249.899 22.4001C250.487 22.4001 250.968 22.2554 251.341 21.9661C251.724 21.6674 251.915 21.2801 251.915 20.8041C251.915 20.2814 251.724 19.8614 251.341 19.5441C250.968 19.2174 250.487 19.0541 249.899 19.0541C249.321 19.0541 248.845 19.2174 248.471 19.5441C248.098 19.8614 247.911 20.2814 247.911 20.8041C247.911 21.2801 248.098 21.6674 248.471 21.9661C248.845 22.2554 249.321 22.4001 249.899 22.4001ZM255.573 28.0001L262.531 18.2001H263.833L256.833 28.0001H255.573ZM262.363 28.2241C261.943 28.2241 261.565 28.1261 261.229 27.9301C260.902 27.7248 260.646 27.4494 260.459 27.1041C260.282 26.7494 260.193 26.3481 260.193 25.9001C260.193 25.4428 260.282 25.0414 260.459 24.6961C260.646 24.3508 260.902 24.0801 261.229 23.8841C261.565 23.6788 261.943 23.5761 262.363 23.5761C262.792 23.5761 263.17 23.6788 263.497 23.8841C263.824 24.0801 264.08 24.3508 264.267 24.6961C264.454 25.0414 264.547 25.4428 264.547 25.9001C264.547 26.3481 264.454 26.7494 264.267 27.1041C264.08 27.4494 263.824 27.7248 263.497 27.9301C263.17 28.1261 262.792 28.2241 262.363 28.2241ZM262.363 27.3281C262.727 27.3281 263.021 27.1928 263.245 26.9221C263.469 26.6514 263.581 26.3108 263.581 25.9001C263.581 25.4894 263.469 25.1488 263.245 24.8781C263.021 24.6074 262.727 24.4721 262.363 24.4721C262.018 24.4721 261.728 24.6074 261.495 24.8781C261.271 25.1488 261.159 25.4894 261.159 25.9001C261.159 26.3108 261.271 26.6514 261.495 26.9221C261.728 27.1928 262.018 27.3281 262.363 27.3281ZM257.057 22.6241C256.628 22.6241 256.25 22.5261 255.923 22.3301C255.596 22.1248 255.34 21.8494 255.153 21.5041C254.966 21.1494 254.873 20.7481 254.873 20.3001C254.873 19.8428 254.966 19.4414 255.153 19.0961C255.34 18.7508 255.596 18.4801 255.923 18.2841C256.25 18.0788 256.628 17.9761 257.057 17.9761C257.486 17.9761 257.864 18.0788 258.191 18.2841C258.518 18.4801 258.774 18.7508 258.961 19.0961C259.148 19.4414 259.241 19.8428 259.241 20.3001C259.241 20.7481 259.148 21.1494 258.961 21.5041C258.774 21.8494 258.518 22.1248 258.191 22.3301C257.864 22.5261 257.486 22.6241 257.057 22.6241ZM257.057 21.7281C257.412 21.7281 257.701 21.5928 257.925 21.3221C258.149 21.0514 258.261 20.7108 258.261 20.3001C258.261 19.8894 258.149 19.5488 257.925 19.2781C257.701 19.0074 257.412 18.8721 257.057 18.8721C256.712 18.8721 256.422 19.0074 256.189 19.2781C255.965 19.5488 255.853 19.8894 255.853 20.3001C255.853 20.7108 255.965 21.0514 256.189 21.3221C256.422 21.5928 256.712 21.7281 257.057 21.7281Z" fill="#333333"/>
<path d="M21.74 28.1682C20.7413 28.1682 19.8593 27.9535 19.094 27.5242C18.3287 27.0855 17.7267 26.4882 17.288 25.7322C16.8587 24.9669 16.644 24.0942 16.644 23.1142C16.644 22.1155 16.8587 21.2382 17.288 20.4822C17.7267 19.7169 18.3287 19.1195 19.094 18.6902C19.8593 18.2515 20.7413 18.0322 21.74 18.0322C22.2627 18.0322 22.7713 18.1209 23.266 18.2982C23.7607 18.4662 24.2133 18.6995 24.624 18.9982C25.0347 19.2969 25.366 19.6375 25.618 20.0202L24.68 20.6642C24.4933 20.3655 24.2413 20.0995 23.924 19.8662C23.6067 19.6235 23.2567 19.4369 22.874 19.3062C22.5007 19.1755 22.1227 19.1102 21.74 19.1102C20.984 19.1102 20.312 19.2829 19.724 19.6282C19.136 19.9642 18.674 20.4309 18.338 21.0282C18.002 21.6255 17.834 22.3209 17.834 23.1142C17.834 23.8795 17.9973 24.5655 18.324 25.1722C18.66 25.7695 19.122 26.2409 19.71 26.5862C20.3073 26.9315 20.984 27.1042 21.74 27.1042C22.3747 27.1042 22.9347 26.9735 23.42 26.7122C23.9147 26.4415 24.302 26.0729 24.582 25.6062C24.862 25.1302 25.002 24.5842 25.002 23.9682L26.136 23.8842C26.136 24.7429 25.9493 25.4942 25.576 26.1382C25.2027 26.7729 24.6847 27.2722 24.022 27.6362C23.3593 27.9909 22.5987 28.1682 21.74 28.1682ZM22.594 24.0242V23.0022H26.136V23.9262L25.576 24.0242H22.594ZM28.2327 24.2062C28.2327 23.4502 28.3774 22.8389 28.6667 22.3722C28.9561 21.8962 29.3247 21.5462 29.7727 21.3222C30.2301 21.0889 30.7107 20.9722 31.2147 20.9722V22.0222C30.8041 22.0222 30.4074 22.0922 30.0247 22.2322C29.6514 22.3629 29.3434 22.5822 29.1007 22.8902C28.8581 23.1982 28.7367 23.6182 28.7367 24.1502L28.2327 24.2062ZM27.6167 28.0002V21.0002H28.7367V28.0002H27.6167ZM35.4412 28.1682C34.7599 28.1682 34.1532 28.0142 33.6212 27.7062C33.0985 27.3889 32.6879 26.9549 32.3892 26.4042C32.0905 25.8535 31.9412 25.2189 31.9412 24.5002C31.9412 23.7815 32.0859 23.1469 32.3752 22.5962C32.6739 22.0455 33.0845 21.6162 33.6072 21.3082C34.1392 20.9909 34.7412 20.8322 35.4132 20.8322C36.1039 20.8322 36.7105 20.9909 37.2332 21.3082C37.7652 21.6162 38.1759 22.0455 38.4652 22.5962C38.7639 23.1469 38.9132 23.7815 38.9132 24.5002C38.9132 25.2189 38.7639 25.8535 38.4652 26.4042C38.1759 26.9549 37.7699 27.3889 37.2472 27.7062C36.7245 28.0142 36.1225 28.1682 35.4412 28.1682ZM35.4412 27.1322C35.9079 27.1322 36.3139 27.0202 36.6592 26.7962C37.0045 26.5722 37.2752 26.2642 37.4712 25.8722C37.6765 25.4802 37.7792 25.0229 37.7792 24.5002C37.7792 23.9775 37.6765 23.5202 37.4712 23.1282C37.2752 22.7362 36.9999 22.4282 36.6452 22.2042C36.2905 21.9802 35.8799 21.8682 35.4132 21.8682C34.9559 21.8682 34.5499 21.9802 34.1952 22.2042C33.8499 22.4282 33.5745 22.7362 33.3692 23.1282C33.1732 23.5202 33.0752 23.9775 33.0752 24.5002C33.0752 25.0135 33.1732 25.4709 33.3692 25.8722C33.5745 26.2642 33.8545 26.5722 34.2092 26.7962C34.5732 27.0202 34.9839 27.1322 35.4412 27.1322ZM46.6465 28.0002L49.0125 21.0002H50.1465L47.7665 28.0002H46.6465ZM41.8865 28.0002L44.2525 21.0002H45.3025L42.9645 28.0002H41.8865ZM41.8305 28.0002L39.4505 21.0002H40.5845L42.9225 28.0002H41.8305ZM46.6465 28.0002L44.3085 21.0002H45.3725L47.7105 28.0002H46.6465ZM53.9011 28.1682C53.2197 28.1682 52.6924 27.9909 52.3191 27.6362C51.9457 27.2815 51.7591 26.7822 51.7591 26.1382V18.8162H52.8791V26.0262C52.8791 26.3809 52.9724 26.6562 53.1591 26.8522C53.3551 27.0389 53.6257 27.1322 53.9711 27.1322C54.0831 27.1322 54.1904 27.1182 54.2931 27.0902C54.4051 27.0529 54.5497 26.9689 54.7271 26.8382L55.1611 27.7482C54.9184 27.9069 54.6991 28.0142 54.5031 28.0702C54.3071 28.1355 54.1064 28.1682 53.9011 28.1682ZM50.5411 21.9942V21.0002H54.9791V21.9942H50.5411ZM56.5601 28.0002V18.2002H57.6801V28.0002H56.5601ZM61.4881 28.0002V24.4162H62.6081V28.0002H61.4881ZM61.4881 24.4162C61.4881 23.7255 61.4041 23.1982 61.2361 22.8342C61.0774 22.4702 60.8581 22.2229 60.5781 22.0922C60.2981 21.9522 59.9807 21.8822 59.6261 21.8822C59.0101 21.8822 58.5294 22.1015 58.1841 22.5402C57.8481 22.9695 57.6801 23.5809 57.6801 24.3742H57.1341C57.1341 23.6369 57.2414 23.0022 57.4561 22.4702C57.6801 21.9382 57.9974 21.5322 58.4081 21.2522C58.8187 20.9722 59.3134 20.8322 59.8921 20.8322C60.4334 20.8322 60.9094 20.9442 61.3201 21.1682C61.7307 21.3829 62.0481 21.7282 62.2721 22.2042C62.5054 22.6802 62.6174 23.3055 62.6081 24.0802V24.4162H61.4881Z" fill="#333333"/>
<defs>
<filter id="filter0_d_1753_2052" x="38" y="80" width="14" height="14" filterUnits="userSpaceOnUse" color-interpolation-filters="sRGB">
<feFlood flood-opacity="0" result="BackgroundImageFix"/>
<feColorMatrix in="SourceAlpha" type="matrix" values="0 0 0 0 0 0 0 0 0 0 0 0 0 0 0 0 0 0 127 0" result="hardAlpha"/>
<feOffset/>
<feGaussianBlur stdDeviation="2"/>
<feComposite in2="hardAlpha" operator="out"/>
<feColorMatrix type="matrix" values="0 0 0 0 0.404444 0 0 0 0 0.758333 0 0 0 0 0.463426 0 0 0 0.25 0"/>
<feBlend mode="normal" in2="BackgroundImageFix" result="effect1_dropShadow_1753_2052"/>
<feBlend mode="normal" in="SourceGraphic" in2="effect1_dropShadow_1753_2052" result="shape"/>
</filter>
<filter id="filter1_d_1753_2052" x="90" y="58" width="14" height="14" filterUnits="userSpaceOnUse" color-interpolation-filters="sRGB">
<feFlood flood-opacity="0" result="BackgroundImageFix"/>
<feColorMatrix in="SourceAlpha" type="matrix" values="0 0 0 0 0 0 0 0 0 0 0 0 0 0 0 0 0 0 127 0" result="hardAlpha"/>
<feOffset/>
<feGaussianBlur stdDeviation="2"/>
<feComposite in2="hardAlpha" operator="out"/>
<feColorMatrix type="matrix" values="0 0 0 0 0.404444 0 0 0 0 0.758333 0 0 0 0 0.463426 0 0 0 0.25 0"/>
<feBlend mode="normal" in2="BackgroundImageFix" result="effect1_dropShadow_1753_2052"/>
<feBlend mode="normal" in="SourceGraphic" in2="effect1_dropShadow_1753_2052" result="shape"/>
</filter>
<filter id="filter2_d_1753_2052" x="137" y="93" width="14" height="14" filterUnits="userSpaceOnUse" color-interpolation-filters="sRGB">
<feFlood flood-opacity="0" result="BackgroundImageFix"/>
<feColorMatrix in="SourceAlpha" type="matrix" values="0 0 0 0 0 0 0 0 0 0 0 0 0 0 0 0 0 0 127 0" result="hardAlpha"/>
<feOffset/>
<feGaussianBlur stdDeviation="2"/>
<feComposite in2="hardAlpha" operator="out"/>
<feColorMatrix type="matrix" values="0 0 0 0 0.404444 0 0 0 0 0.758333 0 0 0 0 0.463426 0 0 0 0.25 0"/>
<feBlend mode="normal" in2="BackgroundImageFix" result="effect1_dropShadow_1753_2052"/>
<feBlend mode="normal" in="SourceGraphic" in2="effect1_dropShadow_1753_2052" result="shape"/>
</filter>
<filter id="filter3_d_1753_2052" x="198" y="68" width="14" height="14" filterUnits="userSpaceOnUse" color-interpolation-filters="sRGB">
<feFlood flood-opacity="0" result="BackgroundImageFix"/>
<feColorMatrix in="SourceAlpha" type="matrix" values="0 0 0 0 0 0 0 0 0 0 0 0 0 0 0 0 0 0 127 0" result="hardAlpha"/>
<feOffset/>
<feGaussianBlur stdDeviation="2"/>
<feComposite in2="hardAlpha" operator="out"/>
<feColorMatrix type="matrix" values="0 0 0 0 0.404444 0 0 0 0 0.758333 0 0 0 0 0.463426 0 0 0 0.25 0"/>
<feBlend mode="normal" in2="BackgroundImageFix" result="effect1_dropShadow_1753_2052"/>
<feBlend mode="normal" in="SourceGraphic" in2="effect1_dropShadow_1753_2052" result="shape"/>
</filter>
<filter id="filter4_d_1753_2052" x="262" y="43" width="14" height="14" filterUnits="userSpaceOnUse" color-interpolation-filters="sRGB">
<feFlood flood-opacity="0" result="BackgroundImageFix"/>
<feColorMatrix in="SourceAlpha" type="matrix" values="0 0 0 0 0 0 0 0 0 0 0 0 0 0 0 0 0 0 127 0" result="hardAlpha"/>
<feOffset/>
<feGaussianBlur stdDeviation="2"/>
<feComposite in2="hardAlpha" operator="out"/>
<feColorMatrix type="matrix" values="0 0 0 0 0.404444 0 0 0 0 0.758333 0 0 0 0 0.463426 0 0 0 0.25 0"/>
<feBlend mode="normal" in2="BackgroundImageFix" result="effect1_dropShadow_1753_2052"/>
<feBlend mode="normal" in="SourceGraphic" in2="effect1_dropShadow_1753_2052" result="shape"/>
</filter>
<linearGradient id="paint0_linear_1753_2052" x1="141" y1="37" x2="141" y2="140" gradientUnits="userSpaceOnUse">
<stop stop-color="#FEE46F" stop-opacity="0.8"/>
<stop offset="1" stop-color="#FFF8DA" stop-opacity="0.84"/>
</linearGradient>
</defs>
</svg>
