<svg width="31" height="30" viewBox="0 0 31 30" fill="none" xmlns="http://www.w3.org/2000/svg">
<path d="M16.3989 2.5C17.162 2.5 17.5437 2.50045 17.813 2.70703C17.8559 2.73999 17.897 2.77596 17.9341 2.81543C18.1663 3.0629 18.204 3.44291 18.2798 4.20215C18.424 5.64764 18.4961 6.37014 18.9497 6.625C19.0188 6.66381 19.0922 6.69435 19.1685 6.71582C19.6694 6.85655 20.2322 6.39667 21.3569 5.47656C21.948 4.99308 22.2441 4.7517 22.5835 4.74121C22.6372 4.73958 22.6914 4.74203 22.7446 4.74902C23.081 4.79343 23.3509 5.06327 23.8901 5.60254L25.0073 6.71973C25.5466 7.25905 25.8165 7.52879 25.8608 7.86523C25.8679 7.91889 25.8703 7.97325 25.8687 8.02734C25.8579 8.36649 25.6164 8.66171 25.1333 9.25195C24.2133 10.3761 23.7534 10.9385 23.894 11.4395C23.9155 11.5158 23.946 11.59 23.9849 11.6592C24.2398 12.1124 24.9626 12.1844 26.4077 12.3291C27.1675 12.4052 27.547 12.4442 27.7944 12.6768C27.8336 12.7136 27.8701 12.7532 27.9028 12.7959C28.1096 13.0652 28.1099 13.4468 28.1099 14.21V15.79C28.1099 16.5529 28.1094 16.9348 27.9028 17.2041C27.87 17.2469 27.8338 17.2873 27.7944 17.3242C27.547 17.5564 27.1668 17.594 26.4077 17.6699C24.9627 17.8144 24.2406 17.8873 23.9858 18.3408C23.947 18.41 23.9155 18.4832 23.894 18.5596C23.7534 19.0604 24.2136 19.6229 25.1333 20.7471C25.6163 21.3374 25.8579 21.6326 25.8687 21.9717C25.8704 22.0258 25.8679 22.0801 25.8608 22.1338C25.8165 22.4702 25.5467 22.7398 25.0073 23.2793L23.8901 24.3965C23.3506 24.9361 23.0811 25.2066 22.7446 25.251C22.6911 25.258 22.6365 25.2605 22.5825 25.2588C22.2433 25.2481 21.9476 25.0067 21.3569 24.5234C20.2325 23.6034 19.6704 23.1434 19.1694 23.2842C19.0932 23.3056 19.0198 23.3362 18.9507 23.375C18.497 23.6298 18.4243 24.3522 18.2798 25.7979C18.2039 26.5571 18.1663 26.9371 17.9341 27.1846C17.8972 27.2238 17.8567 27.2602 17.814 27.293C17.5446 27.4997 17.1622 27.5 16.3989 27.5H14.8198C14.0567 27.5 13.6751 27.4997 13.4058 27.293C13.3631 27.2602 13.3235 27.2238 13.2866 27.1846C13.054 26.9372 13.015 26.5576 12.939 25.7979C12.7943 24.3527 12.7222 23.63 12.269 23.375C12.1999 23.3362 12.1257 23.3056 12.0493 23.2842C11.5484 23.1436 10.9859 23.6034 9.86182 24.5234C9.27158 25.0065 8.97635 25.2481 8.63721 25.2588C8.58312 25.2605 8.52875 25.258 8.4751 25.251C8.13865 25.2067 7.86891 24.9368 7.32959 24.3975L6.2124 23.2803C5.67314 22.741 5.40329 22.4712 5.35889 22.1348C5.35189 22.0815 5.34944 22.0273 5.35107 21.9736C5.36156 21.6342 5.60295 21.3381 6.08643 20.7471C7.00653 19.6223 7.46641 19.0595 7.32568 18.5586C7.30421 18.4823 7.27367 18.4089 7.23486 18.3398C6.98001 17.8863 6.2575 17.8141 4.81201 17.6699C4.05277 17.5942 3.67277 17.5564 3.42529 17.3242C3.38583 17.2872 3.34985 17.2461 3.31689 17.2031C3.11031 16.9338 3.10986 16.5522 3.10986 15.7891V14.21C3.10986 13.4469 3.11018 13.0652 3.31689 12.7959C3.34969 12.7532 3.38606 12.7127 3.42529 12.6758C3.6727 12.4436 4.05285 12.4051 4.81201 12.3291C6.2574 12.1843 6.98024 12.112 7.23486 11.6582C7.27355 11.5892 7.30428 11.5156 7.32568 11.4395C7.46616 10.9386 7.00612 10.376 6.08643 9.25195C5.60342 8.66161 5.36182 8.36647 5.35107 8.02734C5.34939 7.97336 5.35185 7.91878 5.35889 7.86523C5.40321 7.5288 5.67312 7.25916 6.2124 6.71973L7.32959 5.60254C7.86913 5.06285 8.13858 4.79243 8.4751 4.74805C8.52872 4.74098 8.58314 4.73855 8.63721 4.74023C8.97645 4.7509 9.2722 4.99237 9.86279 5.47559C10.9866 6.3951 11.5485 6.85532 12.0493 6.71484C12.1257 6.6934 12.1999 6.66286 12.269 6.62402C12.7225 6.36922 12.7942 5.64606 12.939 4.20117C13.015 3.44233 13.0534 3.06277 13.2856 2.81543C13.3226 2.77613 13.363 2.73987 13.4058 2.70703C13.6751 2.50043 14.0568 2.5 14.8198 2.5H16.3989Z" fill="#00A47D"/>
<circle cx="15.6099" cy="15" r="3.75" fill="#011510"/>
</svg>
