<svg width="139" height="28" viewBox="0 0 139 28" fill="none" xmlns="http://www.w3.org/2000/svg">
<path d="M131.574 24.3282C130.096 24.3282 128.797 24.0069 127.677 23.3643C126.567 22.7125 125.699 21.8082 125.075 20.6515C124.46 19.4856 124.152 18.1361 124.152 16.603C124.152 14.9781 124.455 13.5689 125.061 12.3755C125.676 11.182 126.53 10.2594 127.622 9.60759C128.715 8.95578 129.986 8.62988 131.437 8.62988C132.951 8.62988 134.241 8.98333 135.306 9.69021C136.371 10.3879 137.165 11.384 137.688 12.6784C138.221 13.9728 138.432 15.5105 138.322 17.2915H135.444V16.245C135.426 14.5191 135.095 13.243 134.452 12.4168C133.819 11.5905 132.85 11.1774 131.547 11.1774C130.106 11.1774 129.022 11.6319 128.297 12.5407C127.572 13.4496 127.209 14.7623 127.209 16.4791C127.209 18.1132 127.572 19.38 128.297 20.2797C129.022 21.1702 130.069 21.6155 131.437 21.6155C132.336 21.6155 133.112 21.4135 133.764 21.0096C134.425 20.5964 134.939 20.0089 135.306 19.2469L138.129 20.142C137.551 21.4732 136.674 22.5059 135.499 23.2404C134.324 23.9656 133.016 24.3282 131.574 24.3282ZM126.273 17.2915V15.0469H136.89V17.2915H126.273Z" fill="#050E27"/>
<path d="M117.965 23.915V3.67236H120.843V23.915H117.965Z" fill="#050E27"/>
<path d="M110.676 23.915V3.67236H113.554V23.915H110.676Z" fill="#050E27"/>
<path d="M103.388 6.60547V3.81006H106.266V6.60547H103.388ZM103.388 23.915V9.04285H106.266V23.915H103.388Z" fill="#050E27"/>
<path d="M92.3139 23.9146L86.9158 9.04248H89.8214L93.7735 20.3067L97.7257 9.04248H100.631L95.2332 23.9146H92.3139Z" fill="#050E27"/>
<path d="M77.4445 24.3276C76.0583 24.3276 74.8603 23.9833 73.8504 23.2948C72.8498 22.6063 72.074 21.6699 71.5232 20.4856C70.9816 19.2922 70.7108 17.9518 70.7108 16.4646C70.7108 14.9682 70.9862 13.6325 71.537 12.4574C72.0878 11.2732 72.8681 10.3414 73.878 9.66201C74.897 8.97349 76.1042 8.62922 77.4996 8.62922C78.9042 8.62922 80.0839 8.97349 81.0386 9.66201C82.0026 10.3414 82.7278 11.2732 83.2144 12.4574C83.7101 13.6417 83.958 14.9774 83.958 16.4646C83.958 17.9518 83.7101 19.2876 83.2144 20.4718C82.7186 21.6561 81.9888 22.5971 81.0249 23.2948C80.0609 23.9833 78.8675 24.3276 77.4445 24.3276ZM77.8439 21.725C78.7894 21.725 79.5606 21.5 80.1573 21.0502C80.754 20.6004 81.1901 19.9807 81.4655 19.1912C81.7409 18.4017 81.8786 17.4928 81.8786 16.4646C81.8786 15.4364 81.7363 14.5276 81.4517 13.7381C81.1763 12.9486 80.7449 12.3335 80.1573 11.8928C79.579 11.4522 78.8399 11.2318 77.9403 11.2318C76.9855 11.2318 76.2006 11.4659 75.5855 11.9341C74.9704 12.4023 74.5114 13.0312 74.2085 13.8207C73.9147 14.6102 73.7678 15.4915 73.7678 16.4646C73.7678 17.4469 73.9147 18.3374 74.2085 19.1361C74.5114 19.9256 74.9612 20.5545 75.558 21.0227C76.1639 21.4909 76.9258 21.725 77.8439 21.725ZM81.8786 23.9145V13.2148H81.5481V4.08496H84.4399V23.9145H81.8786Z" fill="#050E27"/>
<path d="M61.6999 24.3282C60.2219 24.3282 58.9229 24.0069 57.8029 23.3643C56.6921 22.7125 55.8245 21.8082 55.2003 20.6515C54.5852 19.4856 54.2776 18.1361 54.2776 16.603C54.2776 14.9781 54.5806 13.5689 55.1865 12.3755C55.8016 11.182 56.6554 10.2594 57.7478 9.60759C58.8403 8.95578 60.1117 8.62988 61.5622 8.62988C63.077 8.62988 64.3668 8.98333 65.4317 9.69021C66.4967 10.3879 67.2908 11.384 67.814 12.6784C68.3465 13.9728 68.5577 15.5105 68.4475 17.2915H65.5695V16.245C65.5511 14.5191 65.2206 13.243 64.578 12.4168C63.9445 11.5905 62.976 11.1774 61.6724 11.1774C60.2311 11.1774 59.1478 11.6319 58.4226 12.5407C57.6973 13.4496 57.3347 14.7623 57.3347 16.4791C57.3347 18.1132 57.6973 19.38 58.4226 20.2797C59.1478 21.1702 60.1944 21.6155 61.5622 21.6155C62.4619 21.6155 63.2376 21.4135 63.8895 21.0096C64.5504 20.5964 65.0645 20.0089 65.4317 19.2469L68.2547 20.142C67.6763 21.4732 66.7996 22.5059 65.6245 23.2404C64.4495 23.9656 63.1413 24.3282 61.6999 24.3282ZM56.3983 17.2915V15.0469H67.0154V17.2915H56.3983Z" fill="#050E27"/>
<path d="M36.7213 23.9145V23.46L46.8426 6.79775H37.2721V4.08496H51.7862V4.55316L41.72 21.1879H51.6072V23.9145H36.7213Z" fill="#050E27"/>
<path d="M16.0025 10.2892C14.2764 11.5672 12.4896 12.8939 11.272 13.7876C9.03577 15.4289 8.76328 15.5757 8.35944 15.8366C7.30073 16.5206 6.601 17.0512 6.33486 17.2776C6.25061 17.3493 6.17151 17.4079 6.02269 17.5187C5.88659 17.62 5.68473 17.7703 5.47171 17.9626C4.8833 18.4936 4.49933 18.8421 4.22734 19.0848C3.93934 19.3418 3.84708 19.4163 3.81969 19.4366C3.80952 19.4442 3.738 19.4965 3.65654 19.5695C3.61586 19.6059 3.35937 19.8282 3.17165 20.2045C3.06627 20.4158 2.92203 20.795 2.95449 21.2846C2.99033 21.8248 3.22736 22.2859 3.5474 22.6144C4.05485 23.1353 4.65812 23.2155 4.7307 23.2271C5.03362 23.2759 5.29528 23.2469 5.33796 23.2429C5.44193 23.2331 5.54789 23.2179 5.64557 23.2023C6.02407 23.1419 6.7318 23.0002 8.05866 22.7081C10.7623 22.1129 16.0877 20.8867 20.3656 20.1895C23.3743 19.6992 25.7636 19.4935 28 19.4539V23.3333C28 25.9107 25.9107 28 23.3333 28H4.66667C2.08934 28 7.51683e-08 25.9107 0 23.3333V11.8146C6.01609 11.2356 11.835 10.677 16.0025 10.2892ZM23.3333 0C25.9107 3.00654e-07 28 2.08934 28 4.66667V15.2535C25.5433 15.2933 22.9342 15.5155 19.6902 16.0442C17.8075 16.351 15.7336 16.7559 13.7696 17.1644C16.0753 15.4719 20.1273 12.4452 22.3009 10.8696C22.7919 10.5137 23.3187 10.1398 23.6646 9.84261C23.8054 9.72171 24.1379 9.43308 24.3744 9.02686C24.4995 8.81208 24.7214 8.35819 24.6871 7.7515C24.6469 7.04047 24.2807 6.49182 23.8627 6.15645C23.5098 5.87337 23.1503 5.75994 22.964 5.71097C22.7538 5.65575 22.5588 5.63135 22.4118 5.61868C22.1192 5.59346 21.7987 5.59737 21.4947 5.60934C20.8768 5.63367 20.0199 5.70654 18.9474 5.80212C15.0527 6.14918 7.70518 6.85353 0 7.59495V4.66667C3.00673e-07 2.08934 2.08934 7.51634e-08 4.66667 0H23.3333Z" fill="#050E27"/>
</svg>
