<svg width="106" height="24" viewBox="0 0 106 24" fill="none" xmlns="http://www.w3.org/2000/svg">
<path d="M4.66197 15.18C3.79797 15.18 3.05797 14.992 2.44197 14.616C1.82597 14.236 1.35197 13.708 1.01997 13.032C0.691969 12.356 0.527969 11.572 0.527969 10.68C0.527969 9.788 0.691969 9.004 1.01997 8.328C1.35197 7.652 1.82597 7.126 2.44197 6.75C3.05797 6.37 3.79797 6.18 4.66197 6.18C5.65797 6.18 6.48797 6.43 7.15197 6.93C7.81597 7.426 8.28197 8.096 8.54997 8.94L7.09197 9.342C6.92397 8.778 6.63797 8.338 6.23397 8.022C5.82997 7.702 5.30597 7.542 4.66197 7.542C4.08197 7.542 3.59797 7.672 3.20997 7.932C2.82597 8.192 2.53597 8.558 2.33997 9.03C2.14797 9.498 2.04997 10.048 2.04597 10.68C2.04597 11.312 2.14197 11.864 2.33397 12.336C2.52997 12.804 2.82197 13.168 3.20997 13.428C3.59797 13.688 4.08197 13.818 4.66197 13.818C5.30597 13.818 5.82997 13.658 6.23397 13.338C6.63797 13.018 6.92397 12.578 7.09197 12.018L8.54997 12.42C8.28197 13.264 7.81597 13.936 7.15197 14.436C6.48797 14.932 5.65797 15.18 4.66197 15.18ZM12.7293 15.18C12.0813 15.18 11.5153 15.034 11.0313 14.742C10.5473 14.45 10.1713 14.048 9.90334 13.536C9.63934 13.02 9.50734 12.428 9.50734 11.76C9.50734 11.08 9.64334 10.484 9.91534 9.972C10.1873 9.46 10.5653 9.06 11.0493 8.772C11.5333 8.484 12.0933 8.34 12.7293 8.34C13.3813 8.34 13.9493 8.486 14.4333 8.778C14.9173 9.07 15.2933 9.474 15.5613 9.99C15.8293 10.502 15.9633 11.092 15.9633 11.76C15.9633 12.432 15.8273 13.026 15.5553 13.542C15.2873 14.054 14.9113 14.456 14.4273 14.748C13.9433 15.036 13.3773 15.18 12.7293 15.18ZM12.7293 13.824C13.3053 13.824 13.7333 13.632 14.0133 13.248C14.2933 12.864 14.4333 12.368 14.4333 11.76C14.4333 11.132 14.2913 10.632 14.0073 10.26C13.7233 9.884 13.2973 9.696 12.7293 9.696C12.3413 9.696 12.0213 9.784 11.7693 9.96C11.5213 10.132 11.3373 10.374 11.2173 10.686C11.0973 10.994 11.0373 11.352 11.0373 11.76C11.0373 12.388 11.1793 12.89 11.4633 13.266C11.7513 13.638 12.1733 13.824 12.7293 13.824ZM25.0673 15L25.0673 11.064C25.0673 10.62 24.9573 10.274 24.7373 10.026C24.5173 9.774 24.2193 9.648 23.8433 9.648C23.6113 9.648 23.4033 9.702 23.2193 9.81C23.0353 9.914 22.8893 10.07 22.7813 10.278C22.6733 10.482 22.6193 10.726 22.6193 11.01L21.9773 10.632C21.9733 10.184 22.0733 9.79 22.2773 9.45C22.4853 9.106 22.7653 8.838 23.1173 8.646C23.4693 8.454 23.8613 8.358 24.2933 8.358C25.0093 8.358 25.5573 8.574 25.9373 9.006C26.3213 9.434 26.5133 9.998 26.5133 10.698L26.5133 15H25.0673ZM17.2733 15L17.2733 8.52H18.5513V10.53H18.7313L18.7313 15H17.2733ZM21.1793 15L21.1793 11.082C21.1793 10.63 21.0693 10.278 20.8493 10.026C20.6293 9.774 20.3293 9.648 19.9493 9.648C19.5813 9.648 19.2853 9.774 19.0613 10.026C18.8413 10.278 18.7313 10.606 18.7313 11.01L18.0833 10.578C18.0833 10.158 18.1873 9.78 18.3953 9.444C18.6033 9.108 18.8833 8.844 19.2353 8.652C19.5913 8.456 19.9893 8.358 20.4293 8.358C20.9133 8.358 21.3173 8.462 21.6413 8.67C21.9693 8.874 22.2133 9.154 22.3733 9.51C22.5373 9.862 22.6193 10.26 22.6193 10.704L22.6193 15H21.1793ZM28.6423 15L28.6423 8.418C28.6423 8.254 28.6483 8.074 28.6603 7.878C28.6723 7.678 28.7063 7.48 28.7623 7.284C28.8183 7.088 28.9203 6.91 29.0683 6.75C29.2523 6.546 29.4503 6.406 29.6623 6.33C29.8783 6.25 30.0903 6.206 30.2983 6.198C30.5063 6.186 30.6883 6.18 30.8443 6.18H31.6543V7.356H30.9043C30.6283 7.356 30.4223 7.426 30.2863 7.566C30.1543 7.702 30.0883 7.882 30.0883 8.106L30.0883 15H28.6423ZM27.5983 9.654V8.52L31.6543 8.52V9.654L27.5983 9.654ZM35.2411 15.18C34.5931 15.18 34.0271 15.034 33.5431 14.742C33.0591 14.45 32.6831 14.048 32.4151 13.536C32.1511 13.02 32.0191 12.428 32.0191 11.76C32.0191 11.08 32.1551 10.484 32.4271 9.972C32.6991 9.46 33.0771 9.06 33.5611 8.772C34.0451 8.484 34.6051 8.34 35.2411 8.34C35.8931 8.34 36.4611 8.486 36.9451 8.778C37.4291 9.07 37.8051 9.474 38.0731 9.99C38.3411 10.502 38.4751 11.092 38.4751 11.76C38.4751 12.432 38.3391 13.026 38.0671 13.542C37.7991 14.054 37.4231 14.456 36.9391 14.748C36.4551 15.036 35.8891 15.18 35.2411 15.18ZM35.2411 13.824C35.8171 13.824 36.2451 13.632 36.5251 13.248C36.8051 12.864 36.9451 12.368 36.9451 11.76C36.9451 11.132 36.8031 10.632 36.5191 10.26C36.2351 9.884 35.8091 9.696 35.2411 9.696C34.8531 9.696 34.5331 9.784 34.2811 9.96C34.0331 10.132 33.8491 10.374 33.7291 10.686C33.6091 10.994 33.5491 11.352 33.5491 11.76C33.5491 12.388 33.6911 12.89 33.9751 13.266C34.2631 13.638 34.6851 13.824 35.2411 13.824ZM39.797 15V8.52H41.075V10.098L40.919 9.894C40.999 9.678 41.105 9.482 41.237 9.306C41.373 9.126 41.535 8.978 41.723 8.862C41.883 8.754 42.059 8.67 42.251 8.61C42.447 8.546 42.647 8.508 42.851 8.496C43.055 8.48 43.253 8.488 43.445 8.52V9.87C43.253 9.814 43.031 9.796 42.779 9.816C42.531 9.836 42.307 9.906 42.107 10.026C41.907 10.134 41.743 10.272 41.615 10.44C41.491 10.608 41.399 10.8 41.339 11.016C41.279 11.228 41.249 11.458 41.249 11.706V15H39.797ZM48.388 15C47.96 15.08 47.54 15.114 47.128 15.102C46.72 15.094 46.354 15.02 46.03 14.88C45.706 14.736 45.46 14.51 45.292 14.202C45.144 13.922 45.066 13.636 45.058 13.344C45.05 13.052 45.046 12.722 45.046 12.354V6.72H46.486V12.27C46.486 12.53 46.488 12.758 46.492 12.954C46.5 13.15 46.542 13.31 46.618 13.434C46.762 13.674 46.992 13.808 47.308 13.836C47.624 13.864 47.984 13.848 48.388 13.788V15ZM43.87 9.654V8.52H48.388V9.654H43.87ZM51.5934 15.18C51.1254 15.18 50.7294 15.092 50.4054 14.916C50.0814 14.736 49.8354 14.498 49.6674 14.202C49.5034 13.906 49.4214 13.58 49.4214 13.224C49.4214 12.912 49.4734 12.632 49.5774 12.384C49.6814 12.132 49.8414 11.916 50.0574 11.736C50.2734 11.552 50.5534 11.402 50.8974 11.286C51.1574 11.202 51.4614 11.126 51.8094 11.058C52.1614 10.99 52.5414 10.928 52.9494 10.872C53.3614 10.812 53.7914 10.748 54.2394 10.68L53.7234 10.974C53.7274 10.526 53.6274 10.196 53.4234 9.984C53.2194 9.772 52.8754 9.666 52.3914 9.666C52.0994 9.666 51.8174 9.734 51.5454 9.87C51.2734 10.006 51.0834 10.24 50.9754 10.572L49.6554 10.158C49.8154 9.61 50.1194 9.17 50.5674 8.838C51.0194 8.506 51.6274 8.34 52.3914 8.34C52.9674 8.34 53.4734 8.434 53.9094 8.622C54.3494 8.81 54.6754 9.118 54.8874 9.546C55.0034 9.774 55.0734 10.008 55.0974 10.248C55.1214 10.484 55.1334 10.742 55.1334 11.022V15H53.8674V13.596L54.0774 13.824C53.7854 14.292 53.4434 14.636 53.0514 14.856C52.6634 15.072 52.1774 15.18 51.5934 15.18ZM51.8814 14.028C52.2094 14.028 52.4894 13.97 52.7214 13.854C52.9534 13.738 53.1374 13.596 53.2734 13.428C53.4134 13.26 53.5074 13.102 53.5554 12.954C53.6314 12.77 53.6734 12.56 53.6814 12.324C53.6934 12.084 53.6994 11.89 53.6994 11.742L54.1434 11.874C53.7074 11.942 53.3334 12.002 53.0214 12.054C52.7094 12.106 52.4414 12.156 52.2174 12.204C51.9934 12.248 51.7954 12.298 51.6234 12.354C51.4554 12.414 51.3134 12.484 51.1974 12.564C51.0814 12.644 50.9914 12.736 50.9274 12.84C50.8674 12.944 50.8374 13.066 50.8374 13.206C50.8374 13.366 50.8774 13.508 50.9574 13.632C51.0374 13.752 51.1534 13.848 51.3054 13.92C51.4614 13.992 51.6534 14.028 51.8814 14.028ZM59.8095 15.18C59.1775 15.18 58.6475 15.03 58.2195 14.73C57.7915 14.43 57.4695 14.022 57.2535 13.506C57.0375 12.986 56.9295 12.404 56.9295 11.76C56.9295 11.108 57.0375 10.524 57.2535 10.008C57.4695 9.492 57.7855 9.086 58.2015 8.79C58.6215 8.49 59.1395 8.34 59.7555 8.34C60.3675 8.34 60.8975 8.49 61.3455 8.79C61.7975 9.086 62.1475 9.492 62.3955 10.008C62.6435 10.52 62.7675 11.104 62.7675 11.76C62.7675 12.408 62.6455 12.99 62.4015 13.506C62.1575 14.022 61.8135 14.43 61.3695 14.73C60.9255 15.03 60.4055 15.18 59.8095 15.18ZM56.6835 15V6.36L58.1415 6.36V10.452H57.9615V15H56.6835ZM59.5875 13.884C59.9635 13.884 60.2735 13.79 60.5175 13.602C60.7615 13.414 60.9415 13.16 61.0575 12.84C61.1775 12.516 61.2375 12.156 61.2375 11.76C61.2375 11.368 61.1775 11.012 61.0575 10.692C60.9375 10.368 60.7515 10.112 60.4995 9.924C60.2475 9.732 59.9275 9.636 59.5395 9.636C59.1715 9.636 58.8715 9.726 58.6395 9.906C58.4075 10.082 58.2355 10.33 58.1235 10.65C58.0155 10.966 57.9615 11.336 57.9615 11.76C57.9615 12.18 58.0155 12.55 58.1235 12.87C58.2355 13.19 58.4095 13.44 58.6455 13.62C58.8855 13.796 59.1995 13.884 59.5875 13.884ZM64.21 15V6.18H65.656V15H64.21ZM70.3993 15.18C69.7433 15.18 69.1673 15.038 68.6713 14.754C68.1753 14.47 67.7873 14.076 67.5073 13.572C67.2313 13.068 67.0933 12.488 67.0933 11.832C67.0933 11.124 67.2293 10.51 67.5013 9.99C67.7733 9.466 68.1513 9.06 68.6353 8.772C69.1193 8.484 69.6793 8.34 70.3153 8.34C70.9873 8.34 71.5573 8.498 72.0253 8.814C72.4973 9.126 72.8473 9.568 73.0753 10.14C73.3033 10.712 73.3893 11.386 73.3333 12.162H71.8993V11.634C71.8953 10.93 71.7713 10.416 71.5273 10.092C71.2833 9.768 70.8993 9.606 70.3753 9.606C69.7833 9.606 69.3433 9.79 69.0553 10.158C68.7673 10.522 68.6233 11.056 68.6233 11.76C68.6233 12.416 68.7673 12.924 69.0553 13.284C69.3433 13.644 69.7633 13.824 70.3153 13.824C70.6713 13.824 70.9773 13.746 71.2333 13.59C71.4933 13.43 71.6933 13.2 71.8333 12.9L73.2613 13.332C73.0133 13.916 72.6293 14.37 72.1093 14.694C71.5933 15.018 71.0233 15.18 70.3993 15.18ZM68.1673 12.162V11.07L72.6253 11.07V12.162L68.1673 12.162Z" fill="black"/>
<path d="M84 10L96 10V6.43484C96 6.26397 96.2004 6.17179 96.3302 6.28299L103 12L96.3302 17.717C96.2004 17.8282 96 17.736 96 17.5652V14L84 14" stroke="#222222"/>
</svg>
