<svg width="24" height="104" viewBox="0 0 24 104" fill="none" xmlns="http://www.w3.org/2000/svg">
<path d="M15 102.982L6.36 102.982L6.36 101.536L9.996 101.536L9.996 97.4443L6.36 97.4443L6.36 96.0043L15 96.0043L15 97.4443L11.352 97.4443L11.352 101.536L15 101.536L15 102.982ZM7.536 94.2021L6.21 94.2021L6.21 92.7561L7.536 92.7561L7.536 94.2021ZM15 94.2021L8.52 94.2021L8.52 92.7561L15 92.7561L15 94.2021ZM18.06 88.2348C18.06 88.5948 18.004 88.9408 17.892 89.2728C17.78 89.6008 17.618 89.8968 17.406 90.1608C17.198 90.4248 16.946 90.6408 16.65 90.8088L15.99 89.4768C16.226 89.3528 16.4 89.1788 16.512 88.9548C16.628 88.7268 16.686 88.4848 16.686 88.2288C16.686 87.9288 16.632 87.6608 16.524 87.4248C16.42 87.1888 16.264 87.0068 16.056 86.8788C15.852 86.7468 15.596 86.6848 15.288 86.6928L13.446 86.6928L13.446 86.5128L8.52 86.5128L8.52 85.2468L15.312 85.2468C15.476 85.2468 15.632 85.2548 15.78 85.2708C15.932 85.2828 16.08 85.3048 16.224 85.3368C16.644 85.4328 16.988 85.6168 17.256 85.8888C17.528 86.1608 17.73 86.4988 17.862 86.9028C17.994 87.3028 18.06 87.7468 18.06 88.2348ZM15.18 88.3608C15.18 88.9568 15.03 89.4768 14.73 89.9208C14.43 90.3648 14.022 90.7088 13.506 90.9528C12.99 91.1968 12.408 91.3188 11.76 91.3188C11.104 91.3188 10.52 91.1968 10.008 90.9528C9.492 90.7048 9.086 90.3548 8.79 89.9028C8.49 89.4508 8.34 88.9188 8.34 88.3068C8.34 87.6908 8.49 87.1748 8.79 86.7588C9.086 86.3388 9.492 86.0208 10.008 85.8048C10.524 85.5888 11.108 85.4808 11.76 85.4808C12.404 85.4808 12.986 85.5888 13.506 85.8048C14.022 86.0208 14.43 86.3428 14.73 86.7708C15.03 87.1988 15.18 87.7288 15.18 88.3608ZM13.884 88.1388C13.884 87.7508 13.796 87.4388 13.62 87.2028C13.44 86.9628 13.19 86.7888 12.87 86.6808C12.55 86.5688 12.18 86.5128 11.76 86.5128C11.336 86.5128 10.966 86.5688 10.65 86.6808C10.33 86.7888 10.082 86.9588 9.906 87.1908C9.726 87.4228 9.636 87.7228 9.636 88.0908C9.636 88.4788 9.732 88.7988 9.924 89.0508C10.112 89.3028 10.368 89.4888 10.692 89.6088C11.012 89.7288 11.368 89.7888 11.76 89.7888C12.156 89.7888 12.516 89.7308 12.84 89.6148C13.16 89.4948 13.414 89.3128 13.602 89.0688C13.79 88.8248 13.884 88.5148 13.884 88.1388ZM15 79.0823L11.88 79.0823C11.676 79.0823 11.45 79.0963 11.202 79.1243C10.954 79.1523 10.716 79.2183 10.488 79.3223C10.256 79.4223 10.066 79.5743 9.918 79.7783C9.77 79.9783 9.696 80.2503 9.696 80.5943C9.696 80.7783 9.726 80.9603 9.786 81.1403C9.846 81.3203 9.95 81.4843 10.098 81.6323C10.242 81.7763 10.442 81.8923 10.698 81.9803C10.95 82.0683 11.274 82.1123 11.67 82.1123L11.304 82.9703C10.752 82.9703 10.252 82.8643 9.804 82.6523C9.356 82.4363 9 82.1203 8.736 81.7043C8.468 81.2883 8.334 80.7763 8.334 80.1683C8.334 79.6883 8.414 79.2923 8.574 78.9803C8.734 78.6683 8.938 78.4203 9.186 78.2363C9.434 78.0523 9.698 77.9163 9.978 77.8283C10.258 77.7403 10.524 77.6843 10.776 77.6603C11.024 77.6323 11.226 77.6183 11.382 77.6183L15 77.6183L15 79.0823ZM15 83.5763L6.36 83.5763L6.36 82.2863L10.908 82.2863L10.908 82.1123L15 82.1123L15 83.5763ZM15 73.6502L6.36 73.6502L6.36 68.0702L7.716 68.0702L7.716 72.2042L9.846 72.2042L9.846 68.7902L11.202 68.7902L11.202 72.2042L13.644 72.2042L13.644 68.0702L15 68.0702L15 73.6502ZM15 62.1487L11.88 62.1487C11.676 62.1487 11.45 62.1627 11.202 62.1907C10.954 62.2187 10.716 62.2847 10.488 62.3887C10.256 62.4887 10.066 62.6407 9.918 62.8447C9.77 63.0447 9.696 63.3167 9.696 63.6607C9.696 63.8447 9.726 64.0267 9.786 64.2067C9.846 64.3867 9.95 64.5507 10.098 64.6987C10.242 64.8427 10.442 64.9587 10.698 65.0467C10.95 65.1347 11.274 65.1787 11.67 65.1787L11.304 66.0367C10.752 66.0367 10.252 65.9307 9.804 65.7187C9.356 65.5027 9 65.1867 8.736 64.7707C8.468 64.3547 8.334 63.8427 8.334 63.2347C8.334 62.7547 8.414 62.3587 8.574 62.0467C8.734 61.7347 8.938 61.4867 9.186 61.3027C9.434 61.1187 9.698 60.9827 9.978 60.8947C10.258 60.8067 10.524 60.7507 10.776 60.7267C11.024 60.6987 11.226 60.6847 11.382 60.6847L15 60.6847L15 62.1487ZM15 66.6427L8.52 66.6427L8.52 65.3527L10.53 65.3527L10.53 65.1787L15 65.1787L15 66.6427ZM15.18 56.2785C15.18 56.9345 15.038 57.5105 14.754 58.0065C14.47 58.5025 14.076 58.8905 13.572 59.1705C13.068 59.4465 12.488 59.5845 11.832 59.5845C11.124 59.5845 10.51 59.4485 9.99 59.1765C9.466 58.9045 9.06 58.5265 8.772 58.0425C8.484 57.5585 8.34 56.9985 8.34 56.3625C8.34 55.6905 8.498 55.1205 8.814 54.6525C9.126 54.1805 9.568 53.8305 10.14 53.6025C10.712 53.3745 11.386 53.2885 12.162 53.3445L12.162 54.7785L11.634 54.7785C10.93 54.7825 10.416 54.9065 10.092 55.1505C9.768 55.3945 9.606 55.7785 9.606 56.3025C9.606 56.8945 9.79 57.3345 10.158 57.6225C10.522 57.9105 11.056 58.0545 11.76 58.0545C12.416 58.0545 12.924 57.9105 13.284 57.6225C13.644 57.3345 13.824 56.9145 13.824 56.3625C13.824 56.0065 13.746 55.7005 13.59 55.4445C13.43 55.1845 13.2 54.9845 12.9 54.8445L13.332 53.4165C13.916 53.6645 14.37 54.0485 14.694 54.5685C15.018 55.0845 15.18 55.6545 15.18 56.2785ZM12.162 58.5105L11.07 58.5105L11.07 54.0525L12.162 54.0525L12.162 58.5105ZM15 52.0057L8.52 52.0057L8.52 50.7277L10.098 50.7277L9.894 50.8837C9.678 50.8037 9.482 50.6977 9.306 50.5657C9.126 50.4297 8.978 50.2677 8.862 50.0797C8.754 49.9197 8.67 49.7437 8.61 49.5517C8.546 49.3557 8.508 49.1557 8.496 48.9517C8.48 48.7477 8.488 48.5497 8.52 48.3577L9.87 48.3577C9.814 48.5497 9.796 48.7717 9.816 49.0237C9.836 49.2717 9.906 49.4957 10.026 49.6957C10.134 49.8957 10.272 50.0597 10.44 50.1877C10.608 50.3117 10.8 50.4037 11.016 50.4637C11.228 50.5237 11.458 50.5537 11.706 50.5537L15 50.5537L15 52.0057ZM18.06 44.7231C18.06 45.0831 18.004 45.4291 17.892 45.7611C17.78 46.0891 17.618 46.3851 17.406 46.6491C17.198 46.9131 16.946 47.1291 16.65 47.2971L15.99 45.9651C16.226 45.8411 16.4 45.6671 16.512 45.4431C16.628 45.2151 16.686 44.9731 16.686 44.7171C16.686 44.4171 16.632 44.1491 16.524 43.9131C16.42 43.6771 16.264 43.4951 16.056 43.3671C15.852 43.2351 15.596 43.1731 15.288 43.1811L13.446 43.1811L13.446 43.0011L8.52 43.0011L8.52 41.7351L15.312 41.7351C15.476 41.7351 15.632 41.7431 15.78 41.7591C15.932 41.7711 16.08 41.7931 16.224 41.8251C16.644 41.9211 16.988 42.1051 17.256 42.3771C17.528 42.6491 17.73 42.9871 17.862 43.3911C17.994 43.7911 18.06 44.2351 18.06 44.7231ZM15.18 44.8491C15.18 45.4451 15.03 45.9651 14.73 46.4091C14.43 46.8531 14.022 47.1971 13.506 47.4411C12.99 47.6851 12.408 47.8071 11.76 47.8071C11.104 47.8071 10.52 47.6851 10.008 47.4411C9.492 47.1931 9.086 46.8431 8.79 46.3911C8.49 45.9391 8.34 45.4071 8.34 44.7951C8.34 44.1791 8.49 43.6631 8.79 43.2471C9.086 42.8271 9.492 42.5091 10.008 42.2931C10.524 42.0771 11.108 41.9691 11.76 41.9691C12.404 41.9691 12.986 42.0771 13.506 42.2931C14.022 42.5091 14.43 42.8311 14.73 43.2591C15.03 43.6871 15.18 44.2171 15.18 44.8491ZM13.884 44.6271C13.884 44.2391 13.796 43.9271 13.62 43.6911C13.44 43.4511 13.19 43.2771 12.87 43.1691C12.55 43.0571 12.18 43.0011 11.76 43.0011C11.336 43.0011 10.966 43.0571 10.65 43.1691C10.33 43.2771 10.082 43.4471 9.906 43.6791C9.726 43.9111 9.636 44.2111 9.636 44.5791C9.636 44.9671 9.732 45.2871 9.924 45.5391C10.112 45.7911 10.368 45.9771 10.692 46.0971C11.012 46.2171 11.368 46.2771 11.76 46.2771C12.156 46.2771 12.516 46.2191 12.84 46.1031C13.16 45.9831 13.414 45.8011 13.602 45.5571C13.79 45.3131 13.884 45.0031 13.884 44.6271ZM17.88 39.2006L14.454 37.9526L15.462 37.9286L8.52 40.7546L8.52 39.2486L13.656 37.2446L13.656 37.6286L8.52 35.6786L8.52 34.2326L17.88 37.8446L17.88 39.2006Z" fill="black"/>
<path d="M10 22L10 10L6.43484 10C6.26397 10 6.17179 9.79958 6.28299 9.66984L12 3L17.717 9.66984C17.8282 9.79958 17.736 10 17.5652 10L14 10L14 22" stroke="#222222"/>
</svg>
