<svg width="24" height="100" viewBox="0 0 24 100" fill="none" xmlns="http://www.w3.org/2000/svg">
<path d="M9 0.995156L17.64 0.995156L17.64 2.44116L10.356 2.44116L10.356 6.25716L9 6.25716L9 0.995156ZM8.82 10.1356C8.82 9.48759 8.966 8.92159 9.258 8.43759C9.55 7.95359 9.952 7.57759 10.464 7.30959C10.98 7.04559 11.572 6.91359 12.24 6.91359C12.92 6.91359 13.516 7.04959 14.028 7.32159C14.54 7.59359 14.94 7.97159 15.228 8.45559C15.516 8.93959 15.66 9.49959 15.66 10.1356C15.66 10.7876 15.514 11.3556 15.222 11.8396C14.93 12.3236 14.526 12.6996 14.01 12.9676C13.498 13.2356 12.908 13.3696 12.24 13.3696C11.568 13.3696 10.974 13.2336 10.458 12.9616C9.946 12.6936 9.544 12.3176 9.252 11.8336C8.964 11.3496 8.82 10.7836 8.82 10.1356ZM10.176 10.1356C10.176 10.7116 10.368 11.1396 10.752 11.4196C11.136 11.6996 11.632 11.8396 12.24 11.8396C12.868 11.8396 13.368 11.6976 13.74 11.4136C14.116 11.1296 14.304 10.7036 14.304 10.1356C14.304 9.74759 14.216 9.42759 14.04 9.17559C13.868 8.92759 13.626 8.74359 13.314 8.62359C13.006 8.50359 12.648 8.44359 12.24 8.44359C11.612 8.44359 11.11 8.58559 10.734 8.86959C10.362 9.15759 10.176 9.57959 10.176 10.1356ZM9 15.8372L15.492 13.8572L15.48 15.2732L11.322 16.5392L15.48 17.8232L15.48 19.0412L11.322 20.3192L15.48 21.5912L15.48 23.0072L9 21.0272L9 19.8992L13.458 18.4292L9 16.9652L9 15.8372ZM9 26.4923L17.64 26.4923L17.64 32.0723L16.284 32.0723L16.284 27.9383L14.154 27.9383L14.154 31.3523L12.798 31.3523L12.798 27.9383L10.356 27.9383L10.356 32.0723L9 32.0723L9 26.4923ZM9 37.9939L12.12 37.9939C12.324 37.9939 12.55 37.9799 12.798 37.9519C13.046 37.9239 13.284 37.8579 13.512 37.7539C13.744 37.6539 13.934 37.5019 14.082 37.2979C14.23 37.0979 14.304 36.8259 14.304 36.4819C14.304 36.2979 14.274 36.1159 14.214 35.9359C14.154 35.7559 14.05 35.5919 13.902 35.4439C13.758 35.2999 13.558 35.1839 13.302 35.0959C13.05 35.0079 12.726 34.9639 12.33 34.9639L12.696 34.1059C13.248 34.1059 13.748 34.2119 14.196 34.4239C14.644 34.6399 15 34.9559 15.264 35.3719C15.532 35.7879 15.666 36.2999 15.666 36.9079C15.666 37.3879 15.586 37.7839 15.426 38.0959C15.266 38.4079 15.062 38.6559 14.814 38.8399C14.566 39.0239 14.302 39.1599 14.022 39.2479C13.742 39.3359 13.476 39.3919 13.224 39.4159C12.976 39.4439 12.774 39.4579 12.618 39.4579L9 39.4579L9 37.9939ZM9 33.4999L15.48 33.4999L15.48 34.7899L13.47 34.7899L13.47 34.9639L9 34.9639L9 33.4999ZM8.82 43.8641C8.82 43.2081 8.962 42.6321 9.246 42.1361C9.53 41.6401 9.924 41.2521 10.428 40.9721C10.932 40.6961 11.512 40.5581 12.168 40.5581C12.876 40.5581 13.49 40.6941 14.01 40.9661C14.534 41.2381 14.94 41.6161 15.228 42.1001C15.516 42.5841 15.66 43.1441 15.66 43.7801C15.66 44.4521 15.502 45.0221 15.186 45.4901C14.874 45.9621 14.432 46.3121 13.86 46.5401C13.288 46.7681 12.614 46.8541 11.838 46.7981L11.838 45.3641L12.366 45.3641C13.07 45.3601 13.584 45.2361 13.908 44.9921C14.232 44.7481 14.394 44.3641 14.394 43.8401C14.394 43.2481 14.21 42.8081 13.842 42.5201C13.478 42.2321 12.944 42.0881 12.24 42.0881C11.584 42.0881 11.076 42.2321 10.716 42.5201C10.356 42.8081 10.176 43.2281 10.176 43.7801C10.176 44.1361 10.254 44.4421 10.41 44.6981C10.57 44.9581 10.8 45.1581 11.1 45.2981L10.668 46.7261C10.084 46.4781 9.63 46.0941 9.306 45.5741C8.982 45.0581 8.82 44.4881 8.82 43.8641ZM11.838 41.6321L12.93 41.6321L12.93 46.0901L11.838 46.0901L11.838 41.6321ZM9 48.1369L15.48 48.1369L15.48 49.4149L13.902 49.4149L14.106 49.2589C14.322 49.3389 14.518 49.4449 14.694 49.5769C14.874 49.7129 15.022 49.8749 15.138 50.0629C15.246 50.2229 15.33 50.3989 15.39 50.5909C15.454 50.7869 15.492 50.9869 15.504 51.1909C15.52 51.3949 15.512 51.5929 15.48 51.7849L14.13 51.7849C14.186 51.5929 14.204 51.3709 14.184 51.1189C14.164 50.8709 14.094 50.6469 13.974 50.4469C13.866 50.2469 13.728 50.0829 13.56 49.9549C13.392 49.8309 13.2 49.7389 12.984 49.6789C12.772 49.6189 12.542 49.5889 12.294 49.5889L9 49.5889L9 48.1369ZM5.94 55.4195C5.94 55.0595 5.996 54.7135 6.108 54.3815C6.22 54.0535 6.382 53.7575 6.594 53.4935C6.802 53.2295 7.054 53.0135 7.35 52.8455L8.01 54.1775C7.774 54.3015 7.6 54.4755 7.488 54.6995C7.372 54.9275 7.314 55.1695 7.314 55.4255C7.314 55.7255 7.368 55.9935 7.476 56.2295C7.58 56.4655 7.736 56.6475 7.944 56.7755C8.148 56.9075 8.404 56.9695 8.712 56.9615L10.554 56.9615L10.554 57.1415L15.48 57.1415L15.48 58.4075L8.688 58.4075C8.524 58.4075 8.368 58.3995 8.22 58.3835C8.068 58.3715 7.92 58.3495 7.776 58.3175C7.356 58.2215 7.012 58.0375 6.744 57.7655C6.472 57.4935 6.27 57.1555 6.138 56.7515C6.006 56.3515 5.94 55.9075 5.94 55.4195ZM8.82 55.2935C8.82 54.6975 8.97 54.1775 9.27 53.7335C9.57 53.2895 9.978 52.9455 10.494 52.7015C11.01 52.4575 11.592 52.3355 12.24 52.3355C12.896 52.3355 13.48 52.4575 13.992 52.7015C14.508 52.9495 14.914 53.2995 15.21 53.7515C15.51 54.2035 15.66 54.7355 15.66 55.3475C15.66 55.9635 15.51 56.4795 15.21 56.8955C14.914 57.3155 14.508 57.6335 13.992 57.8495C13.476 58.0655 12.892 58.1735 12.24 58.1735C11.596 58.1735 11.014 58.0655 10.494 57.8495C9.978 57.6335 9.57 57.3115 9.27 56.8835C8.97 56.4555 8.82 55.9255 8.82 55.2935ZM10.116 55.5155C10.116 55.9035 10.204 56.2155 10.38 56.4515C10.56 56.6915 10.81 56.8655 11.13 56.9735C11.45 57.0855 11.82 57.1415 12.24 57.1415C12.664 57.1415 13.034 57.0855 13.35 56.9735C13.67 56.8655 13.918 56.6955 14.094 56.4635C14.274 56.2315 14.364 55.9315 14.364 55.5635C14.364 55.1755 14.268 54.8555 14.076 54.6035C13.888 54.3515 13.632 54.1655 13.308 54.0455C12.988 53.9255 12.632 53.8655 12.24 53.8655C11.844 53.8655 11.484 53.9235 11.16 54.0395C10.84 54.1595 10.586 54.3415 10.398 54.5855C10.21 54.8295 10.116 55.1395 10.116 55.5155ZM6.12 60.942L9.546 62.19L8.538 62.214L15.48 59.388L15.48 60.894L10.344 62.898L10.344 62.514L15.48 64.464L15.48 65.91L6.12 62.298L6.12 60.942Z" fill="black"/>
<path d="M14 78L14 90L17.5652 90C17.736 90 17.8282 90.2004 17.717 90.3302L12 97L6.28299 90.3302C6.17179 90.2004 6.26397 90 6.43484 90L10 90L10 78" stroke="#222222"/>
</svg>
