<svg width="338" height="329" viewBox="0 0 338 329" fill="none" xmlns="http://www.w3.org/2000/svg">
<path d="M236.662 173.18C235.798 173.18 235.058 172.992 234.442 172.616C233.826 172.236 233.352 171.708 233.02 171.032C232.692 170.356 232.528 169.572 232.528 168.68C232.528 167.788 232.692 167.004 233.02 166.328C233.352 165.652 233.826 165.126 234.442 164.75C235.058 164.37 235.798 164.18 236.662 164.18C237.658 164.18 238.488 164.43 239.152 164.93C239.816 165.426 240.282 166.096 240.55 166.94L239.092 167.342C238.924 166.778 238.638 166.338 238.234 166.022C237.83 165.702 237.306 165.542 236.662 165.542C236.082 165.542 235.598 165.672 235.21 165.932C234.826 166.192 234.536 166.558 234.34 167.03C234.148 167.498 234.05 168.048 234.046 168.68C234.046 169.312 234.142 169.864 234.334 170.336C234.53 170.804 234.822 171.168 235.21 171.428C235.598 171.688 236.082 171.818 236.662 171.818C237.306 171.818 237.83 171.658 238.234 171.338C238.638 171.018 238.924 170.578 239.092 170.018L240.55 170.42C240.282 171.264 239.816 171.936 239.152 172.436C238.488 172.932 237.658 173.18 236.662 173.18ZM244.729 173.18C244.081 173.18 243.515 173.034 243.031 172.742C242.547 172.45 242.171 172.048 241.903 171.536C241.639 171.02 241.507 170.428 241.507 169.76C241.507 169.08 241.643 168.484 241.915 167.972C242.187 167.46 242.565 167.06 243.049 166.772C243.533 166.484 244.093 166.34 244.729 166.34C245.381 166.34 245.949 166.486 246.433 166.778C246.917 167.07 247.293 167.474 247.561 167.99C247.829 168.502 247.963 169.092 247.963 169.76C247.963 170.432 247.827 171.026 247.555 171.542C247.287 172.054 246.911 172.456 246.427 172.748C245.943 173.036 245.377 173.18 244.729 173.18ZM244.729 171.824C245.305 171.824 245.733 171.632 246.013 171.248C246.293 170.864 246.433 170.368 246.433 169.76C246.433 169.132 246.291 168.632 246.007 168.26C245.723 167.884 245.297 167.696 244.729 167.696C244.341 167.696 244.021 167.784 243.769 167.96C243.521 168.132 243.337 168.374 243.217 168.686C243.097 168.994 243.037 169.352 243.037 169.76C243.037 170.388 243.179 170.89 243.463 171.266C243.751 171.638 244.173 171.824 244.729 171.824ZM257.067 173V169.064C257.067 168.62 256.957 168.274 256.737 168.026C256.517 167.774 256.219 167.648 255.843 167.648C255.611 167.648 255.403 167.702 255.219 167.81C255.035 167.914 254.889 168.07 254.781 168.278C254.673 168.482 254.619 168.726 254.619 169.01L253.977 168.632C253.973 168.184 254.073 167.79 254.277 167.45C254.485 167.106 254.765 166.838 255.117 166.646C255.469 166.454 255.861 166.358 256.293 166.358C257.009 166.358 257.557 166.574 257.937 167.006C258.321 167.434 258.513 167.998 258.513 168.698V173H257.067ZM249.273 173V166.52H250.551V168.53H250.731V173H249.273ZM253.179 173V169.082C253.179 168.63 253.069 168.278 252.849 168.026C252.629 167.774 252.329 167.648 251.949 167.648C251.581 167.648 251.285 167.774 251.061 168.026C250.841 168.278 250.731 168.606 250.731 169.01L250.083 168.578C250.083 168.158 250.187 167.78 250.395 167.444C250.603 167.108 250.883 166.844 251.235 166.652C251.591 166.456 251.989 166.358 252.429 166.358C252.913 166.358 253.317 166.462 253.641 166.67C253.969 166.874 254.213 167.154 254.373 167.51C254.537 167.862 254.619 168.26 254.619 168.704V173H253.179ZM260.642 173V166.418C260.642 166.254 260.648 166.074 260.66 165.878C260.672 165.678 260.706 165.48 260.762 165.284C260.818 165.088 260.92 164.91 261.068 164.75C261.252 164.546 261.45 164.406 261.662 164.33C261.878 164.25 262.09 164.206 262.298 164.198C262.506 164.186 262.688 164.18 262.844 164.18H263.654V165.356H262.904C262.628 165.356 262.422 165.426 262.286 165.566C262.154 165.702 262.088 165.882 262.088 166.106V173H260.642ZM259.598 167.654V166.52H263.654V167.654H259.598ZM267.241 173.18C266.593 173.18 266.027 173.034 265.543 172.742C265.059 172.45 264.683 172.048 264.415 171.536C264.151 171.02 264.019 170.428 264.019 169.76C264.019 169.08 264.155 168.484 264.427 167.972C264.699 167.46 265.077 167.06 265.561 166.772C266.045 166.484 266.605 166.34 267.241 166.34C267.893 166.34 268.461 166.486 268.945 166.778C269.429 167.07 269.805 167.474 270.073 167.99C270.341 168.502 270.475 169.092 270.475 169.76C270.475 170.432 270.339 171.026 270.067 171.542C269.799 172.054 269.423 172.456 268.939 172.748C268.455 173.036 267.889 173.18 267.241 173.18ZM267.241 171.824C267.817 171.824 268.245 171.632 268.525 171.248C268.805 170.864 268.945 170.368 268.945 169.76C268.945 169.132 268.803 168.632 268.519 168.26C268.235 167.884 267.809 167.696 267.241 167.696C266.853 167.696 266.533 167.784 266.281 167.96C266.033 168.132 265.849 168.374 265.729 168.686C265.609 168.994 265.549 169.352 265.549 169.76C265.549 170.388 265.691 170.89 265.975 171.266C266.263 171.638 266.685 171.824 267.241 171.824ZM271.797 173V166.52H273.075V168.098L272.919 167.894C272.999 167.678 273.105 167.482 273.237 167.306C273.373 167.126 273.535 166.978 273.723 166.862C273.883 166.754 274.059 166.67 274.251 166.61C274.447 166.546 274.647 166.508 274.851 166.496C275.055 166.48 275.253 166.488 275.445 166.52V167.87C275.253 167.814 275.031 167.796 274.779 167.816C274.531 167.836 274.307 167.906 274.107 168.026C273.907 168.134 273.743 168.272 273.615 168.44C273.491 168.608 273.399 168.8 273.339 169.016C273.279 169.228 273.249 169.458 273.249 169.706V173H271.797ZM280.388 173C279.96 173.08 279.54 173.114 279.128 173.102C278.72 173.094 278.354 173.02 278.03 172.88C277.706 172.736 277.46 172.51 277.292 172.202C277.144 171.922 277.066 171.636 277.058 171.344C277.05 171.052 277.046 170.722 277.046 170.354V164.72H278.486V170.27C278.486 170.53 278.488 170.758 278.492 170.954C278.5 171.15 278.542 171.31 278.618 171.434C278.762 171.674 278.992 171.808 279.308 171.836C279.624 171.864 279.984 171.848 280.388 171.788V173ZM275.87 167.654V166.52H280.388V167.654H275.87ZM283.593 173.18C283.125 173.18 282.729 173.092 282.405 172.916C282.081 172.736 281.835 172.498 281.667 172.202C281.503 171.906 281.421 171.58 281.421 171.224C281.421 170.912 281.473 170.632 281.577 170.384C281.681 170.132 281.841 169.916 282.057 169.736C282.273 169.552 282.553 169.402 282.897 169.286C283.157 169.202 283.461 169.126 283.809 169.058C284.161 168.99 284.541 168.928 284.949 168.872C285.361 168.812 285.791 168.748 286.239 168.68L285.723 168.974C285.727 168.526 285.627 168.196 285.423 167.984C285.219 167.772 284.875 167.666 284.391 167.666C284.099 167.666 283.817 167.734 283.545 167.87C283.273 168.006 283.083 168.24 282.975 168.572L281.655 168.158C281.815 167.61 282.119 167.17 282.567 166.838C283.019 166.506 283.627 166.34 284.391 166.34C284.967 166.34 285.473 166.434 285.909 166.622C286.349 166.81 286.675 167.118 286.887 167.546C287.003 167.774 287.073 168.008 287.097 168.248C287.121 168.484 287.133 168.742 287.133 169.022V173H285.867V171.596L286.077 171.824C285.785 172.292 285.443 172.636 285.051 172.856C284.663 173.072 284.177 173.18 283.593 173.18ZM283.881 172.028C284.209 172.028 284.489 171.97 284.721 171.854C284.953 171.738 285.137 171.596 285.273 171.428C285.413 171.26 285.507 171.102 285.555 170.954C285.631 170.77 285.673 170.56 285.681 170.324C285.693 170.084 285.699 169.89 285.699 169.742L286.143 169.874C285.707 169.942 285.333 170.002 285.021 170.054C284.709 170.106 284.441 170.156 284.217 170.204C283.993 170.248 283.795 170.298 283.623 170.354C283.455 170.414 283.313 170.484 283.197 170.564C283.081 170.644 282.991 170.736 282.927 170.84C282.867 170.944 282.837 171.066 282.837 171.206C282.837 171.366 282.877 171.508 282.957 171.632C283.037 171.752 283.153 171.848 283.305 171.92C283.461 171.992 283.653 172.028 283.881 172.028ZM291.809 173.18C291.177 173.18 290.647 173.03 290.219 172.73C289.791 172.43 289.469 172.022 289.253 171.506C289.037 170.986 288.929 170.404 288.929 169.76C288.929 169.108 289.037 168.524 289.253 168.008C289.469 167.492 289.785 167.086 290.201 166.79C290.621 166.49 291.139 166.34 291.755 166.34C292.367 166.34 292.897 166.49 293.345 166.79C293.797 167.086 294.147 167.492 294.395 168.008C294.643 168.52 294.767 169.104 294.767 169.76C294.767 170.408 294.645 170.99 294.401 171.506C294.157 172.022 293.813 172.43 293.369 172.73C292.925 173.03 292.405 173.18 291.809 173.18ZM288.683 173V164.36H290.141V168.452H289.961V173H288.683ZM291.587 171.884C291.963 171.884 292.273 171.79 292.517 171.602C292.761 171.414 292.941 171.16 293.057 170.84C293.177 170.516 293.237 170.156 293.237 169.76C293.237 169.368 293.177 169.012 293.057 168.692C292.937 168.368 292.751 168.112 292.499 167.924C292.247 167.732 291.927 167.636 291.539 167.636C291.171 167.636 290.871 167.726 290.639 167.906C290.407 168.082 290.235 168.33 290.123 168.65C290.015 168.966 289.961 169.336 289.961 169.76C289.961 170.18 290.015 170.55 290.123 170.87C290.235 171.19 290.409 171.44 290.645 171.62C290.885 171.796 291.199 171.884 291.587 171.884ZM296.21 173V164.18H297.656V173H296.21ZM302.399 173.18C301.743 173.18 301.167 173.038 300.671 172.754C300.175 172.47 299.787 172.076 299.507 171.572C299.231 171.068 299.093 170.488 299.093 169.832C299.093 169.124 299.229 168.51 299.501 167.99C299.773 167.466 300.151 167.06 300.635 166.772C301.119 166.484 301.679 166.34 302.315 166.34C302.987 166.34 303.557 166.498 304.025 166.814C304.497 167.126 304.847 167.568 305.075 168.14C305.303 168.712 305.389 169.386 305.333 170.162H303.899V169.634C303.895 168.93 303.771 168.416 303.527 168.092C303.283 167.768 302.899 167.606 302.375 167.606C301.783 167.606 301.343 167.79 301.055 168.158C300.767 168.522 300.623 169.056 300.623 169.76C300.623 170.416 300.767 170.924 301.055 171.284C301.343 171.644 301.763 171.824 302.315 171.824C302.671 171.824 302.977 171.746 303.233 171.59C303.493 171.43 303.693 171.2 303.833 170.9L305.261 171.332C305.013 171.916 304.629 172.37 304.109 172.694C303.593 173.018 303.023 173.18 302.399 173.18ZM300.167 170.162V169.07H304.625V170.162H300.167Z" fill="black"/>
<path d="M316 168H328V164.435C328 164.264 328.2 164.172 328.33 164.283L335 170L328.33 175.717C328.2 175.828 328 175.736 328 175.565V172H316" stroke="#222222"/>
<path d="M175 102.982L166.36 102.982L166.36 101.536L169.996 101.536L169.996 97.4443L166.36 97.4443L166.36 96.0043L175 96.0043L175 97.4443L171.352 97.4443L171.352 101.536L175 101.536L175 102.982ZM167.536 94.2021L166.21 94.2021L166.21 92.7561L167.536 92.7561L167.536 94.2021ZM175 94.2021L168.52 94.2021L168.52 92.7561L175 92.7561L175 94.2021ZM178.06 88.2348C178.06 88.5948 178.004 88.9408 177.892 89.2728C177.78 89.6008 177.618 89.8968 177.406 90.1608C177.198 90.4248 176.946 90.6408 176.65 90.8088L175.99 89.4768C176.226 89.3528 176.4 89.1788 176.512 88.9548C176.628 88.7268 176.686 88.4848 176.686 88.2288C176.686 87.9288 176.632 87.6608 176.524 87.4248C176.42 87.1888 176.264 87.0068 176.056 86.8788C175.852 86.7468 175.596 86.6848 175.288 86.6928L173.446 86.6928L173.446 86.5128L168.52 86.5128L168.52 85.2468L175.312 85.2468C175.476 85.2468 175.632 85.2548 175.78 85.2708C175.932 85.2828 176.08 85.3048 176.224 85.3368C176.644 85.4328 176.988 85.6168 177.256 85.8888C177.528 86.1608 177.73 86.4988 177.862 86.9028C177.994 87.3028 178.06 87.7468 178.06 88.2348ZM175.18 88.3608C175.18 88.9568 175.03 89.4768 174.73 89.9208C174.43 90.3648 174.022 90.7088 173.506 90.9528C172.99 91.1968 172.408 91.3188 171.76 91.3188C171.104 91.3188 170.52 91.1968 170.008 90.9528C169.492 90.7048 169.086 90.3548 168.79 89.9028C168.49 89.4508 168.34 88.9188 168.34 88.3068C168.34 87.6908 168.49 87.1748 168.79 86.7588C169.086 86.3388 169.492 86.0208 170.008 85.8048C170.524 85.5888 171.108 85.4808 171.76 85.4808C172.404 85.4808 172.986 85.5888 173.506 85.8048C174.022 86.0208 174.43 86.3428 174.73 86.7708C175.03 87.1988 175.18 87.7288 175.18 88.3608ZM173.884 88.1388C173.884 87.7508 173.796 87.4388 173.62 87.2028C173.44 86.9628 173.19 86.7888 172.87 86.6808C172.55 86.5688 172.18 86.5128 171.76 86.5128C171.336 86.5128 170.966 86.5688 170.65 86.6808C170.33 86.7888 170.082 86.9588 169.906 87.1908C169.726 87.4228 169.636 87.7228 169.636 88.0908C169.636 88.4788 169.732 88.7988 169.924 89.0508C170.112 89.3028 170.368 89.4888 170.692 89.6088C171.012 89.7288 171.368 89.7888 171.76 89.7888C172.156 89.7888 172.516 89.7308 172.84 89.6148C173.16 89.4948 173.414 89.3128 173.602 89.0688C173.79 88.8248 173.884 88.5148 173.884 88.1388ZM175 79.0823L171.88 79.0823C171.676 79.0823 171.45 79.0963 171.202 79.1243C170.954 79.1523 170.716 79.2183 170.488 79.3223C170.256 79.4223 170.066 79.5743 169.918 79.7783C169.77 79.9783 169.696 80.2503 169.696 80.5943C169.696 80.7783 169.726 80.9603 169.786 81.1403C169.846 81.3203 169.95 81.4843 170.098 81.6323C170.242 81.7763 170.442 81.8923 170.698 81.9803C170.95 82.0683 171.274 82.1123 171.67 82.1123L171.304 82.9703C170.752 82.9703 170.252 82.8643 169.804 82.6523C169.356 82.4363 169 82.1203 168.736 81.7043C168.468 81.2883 168.334 80.7763 168.334 80.1683C168.334 79.6883 168.414 79.2923 168.574 78.9803C168.734 78.6683 168.938 78.4203 169.186 78.2363C169.434 78.0523 169.698 77.9163 169.978 77.8283C170.258 77.7403 170.524 77.6843 170.776 77.6603C171.024 77.6323 171.226 77.6183 171.382 77.6183L175 77.6183L175 79.0823ZM175 83.5763L166.36 83.5763L166.36 82.2863L170.908 82.2863L170.908 82.1123L175 82.1123L175 83.5763ZM175 73.6502L166.36 73.6502L166.36 68.0702L167.716 68.0702L167.716 72.2042L169.846 72.2042L169.846 68.7902L171.202 68.7902L171.202 72.2042L173.644 72.2042L173.644 68.0702L175 68.0702L175 73.6502ZM175 62.1487L171.88 62.1487C171.676 62.1487 171.45 62.1627 171.202 62.1907C170.954 62.2187 170.716 62.2847 170.488 62.3887C170.256 62.4887 170.066 62.6407 169.918 62.8447C169.77 63.0447 169.696 63.3167 169.696 63.6607C169.696 63.8447 169.726 64.0267 169.786 64.2067C169.846 64.3867 169.95 64.5507 170.098 64.6987C170.242 64.8427 170.442 64.9587 170.698 65.0467C170.95 65.1347 171.274 65.1787 171.67 65.1787L171.304 66.0367C170.752 66.0367 170.252 65.9307 169.804 65.7187C169.356 65.5027 169 65.1867 168.736 64.7707C168.468 64.3547 168.334 63.8427 168.334 63.2347C168.334 62.7547 168.414 62.3587 168.574 62.0467C168.734 61.7347 168.938 61.4867 169.186 61.3027C169.434 61.1187 169.698 60.9827 169.978 60.8947C170.258 60.8067 170.524 60.7507 170.776 60.7267C171.024 60.6987 171.226 60.6847 171.382 60.6847L175 60.6847L175 62.1487ZM175 66.6427L168.52 66.6427L168.52 65.3527L170.53 65.3527L170.53 65.1787L175 65.1787L175 66.6427ZM175.18 56.2785C175.18 56.9345 175.038 57.5105 174.754 58.0065C174.47 58.5025 174.076 58.8905 173.572 59.1705C173.068 59.4465 172.488 59.5845 171.832 59.5845C171.124 59.5845 170.51 59.4485 169.99 59.1765C169.466 58.9045 169.06 58.5265 168.772 58.0425C168.484 57.5585 168.34 56.9985 168.34 56.3625C168.34 55.6905 168.498 55.1205 168.814 54.6525C169.126 54.1805 169.568 53.8305 170.14 53.6025C170.712 53.3745 171.386 53.2885 172.162 53.3445L172.162 54.7785L171.634 54.7785C170.93 54.7825 170.416 54.9065 170.092 55.1505C169.768 55.3945 169.606 55.7785 169.606 56.3025C169.606 56.8945 169.79 57.3345 170.158 57.6225C170.522 57.9105 171.056 58.0545 171.76 58.0545C172.416 58.0545 172.924 57.9105 173.284 57.6225C173.644 57.3345 173.824 56.9145 173.824 56.3625C173.824 56.0065 173.746 55.7005 173.59 55.4445C173.43 55.1845 173.2 54.9845 172.9 54.8445L173.332 53.4165C173.916 53.6645 174.37 54.0485 174.694 54.5685C175.018 55.0845 175.18 55.6545 175.18 56.2785ZM172.162 58.5105L171.07 58.5105L171.07 54.0525L172.162 54.0525L172.162 58.5105ZM175 52.0057L168.52 52.0057L168.52 50.7277L170.098 50.7277L169.894 50.8837C169.678 50.8037 169.482 50.6977 169.306 50.5657C169.126 50.4297 168.978 50.2677 168.862 50.0797C168.754 49.9197 168.67 49.7437 168.61 49.5517C168.546 49.3557 168.508 49.1557 168.496 48.9517C168.48 48.7477 168.488 48.5497 168.52 48.3577L169.87 48.3577C169.814 48.5497 169.796 48.7717 169.816 49.0237C169.836 49.2717 169.906 49.4957 170.026 49.6957C170.134 49.8957 170.272 50.0597 170.44 50.1877C170.608 50.3117 170.8 50.4037 171.016 50.4637C171.228 50.5237 171.458 50.5537 171.706 50.5537L175 50.5537L175 52.0057ZM178.06 44.7231C178.06 45.0831 178.004 45.4291 177.892 45.7611C177.78 46.0891 177.618 46.3851 177.406 46.6491C177.198 46.9131 176.946 47.1291 176.65 47.2971L175.99 45.9651C176.226 45.8411 176.4 45.6671 176.512 45.4431C176.628 45.2151 176.686 44.9731 176.686 44.7171C176.686 44.4171 176.632 44.1491 176.524 43.9131C176.42 43.6771 176.264 43.4951 176.056 43.3671C175.852 43.2351 175.596 43.1731 175.288 43.1811L173.446 43.1811L173.446 43.0011L168.52 43.0011L168.52 41.7351L175.312 41.7351C175.476 41.7351 175.632 41.7431 175.78 41.7591C175.932 41.7711 176.08 41.7931 176.224 41.8251C176.644 41.9211 176.988 42.1051 177.256 42.3771C177.528 42.6491 177.73 42.9871 177.862 43.3911C177.994 43.7911 178.06 44.2351 178.06 44.7231ZM175.18 44.8491C175.18 45.4451 175.03 45.9651 174.73 46.4091C174.43 46.8531 174.022 47.1971 173.506 47.4411C172.99 47.6851 172.408 47.8071 171.76 47.8071C171.104 47.8071 170.52 47.6851 170.008 47.4411C169.492 47.1931 169.086 46.8431 168.79 46.3911C168.49 45.9391 168.34 45.4071 168.34 44.7951C168.34 44.1791 168.49 43.6631 168.79 43.2471C169.086 42.8271 169.492 42.5091 170.008 42.2931C170.524 42.0771 171.108 41.9691 171.76 41.9691C172.404 41.9691 172.986 42.0771 173.506 42.2931C174.022 42.5091 174.43 42.8311 174.73 43.2591C175.03 43.6871 175.18 44.2171 175.18 44.8491ZM173.884 44.6271C173.884 44.2391 173.796 43.9271 173.62 43.6911C173.44 43.4511 173.19 43.2771 172.87 43.1691C172.55 43.0571 172.18 43.0011 171.76 43.0011C171.336 43.0011 170.966 43.0571 170.65 43.1691C170.33 43.2771 170.082 43.4471 169.906 43.6791C169.726 43.9111 169.636 44.2111 169.636 44.5791C169.636 44.9671 169.732 45.2871 169.924 45.5391C170.112 45.7911 170.368 45.9771 170.692 46.0971C171.012 46.2171 171.368 46.2771 171.76 46.2771C172.156 46.2771 172.516 46.2191 172.84 46.1031C173.16 45.9831 173.414 45.8011 173.602 45.5571C173.79 45.3131 173.884 45.0031 173.884 44.6271ZM177.88 39.2006L174.454 37.9526L175.462 37.9286L168.52 40.7546L168.52 39.2486L173.656 37.2446L173.656 37.6286L168.52 35.6786L168.52 34.2326L177.88 37.8446L177.88 39.2006Z" fill="black"/>
<path d="M170 22L170 10L166.435 10C166.264 10 166.172 9.79958 166.283 9.66984L172 3L177.717 9.66984C177.828 9.79958 177.736 10 177.565 10L174 10L174 22" stroke="#222222"/>
<path d="M167 229.995L175.64 229.995L175.64 231.441L168.356 231.441L168.356 235.257L167 235.257L167 229.995ZM166.82 239.136C166.82 238.488 166.966 237.922 167.258 237.438C167.55 236.954 167.952 236.578 168.464 236.31C168.98 236.046 169.572 235.914 170.24 235.914C170.92 235.914 171.516 236.05 172.028 236.322C172.54 236.594 172.94 236.972 173.228 237.456C173.516 237.94 173.66 238.5 173.66 239.136C173.66 239.788 173.514 240.356 173.222 240.84C172.93 241.324 172.526 241.7 172.01 241.968C171.498 242.236 170.908 242.37 170.24 242.37C169.568 242.37 168.974 242.234 168.458 241.962C167.946 241.694 167.544 241.318 167.252 240.834C166.964 240.35 166.82 239.784 166.82 239.136ZM168.176 239.136C168.176 239.712 168.368 240.14 168.752 240.42C169.136 240.7 169.632 240.84 170.24 240.84C170.868 240.84 171.368 240.698 171.74 240.414C172.116 240.13 172.304 239.704 172.304 239.136C172.304 238.748 172.216 238.428 172.04 238.176C171.868 237.928 171.626 237.744 171.314 237.624C171.006 237.504 170.648 237.444 170.24 237.444C169.612 237.444 169.11 237.586 168.734 237.87C168.362 238.158 168.176 238.58 168.176 239.136ZM167 244.837L173.492 242.857L173.48 244.273L169.322 245.539L173.48 246.823L173.48 248.041L169.322 249.319L173.48 250.591L173.48 252.007L167 250.027L167 248.899L171.458 247.429L167 245.965L167 244.837ZM167 255.492L175.64 255.492L175.64 261.072L174.284 261.072L174.284 256.938L172.154 256.938L172.154 260.352L170.798 260.352L170.798 256.938L168.356 256.938L168.356 261.072L167 261.072L167 255.492ZM167 266.994L170.12 266.994C170.324 266.994 170.55 266.98 170.798 266.952C171.046 266.924 171.284 266.858 171.512 266.754C171.744 266.654 171.934 266.502 172.082 266.298C172.23 266.098 172.304 265.826 172.304 265.482C172.304 265.298 172.274 265.116 172.214 264.936C172.154 264.756 172.05 264.592 171.902 264.444C171.758 264.3 171.558 264.184 171.302 264.096C171.05 264.008 170.726 263.964 170.33 263.964L170.696 263.106C171.248 263.106 171.748 263.212 172.196 263.424C172.644 263.64 173 263.956 173.264 264.372C173.532 264.788 173.666 265.3 173.666 265.908C173.666 266.388 173.586 266.784 173.426 267.096C173.266 267.408 173.062 267.656 172.814 267.84C172.566 268.024 172.302 268.16 172.022 268.248C171.742 268.336 171.476 268.392 171.224 268.416C170.976 268.444 170.774 268.458 170.618 268.458L167 268.458L167 266.994ZM167 262.5L173.48 262.5L173.48 263.79L171.47 263.79L171.47 263.964L167 263.964L167 262.5ZM166.82 272.864C166.82 272.208 166.962 271.632 167.246 271.136C167.53 270.64 167.924 270.252 168.428 269.972C168.932 269.696 169.512 269.558 170.168 269.558C170.876 269.558 171.49 269.694 172.01 269.966C172.534 270.238 172.94 270.616 173.228 271.1C173.516 271.584 173.66 272.144 173.66 272.78C173.66 273.452 173.502 274.022 173.186 274.49C172.874 274.962 172.432 275.312 171.86 275.54C171.288 275.768 170.614 275.854 169.838 275.798L169.838 274.364L170.366 274.364C171.07 274.36 171.584 274.236 171.908 273.992C172.232 273.748 172.394 273.364 172.394 272.84C172.394 272.248 172.21 271.808 171.842 271.52C171.478 271.232 170.944 271.088 170.24 271.088C169.584 271.088 169.076 271.232 168.716 271.52C168.356 271.808 168.176 272.228 168.176 272.78C168.176 273.136 168.254 273.442 168.41 273.698C168.57 273.958 168.8 274.158 169.1 274.298L168.668 275.726C168.084 275.478 167.63 275.094 167.306 274.574C166.982 274.058 166.82 273.488 166.82 272.864ZM169.838 270.632L170.93 270.632L170.93 275.09L169.838 275.09L169.838 270.632ZM167 277.137L173.48 277.137L173.48 278.415L171.902 278.415L172.106 278.259C172.322 278.339 172.518 278.445 172.694 278.577C172.874 278.713 173.022 278.875 173.138 279.063C173.246 279.223 173.33 279.399 173.39 279.591C173.454 279.787 173.492 279.987 173.504 280.191C173.52 280.395 173.512 280.593 173.48 280.785L172.13 280.785C172.186 280.593 172.204 280.371 172.184 280.119C172.164 279.871 172.094 279.647 171.974 279.447C171.866 279.247 171.728 279.083 171.56 278.955C171.392 278.831 171.2 278.739 170.984 278.679C170.772 278.619 170.542 278.589 170.294 278.589L167 278.589L167 277.137ZM163.94 284.419C163.94 284.059 163.996 283.713 164.108 283.381C164.22 283.053 164.382 282.757 164.594 282.493C164.802 282.229 165.054 282.013 165.35 281.845L166.01 283.177C165.774 283.301 165.6 283.475 165.488 283.699C165.372 283.927 165.314 284.169 165.314 284.425C165.314 284.725 165.368 284.993 165.476 285.229C165.58 285.465 165.736 285.647 165.944 285.775C166.148 285.907 166.404 285.969 166.712 285.961L168.554 285.961L168.554 286.141L173.48 286.141L173.48 287.407L166.688 287.407C166.524 287.407 166.368 287.399 166.22 287.383C166.068 287.371 165.92 287.349 165.776 287.317C165.356 287.221 165.012 287.037 164.744 286.765C164.472 286.493 164.27 286.155 164.138 285.751C164.006 285.351 163.94 284.907 163.94 284.419ZM166.82 284.293C166.82 283.697 166.97 283.177 167.27 282.733C167.57 282.289 167.978 281.945 168.494 281.701C169.01 281.457 169.592 281.335 170.24 281.335C170.896 281.335 171.48 281.457 171.992 281.701C172.508 281.949 172.914 282.299 173.21 282.751C173.51 283.203 173.66 283.735 173.66 284.347C173.66 284.963 173.51 285.479 173.21 285.895C172.914 286.315 172.508 286.633 171.992 286.849C171.476 287.065 170.892 287.173 170.24 287.173C169.596 287.173 169.014 287.065 168.494 286.849C167.978 286.633 167.57 286.311 167.27 285.883C166.97 285.455 166.82 284.925 166.82 284.293ZM168.116 284.515C168.116 284.903 168.204 285.215 168.38 285.451C168.56 285.691 168.81 285.865 169.13 285.973C169.45 286.085 169.82 286.141 170.24 286.141C170.664 286.141 171.034 286.085 171.35 285.973C171.67 285.865 171.918 285.695 172.094 285.463C172.274 285.231 172.364 284.931 172.364 284.563C172.364 284.175 172.268 283.855 172.076 283.603C171.888 283.351 171.632 283.165 171.308 283.045C170.988 282.925 170.632 282.865 170.24 282.865C169.844 282.865 169.484 282.923 169.16 283.039C168.84 283.159 168.586 283.341 168.398 283.585C168.21 283.829 168.116 284.139 168.116 284.515ZM164.12 289.942L167.546 291.19L166.538 291.214L173.48 288.388L173.48 289.894L168.344 291.898L168.344 291.514L173.48 293.464L173.48 294.91L164.12 291.298L164.12 289.942Z" fill="black"/>
<path d="M172 307L172 319L175.565 319C175.736 319 175.828 319.2 175.717 319.33L170 326L164.283 319.33C164.172 319.2 164.264 319 164.435 319L168 319L168 307" stroke="#222222"/>
<path d="M36.5329 173.18C35.8449 173.18 35.2389 173.04 34.7149 172.76C34.1949 172.48 33.7869 172.086 33.4909 171.578C33.1989 171.07 33.0529 170.474 33.0529 169.79L33.0529 164.372L34.5169 164.36L34.5169 169.754C34.5169 170.078 34.5709 170.368 34.6789 170.624C34.7909 170.88 34.9409 171.098 35.1289 171.278C35.3169 171.454 35.5329 171.588 35.7769 171.68C36.0209 171.772 36.2729 171.818 36.5329 171.818C36.8009 171.818 37.0549 171.772 37.2949 171.68C37.5389 171.584 37.7549 171.448 37.9429 171.272C38.1309 171.092 38.2789 170.874 38.3869 170.618C38.4949 170.362 38.5489 170.074 38.5489 169.754L38.5489 164.36L40.0129 164.36L40.0129 169.79C40.0129 170.474 39.8649 171.07 39.5689 171.578C39.2769 172.086 38.8689 172.48 38.3449 172.76C37.8249 173.04 37.2209 173.18 36.5329 173.18ZM46.1716 173L46.1716 169.88C46.1716 169.676 46.1576 169.45 46.1296 169.202C46.1016 168.954 46.0356 168.716 45.9316 168.488C45.8316 168.256 45.6796 168.066 45.4756 167.918C45.2756 167.77 45.0036 167.696 44.6596 167.696C44.4756 167.696 44.2936 167.726 44.1136 167.786C43.9336 167.846 43.7696 167.95 43.6216 168.098C43.4776 168.242 43.3616 168.442 43.2736 168.698C43.1856 168.95 43.1416 169.274 43.1416 169.67L42.2836 169.304C42.2836 168.752 42.3896 168.252 42.6016 167.804C42.8176 167.356 43.1336 167 43.5496 166.736C43.9656 166.468 44.4776 166.334 45.0856 166.334C45.5656 166.334 45.9616 166.414 46.2736 166.574C46.5856 166.734 46.8336 166.938 47.0176 167.186C47.2016 167.434 47.3376 167.698 47.4256 167.978C47.5136 168.258 47.5696 168.524 47.5936 168.776C47.6216 169.024 47.6356 169.226 47.6356 169.382L47.6356 173L46.1716 173ZM41.6776 173L41.6776 166.52L42.9676 166.52L42.9676 168.53L43.1416 168.53L43.1416 173L41.6776 173ZM51.9099 173.18C51.2419 173.18 50.6719 173.032 50.1999 172.736C49.7279 172.436 49.3659 172.028 49.1139 171.512C48.8659 170.996 48.7399 170.412 48.7359 169.76C48.7399 169.096 48.8699 168.508 49.1259 167.996C49.3859 167.48 49.7539 167.076 50.2299 166.784C50.7059 166.488 51.2719 166.34 51.9279 166.34C52.6639 166.34 53.2859 166.526 53.7939 166.898C54.3059 167.266 54.6399 167.77 54.7959 168.41L53.3559 168.8C53.2439 168.452 53.0579 168.182 52.7979 167.99C52.5379 167.794 52.2419 167.696 51.9099 167.696C51.5339 167.696 51.2239 167.786 50.9799 167.966C50.7359 168.142 50.5559 168.386 50.4399 168.698C50.3239 169.01 50.2659 169.364 50.2659 169.76C50.2659 170.376 50.4039 170.874 50.6799 171.254C50.9559 171.634 51.3659 171.824 51.9099 171.824C52.2939 171.824 52.5959 171.736 52.8159 171.56C53.0399 171.384 53.2079 171.13 53.3199 170.798L54.7959 171.128C54.5959 171.788 54.2459 172.296 53.7459 172.652C53.2459 173.004 52.6339 173.18 51.9099 173.18ZM58.6844 173.18C58.0364 173.18 57.4704 173.034 56.9864 172.742C56.5024 172.45 56.1264 172.048 55.8584 171.536C55.5944 171.02 55.4624 170.428 55.4624 169.76C55.4624 169.08 55.5984 168.484 55.8704 167.972C56.1424 167.46 56.5204 167.06 57.0044 166.772C57.4884 166.484 58.0484 166.34 58.6844 166.34C59.3364 166.34 59.9044 166.486 60.3884 166.778C60.8724 167.07 61.2484 167.474 61.5164 167.99C61.7844 168.502 61.9184 169.092 61.9184 169.76C61.9184 170.432 61.7824 171.026 61.5104 171.542C61.2424 172.054 60.8664 172.456 60.3824 172.748C59.8984 173.036 59.3324 173.18 58.6844 173.18ZM58.6844 171.824C59.2604 171.824 59.6884 171.632 59.9684 171.248C60.2484 170.864 60.3884 170.368 60.3884 169.76C60.3884 169.132 60.2464 168.632 59.9624 168.26C59.6784 167.884 59.2524 167.696 58.6844 167.696C58.2964 167.696 57.9764 167.784 57.7244 167.96C57.4764 168.132 57.2924 168.374 57.1724 168.686C57.0524 168.994 56.9924 169.352 56.9924 169.76C56.9924 170.388 57.1344 170.89 57.4184 171.266C57.7064 171.638 58.1284 171.824 58.6844 171.824ZM71.0224 173L71.0224 169.064C71.0224 168.62 70.9124 168.274 70.6924 168.026C70.4724 167.774 70.1744 167.648 69.7984 167.648C69.5664 167.648 69.3584 167.702 69.1744 167.81C68.9904 167.914 68.8444 168.07 68.7364 168.278C68.6284 168.482 68.5744 168.726 68.5744 169.01L67.9324 168.632C67.9284 168.184 68.0284 167.79 68.2324 167.45C68.4404 167.106 68.7204 166.838 69.0724 166.646C69.4244 166.454 69.8164 166.358 70.2484 166.358C70.9644 166.358 71.5124 166.574 71.8924 167.006C72.2764 167.434 72.4684 167.998 72.4684 168.698L72.4684 173L71.0224 173ZM63.2284 173L63.2284 166.52L64.5064 166.52L64.5064 168.53L64.6864 168.53L64.6864 173L63.2284 173ZM67.1344 173L67.1344 169.082C67.1344 168.63 67.0244 168.278 66.8044 168.026C66.5844 167.774 66.2844 167.648 65.9044 167.648C65.5364 167.648 65.2404 167.774 65.0164 168.026C64.7964 168.278 64.6864 168.606 64.6864 169.01L64.0384 168.578C64.0384 168.158 64.1424 167.78 64.3504 167.444C64.5584 167.108 64.8384 166.844 65.1904 166.652C65.5464 166.456 65.9444 166.358 66.3844 166.358C66.8684 166.358 67.2724 166.462 67.5964 166.67C67.9244 166.874 68.1684 167.154 68.3284 167.51C68.4924 167.862 68.5744 168.26 68.5744 168.704L68.5744 173L67.1344 173ZM74.5974 173L74.5974 166.418C74.5974 166.254 74.6034 166.074 74.6154 165.878C74.6274 165.678 74.6614 165.48 74.7174 165.284C74.7734 165.088 74.8754 164.91 75.0234 164.75C75.2074 164.546 75.4054 164.406 75.6174 164.33C75.8334 164.25 76.0454 164.206 76.2534 164.198C76.4614 164.186 76.6434 164.18 76.7994 164.18L77.6094 164.18L77.6094 165.356L76.8594 165.356C76.5834 165.356 76.3774 165.426 76.2414 165.566C76.1094 165.702 76.0434 165.882 76.0434 166.106L76.0434 173L74.5974 173ZM73.5534 167.654L73.5534 166.52L77.6094 166.52L77.6094 167.654L73.5534 167.654ZM81.1961 173.18C80.5481 173.18 79.9821 173.034 79.4981 172.742C79.0141 172.45 78.6381 172.048 78.3701 171.536C78.1061 171.02 77.9741 170.428 77.9741 169.76C77.9741 169.08 78.1101 168.484 78.3821 167.972C78.6541 167.46 79.0321 167.06 79.5161 166.772C80.0001 166.484 80.5601 166.34 81.1961 166.34C81.8481 166.34 82.4161 166.486 82.9001 166.778C83.3841 167.07 83.7601 167.474 84.0281 167.99C84.2961 168.502 84.4301 169.092 84.4301 169.76C84.4301 170.432 84.2941 171.026 84.0221 171.542C83.7541 172.054 83.3781 172.456 82.8941 172.748C82.4101 173.036 81.8441 173.18 81.1961 173.18ZM81.1961 171.824C81.7721 171.824 82.2001 171.632 82.4801 171.248C82.7601 170.864 82.9001 170.368 82.9001 169.76C82.9001 169.132 82.7581 168.632 82.4741 168.26C82.1901 167.884 81.7641 167.696 81.1961 167.696C80.8081 167.696 80.4881 167.784 80.2361 167.96C79.9881 168.132 79.8041 168.374 79.6841 168.686C79.5641 168.994 79.5041 169.352 79.5041 169.76C79.5041 170.388 79.6461 170.89 79.9301 171.266C80.2181 171.638 80.6401 171.824 81.1961 171.824ZM85.7521 173L85.7521 166.52L87.0301 166.52L87.0301 168.098L86.8741 167.894C86.9541 167.678 87.0601 167.482 87.1921 167.306C87.3281 167.126 87.4901 166.978 87.6781 166.862C87.8381 166.754 88.0141 166.67 88.2061 166.61C88.4021 166.546 88.6021 166.508 88.8061 166.496C89.0101 166.48 89.2081 166.488 89.4001 166.52L89.4001 167.87C89.2081 167.814 88.9861 167.796 88.7341 167.816C88.4861 167.836 88.2621 167.906 88.0621 168.026C87.8621 168.134 87.6981 168.272 87.5701 168.44C87.4461 168.608 87.3541 168.8 87.2941 169.016C87.2341 169.228 87.2041 169.458 87.2041 169.706L87.2041 173L85.7521 173ZM94.3431 173C93.9151 173.08 93.4951 173.114 93.0831 173.102C92.6751 173.094 92.3091 173.02 91.9851 172.88C91.6611 172.736 91.4151 172.51 91.2471 172.202C91.0991 171.922 91.0211 171.636 91.0131 171.344C91.0051 171.052 91.0011 170.722 91.0011 170.354L91.0011 164.72L92.4411 164.72L92.4411 170.27C92.4411 170.53 92.4431 170.758 92.4471 170.954C92.4551 171.15 92.4971 171.31 92.5731 171.434C92.7171 171.674 92.9471 171.808 93.2631 171.836C93.5791 171.864 93.9391 171.848 94.3431 171.788L94.3431 173ZM89.8251 167.654L89.8251 166.52L94.3431 166.52L94.3431 167.654L89.8251 167.654ZM97.5485 173.18C97.0805 173.18 96.6845 173.092 96.3605 172.916C96.0365 172.736 95.7905 172.498 95.6225 172.202C95.4585 171.906 95.3765 171.58 95.3765 171.224C95.3765 170.912 95.4285 170.632 95.5325 170.384C95.6365 170.132 95.7965 169.916 96.0125 169.736C96.2285 169.552 96.5085 169.402 96.8525 169.286C97.1125 169.202 97.4165 169.126 97.7645 169.058C98.1165 168.99 98.4965 168.928 98.9045 168.872C99.3165 168.812 99.7465 168.748 100.194 168.68L99.6785 168.974C99.6825 168.526 99.5825 168.196 99.3785 167.984C99.1745 167.772 98.8305 167.666 98.3465 167.666C98.0545 167.666 97.7725 167.734 97.5005 167.87C97.2285 168.006 97.0385 168.24 96.9305 168.572L95.6105 168.158C95.7705 167.61 96.0745 167.17 96.5225 166.838C96.9745 166.506 97.5825 166.34 98.3465 166.34C98.9225 166.34 99.4285 166.434 99.8645 166.622C100.304 166.81 100.63 167.118 100.842 167.546C100.958 167.774 101.028 168.008 101.052 168.248C101.076 168.484 101.088 168.742 101.088 169.022L101.088 173L99.8225 173L99.8225 171.596L100.032 171.824C99.7405 172.292 99.3985 172.636 99.0065 172.856C98.6185 173.072 98.1325 173.18 97.5485 173.18ZM97.8365 172.028C98.1645 172.028 98.4445 171.97 98.6765 171.854C98.9085 171.738 99.0925 171.596 99.2285 171.428C99.3685 171.26 99.4625 171.102 99.5105 170.954C99.5865 170.77 99.6285 170.56 99.6365 170.324C99.6485 170.084 99.6545 169.89 99.6545 169.742L100.098 169.874C99.6625 169.942 99.2885 170.002 98.9765 170.054C98.6645 170.106 98.3965 170.156 98.1725 170.204C97.9485 170.248 97.7505 170.298 97.5785 170.354C97.4105 170.414 97.2685 170.484 97.1525 170.564C97.0365 170.644 96.9465 170.736 96.8825 170.84C96.8225 170.944 96.7925 171.066 96.7925 171.206C96.7925 171.366 96.8325 171.508 96.9125 171.632C96.9925 171.752 97.1085 171.848 97.2605 171.92C97.4165 171.992 97.6085 172.028 97.8365 172.028ZM105.765 173.18C105.133 173.18 104.603 173.03 104.175 172.73C103.747 172.43 103.425 172.022 103.209 171.506C102.993 170.986 102.885 170.404 102.885 169.76C102.885 169.108 102.993 168.524 103.209 168.008C103.425 167.492 103.741 167.086 104.157 166.79C104.577 166.49 105.095 166.34 105.711 166.34C106.323 166.34 106.853 166.49 107.301 166.79C107.753 167.086 108.103 167.492 108.351 168.008C108.599 168.52 108.723 169.104 108.723 169.76C108.723 170.408 108.601 170.99 108.357 171.506C108.113 172.022 107.769 172.43 107.325 172.73C106.881 173.03 106.361 173.18 105.765 173.18ZM102.639 173L102.639 164.36L104.097 164.36L104.097 168.452L103.917 168.452L103.917 173L102.639 173ZM105.543 171.884C105.919 171.884 106.229 171.79 106.473 171.602C106.717 171.414 106.897 171.16 107.013 170.84C107.133 170.516 107.193 170.156 107.193 169.76C107.193 169.368 107.133 169.012 107.013 168.692C106.893 168.368 106.707 168.112 106.455 167.924C106.203 167.732 105.883 167.636 105.495 167.636C105.127 167.636 104.827 167.726 104.595 167.906C104.363 168.082 104.191 168.33 104.079 168.65C103.971 168.966 103.917 169.336 103.917 169.76C103.917 170.18 103.971 170.55 104.079 170.87C104.191 171.19 104.365 171.44 104.601 171.62C104.841 171.796 105.155 171.884 105.543 171.884ZM110.165 173L110.165 164.18L111.611 164.18L111.611 173L110.165 173ZM116.354 173.18C115.698 173.18 115.122 173.038 114.626 172.754C114.13 172.47 113.742 172.076 113.462 171.572C113.186 171.068 113.048 170.488 113.048 169.832C113.048 169.124 113.184 168.51 113.456 167.99C113.728 167.466 114.106 167.06 114.59 166.772C115.074 166.484 115.634 166.34 116.27 166.34C116.942 166.34 117.512 166.498 117.98 166.814C118.452 167.126 118.802 167.568 119.03 168.14C119.258 168.712 119.344 169.386 119.288 170.162L117.854 170.162L117.854 169.634C117.85 168.93 117.726 168.416 117.482 168.092C117.238 167.768 116.854 167.606 116.33 167.606C115.738 167.606 115.298 167.79 115.01 168.158C114.722 168.522 114.578 169.056 114.578 169.76C114.578 170.416 114.722 170.924 115.01 171.284C115.298 171.644 115.718 171.824 116.27 171.824C116.626 171.824 116.932 171.746 117.188 171.59C117.448 171.43 117.648 171.2 117.788 170.9L119.216 171.332C118.968 171.916 118.584 172.37 118.064 172.694C117.548 173.018 116.978 173.18 116.354 173.18ZM114.122 170.162L114.122 169.07L118.58 169.07L118.58 170.162L114.122 170.162Z" fill="black"/>
<path d="M22 170L10 170L10 173.565C10 173.736 9.79958 173.828 9.66984 173.717L3 168L9.66984 162.283C9.79958 162.172 10 162.264 10 162.435L10 166L22 166" stroke="#222222"/>
<line x1="170.5" y1="124" x2="170.5" y2="215" stroke="black"/>
<path d="M126.5 169.5H217.5" stroke="black"/>
</svg>
