<svg width="50" height="49" viewBox="0 0 50 49" fill="none" xmlns="http://www.w3.org/2000/svg">
<path d="M19.3238 0.658391C14.686 1.80419 11.3032 3.76842 7.59297 7.47863C1.91853 13.2076 -0.427629 19.4277 0.0634282 27.4483C0.3908 32.3588 1.97309 35.6326 6.01067 39.9429C14.0858 48.6183 25.1619 51.019 35.2013 46.3267C37.0564 45.4537 38.7478 44.8535 38.9115 44.9626C39.0752 45.0718 39.1297 45.0172 39.0206 44.8535C38.9115 44.6898 40.0573 43.4349 41.585 42.0163C46.1682 37.7059 49.1146 32.1952 49.7693 26.5753C50.424 20.7917 47.2049 12.8257 42.0215 7.69687C35.5287 1.14945 27.4535 -1.30584 19.3238 0.658391ZM34.3283 3.11368C43.3856 7.64231 49.7147 17.8454 48.8963 26.6844C48.0779 36.1236 38.8569 45.6174 28.8175 47.5271C24.5072 48.2909 18.8873 47.4179 14.4678 45.2355C10.4847 43.2712 5.02856 38.3061 3.00977 34.7596C-1.19149 27.3937 0.663609 16.0994 7.2656 8.78811C10.1028 5.62352 12.2853 4.15035 16.8139 2.24069C19.4875 1.09489 20.5787 0.985762 25.3256 1.14945C30.1816 1.31313 31.1637 1.53138 34.3283 3.11368Z" fill="#279348"/>
<path d="M18.8331 16.5904C17.6327 17.7362 17.7418 18.7729 19.1604 19.755C19.9789 20.3552 20.579 20.4098 21.3429 20.0278C22.6524 19.3185 22.5978 17.0269 21.2883 16.2631C19.9243 15.5538 19.8152 15.5538 18.8331 16.5904ZM21.1247 18.0636C21.2338 18.6092 20.961 18.9912 20.4699 18.9912C19.4878 18.9912 18.8876 18.1182 19.3241 17.2997C19.8152 16.5359 20.9064 16.9724 21.1247 18.0636Z" fill="#279348"/>
<path d="M28.545 17.6271C27.8903 20.2461 30.9457 21.8284 32.1461 19.5368C32.9645 18.0091 31.9279 16.2631 30.2364 16.2631C29.2543 16.2631 28.8178 16.645 28.545 17.6271ZM31.2731 17.7908C31.7096 18.5001 30.6729 19.7005 30.0182 19.3186C29.1452 18.7729 29.2543 17.3543 30.1819 17.3543C30.6184 17.3543 31.1094 17.5726 31.2731 17.7908Z" fill="#279348"/>
<path d="M17.96 29.8488C17.96 30.6672 21.7793 33.6135 23.1433 33.8318C25.4895 34.3228 27.7265 33.6135 29.7999 31.813C30.9457 30.8309 31.7096 29.8488 31.4913 29.6305C31.3276 29.4123 30.6183 29.7942 29.9636 30.4489C26.9081 33.5044 23.1433 33.6135 20.0333 30.7218C18.451 29.2486 17.96 29.0849 17.96 29.8488Z" fill="#279348"/>
</svg>
