<svg width="49" height="48" viewBox="0 0 49 48" fill="none" xmlns="http://www.w3.org/2000/svg">
<path d="M16.1614 0.992782C10.1596 2.84789 6.12201 6.61266 2.84829 13.4875C0.283886 18.8345 -0.425418 22.7084 0.229324 27.1825C2.4118 40.823 16.4342 50.4259 28.8198 46.8248C35.6945 44.8605 43.2786 39.7863 46.0067 35.3122C48.844 30.8381 49.4987 22.9812 47.6436 17.034C44.4244 6.61266 35.0944 0.119792 23.4181 0.228916C20.69 0.228916 17.4163 0.556287 16.1614 0.992782ZM29.2017 1.32015C36.3493 2.84789 43.0604 8.19495 46.1704 14.7424C47.7527 18.1252 47.8618 18.9436 47.9164 23.9088C47.9164 29.0376 47.8073 29.6378 46.1159 33.0752C43.9334 37.4401 40.3869 40.7684 34.8761 43.5511C29.0926 46.4428 24.4002 47.425 20.199 46.6611C12.5603 45.2425 6.12201 40.2228 2.68461 32.9115C1.15688 29.6923 0.993191 28.8739 0.993191 23.8542C0.993191 18.6163 1.10231 18.2343 3.06654 14.2513C8.46817 3.22982 17.4163 -1.18969 29.2017 1.32015Z" fill="#279348"/>
<path d="M18.3438 16.3793C16.8161 16.9795 17.9073 20.3623 19.5987 20.3623C20.3626 20.3623 21.9994 18.8891 21.9994 18.1798C21.9994 17.4705 20.3626 15.9974 19.6533 16.0519C19.2713 16.0519 18.6712 16.2156 18.3438 16.3793ZM20.3626 18.1798C20.3626 18.78 19.9806 19.2711 19.5441 19.2711C19.1077 19.2711 18.7257 18.78 18.7257 18.1798C18.7257 17.5796 19.1077 17.0886 19.5441 17.0886C19.9806 17.0886 20.3626 17.5796 20.3626 18.1798Z" fill="#279348"/>
<path d="M28.0013 16.8157C27.6194 17.3067 27.4557 18.1797 27.6739 19.0527C27.9467 20.144 28.3287 20.4168 29.529 20.2531C30.5657 20.144 31.0568 19.762 31.1659 18.8345C31.4933 16.4883 29.3653 15.1243 28.0013 16.8157ZM30.1838 18.1797C30.1838 18.7799 29.8018 19.271 29.3653 19.271C28.5469 19.271 28.2195 18.1252 28.9288 17.4704C29.5836 16.7611 30.1838 17.0885 30.1838 18.1797Z" fill="#279348"/>
<path d="M33.1842 30.5652C28.11 32.4203 21.0169 32.8023 15.779 31.6019C11.9597 30.6744 10.7047 30.7289 12.5598 31.711C15.5062 33.2933 24.1815 33.8935 29.2012 32.8568C32.6386 32.1475 37.2764 30.2379 37.2764 29.5831C37.2764 29.3103 37.2218 29.0921 37.1672 29.1466C37.0581 29.2012 35.3121 29.8014 33.1842 30.5652Z" fill="#279348"/>
</svg>
