<svg width="51" height="50" viewBox="0 0 51 50" fill="none" xmlns="http://www.w3.org/2000/svg">
<path d="M19.73 1.41181C15.0923 2.55761 11.7094 4.52184 7.99922 8.23204C2.32478 13.961 -0.0213787 20.1811 0.469678 28.2017C0.79705 33.1123 2.37934 36.386 6.41692 40.6964C14.4921 49.3717 25.5681 51.7724 35.6075 47.0801C37.4626 46.2071 39.1541 45.6069 39.3177 45.7161C39.4814 45.8252 39.536 45.7706 39.4269 45.6069C39.3177 45.4433 40.4635 44.1883 41.9913 42.7697C46.5745 38.4593 49.5208 32.9486 50.1756 27.3287C50.8303 21.5451 47.6111 13.5791 42.4278 8.45029C35.9349 1.90287 27.8597 -0.552419 19.73 1.41181ZM34.7345 3.86709C43.7918 8.39573 50.121 18.5988 49.3026 27.4378C48.4841 36.877 39.2632 46.3708 29.2238 48.2805C24.9134 49.0443 19.2935 48.1713 14.874 45.9889C10.891 44.0246 5.43481 39.0595 3.41602 35.513C-0.785245 28.1471 1.06986 16.8528 7.67185 9.54153C10.5091 6.37694 12.6915 4.90377 17.2202 2.9941C19.8937 1.8483 20.9849 1.73918 25.7318 1.90287C30.5878 2.06655 31.57 2.2848 34.7345 3.86709Z" fill="#023181"/>
<path d="M19.1405 15.9738C17.8738 17.5071 18.8738 20.3071 20.6738 20.3071C23.6738 20.3071 25.0071 16.9738 22.5405 15.6405C20.8071 14.7071 20.1405 14.7738 19.1405 15.9738ZM22.4738 17.6405C22.4738 17.9738 22.1405 18.4405 21.7405 18.7071C20.8071 19.2405 19.5405 17.9738 20.0738 17.0405C20.5405 16.3071 22.4738 16.7738 22.4738 17.6405Z" fill="#023181"/>
<path d="M31.2737 15.7738C29.607 17.4405 30.8737 20.3071 33.2737 20.3071C33.8737 20.3071 34.7404 19.7071 35.1404 19.0405C36.007 17.3738 36.007 17.2405 34.7404 16.0405C33.4737 14.7738 32.3404 14.7071 31.2737 15.7738ZM33.807 17.6405C33.807 18.3738 33.5404 18.9738 33.207 18.9738C32.2737 18.9738 31.6737 17.7738 32.1404 16.9738C32.807 15.8405 33.807 16.2405 33.807 17.6405Z" fill="#023181"/>
<path d="M15.4741 30.7072C12.7408 31.3738 10.4741 32.5072 10.4741 33.1072C10.4741 33.5072 11.0075 33.5738 11.6741 33.3072C14.1408 32.3738 19.5408 31.6405 24.4075 31.6405C28.8741 31.6405 32.8741 32.4405 40.0075 34.7738C40.6075 34.9738 41.1408 34.8405 41.1408 34.4405C41.1408 34.0405 39.4075 33.0405 37.3408 32.2405C34.2075 31.0405 31.8741 30.7072 25.1408 30.5738C20.5408 30.4405 16.2075 30.5072 15.4741 30.7072Z" fill="#023181"/>
</svg>
