<svg width="48" height="46" viewBox="0 0 48 46" fill="none" xmlns="http://www.w3.org/2000/svg">
<path d="M18.1424 0.573399C8.04846 2.865 1.88296 9.41242 0.355229 19.3972C-0.736008 26.5449 0.628039 31.51 5.2658 37.3481C13.9411 48.2605 31.4009 48.5333 41.7131 37.8937C45.9144 33.5288 47.7149 27.9635 47.1693 20.925C46.2418 9.95804 36.5843 0.573399 25.6174 0.0277801C23.2167 -0.0813436 19.9975 0.136904 18.1424 0.573399ZM28.7274 1.17358C34.4564 1.93745 41.2766 7.4482 44.4412 13.8865C45.7507 16.56 45.969 17.815 46.1327 22.4527C46.4055 29.7094 45.1505 33.1468 40.7856 37.5118C31.7283 46.6236 18.4152 47.4966 8.81232 39.6943C0.628039 33.0923 -1.55444 22.3436 3.24701 12.4679C6.19335 6.3024 12.3588 2.15569 20.3249 0.90077C22.9984 0.518837 23.9805 0.518837 28.7274 1.17358Z" fill="#023181"/>
<path d="M16.0633 14.0691C14.1787 15.9537 16.4889 18.9935 18.6775 17.4128C20.0758 16.3185 19.6503 13.7043 18.0696 13.4611C17.4008 13.4003 16.4889 13.6435 16.0633 14.0691ZM18.5559 14.981C19.1031 15.5282 17.7656 17.0481 17.0969 16.6225C16.2457 16.1361 16.4281 14.5555 17.34 14.5555C17.8264 14.5555 18.3736 14.7378 18.5559 14.981Z" fill="#023181"/>
<path d="M26.8852 14.2513C25.3045 16.1359 27.6755 19.2365 29.5602 17.6558C30.7153 16.6831 30.8369 15.1024 29.8034 14.0689C28.8307 13.0962 27.7971 13.157 26.8852 14.2513ZM29.317 15.7712C29.317 16.4399 28.8914 16.9871 28.4051 16.9871C27.9187 16.9871 27.4932 16.4399 27.4932 15.7712C27.4932 15.1024 27.9187 14.5553 28.4051 14.5553C28.8914 14.5553 29.317 15.1024 29.317 15.7712Z" fill="#023181"/>
<path d="M9.67985 30.7877C9.19349 31.5173 18.252 32.186 29.1951 32.186C34.1195 32.186 37.2201 31.9429 37.2201 31.5781C37.2201 31.2133 33.0252 30.9701 25.8514 30.9701C19.5287 30.9701 13.4492 30.7877 12.2332 30.6054C11.0173 30.3622 9.86223 30.4838 9.67985 30.7877Z" fill="#023181"/>
</svg>
