<svg width="48" height="46" viewBox="0 0 48 46" fill="none" xmlns="http://www.w3.org/2000/svg">
<path d="M18.1424 0.600499C8.04846 2.8921 1.88296 9.43952 0.355229 19.4243C-0.736008 26.572 0.628039 31.5371 5.2658 37.3752C13.9411 48.2876 31.4009 48.5604 41.7131 37.9208C45.9144 33.5559 47.7149 27.9906 47.1693 20.9521C46.2418 9.98514 36.5843 0.600499 25.6174 0.0548798C23.2167 -0.054244 19.9975 0.164004 18.1424 0.600499ZM28.7274 1.20068C34.4564 1.96455 41.2766 7.4753 44.4412 13.9136C45.7507 16.5871 45.969 17.8421 46.1327 22.4798C46.4055 29.7365 45.1505 33.1739 40.7856 37.5389C31.7283 46.6507 18.4152 47.5237 8.81232 39.7214C0.628039 33.1194 -1.55444 22.3707 3.24701 12.495C6.19335 6.3295 12.3588 2.18279 20.3249 0.92787C22.9984 0.545937 23.9805 0.545937 28.7274 1.20068Z" fill="#FFB100"/>
<path d="M18.3056 16.9685C17.4326 17.4596 16.7778 18.2234 16.7778 18.6054C16.7778 19.0964 17.2143 18.9873 18.1964 18.2234C19.9424 16.8594 21.0337 16.8048 22.6705 17.9506C23.3253 18.3871 24.1982 18.7145 24.5802 18.5508C25.344 18.278 21.7975 15.9864 20.5972 15.9864C20.1607 15.9864 19.124 16.4229 18.3056 16.9685Z" fill="#FFB100"/>
<path d="M29.9274 17.1323C29.2181 17.7325 28.7816 18.3326 28.9998 18.5509C29.1635 18.7146 29.7637 18.4963 30.2548 18.0598C32.0007 16.5321 33.3648 16.423 34.7288 17.6779C36.2566 19.0965 36.9659 18.6054 35.6018 17.0777C34.3469 15.6591 31.6188 15.7137 29.9274 17.1323Z" fill="#FFB100"/>
<path d="M15.1411 30.0088C15.1411 30.9364 19.2878 34.4283 21.4703 35.3559C24.5258 36.6108 29.109 36.3925 32.3281 34.8102C35.2745 33.3916 38.3845 30.8818 37.8389 30.3362C37.6752 30.1179 36.8022 30.609 35.9838 31.3728C30.4184 36.6108 22.5615 36.5017 16.9417 31.1C15.9595 30.1725 15.1411 29.6814 15.1411 30.0088Z" fill="#FFB100"/>
</svg>
