<svg width="49" height="49" viewBox="0 0 49 49" fill="none" xmlns="http://www.w3.org/2000/svg">
<path d="M16.2245 1.46773C7.54916 3.32283 1.54735 10.1431 0.292429 19.4186C-0.907932 28.3122 1.60191 35.7872 7.54916 41.3525C15.2424 48.4455 25.2818 50.0824 34.1208 45.6083C37.9947 43.6986 44.0511 37.8059 45.797 34.2594C50.2711 25.3658 48.8525 16.0903 42.0323 8.88815C35.5394 1.95879 26.2093 -0.714746 16.2245 1.46773ZM30.738 2.66809C38.9768 4.90513 46.0153 12.5984 47.3793 20.7826C47.9795 24.7657 47.1611 29.949 45.306 33.6047C43.3963 37.424 37.4491 43.2621 33.6843 45.0081C24.6816 49.2639 15.2969 47.6816 7.98566 40.7523C5.9123 38.7335 4.11176 36.3328 2.96596 34.0412C1.38367 30.822 1.21998 29.8945 1.0563 24.602C0.838048 17.8363 1.71104 13.7987 4.27545 10.2522C6.13055 7.63322 10.2227 4.35951 13.1145 3.15915C17.7522 1.24948 24.8998 1.03123 30.738 2.66809Z" fill="#D10500"/>
<path d="M14.9655 14.1537C14.6619 14.8215 14.3584 15.4893 14.3584 15.6714C14.3584 16.1571 16.2404 17.8569 16.7868 17.8569C17.4546 17.8569 19.2152 16.0964 19.2152 15.4286C19.2152 14.5786 17.3939 13.0002 16.4832 13.0002C15.9976 13.0002 15.3298 13.5466 14.9655 14.1537ZM17.7581 14.8822C18.3652 15.9142 16.9689 17.0677 16.119 16.2178C15.3905 15.4893 15.8761 14.2144 16.7868 14.2144C17.0903 14.2144 17.5153 14.5179 17.7581 14.8822Z" fill="#D10500"/>
<path d="M25.3469 13.85C24.1934 15.2463 25.104 17.2498 26.8646 17.2498C28.5645 17.2498 29.4144 15.732 28.5038 14.275C27.6538 12.9394 26.2575 12.7573 25.3469 13.85ZM27.5931 15.2463C27.3503 16.582 26.2575 16.4605 26.0147 15.1856C25.8933 14.5785 26.1968 14.2143 26.8039 14.2143C27.411 14.2143 27.7145 14.6392 27.5931 15.2463Z" fill="#D10500"/>
<path d="M28.3216 29.9989C27.6538 30.6667 27.1074 31.7595 27.1074 32.4273C27.1074 35.4627 31.9035 37.2233 33.9676 34.9771C37.3066 31.2738 31.8428 26.4777 28.3216 29.9989ZM32.8141 30.3631C33.7855 30.7274 34.089 32.1844 33.4212 33.8843C32.9962 35.0378 30.0822 35.1592 29.0501 34.1271C26.8039 31.8809 29.5965 29.1489 32.8141 30.3631Z" fill="#D10500"/>
</svg>
