<svg width="48" height="48" viewBox="0 0 48 48" fill="none" xmlns="http://www.w3.org/2000/svg">
<path d="M20.8984 0.45018C14.351 1.43229 8.18549 4.81513 4.42072 9.61658C1.74719 12.9449 -0.0533552 17.4735 0.00120671 20.529L0.0557686 23.0934L0.546826 19.9833C1.69263 12.0173 8.40374 4.70601 16.9154 2.03247C21.1712 0.722989 29.3555 0.613866 33.0657 1.86879C37.9217 3.56021 42.8323 7.65235 45.0148 12.0173C46.7062 15.3456 47.5792 23.2025 46.8153 27.622C45.7241 33.4056 41.741 39.2437 36.394 42.8993C27.0093 49.2285 15.3877 47.5917 6.93057 38.7526C3.38404 35.0424 1.20157 31.114 0.546826 27.0764L0.0557686 24.1846L0.00120671 26.5853C-0.0533552 29.859 2.56562 35.097 6.33039 39.1891C10.4225 43.6632 16.7517 46.8278 22.2079 47.2643C26.9548 47.5917 30.8832 46.7187 35.1391 44.3725C43.9781 39.5165 48.6704 30.4592 47.6883 20.0925C47.1427 14.3089 45.6695 10.8169 42.1775 7.05217C38.7401 3.34196 34.7026 1.26861 29.0827 0.45018C24.936 -0.150001 24.8814 -0.150001 20.8984 0.45018Z" fill="#279348"/>
<path d="M13.8603 18.4556C14.024 18.7284 15.77 19.0012 17.7342 19.0012C19.9713 19.0012 21.1716 18.783 20.9534 18.4556C20.7897 18.1282 19.0437 17.91 17.0795 17.91C14.8424 17.91 13.6421 18.1282 13.8603 18.4556Z" fill="#279348"/>
<path d="M26.6821 18.4556C26.6821 18.783 28.1007 19.0012 29.9013 19.0012C31.7018 19.0012 33.3387 18.7284 33.5024 18.4556C33.7206 18.1282 32.5203 17.91 30.2832 17.91C28.2644 17.91 26.6821 18.1282 26.6821 18.4556Z" fill="#279348"/>
<path d="M11.0228 28.4403C11.7867 36.079 16.4244 41.3715 23.1356 42.299C26.4093 42.7355 30.9925 40.4985 33.2841 37.3885C34.9209 35.1514 37.4308 27.9493 36.8306 27.3491C36.6669 27.1854 34.9755 27.3491 33.1204 27.7856C26.3001 29.3133 18.3887 28.5494 11.7321 25.8214C10.75 25.3849 10.6954 25.5485 11.0228 28.4403ZM15.606 28.2766C20.4075 29.7498 26.1365 30.1317 31.2107 29.2042L35.412 28.4949V29.8044C35.412 31.3867 33.0658 36.2427 31.429 38.0432C29.9558 39.6255 26.3547 41.3715 24.4996 41.3715C19.5345 41.3715 14.3511 37.2794 12.8234 32.1505C12.0595 29.5316 11.6776 27.1854 12.1141 27.1854C12.1686 27.1854 13.7509 27.6765 15.606 28.2766Z" fill="#279348"/>
</svg>
