<svg width="48" height="46" viewBox="0 0 48 46" fill="none" xmlns="http://www.w3.org/2000/svg">
<path d="M19.3149 0.408746C8.62078 2.31841 2.23704 8.81128 0.436495 19.5054C0.163686 21.1423 0 23.2156 0 24.1432C0.0545619 25.0162 0.381933 23.8158 0.763866 21.4151C2.45528 10.6664 6.82024 5.10107 15.8229 1.99104C18.3328 1.17261 20.7335 0.790679 24.2255 0.736118C28.9178 0.681556 29.4089 0.790679 33.2827 2.70035C39.8302 5.9195 44.3042 11.4302 46.1048 18.4142C47.5234 24.034 46.4867 30.6906 43.4313 35.2192C41.9035 37.4563 37.1566 41.2756 33.2282 43.2944C30.4455 44.7676 29.7908 44.8767 23.9527 44.8767C18.06 44.8767 17.4598 44.7676 14.077 43.1853C7.80235 40.1844 2.94634 34.7282 1.36405 28.6718C0.709304 26.3802 0.545619 26.1074 0.545619 27.4169C0.436495 31.2362 5.51075 38.8203 10.2031 41.8212C14.8408 44.7676 18.6056 45.8042 24.4983 45.7497C29.4089 45.6951 29.9545 45.586 34.1012 43.5672C44.086 38.6021 48.6146 30.4178 47.0323 20.1056C46.2139 14.7585 44.1951 10.7209 40.4849 7.01073C34.7014 1.28174 27.3355 -1.00986 19.3149 0.408746Z" fill="#D10500"/>
<path d="M15.0698 11.7096C15.0698 12.1442 16.0356 12.6754 19.3194 14.0275C21.927 15.1865 21.0578 14.0275 18.2087 12.6271C15.263 11.1784 15.0698 11.1301 15.0698 11.7096Z" fill="#D10500"/>
<path d="M29.0742 13.0135C27.8186 13.6895 27.2874 14.1724 27.7703 14.2207C28.6396 14.2207 32.4545 12.4823 32.4545 12.0477C32.4545 11.5165 31.1506 11.9028 29.0742 13.0135Z" fill="#D10500"/>
<path d="M18.5467 15.766C17.1946 17.1182 18.4984 19.3878 20.3817 18.8083C21.0578 18.6151 21.3475 18.084 21.3475 17.1182C21.3475 15.3797 19.754 14.5588 18.5467 15.766ZM20.3817 17.1182C20.3817 17.6493 20.1886 18.084 19.9471 18.084C19.2711 18.084 18.8364 17.2147 19.1745 16.6352C19.6574 15.8143 20.3817 16.1041 20.3817 17.1182Z" fill="#D10500"/>
<path d="M26.9009 15.9593C25.9834 16.8768 26.1283 18.0357 27.1907 18.7118C28.9774 19.8225 30.5227 17.3114 28.9774 15.7661C28.2048 14.9935 27.8667 15.0418 26.9009 15.9593ZM28.5911 17.408C28.5911 17.7943 28.2531 18.084 27.8667 18.084C27.1424 18.084 26.8527 17.0699 27.4321 16.4905C27.915 16.0559 28.5911 16.587 28.5911 17.408Z" fill="#D10500"/>
<path d="M22.5547 23.6373C22.3133 23.7338 21.4924 23.927 20.7197 24.0719C17.7257 24.7479 13.1382 30.6876 13.1382 33.9713C13.1382 34.9371 13.3313 35.0337 14.2971 34.7923C20.3817 33.2953 26.9974 33.5367 31.4401 35.5166C34.3375 36.7722 34.5307 36.7239 34.1927 34.744C33.42 30.6876 30.5709 26.3415 27.7701 24.8928C25.8385 23.9753 23.3757 23.3475 22.5547 23.6373ZM26.0799 25.1343C29.2188 26.4381 31.8264 29.6735 32.9854 33.6816C33.3717 34.9854 33.3234 35.082 32.3093 34.744C28.0598 33.3919 25.9351 33.0538 22.0718 33.0538C19.7056 33.0538 16.9048 33.247 15.939 33.4884C13.8142 33.9713 13.7177 33.7299 15.0215 30.8325C16.6634 27.2107 20.092 24.5548 23.424 24.4099C23.9069 24.3616 25.0658 24.6996 26.0799 25.1343Z" fill="#D10500"/>
</svg>
