<svg width="49" height="47" viewBox="0 0 49 47" fill="none" xmlns="http://www.w3.org/2000/svg">
<path d="M17.0201 0.899352C8.45388 4.06394 1.63365 12.521 1.25171 20.5962L1.08803 24.1427L1.63365 20.5962C3.707 6.57379 18.2205 -2.81086 31.0425 1.49953C35.1346 2.86358 37.0443 4.06394 40.2089 7.06485C47.9021 14.3761 50.0846 24.1427 45.8833 32.4361C43.5372 37.0193 38.8994 41.548 34.3708 43.7304C30.9879 45.3127 30.3878 45.4219 24.7679 45.4219C19.2026 45.4219 18.4933 45.3127 15.2196 43.7304C8.2902 40.4567 1.57908 32.3816 1.57908 27.3619C1.57908 26.3798 1.30628 25.3976 0.978904 25.1794C-0.112334 24.5246 0.978904 29.3807 2.72488 32.9817C5.72579 39.2564 13.6373 44.9854 21.1668 46.2948C31.2062 48.0954 41.6821 42.3118 46.6472 32.327C48.5023 28.6168 48.666 27.8529 48.666 23.7608C48.6114 14.7581 43.2098 6.51923 34.3708 2.15428C30.7151 0.353734 29.8967 0.135486 25.0953 0.0263623C21.0031 -0.0827615 19.2026 0.135486 17.0201 0.899352Z" fill="#D10500"/>
<path d="M19.8161 16.2657C19.3084 16.717 18.9136 17.3375 18.9136 17.6196C18.9136 18.3529 20.6059 19.876 21.3956 19.876C22.2982 19.876 23.4264 18.7478 23.4264 17.8452C23.4264 17.0555 21.9033 15.3632 21.17 15.3632C20.8879 15.3632 20.2674 15.758 19.8161 16.2657ZM22.0725 17.1119C22.6366 18.0708 21.3392 19.1426 20.5495 18.3529C19.8725 17.676 20.3238 16.4914 21.17 16.4914C21.452 16.4914 21.8469 16.7734 22.0725 17.1119Z" fill="#D10500"/>
<path d="M29.7446 16.0401C28.0523 17.7324 29.7446 20.4401 31.8318 19.3119C33.6369 18.3529 33.0164 15.3632 31.0421 15.3632C30.7036 15.3632 30.1395 15.6452 29.7446 16.0401ZM31.6062 17.5068C31.6062 18.5221 30.478 18.3529 30.3087 17.2811C30.1395 16.717 30.3651 16.435 30.8728 16.6042C31.2677 16.7734 31.6062 17.1683 31.6062 17.5068Z" fill="#D10500"/>
<path d="M12.9907 29.8608C12.0881 30.3685 11.5804 30.8762 11.9753 30.989C12.3702 31.1018 13.1599 30.989 13.7804 30.6505C15.642 29.6351 18.1804 29.9736 20.3804 31.4403C23.5394 33.5838 26.5291 33.5274 31.4932 31.3838C34.6522 29.9736 36.4573 29.8608 38.8265 30.8762C40.3496 31.5531 39.9548 30.2556 38.3753 29.5787C36.2317 28.5633 34.765 28.7326 31.324 30.3685C27.0932 32.3992 23.7086 32.3992 20.6625 30.4249C18.0676 28.6762 15.5291 28.5069 12.9907 29.8608Z" fill="#D10500"/>
</svg>
