<svg width="48" height="47" viewBox="0 0 48 47" fill="none" xmlns="http://www.w3.org/2000/svg">
<path d="M18.1424 1.5546C8.04846 3.8462 1.88296 10.3936 0.355229 20.3784C-0.736008 27.5261 0.628039 32.4912 5.2658 38.3293C13.9411 49.2417 31.4009 49.5145 41.7131 38.8749C45.9144 34.51 47.7149 28.9447 47.1693 21.9062C46.2418 10.9392 36.5843 1.5546 25.6174 1.00898C23.2167 0.899858 19.9975 1.11811 18.1424 1.5546ZM28.7274 2.15478C34.4564 2.91865 41.2766 8.4294 44.4412 14.8677C45.7507 17.5412 45.969 18.7962 46.1327 23.4339C46.4055 30.6906 45.1505 34.128 40.7856 38.493C31.7283 47.6048 18.4152 48.4778 8.81232 40.6755C0.628039 34.0735 -1.55444 23.3248 3.24701 13.4491C6.19335 7.2836 12.3588 3.13689 20.3249 1.88197C22.9984 1.50004 23.9805 1.50004 28.7274 2.15478Z" fill="#FFB100"/>
<path d="M14.0503 17.1592C14.0503 17.4866 15.578 17.7048 17.5968 17.7048C19.6156 17.7048 21.1433 17.4866 21.1433 17.1592C21.1433 16.8318 19.6156 16.6136 17.5968 16.6136C15.578 16.6136 14.0503 16.8318 14.0503 17.1592Z" fill="#FFB100"/>
<path d="M26.5996 17.1592C26.5996 17.4866 28.0182 17.7048 29.8188 17.7048C31.6193 17.7048 33.2562 17.432 33.4198 17.1592C33.6381 16.8318 32.4377 16.6136 30.2007 16.6136C28.1819 16.6136 26.5996 16.8318 26.5996 17.1592Z" fill="#FFB100"/>
<path d="M28.4546 30.0904C26.4904 32.2183 25.9994 32.4366 23.7078 32.4366C21.5253 32.4366 20.8705 32.1638 18.9063 30.2541C17.6514 29.0538 16.451 28.2353 16.2873 28.399C16.1237 28.5627 17.1058 29.7631 18.5244 31.1271C20.7614 33.255 21.3616 33.5278 23.5986 33.5278C25.8357 33.5278 26.4358 33.255 28.6183 31.1817C29.9824 29.8722 31.019 28.5627 30.9099 28.2899C30.8008 27.9625 29.7096 28.7809 28.4546 30.0904Z" fill="#FFB100"/>
</svg>
