<svg width="48" height="46" viewBox="0 0 48 46" fill="none" xmlns="http://www.w3.org/2000/svg">
<path d="M18.1424 0.619297C8.04846 2.9109 1.88296 9.45832 0.355229 19.4431C-0.736008 26.5908 0.628039 31.5559 5.2658 37.394C13.9411 48.3064 31.4009 48.5792 41.7131 37.9396C45.9144 33.5747 47.7149 28.0094 47.1693 20.9709C46.2418 10.0039 36.5843 0.619297 25.6174 0.0736786C23.2167 -0.0354452 19.9975 0.182802 18.1424 0.619297ZM28.7274 1.21948C34.4564 1.98334 41.2766 7.49409 44.4412 13.9324C45.7507 16.6059 45.969 17.8609 46.1327 22.4986C46.4055 29.7553 45.1505 33.1927 40.7856 37.5577C31.7283 46.6695 18.4152 47.5425 8.81232 39.7402C0.628039 33.1382 -1.55444 22.3895 3.24701 12.5138C6.19335 6.3483 12.3588 2.20159 20.3249 0.946669C22.9984 0.564736 23.9805 0.564736 28.7274 1.21948Z" fill="#023181"/>
<path d="M17.4535 13.6913C17.1108 14.1483 16.8823 15.1195 16.9965 15.8621C17.1108 16.8904 17.5107 17.176 18.8817 17.176C20.2528 17.176 20.6527 16.8904 20.7669 15.8621C20.9954 14.4339 20.0243 12.8915 18.8817 12.8915C18.4818 12.8915 17.8534 13.2914 17.4535 13.6913ZM19.5101 16.0906C19.2245 16.8333 18.9388 16.8904 18.4818 16.4334C18.1391 16.0906 18.0248 15.4051 18.2533 14.8338C18.5389 14.0912 18.8246 14.034 19.2816 14.4911C19.6244 14.8338 19.7386 15.5193 19.5101 16.0906Z" fill="#023181"/>
<path d="M27.8502 13.5772C26.9933 14.4341 26.9361 16.7192 27.7931 17.1762C28.0787 17.4047 28.9927 17.4047 29.7925 17.2333C30.8208 16.9477 31.1635 16.4907 31.1635 15.2339C31.1635 13.1202 29.2784 12.149 27.8502 13.5772ZM30.021 15.1767C30.021 15.8051 29.6211 16.3193 29.1641 16.3193C28.3072 16.3193 27.9644 15.1196 28.7071 14.4341C29.3926 13.6914 30.021 14.0342 30.021 15.1767Z" fill="#023181"/>
<path d="M19.5669 25.5166C16.3678 26.2592 14.4255 27.4589 12.3689 29.8011C9.85534 32.6575 10.598 32.9431 13.283 30.1439C16.3107 27.0019 20.7095 25.688 25.5653 26.5449C29.1643 27.1733 32.9347 29.0585 34.8199 31.115C36.1338 32.6004 38.019 32.886 36.8193 31.4007C35.6197 29.9154 31.3351 27.1733 29.05 26.3735C25.908 25.2881 22.0234 24.9453 19.5669 25.5166Z" fill="#023181"/>
</svg>
