<svg width="48" height="48" viewBox="0 0 48 48" fill="none" xmlns="http://www.w3.org/2000/svg">
<path d="M20.8984 0.45018C14.351 1.43229 8.18549 4.81513 4.42072 9.61658C1.74719 12.9449 -0.0533552 17.4735 0.00120671 20.529L0.0557686 23.0934L0.546826 19.9833C1.69263 12.0173 8.40374 4.70601 16.9154 2.03247C21.1712 0.722989 29.3555 0.613866 33.0657 1.86879C37.9217 3.56021 42.8323 7.65235 45.0148 12.0173C46.7062 15.3456 47.5792 23.2025 46.8153 27.622C45.7241 33.4056 41.741 39.2437 36.394 42.8993C27.0093 49.2285 15.3877 47.5917 6.93057 38.7526C3.38404 35.0424 1.20157 31.114 0.546826 27.0764L0.0557686 24.1846L0.00120671 26.5853C-0.0533552 29.859 2.56562 35.097 6.33039 39.1891C10.4225 43.6632 16.7517 46.8278 22.2079 47.2643C26.9548 47.5917 30.8832 46.7187 35.1391 44.3725C43.9781 39.5165 48.6704 30.4592 47.6883 20.0925C47.1427 14.3089 45.6695 10.8169 42.1775 7.05217C38.7401 3.34196 34.7026 1.26861 29.0827 0.45018C24.936 -0.150001 24.8814 -0.150001 20.8984 0.45018Z" fill="#D10500"/>
<path d="M15.1826 11.6184C15.1826 12.0337 20.9442 14.5771 21.2556 14.2656C21.4113 14.1099 20.3213 13.3832 18.8679 12.6566C16.3245 11.3589 15.1826 10.9956 15.1826 11.6184Z" fill="#D10500"/>
<path d="M30.2874 12.7606C28.9898 13.4873 28.2112 14.1621 28.5226 14.2659C29.1974 14.5254 33.1422 12.6049 33.6094 11.8263C34.1804 10.9439 32.6751 11.3591 30.2874 12.7606Z" fill="#D10500"/>
<path d="M18.7122 19.1451C16.9993 20.1313 17.9336 22.7266 19.958 22.7266C20.7366 22.7266 21.9304 21.3251 21.9304 20.4427C21.9304 20.0794 20.3213 18.5741 19.958 18.5741C19.7503 18.5741 19.1794 18.8336 18.7122 19.1451ZM20.5808 20.3908C20.7366 20.8579 20.5289 21.3251 20.0618 21.5327C19.0756 21.8961 18.6084 21.4289 18.9718 20.3908C19.387 19.4046 20.1656 19.4046 20.5808 20.3908Z" fill="#D10500"/>
<path d="M27.64 19.3005C27.3286 19.7158 27.1209 20.5982 27.2248 21.273C27.3286 22.2073 27.6919 22.4668 28.9377 22.4668C30.1834 22.4668 30.5467 22.2073 30.6506 21.2211C30.8063 20.4425 30.4948 19.6639 29.9239 19.2486C28.73 18.3662 28.4186 18.4181 27.64 19.3005ZM29.7162 20.9096C29.7162 21.3249 29.3529 21.6882 28.9377 21.6882C28.5224 21.6882 28.1591 21.3249 28.1591 20.9096C28.1591 20.4944 28.5224 20.131 28.9377 20.131C29.3529 20.131 29.7162 20.4944 29.7162 20.9096Z" fill="#D10500"/>
<path d="M21.7747 30.0452C18.1932 30.8757 11.8088 35.0282 12.6912 35.9625C12.8988 36.1701 14.0407 35.4953 15.2346 34.4572C21.1518 29.4223 29.1454 29.2147 33.765 33.9381C35.0107 35.2877 35.945 35.9106 35.945 35.4953C35.945 34.1458 32.5192 31.1871 29.9239 30.3047C27.2248 29.4223 24.8372 29.3185 21.7747 30.0452Z" fill="#D10500"/>
</svg>
