<svg width="49" height="46" viewBox="0 0 49 46" fill="none" xmlns="http://www.w3.org/2000/svg">
<path d="M20.1767 0.408746C9.48259 2.31841 3.09885 8.81128 1.29831 19.5054C1.0255 21.1423 0.861816 23.2156 0.861816 24.1432C0.916378 25.0162 1.24375 23.8158 1.62568 21.4151C3.3171 10.6664 7.68205 5.10107 16.6848 1.99104C19.1946 1.17261 21.5953 0.790679 25.0873 0.736118C29.7796 0.681556 30.2707 0.790679 34.1446 2.70035C40.692 5.9195 45.1661 11.4302 46.9666 18.4142C48.3852 24.034 47.3485 30.6906 44.2931 35.2192C42.7653 37.4563 38.0185 41.2756 34.09 43.2944C31.3073 44.7676 30.6526 44.8767 24.8145 44.8767C18.9218 44.8767 18.3216 44.7676 14.9388 43.1853C8.66417 40.1844 3.80816 34.7282 2.22586 28.6718C1.57112 26.3802 1.40744 26.1074 1.40744 27.4169C1.29831 31.2362 6.37257 38.8203 11.0649 41.8212C15.7026 44.7676 19.4674 45.8042 25.3601 45.7497C30.2707 45.6951 30.8163 45.586 34.963 43.5672C44.9478 38.6021 49.4765 30.4178 47.8942 20.1056C47.0757 14.7585 45.0569 10.7209 41.3467 7.01073C35.5632 1.28174 28.1973 -1.00986 20.1767 0.408746Z" fill="#FFB100"/>
<path d="M18.6491 14.9222C17.8307 15.7406 18.2672 17.814 19.3584 18.1413C20.8316 18.5778 22.1956 17.4866 21.9774 16.0134C21.8137 14.8676 19.4676 14.1038 18.6491 14.9222ZM20.8316 15.9589C21.2135 17.0501 20.7225 17.5412 19.6858 17.1592C19.1947 16.941 18.9765 16.4499 19.1402 15.9589C19.5767 14.9222 20.3951 14.9222 20.8316 15.9589Z" fill="#FFB100"/>
<path d="M27.5426 15.6313C27.1607 16.4498 27.2698 16.9954 28.0337 17.9229L29.0158 19.1233L30.2161 17.9229C31.1437 16.9954 31.2528 16.5589 30.8163 15.6859C30.0525 14.3218 28.3065 14.2673 27.5426 15.6313ZM29.9979 16.1769C30.3798 16.8317 29.3432 17.4864 28.6338 17.0499C28.0337 16.668 28.4156 15.6859 29.1795 15.6859C29.4523 15.6859 29.7796 15.9041 29.9979 16.1769Z" fill="#FFB100"/>
<path d="M14.175 26.7075C14.7752 28.6717 17.1759 32.7093 18.7582 34.4007C20.7225 36.5832 22.7413 37.5107 25.4148 37.5107C27.5427 37.5107 28.0338 37.2379 30.6527 34.5098C32.235 32.873 33.5445 31.1816 33.5445 30.7451C33.5445 30.254 30.8164 29.3265 24.5418 27.7442C13.9568 25.1252 13.684 25.0706 14.175 26.7075ZM24.4327 28.8354C28.5248 29.8175 31.9077 30.8542 31.9077 31.1816C31.9077 32.2728 29.125 35.2191 27.2699 36.0921C24.6509 37.3471 22.3048 36.5832 19.4675 33.4732C16.3575 30.0903 14.3933 26.0527 16.2484 26.7075C16.5758 26.8712 20.286 27.7987 24.4327 28.8354Z" fill="#FFB100"/>
</svg>
