<svg width="49" height="47" viewBox="0 0 49 47" fill="none" xmlns="http://www.w3.org/2000/svg">
<path d="M16.4781 0.899352C7.91189 4.06394 1.09165 12.521 0.709721 20.5962L0.546035 24.1427L1.09165 20.5962C3.16501 6.57379 17.6785 -2.81086 30.5005 1.49953C34.5927 2.86358 36.5023 4.06394 39.6669 7.06485C47.3601 14.3761 49.5426 24.1427 45.3413 32.4361C42.9952 37.0193 38.3574 41.548 33.8288 43.7304C30.4459 45.3127 29.8458 45.4219 24.2259 45.4219C18.6606 45.4219 17.9513 45.3127 14.6776 43.7304C7.7482 40.4567 1.03709 32.3816 1.03709 27.3619C1.03709 26.3798 0.764283 25.3976 0.436912 25.1794C-0.654326 24.5246 0.436912 29.3807 2.18289 32.9817C5.1838 39.2564 13.0953 44.9854 20.6248 46.2948C30.6642 48.0954 41.1401 42.3118 46.1052 32.327C47.9603 28.6168 48.124 27.8529 48.124 23.7608C48.0694 14.7581 42.6678 6.51923 33.8288 2.15428C30.1731 0.353734 29.3547 0.135486 24.5533 0.0263623C20.4611 -0.0827615 18.6606 0.135486 16.4781 0.899352Z" fill="#FFB100"/>
<path d="M18.0057 15.9038C17.6238 16.3403 17.4601 17.2133 17.6783 17.8135C18.4422 20.2688 21.9887 19.4504 21.6613 16.886C21.5522 15.7402 21.1703 15.3582 20.079 15.2491C19.3152 15.14 18.3876 15.4673 18.0057 15.9038ZM20.6792 16.9951C20.6792 17.4316 20.461 17.9226 20.2427 18.0863C19.5334 18.5228 18.3331 17.4861 18.715 16.8314C19.2606 15.9584 20.6792 16.0675 20.6792 16.9951Z" fill="#FFB100"/>
<path d="M27.9907 15.9039C27.3359 17.5953 27.9907 19.2322 29.3547 19.2322C31.0461 19.2322 32.0828 17.7044 31.2644 16.3404C30.5005 15.14 28.4272 14.8127 27.9907 15.9039ZM30.3914 17.4862C30.5005 18.0318 30.2277 18.4137 29.7367 18.4137C29.191 18.4137 28.8637 17.9227 28.8637 17.2679C28.8637 15.9585 30.1186 16.1222 30.3914 17.4862Z" fill="#FFB100"/>
<path d="M12.331 26.9254C11.8399 27.7438 13.8041 31.6177 15.5501 33.2546C17.8417 35.3825 21.2791 36.4192 26.026 36.4192C30.882 36.4192 34.1557 35.1097 36.2291 32.3816C37.7023 30.4719 38.7935 26.6526 37.7023 27.3619C37.3203 27.5802 37.0475 28.2349 37.0475 28.8351C37.0475 29.4353 35.9563 30.963 34.6468 32.2725C31.1003 35.819 26.5171 36.5829 20.1333 34.6732C17.0779 33.7457 15.1682 32.0542 13.8587 29.1625C13.204 27.6347 12.5492 26.6526 12.331 26.9254Z" fill="#FFB100"/>
</svg>
