<svg width="70" height="50" viewBox="0 0 70 50" fill="none" xmlns="http://www.w3.org/2000/svg">
<path d="M8.18457 1.04886C8.18457 1.81273 13.5862 6.83242 14.0227 6.45049C14.2409 6.23224 13.2043 4.81363 11.7311 3.34046C9.16668 0.721491 8.18457 0.12131 8.18457 1.04886Z" fill="#279348"/>
<path d="M59.8544 3.23141C58.4358 4.70458 57.4537 6.01407 57.672 6.23231C58.0539 6.66881 63.2918 1.8128 63.2918 1.04893C63.2918 0.121382 62.3097 0.721562 59.8544 3.23141Z" fill="#279348"/>
<path d="M27.2807 2.46748C18.6053 4.32259 12.6035 11.1428 11.3486 20.4183C10.1482 29.3119 12.6581 36.7869 18.6053 42.3522C26.2985 49.4453 36.3379 51.0821 45.177 46.6081C49.0508 44.6984 55.1072 38.8057 56.8532 35.2592C61.3273 26.3656 59.9087 17.0901 53.0884 9.8879C46.5956 2.95854 37.2655 0.285009 27.2807 2.46748ZM41.7941 3.66785C50.033 5.90488 57.0714 13.5981 58.4355 21.7824C59.0357 25.7654 58.2172 30.9488 56.3621 34.6044C54.4525 38.4238 48.5052 44.2619 44.7405 46.0079C35.7377 50.2637 26.3531 48.6814 19.0418 41.752C16.9685 39.7333 15.1679 37.3325 14.0221 35.0409C12.4398 31.8218 12.2761 30.8942 12.1124 25.6017C11.8942 18.8361 12.7672 14.7985 15.3316 11.2519C17.1867 8.63298 21.2788 5.35926 24.1706 4.1589C28.8084 2.24924 35.956 2.03099 41.7941 3.66785Z" fill="#279348"/>
<path d="M28.9178 18.8906C27.6629 20.4184 29.4089 22.8191 31.3731 22.1098C33.3373 21.3459 32.6826 18.0722 30.5547 18.0722C30.009 18.0722 29.2997 18.4542 28.9178 18.8906ZM31.6459 19.9273C31.6459 21.0186 30.6092 21.6187 29.8999 20.9094C29.5725 20.5821 29.518 20.091 29.6817 19.7636C30.2273 18.8906 31.6459 19.0543 31.6459 19.9273Z" fill="#279348"/>
<path d="M38.7936 18.8363C37.6478 20.2003 38.248 22.1646 39.7757 22.1646C41.4671 22.1646 42.5038 20.6368 41.6854 19.2728C40.867 18.0178 39.612 17.8542 38.7936 18.8363ZM40.9215 20.2549C40.9215 20.8551 40.5396 21.3461 40.1031 21.3461C39.6666 21.3461 39.2847 20.8551 39.2847 20.2549C39.2847 19.6547 39.6666 19.1636 40.1031 19.1636C40.5396 19.1636 40.9215 19.6547 40.9215 20.2549Z" fill="#279348"/>
<path d="M43.1041 28.821C38.3027 30.4579 31.8098 30.7307 26.0262 29.5849C24.0074 29.203 22.2069 28.9847 22.0432 29.1484C21.8795 29.3121 22.0432 30.4579 22.3706 31.7674C24.4439 39.5152 28.918 43.8801 34.647 43.8801C39.8304 43.8801 44.0862 40.9883 46.2141 36.0778C47.6327 33.0223 48.5603 27.2933 47.6873 27.4024C47.4145 27.457 45.3411 28.0572 43.1041 28.821ZM46.9234 30.0214C46.9234 32.313 44.9592 36.8416 42.995 39.0787C40.1578 42.2978 36.5021 43.5528 32.8465 42.6252C31.4279 42.2978 29.5182 41.4248 28.5361 40.661C26.681 39.2424 23.4618 33.4042 23.4618 31.3855C23.4618 30.2397 23.6255 30.1305 25.2624 30.5125C28.6452 31.2763 41.0308 30.8944 43.3769 29.9668C46.3233 28.821 46.9234 28.821 46.9234 30.0214Z" fill="#279348"/>
<path d="M2.18262 9.72423C2.18262 10.2698 9.2211 12.8343 9.6576 12.3978C9.98497 12.0704 5.7837 10.1062 3.4921 9.56054C2.7828 9.39686 2.18262 9.45142 2.18262 9.72423Z" fill="#279348"/>
<path d="M64.0011 11.743C60.8365 13.0525 59.9635 13.7073 61.2184 13.7073C62.5825 13.7073 68.2023 11.4157 68.2023 10.9246C68.2023 10.2153 67.1111 10.379 64.0011 11.743Z" fill="#279348"/>
<path d="M0 19.6546C0 20.1456 7.14761 20.8549 7.63866 20.4184C7.74779 20.3093 7.52954 19.9819 7.09304 19.7091C6.05637 19.0544 0 18.9998 0 19.6546Z" fill="#279348"/>
<path d="M63.0193 20.2003C62.0917 20.4185 61.6552 20.6913 61.9826 20.9096C62.801 21.4552 69.8395 20.7459 69.8395 20.2003C69.8395 19.6547 65.4746 19.6547 63.0193 20.2003Z" fill="#279348"/>
</svg>
