<svg width="50" height="49" viewBox="0 0 50 49" fill="none" xmlns="http://www.w3.org/2000/svg">
<path d="M16.5217 1.7462C10.5199 3.6013 6.48236 7.36608 3.20865 14.2409C0.644238 19.5879 -0.0650668 23.4618 0.589676 27.9359C2.77215 41.5764 16.7946 51.1793 29.1801 47.5782C36.0549 45.614 43.639 40.5397 46.3671 36.0656C49.2043 31.5916 49.8591 23.7346 48.004 17.7874C44.7848 7.36607 35.4547 0.87321 23.7785 0.982334C21.0504 0.982334 17.7767 1.30971 16.5217 1.7462ZM29.562 2.07357C36.7096 3.6013 43.4208 8.94837 46.5308 15.4958C48.1131 18.8786 48.2222 19.6971 48.2768 24.6622C48.2768 29.791 48.1676 30.3912 46.4762 33.8286C44.2937 38.1935 40.7472 41.5218 35.2365 44.3045C29.4529 47.1963 24.7606 48.1784 20.5593 47.4145C12.9207 45.9959 6.48236 40.9762 3.04496 33.6649C1.51723 30.4458 1.35354 29.6273 1.35354 24.6076C1.35354 19.3697 1.46267 18.9878 3.42689 15.0047C8.82852 3.98324 17.7767 -0.436277 29.562 2.07357Z" fill="#023181"/>
<path d="M13.6245 15.0222C13.6245 15.3333 20.7801 19.0667 21.4023 19.0667C21.589 19.0667 21.7134 18.7555 21.7134 18.3822C21.7134 18.0711 20.1578 17.0755 18.2912 16.2044C14.9312 14.7733 13.6245 14.4 13.6245 15.0222Z" fill="#023181"/>
<path d="M32.7886 16.3288C29.6153 17.9465 28.6198 19.5021 31.3575 18.4443C34.282 17.3243 36.6464 15.9554 36.6464 15.3332C36.6464 14.4621 36.0864 14.5865 32.7886 16.3288Z" fill="#023181"/>
<path d="M17.6686 31.9467C14.9308 32.5067 11.1353 34.1245 11.1353 34.7467C11.1353 35.1201 11.5708 35.1823 12.2553 34.9334C14.6197 33.8756 19.5975 32.7556 21.713 32.7556C22.8953 32.7556 25.9441 33.3156 28.433 34.0001C33.1619 35.3067 39.1353 35.6801 39.1353 34.6223C39.1353 34.2489 37.8908 34.0001 36.3975 34.0001C34.8419 34.0001 31.2953 33.4401 28.433 32.7556C23.5175 31.5734 20.4064 31.3245 17.6686 31.9467Z" fill="#023181"/>
</svg>
