<svg width="120" height="24" viewBox="0 0 120 24" fill="none" xmlns="http://www.w3.org/2000/svg">
<path d="M36.5329 17.18C35.8449 17.18 35.2389 17.04 34.7149 16.76C34.1949 16.48 33.7869 16.086 33.4909 15.578C33.1989 15.07 33.0529 14.474 33.0529 13.79L33.0529 8.372L34.5169 8.36L34.5169 13.754C34.5169 14.078 34.5709 14.368 34.6789 14.624C34.7909 14.88 34.9409 15.098 35.1289 15.278C35.3169 15.454 35.5329 15.588 35.7769 15.68C36.0209 15.772 36.2729 15.818 36.5329 15.818C36.8009 15.818 37.0549 15.772 37.2949 15.68C37.5389 15.584 37.7549 15.448 37.9429 15.272C38.1309 15.092 38.2789 14.874 38.3869 14.618C38.4949 14.362 38.5489 14.074 38.5489 13.754L38.5489 8.36L40.0129 8.36L40.0129 13.79C40.0129 14.474 39.8649 15.07 39.5689 15.578C39.2769 16.086 38.8689 16.48 38.3449 16.76C37.8249 17.04 37.2209 17.18 36.5329 17.18ZM46.1716 17L46.1716 13.88C46.1716 13.676 46.1576 13.45 46.1296 13.202C46.1016 12.954 46.0356 12.716 45.9316 12.488C45.8316 12.256 45.6796 12.066 45.4756 11.918C45.2756 11.77 45.0036 11.696 44.6596 11.696C44.4756 11.696 44.2936 11.726 44.1136 11.786C43.9336 11.846 43.7696 11.95 43.6216 12.098C43.4776 12.242 43.3616 12.442 43.2736 12.698C43.1856 12.95 43.1416 13.274 43.1416 13.67L42.2836 13.304C42.2836 12.752 42.3896 12.252 42.6016 11.804C42.8176 11.356 43.1336 11 43.5496 10.736C43.9656 10.468 44.4776 10.334 45.0856 10.334C45.5656 10.334 45.9616 10.414 46.2736 10.574C46.5856 10.734 46.8336 10.938 47.0176 11.186C47.2016 11.434 47.3376 11.698 47.4256 11.978C47.5136 12.258 47.5696 12.524 47.5936 12.776C47.6216 13.024 47.6356 13.226 47.6356 13.382L47.6356 17L46.1716 17ZM41.6776 17L41.6776 10.52L42.9676 10.52L42.9676 12.53L43.1416 12.53L43.1416 17L41.6776 17ZM51.9099 17.18C51.2419 17.18 50.6719 17.032 50.1999 16.736C49.7279 16.436 49.3659 16.028 49.1139 15.512C48.8659 14.996 48.7399 14.412 48.7359 13.76C48.7399 13.096 48.8699 12.508 49.1259 11.996C49.3859 11.48 49.7539 11.076 50.2299 10.784C50.7059 10.488 51.2719 10.34 51.9279 10.34C52.6639 10.34 53.2859 10.526 53.7939 10.898C54.3059 11.266 54.6399 11.77 54.7959 12.41L53.3559 12.8C53.2439 12.452 53.0579 12.182 52.7979 11.99C52.5379 11.794 52.2419 11.696 51.9099 11.696C51.5339 11.696 51.2239 11.786 50.9799 11.966C50.7359 12.142 50.5559 12.386 50.4399 12.698C50.3239 13.01 50.2659 13.364 50.2659 13.76C50.2659 14.376 50.4039 14.874 50.6799 15.254C50.9559 15.634 51.3659 15.824 51.9099 15.824C52.2939 15.824 52.5959 15.736 52.8159 15.56C53.0399 15.384 53.2079 15.13 53.3199 14.798L54.7959 15.128C54.5959 15.788 54.2459 16.296 53.7459 16.652C53.2459 17.004 52.6339 17.18 51.9099 17.18ZM58.6844 17.18C58.0364 17.18 57.4704 17.034 56.9864 16.742C56.5024 16.45 56.1264 16.048 55.8584 15.536C55.5944 15.02 55.4624 14.428 55.4624 13.76C55.4624 13.08 55.5984 12.484 55.8704 11.972C56.1424 11.46 56.5204 11.06 57.0044 10.772C57.4884 10.484 58.0484 10.34 58.6844 10.34C59.3364 10.34 59.9044 10.486 60.3884 10.778C60.8724 11.07 61.2484 11.474 61.5164 11.99C61.7844 12.502 61.9184 13.092 61.9184 13.76C61.9184 14.432 61.7824 15.026 61.5104 15.542C61.2424 16.054 60.8664 16.456 60.3824 16.748C59.8984 17.036 59.3324 17.18 58.6844 17.18ZM58.6844 15.824C59.2604 15.824 59.6884 15.632 59.9684 15.248C60.2484 14.864 60.3884 14.368 60.3884 13.76C60.3884 13.132 60.2464 12.632 59.9624 12.26C59.6784 11.884 59.2524 11.696 58.6844 11.696C58.2964 11.696 57.9764 11.784 57.7244 11.96C57.4764 12.132 57.2924 12.374 57.1724 12.686C57.0524 12.994 56.9924 13.352 56.9924 13.76C56.9924 14.388 57.1344 14.89 57.4184 15.266C57.7064 15.638 58.1284 15.824 58.6844 15.824ZM71.0224 17L71.0224 13.064C71.0224 12.62 70.9124 12.274 70.6924 12.026C70.4724 11.774 70.1744 11.648 69.7984 11.648C69.5664 11.648 69.3584 11.702 69.1744 11.81C68.9904 11.914 68.8444 12.07 68.7364 12.278C68.6284 12.482 68.5744 12.726 68.5744 13.01L67.9324 12.632C67.9284 12.184 68.0284 11.79 68.2324 11.45C68.4404 11.106 68.7204 10.838 69.0724 10.646C69.4244 10.454 69.8164 10.358 70.2484 10.358C70.9644 10.358 71.5124 10.574 71.8924 11.006C72.2764 11.434 72.4684 11.998 72.4684 12.698L72.4684 17L71.0224 17ZM63.2284 17L63.2284 10.52L64.5064 10.52L64.5064 12.53L64.6864 12.53L64.6864 17L63.2284 17ZM67.1344 17L67.1344 13.082C67.1344 12.63 67.0244 12.278 66.8044 12.026C66.5844 11.774 66.2844 11.648 65.9044 11.648C65.5364 11.648 65.2404 11.774 65.0164 12.026C64.7964 12.278 64.6864 12.606 64.6864 13.01L64.0384 12.578C64.0384 12.158 64.1424 11.78 64.3504 11.444C64.5584 11.108 64.8384 10.844 65.1904 10.652C65.5464 10.456 65.9444 10.358 66.3844 10.358C66.8684 10.358 67.2724 10.462 67.5964 10.67C67.9244 10.874 68.1684 11.154 68.3284 11.51C68.4924 11.862 68.5744 12.26 68.5744 12.704L68.5744 17L67.1344 17ZM74.5974 17L74.5974 10.418C74.5974 10.254 74.6034 10.074 74.6154 9.878C74.6274 9.678 74.6614 9.48 74.7174 9.284C74.7734 9.088 74.8754 8.91 75.0234 8.75C75.2074 8.546 75.4054 8.406 75.6174 8.33C75.8334 8.25 76.0454 8.206 76.2534 8.198C76.4614 8.186 76.6434 8.18 76.7994 8.18L77.6094 8.18L77.6094 9.356L76.8594 9.356C76.5834 9.356 76.3774 9.426 76.2414 9.566C76.1094 9.702 76.0434 9.882 76.0434 10.106L76.0434 17L74.5974 17ZM73.5534 11.654L73.5534 10.52L77.6094 10.52L77.6094 11.654L73.5534 11.654ZM81.1961 17.18C80.5481 17.18 79.9821 17.034 79.4981 16.742C79.0141 16.45 78.6381 16.048 78.3701 15.536C78.1061 15.02 77.9741 14.428 77.9741 13.76C77.9741 13.08 78.1101 12.484 78.3821 11.972C78.6541 11.46 79.0321 11.06 79.5161 10.772C80.0001 10.484 80.5601 10.34 81.1961 10.34C81.8481 10.34 82.4161 10.486 82.9001 10.778C83.3841 11.07 83.7601 11.474 84.0281 11.99C84.2961 12.502 84.4301 13.092 84.4301 13.76C84.4301 14.432 84.2941 15.026 84.0221 15.542C83.7541 16.054 83.3781 16.456 82.8941 16.748C82.4101 17.036 81.8441 17.18 81.1961 17.18ZM81.1961 15.824C81.7721 15.824 82.2001 15.632 82.4801 15.248C82.7601 14.864 82.9001 14.368 82.9001 13.76C82.9001 13.132 82.7581 12.632 82.4741 12.26C82.1901 11.884 81.7641 11.696 81.1961 11.696C80.8081 11.696 80.4881 11.784 80.2361 11.96C79.9881 12.132 79.8041 12.374 79.6841 12.686C79.5641 12.994 79.5041 13.352 79.5041 13.76C79.5041 14.388 79.6461 14.89 79.9301 15.266C80.2181 15.638 80.6401 15.824 81.1961 15.824ZM85.7521 17L85.7521 10.52L87.0301 10.52L87.0301 12.098L86.8741 11.894C86.9541 11.678 87.0601 11.482 87.1921 11.306C87.3281 11.126 87.4901 10.978 87.6781 10.862C87.8381 10.754 88.0141 10.67 88.2061 10.61C88.4021 10.546 88.6021 10.508 88.8061 10.496C89.0101 10.48 89.2081 10.488 89.4001 10.52L89.4001 11.87C89.2081 11.814 88.9861 11.796 88.7341 11.816C88.4861 11.836 88.2621 11.906 88.0621 12.026C87.8621 12.134 87.6981 12.272 87.5701 12.44C87.4461 12.608 87.3541 12.8 87.2941 13.016C87.2341 13.228 87.2041 13.458 87.2041 13.706L87.2041 17L85.7521 17ZM94.3431 17C93.9151 17.08 93.4951 17.114 93.0831 17.102C92.6751 17.094 92.3091 17.02 91.9851 16.88C91.6611 16.736 91.4151 16.51 91.2471 16.202C91.0991 15.922 91.0211 15.636 91.0131 15.344C91.0051 15.052 91.0011 14.722 91.0011 14.354L91.0011 8.72L92.4411 8.72L92.4411 14.27C92.4411 14.53 92.4431 14.758 92.4471 14.954C92.4551 15.15 92.4971 15.31 92.5731 15.434C92.7171 15.674 92.9471 15.808 93.2631 15.836C93.5791 15.864 93.9391 15.848 94.3431 15.788L94.3431 17ZM89.8251 11.654L89.8251 10.52L94.3431 10.52L94.3431 11.654L89.8251 11.654ZM97.5485 17.18C97.0805 17.18 96.6845 17.092 96.3605 16.916C96.0365 16.736 95.7905 16.498 95.6225 16.202C95.4585 15.906 95.3765 15.58 95.3765 15.224C95.3765 14.912 95.4285 14.632 95.5325 14.384C95.6365 14.132 95.7965 13.916 96.0125 13.736C96.2285 13.552 96.5085 13.402 96.8525 13.286C97.1125 13.202 97.4165 13.126 97.7645 13.058C98.1165 12.99 98.4965 12.928 98.9045 12.872C99.3165 12.812 99.7465 12.748 100.194 12.68L99.6785 12.974C99.6825 12.526 99.5825 12.196 99.3785 11.984C99.1745 11.772 98.8305 11.666 98.3465 11.666C98.0545 11.666 97.7725 11.734 97.5005 11.87C97.2285 12.006 97.0385 12.24 96.9305 12.572L95.6105 12.158C95.7705 11.61 96.0745 11.17 96.5225 10.838C96.9745 10.506 97.5825 10.34 98.3465 10.34C98.9225 10.34 99.4285 10.434 99.8645 10.622C100.304 10.81 100.63 11.118 100.842 11.546C100.958 11.774 101.028 12.008 101.052 12.248C101.076 12.484 101.088 12.742 101.088 13.022L101.088 17L99.8225 17L99.8225 15.596L100.032 15.824C99.7405 16.292 99.3985 16.636 99.0065 16.856C98.6185 17.072 98.1325 17.18 97.5485 17.18ZM97.8365 16.028C98.1645 16.028 98.4445 15.97 98.6765 15.854C98.9085 15.738 99.0925 15.596 99.2285 15.428C99.3685 15.26 99.4625 15.102 99.5105 14.954C99.5865 14.77 99.6285 14.56 99.6365 14.324C99.6485 14.084 99.6545 13.89 99.6545 13.742L100.098 13.874C99.6625 13.942 99.2885 14.002 98.9765 14.054C98.6645 14.106 98.3965 14.156 98.1725 14.204C97.9485 14.248 97.7505 14.298 97.5785 14.354C97.4105 14.414 97.2685 14.484 97.1525 14.564C97.0365 14.644 96.9465 14.736 96.8825 14.84C96.8225 14.944 96.7925 15.066 96.7925 15.206C96.7925 15.366 96.8325 15.508 96.9125 15.632C96.9925 15.752 97.1085 15.848 97.2605 15.92C97.4165 15.992 97.6085 16.028 97.8365 16.028ZM105.765 17.18C105.133 17.18 104.603 17.03 104.175 16.73C103.747 16.43 103.425 16.022 103.209 15.506C102.993 14.986 102.885 14.404 102.885 13.76C102.885 13.108 102.993 12.524 103.209 12.008C103.425 11.492 103.741 11.086 104.157 10.79C104.577 10.49 105.095 10.34 105.711 10.34C106.323 10.34 106.853 10.49 107.301 10.79C107.753 11.086 108.103 11.492 108.351 12.008C108.599 12.52 108.723 13.104 108.723 13.76C108.723 14.408 108.601 14.99 108.357 15.506C108.113 16.022 107.769 16.43 107.325 16.73C106.881 17.03 106.361 17.18 105.765 17.18ZM102.639 17L102.639 8.36001L104.097 8.36001L104.097 12.452L103.917 12.452L103.917 17L102.639 17ZM105.543 15.884C105.919 15.884 106.229 15.79 106.473 15.602C106.717 15.414 106.897 15.16 107.013 14.84C107.133 14.516 107.193 14.156 107.193 13.76C107.193 13.368 107.133 13.012 107.013 12.692C106.893 12.368 106.707 12.112 106.455 11.924C106.203 11.732 105.883 11.636 105.495 11.636C105.127 11.636 104.827 11.726 104.595 11.906C104.363 12.082 104.191 12.33 104.079 12.65C103.971 12.966 103.917 13.336 103.917 13.76C103.917 14.18 103.971 14.55 104.079 14.87C104.191 15.19 104.365 15.44 104.601 15.62C104.841 15.796 105.155 15.884 105.543 15.884ZM110.165 17L110.165 8.18001L111.611 8.18001L111.611 17L110.165 17ZM116.354 17.18C115.698 17.18 115.122 17.038 114.626 16.754C114.13 16.47 113.742 16.076 113.462 15.572C113.186 15.068 113.048 14.488 113.048 13.832C113.048 13.124 113.184 12.51 113.456 11.99C113.728 11.466 114.106 11.06 114.59 10.772C115.074 10.484 115.634 10.34 116.27 10.34C116.942 10.34 117.512 10.498 117.98 10.814C118.452 11.126 118.802 11.568 119.03 12.14C119.258 12.712 119.344 13.386 119.288 14.162L117.854 14.162L117.854 13.634C117.85 12.93 117.726 12.416 117.482 12.092C117.238 11.768 116.854 11.606 116.33 11.606C115.738 11.606 115.298 11.79 115.01 12.158C114.722 12.522 114.578 13.056 114.578 13.76C114.578 14.416 114.722 14.924 115.01 15.284C115.298 15.644 115.718 15.824 116.27 15.824C116.626 15.824 116.932 15.746 117.188 15.59C117.448 15.43 117.648 15.2 117.788 14.9L119.216 15.332C118.968 15.916 118.584 16.37 118.064 16.694C117.548 17.018 116.978 17.18 116.354 17.18ZM114.122 14.162L114.122 13.07L118.58 13.07L118.58 14.162L114.122 14.162Z" fill="black"/>
<path d="M22 14L10 14L10 17.5652C10 17.736 9.79958 17.8282 9.66984 17.717L3 12L9.66984 6.28299C9.79958 6.17179 10 6.26397 10 6.43484L10 10L22 10" stroke="#222222"/>
</svg>
