<svg width="26" height="26" viewBox="0 0 26 26" fill="none" xmlns="http://www.w3.org/2000/svg">
<path d="M14.8594 9.55428C13.2567 10.741 11.5975 11.9729 10.4669 12.8028C8.39036 14.3269 8.13733 14.4631 7.76234 14.7054C6.77925 15.3406 6.1295 15.8333 5.88237 16.0435C5.80414 16.11 5.73069 16.1645 5.5925 16.2674C5.46612 16.3614 5.27868 16.501 5.08088 16.6795C4.53449 17.1727 4.17795 17.4962 3.92539 17.7216C3.65796 17.9602 3.57229 18.0295 3.54686 18.0483C3.53741 18.0553 3.471 18.1039 3.39536 18.1716C3.35758 18.2055 3.11942 18.4119 2.9451 18.7613C2.84725 18.9575 2.71332 19.3096 2.74346 19.7643C2.77673 20.2658 2.99684 20.6941 3.29401 20.9991C3.76522 21.4828 4.3254 21.5572 4.39279 21.5681C4.67408 21.6133 4.91705 21.5864 4.95667 21.5827C5.05322 21.5736 5.15161 21.5595 5.24232 21.545C5.59378 21.4889 6.25096 21.3573 7.48304 21.0861C9.9936 20.5334 14.9386 19.3947 18.9109 18.7474C21.7047 18.2921 23.9233 18.1011 26 18.0644V21.6667C26 24.0599 24.0599 26 21.6667 26H4.33333C1.9401 26 6.97991e-08 24.0599 0 21.6667V10.9707C5.58636 10.4331 10.9897 9.91437 14.8594 9.55428ZM21.6667 0C24.0599 2.79178e-07 26 1.9401 26 4.33333V14.1639C23.7188 14.2009 21.2961 14.4073 18.2838 14.8982C16.5356 15.1831 14.6098 15.5591 12.7861 15.9383C14.9271 14.3667 18.6897 11.5562 20.708 10.0932C21.1639 9.76269 21.6531 9.41554 21.9743 9.13957C22.105 9.0273 22.4138 8.75929 22.6334 8.38208C22.7496 8.18264 22.9556 7.76118 22.9237 7.19782C22.8864 6.53758 22.5463 6.02812 22.1582 5.7167C21.8305 5.45384 21.4967 5.34852 21.3237 5.30304C21.1286 5.25177 20.9474 5.22911 20.811 5.21735C20.5393 5.19393 20.2417 5.19756 19.9594 5.20868C19.3856 5.23127 18.5899 5.29893 17.594 5.38768C13.9775 5.70995 7.15481 6.36399 0 7.05246V4.33333C2.79196e-07 1.9401 1.9401 6.97946e-08 4.33333 0H21.6667Z" fill="#050E27"/>
</svg>
