<svg width="135" height="24" viewBox="0 0 135 24" fill="none" xmlns="http://www.w3.org/2000/svg">
<path d="M126.696 24C124.947 24 123.411 23.6213 122.088 22.864C120.765 22.1067 119.731 21.056 118.984 19.712C118.248 18.368 117.88 16.8213 117.88 15.072C117.88 13.184 118.243 11.5467 118.968 10.16C119.693 8.76268 120.701 7.68001 121.992 6.91201C123.283 6.14401 124.776 5.76001 126.472 5.76001C128.264 5.76001 129.784 6.18134 131.032 7.02401C132.291 7.85601 133.224 9.03468 133.832 10.56C134.44 12.0853 134.669 13.8827 134.52 15.952H130.696V14.544C130.685 12.6667 130.355 11.296 129.704 10.432C129.053 9.56801 128.029 9.13601 126.632 9.13601C125.053 9.13601 123.88 9.62668 123.112 10.608C122.344 11.5787 121.96 13.0027 121.96 14.88C121.96 16.6293 122.344 17.984 123.112 18.944C123.88 19.904 125 20.384 126.472 20.384C127.421 20.384 128.237 20.176 128.92 19.76C129.613 19.3333 130.147 18.72 130.52 17.92L134.328 19.072C133.667 20.6293 132.643 21.84 131.256 22.704C129.88 23.568 128.36 24 126.696 24ZM120.744 15.952V13.04H132.632V15.952H120.744Z" fill="#00A47D"/>
<path d="M108.591 23.52V0H112.447V23.52H108.591Z" fill="#00A47D"/>
<path d="M98.0225 23.52V0H101.878V23.52H98.0225Z" fill="#00A47D"/>
<path d="M87.4537 3.61608V0.0800781H91.3097V3.61608H87.4537ZM87.4537 23.5201V6.24008H91.3097V23.5201H87.4537Z" fill="#00A47D"/>
<path d="M70.8427 23.52L63.5787 0.47998H67.5467L73.6267 19.776L79.7867 0.47998H83.7547L76.4907 23.52H70.8427Z" fill="#00A47D"/>
<path d="M51.2368 24C49.6474 24 48.2608 23.6 47.0768 22.8C45.8928 22 44.9754 20.912 44.3248 19.536C43.6741 18.16 43.3488 16.608 43.3488 14.88C43.3488 13.1306 43.6741 11.5733 44.3248 10.208C44.9861 8.83198 45.9194 7.74931 47.1248 6.95998C48.3301 6.15998 49.7488 5.75998 51.3808 5.75998C53.0234 5.75998 54.3994 6.15998 55.5088 6.95998C56.6288 7.74931 57.4768 8.83198 58.0528 10.208C58.6288 11.584 58.9168 13.1413 58.9168 14.88C58.9168 16.5973 58.6288 18.1493 58.0528 19.536C57.4768 20.912 56.6181 22 55.4768 22.8C54.3354 23.6 52.9221 24 51.2368 24ZM51.8288 20.544C52.8634 20.544 53.6954 20.3093 54.3248 19.84C54.9648 19.36 55.4288 18.6933 55.7168 17.84C56.0154 16.9866 56.1648 16 56.1648 14.88C56.1648 13.7493 56.0154 12.7626 55.7168 11.92C55.4288 11.0666 54.9754 10.4053 54.3568 9.93598C53.7381 9.45598 52.9381 9.21598 51.9568 9.21598C50.9221 9.21598 50.0688 9.47198 49.3968 9.98398C48.7248 10.4853 48.2288 11.168 47.9088 12.032C47.5888 12.8853 47.4288 13.8346 47.4288 14.88C47.4288 15.936 47.5834 16.896 47.8928 17.76C48.2128 18.6133 48.6981 19.2906 49.3488 19.792C49.9994 20.2933 50.8261 20.544 51.8288 20.544ZM56.1648 23.52V11.392H55.6848V0.47998H59.5728V23.52H56.1648Z" fill="#011510"/>
<path d="M31.3148 24C29.5654 24 28.0294 23.6213 26.7068 22.864C25.3841 22.1067 24.3494 21.056 23.6028 19.712C22.8668 18.368 22.4988 16.8213 22.4988 15.072C22.4988 13.184 22.8614 11.5467 23.5868 10.16C24.3121 8.76268 25.3201 7.68001 26.6108 6.91201C27.9014 6.14401 29.3948 5.76001 31.0908 5.76001C32.8828 5.76001 34.4028 6.18134 35.6508 7.02401C36.9094 7.85601 37.8428 9.03468 38.4508 10.56C39.0588 12.0853 39.2881 13.8827 39.1388 15.952H35.3148V14.544C35.3041 12.6667 34.9734 11.296 34.3228 10.432C33.6721 9.56801 32.6481 9.13601 31.2508 9.13601C29.6721 9.13601 28.4988 9.62668 27.7308 10.608C26.9628 11.5787 26.5788 13.0027 26.5788 14.88C26.5788 16.6293 26.9628 17.984 27.7308 18.944C28.4988 19.904 29.6188 20.384 31.0908 20.384C32.0401 20.384 32.8561 20.176 33.5388 19.76C34.2321 19.3333 34.7654 18.72 35.1388 17.92L38.9468 19.072C38.2854 20.6293 37.2614 21.84 35.8748 22.704C34.4988 23.568 32.9788 24 31.3148 24ZM25.3628 15.952V13.04H37.2508V15.952H25.3628Z" fill="#011510"/>
<path d="M0 23.52V22.992L11.36 4.09598H0.8V0.47998H18.032V1.02398L6.736 19.888H17.76V23.52H0Z" fill="#011510"/>
</svg>
